<?xml version="1.0" encoding="UTF-8"?>
<svg viewBox="0 0 686.98206 673.65302" xmlns="http://www.w3.org/2000/svg" xmlns:xlink="http://www.w3.org/1999/xlink">
 <defs>
  <linearGradient id="l">
   <stop stop-color="#ffcaa7" offset="0"/>
   <stop stop-color="#ff9b58" offset="1"/>
  </linearGradient>
  <linearGradient id="b">
   <stop stop-color="#b3b3b3" offset="0"/>
   <stop stop-color="#b3b3b3" stop-opacity="0" offset="1"/>
  </linearGradient>
  <linearGradient id="j">
   <stop stop-color="#eef8fb" offset="0"/>
   <stop stop-color="#91d1e1" offset="1"/>
  </linearGradient>
  <linearGradient id="k">
   <stop stop-color="#a04" offset="0"/>
   <stop stop-color="#f299bd" offset="1"/>
  </linearGradient>
  <linearGradient id="g" x1="-330.79" x2="-353.86" y1="1453.8" y2="1480.2" gradientUnits="userSpaceOnUse">
   <stop stop-color="#d40000" offset="0"/>
   <stop stop-color="#930000" offset="1"/>
  </linearGradient>
  <linearGradient id="c" x1="-587.42" x2="-556.76" y1="834.25" y2="855.97" gradientUnits="userSpaceOnUse">
   <stop stop-color="#ff0707" offset="0"/>
   <stop stop-color="#8a0000" offset="1"/>
  </linearGradient>
  <linearGradient id="i" x1="-515.34" x2="-480.56" gradientUnits="userSpaceOnUse" xlink:href="#j"/>
  <linearGradient id="h" x1="-497.89" x2="-517.72" y1="913.31" y2="900.73" gradientTransform="matrix(.88833 0 0 1.1095 -55.731 -100.32)" gradientUnits="userSpaceOnUse" xlink:href="#k"/>
  <linearGradient id="n" x1="-578.22" x2="-543.45" gradientUnits="userSpaceOnUse" xlink:href="#j"/>
  <linearGradient id="m" x1="-497.89" x2="-517.72" y1="913.31" y2="900.73" gradientTransform="matrix(.88833 0 0 1.1095 -118.61 -101.58)" gradientUnits="userSpaceOnUse" xlink:href="#k"/>
  <linearGradient id="e" x1="-445.64" x2="-410.86" gradientUnits="userSpaceOnUse" xlink:href="#j"/>
  <linearGradient id="d" x1="-497.89" x2="-517.72" y1="913.31" y2="900.73" gradientTransform="matrix(.88833 0 0 1.1095 13.97 -101.33)" gradientUnits="userSpaceOnUse" xlink:href="#k"/>
  <linearGradient id="an" x1="-355.56" x2="-311.89" y1="228.64" y2="257.63" gradientUnits="userSpaceOnUse" xlink:href="#b"/>
  <linearGradient id="am" x1="-813.3" x2="-747.27" y1="288.59" y2="328.49" gradientTransform="matrix(-.36259 0 0 .51656 -593.3 80.436)" gradientUnits="userSpaceOnUse" xlink:href="#b"/>
  <linearGradient id="al" x1="-813.3" x2="-747.27" y1="288.59" y2="328.49" gradientTransform="matrix(-.54757 0 0 .72651 -698.94 26.436)" gradientUnits="userSpaceOnUse" xlink:href="#b"/>
  <linearGradient id="ak" x1="-338.96" x2="-295.29" y1="233.65" y2="262.64" gradientUnits="userSpaceOnUse" xlink:href="#b"/>
  <linearGradient id="aj" x1="-322.95" x2="-279.28" y1="233.27" y2="262.26" gradientUnits="userSpaceOnUse" xlink:href="#b"/>
  <linearGradient id="ai" x1="-813.3" x2="-747.27" y1="288.59" y2="328.49" gradientTransform="matrix(-.52623 0 0 .72651 -665.51 28.955)" gradientUnits="userSpaceOnUse" xlink:href="#b"/>
  <linearGradient id="ah" x1="-813.3" x2="-747.27" y1="288.59" y2="328.49" gradientTransform="matrix(-.66141 0 0 .72651 -839.12 19.342)" gradientUnits="userSpaceOnUse" xlink:href="#b"/>
  <linearGradient id="ag" x1="-813.3" x2="-747.27" y1="288.59" y2="328.49" gradientTransform="matrix(.61161 0 0 .50713 129.38 75.242)" gradientUnits="userSpaceOnUse" xlink:href="#b"/>
  <linearGradient id="af" x1="-397.2" x2="-360.1" y1="227.29" y2="251.38" gradientUnits="userSpaceOnUse" xlink:href="#b"/>
  <linearGradient id="ae" x1="-813.3" x2="-747.27" y1="288.59" y2="328.49" gradientTransform="matrix(-.66141 0 0 .72651 -850.82 22.644)" gradientUnits="userSpaceOnUse" xlink:href="#b"/>
  <linearGradient id="ad" x1="-813.3" x2="-747.27" y1="288.59" y2="328.49" gradientTransform="matrix(-.66141 0 0 .72651 -870.19 15.761)" gradientUnits="userSpaceOnUse" xlink:href="#b"/>
  <linearGradient id="ac" x1="-424.38" x2="-380.7" y1="231.58" y2="260.56" gradientUnits="userSpaceOnUse" xlink:href="#b"/>
  <linearGradient id="ab" x1="-471.34" x2="-427.67" y1="228.64" y2="257.63" gradientUnits="userSpaceOnUse" xlink:href="#b"/>
  <linearGradient id="aa" x1="-813.3" x2="-747.27" y1="288.59" y2="328.49" gradientTransform="matrix(-.36259 0 0 .51656 -712.65 70.793)" gradientUnits="userSpaceOnUse" xlink:href="#b"/>
  <linearGradient id="z" x1="-813.3" x2="-747.27" y1="288.59" y2="328.49" gradientTransform="matrix(-.54757 0 0 .72651 -817.57 17.507)" gradientUnits="userSpaceOnUse" xlink:href="#b"/>
  <linearGradient id="y" x1="-458.31" x2="-414.64" y1="229.01" y2="258" gradientUnits="userSpaceOnUse" xlink:href="#b"/>
  <linearGradient id="x" x1="-441.94" x2="-398.27" y1="228.27" y2="257.26" gradientUnits="userSpaceOnUse" xlink:href="#b"/>
  <linearGradient id="w" x1="-813.3" x2="-747.27" y1="288.59" y2="328.49" gradientTransform="matrix(-.52623 0 0 .72651 -785.93 18.241)" gradientUnits="userSpaceOnUse" xlink:href="#b"/>
  <linearGradient id="v" x1="-813.3" x2="-747.27" y1="288.59" y2="328.49" gradientTransform="matrix(-.66141 0 0 .72651 -954.9 19.342)" gradientUnits="userSpaceOnUse" xlink:href="#b"/>
  <linearGradient id="u" x1="-813.3" x2="-747.27" y1="288.59" y2="328.49" gradientTransform="matrix(.61161 0 0 .50713 11.813 74.885)" gradientUnits="userSpaceOnUse" xlink:href="#b"/>
  <linearGradient id="t" x1="-517.62" x2="-480.52" y1="239.43" y2="263.53" gradientUnits="userSpaceOnUse" xlink:href="#b"/>
  <linearGradient id="s" x1="-813.3" x2="-747.27" y1="288.59" y2="328.49" gradientTransform="matrix(-.66141 0 0 .72651 -966.6 22.644)" gradientUnits="userSpaceOnUse" xlink:href="#b"/>
  <linearGradient id="r" x1="-813.3" x2="-747.27" y1="288.59" y2="328.49" gradientTransform="matrix(-.66141 0 0 .72651 -983.12 26.475)" gradientUnits="userSpaceOnUse" xlink:href="#b"/>
  <linearGradient id="q" x1="-538.73" x2="-495.06" y1="242.29" y2="271.28" gradientUnits="userSpaceOnUse" xlink:href="#b"/>
  <linearGradient id="p" x1="-596.33" x2="-194.14" gradientUnits="userSpaceOnUse" xlink:href="#l"/>
  <linearGradient id="o" x1="-566.72" x2="-213.81" gradientUnits="userSpaceOnUse" xlink:href="#l"/>
  <radialGradient id="f" cx="-653.57" cy="1228.8" r="25" gradientTransform="matrix(1 0 0 .6 0 491.52)" gradientUnits="userSpaceOnUse">
   <stop stop-color="#fff" offset="0"/>
   <stop stop-color="#fff" stop-opacity="0" offset="1"/>
  </radialGradient>
  <radialGradient id="a" cx="-581.25" cy="841.65" r="4.4643" gradientUnits="userSpaceOnUse">
   <stop stop-color="#fff" stop-opacity=".77431" offset="0"/>
   <stop stop-color="#fff" stop-opacity="0" offset="1"/>
  </radialGradient>
 </defs>
 <g transform="matrix(1.2178 0 0 1.2178 824.68 -243.74)">
  <path d="m-319.13 603.19c-33.142 0-63.824 3.0957-88.9 8.3437-17.4-2.0128-36.329-3.1232-56.161-3.1232-84.573 0-153.22 20.105-153.22 44.887 0 2.5729 0.74511 5.0908 2.1658 7.5458-37.791 9.5575-61.953 24.109-61.953 40.396 0 28.763 75.321 52.091 168.1 52.091 45.781 0 87.287-5.6728 117.61-14.886 29.53 7.9753 68.121 12.812 110.33 12.812 92.784 0 168.08-23.351 168.08-52.114 0-15.73-22.515-29.836-58.1-39.393 3.4148-3.7224 5.2383-7.6351 5.2383-11.672 0-24.782-68.622-44.887-153.2-44.887z" fill="#de87aa"/>
  <g transform="matrix(1.0711 0 0 1.076 33.821 -15.727)" stroke="#a40" stroke-linecap="round" stroke-linejoin="round">
   <path d="m-594.47 466.19s18.784 175.34 18.906 175.65c6.25 15.873 80.507 33.755 179.72 33.755 92.246 0 168.33-13.073 178.56-29.888l21.28-179.35-398.47-0.16609z" fill="url(#p)" stroke-width="3.7261"/>
   <path transform="matrix(1.0076 0 0 1.0156 2.483 -21.107)" d="m-196.98 479.61a197.99 31.315 0 1 1 -395.98 0 197.99 31.315 0 1 1 395.98 0z" fill="#f95" stroke-width="3.6835"/>
  </g>
  <path d="m-564.72 361.57s16.448 113.87 16.555 114.07c5.4727 10.308 70.494 21.921 157.37 21.921 80.774 0 147.4-8.4898 156.35-19.41l18.633-116.47-348.91-0.10786z" fill="url(#o)" stroke="#a40" stroke-linecap="round" stroke-linejoin="round" stroke-width="4"/>
  <path transform="matrix(.88225 0 0 .65953 -42.012 45.108)" d="m-196.98 479.61a197.99 31.315 0 1 1 -395.98 0 197.99 31.315 0 1 1 395.98 0z" fill="#f95" stroke="#a40" stroke-linecap="round" stroke-linejoin="round" stroke-width="5.2438"/>
  <g transform="matrix(.849 0 0 .849 -44.292 -429.3)">
   <path d="m-444.64 845.41h32.776v62.776h-32.776z" fill="url(#e)" stroke="#37abc8" stroke-linecap="round" stroke-width="2"/>
   <path transform="matrix(.97148 0 0 .641 56.296 302.88)" d="m-481.84 845.28a16.92 7.3236 0 1 1 -33.84 0 16.92 7.3236 0 1 1 33.84 0z" fill="#87cdde" stroke="#00aad4" stroke-linecap="round" stroke-width="2.5217"/>
   <path d="m-445.03 844.45c-1.4231 6.9429-0.17587 14.02-0.03981 21.016 0.54153 2.2063 4.4174 2.0751 4.6687-0.24407 1.2351-2.1787 4.8074 0.21237 3.3959 2.2503-0.49153 2.1398 2.3488 1.5268 3.3517-0.63393 0.94839-1.5587 3.2951 0.15589 5.0624-0.80954 1.8494-1.676 0.50887-6.4764 3.1545-7.2196 2.4029-0.77369 5.656 0.73095 5.8164 3.4509-0.4596 1.6984 3.5446 2.2582 5.0865 1.4107 2.2396-0.31027 3.7006-2.2112 3.2466-4.4521 0.00744-2.8899-0.56231-5.7764-0.21588-8.6643 1.4296-1.6527-0.51404-5.102-2.6606-3.911-2.1212 1.1218-4.3597 2.2797-6.8254 2.2285-6.9522 0.84011-14.436 1.2243-20.856-2.0688-1.1787-0.60405-2.2976-1.3608-3.185-2.353z" fill="#99c9d5" fill-rule="evenodd" stroke="#00aad4" stroke-linecap="round" stroke-linejoin="round"/>
   <path d="m-441.46 897.64c-1.32 0-3.6258 0.11287-4.8601 0.31874-0.21426 4.524 0.04738 8.8499 1.0228 12.978 4.1845 3.0147 10.2 4.9027 16.882 4.9027s12.697-1.888 16.882-4.9027c0.98139-4.5493 1.3283-8.4052 1.2785-13.054-1.0776-0.15459-3.473-0.24286-4.6124-0.24286-5.3655 0-10.148 1.7968-13.291 4.6143-3.1422-2.8181-7.9356-4.6143-13.302-4.6143z" fill="url(#d)" stroke="#800033" stroke-linecap="round" stroke-linejoin="round" stroke-width="1.4892"/>
   <g transform="matrix(-1.0835 -.14727 -.1766 .90359 -681.35 -11.03)" fill-rule="evenodd">
    <path d="m-377.87 881.3c5.1682-4.9673 9.2059-4.8616 11.167-9.0269 1.9835-4.2126 1.3616-8.216-2.6943-10.962-4.0305-2.7288-3.3571-3.4713-6.2857-9.9399-0.47702 4.6478-2.939 6.5531-5.9649 9.2353s-4.7632 3.6675-4.834 8.7158 6.773 6.0984 8.6118 11.978z" fill="#f60"/>
    <path d="m-377.53 879.26c3.6436-4.0526 7.7402-4.3236 9.1229-7.7218 1.3984-3.4369 0.51349-7.4174-2.3459-9.6578-2.8415-2.2263-2.9918-1.6714-5.0565-6.9489-0.3363 3.792-2.072 5.3464-4.2053 7.5348s-4.6081 2.8136-4.658 6.9323 5.8464 5.0647 7.1428 9.8615z" fill="#fc0"/>
    <path d="m-376.54 875.2c2.3615-1.9453 5.3883-2.2115 6.2505-3.893 0.87202-1.7007 0.40049-4.0444-1.5515-5.2663-1.9398-1.2143-2.3619-3.324-3.838-6.0622-0.15567 1.9126-2.5276 5.046-3.9136 6.0914s-2.4532 1.999-1.6551 4.0456c0.7909 2.028 3.7539 2.6133 4.7077 5.0845z" fill="#fff"/>
   </g>
   <path d="m-427.63 827.18c-0.71365 1.8603-1.9023 4.2318-1.647 6.3613 0.14655 3.3904 1.7419 5.0438 2.1742 8.3668l-0.02363 0.1803-0.04875 0.17687" fill="none" stroke="#9a1600" stroke-linecap="round" stroke-width="1.9139"/>
  </g>
  <g transform="matrix(.849 0 0 .849 -86.971 -426.78)">
   <path d="m-444.64 845.41h32.776v62.776h-32.776z" fill="url(#e)" stroke="#37abc8" stroke-linecap="round" stroke-width="2"/>
   <path transform="matrix(.97148 0 0 .641 56.296 302.88)" d="m-481.84 845.28a16.92 7.3236 0 1 1 -33.84 0 16.92 7.3236 0 1 1 33.84 0z" fill="#87cdde" stroke="#00aad4" stroke-linecap="round" stroke-width="2.5217"/>
   <path d="m-445.03 844.45c-1.4231 6.9429-0.17587 14.02-0.03981 21.016 0.54153 2.2063 4.4174 2.0751 4.6687-0.24407 1.2351-2.1787 4.8074 0.21237 3.3959 2.2503-0.49153 2.1398 2.3488 1.5268 3.3517-0.63393 0.94839-1.5587 3.2951 0.15589 5.0624-0.80954 1.8494-1.676 0.50887-6.4764 3.1545-7.2196 2.4029-0.77369 5.656 0.73095 5.8164 3.4509-0.4596 1.6984 3.5446 2.2582 5.0865 1.4107 2.2396-0.31027 3.7006-2.2112 3.2466-4.4521 0.00744-2.8899-0.56231-5.7764-0.21588-8.6643 1.4296-1.6527-0.51404-5.102-2.6606-3.911-2.1212 1.1218-4.3597 2.2797-6.8254 2.2285-6.9522 0.84011-14.436 1.2243-20.856-2.0688-1.1787-0.60405-2.2976-1.3608-3.185-2.353z" fill="#99c9d5" fill-rule="evenodd" stroke="#00aad4" stroke-linecap="round" stroke-linejoin="round"/>
   <path d="m-441.46 897.64c-1.32 0-3.6258 0.11287-4.8601 0.31874-0.21426 4.524 0.04738 8.8499 1.0228 12.978 4.1845 3.0147 10.2 4.9027 16.882 4.9027s12.697-1.888 16.882-4.9027c0.98139-4.5493 1.3283-8.4052 1.2785-13.054-1.0776-0.15459-3.473-0.24286-4.6124-0.24286-5.3655 0-10.148 1.7968-13.291 4.6143-3.1422-2.8181-7.9356-4.6143-13.302-4.6143z" fill="url(#d)" stroke="#800033" stroke-linecap="round" stroke-linejoin="round" stroke-width="1.4892"/>
   <g transform="matrix(-1.0835 -.14727 -.1766 .90359 -681.35 -11.03)" fill-rule="evenodd">
    <path d="m-377.87 881.3c5.1682-4.9673 9.2059-4.8616 11.167-9.0269 1.9835-4.2126 1.3616-8.216-2.6943-10.962-4.0305-2.7288-3.3571-3.4713-6.2857-9.9399-0.47702 4.6478-2.939 6.5531-5.9649 9.2353s-4.7632 3.6675-4.834 8.7158 6.773 6.0984 8.6118 11.978z" fill="#f60"/>
    <path d="m-377.53 879.26c3.6436-4.0526 7.7402-4.3236 9.1229-7.7218 1.3984-3.4369 0.51349-7.4174-2.3459-9.6578-2.8415-2.2263-2.9918-1.6714-5.0565-6.9489-0.3363 3.792-2.072 5.3464-4.2053 7.5348s-4.6081 2.8136-4.658 6.9323 5.8464 5.0647 7.1428 9.8615z" fill="#fc0"/>
    <path d="m-376.54 875.2c2.3615-1.9453 5.3883-2.2115 6.2505-3.893 0.87202-1.7007 0.40049-4.0444-1.5515-5.2663-1.9398-1.2143-2.3619-3.324-3.838-6.0622-0.15567 1.9126-2.5276 5.046-3.9136 6.0914s-2.4532 1.999-1.6551 4.0456c0.7909 2.028 3.7539 2.6133 4.7077 5.0845z" fill="#fff"/>
   </g>
   <path d="m-427.63 827.18c-0.71365 1.8603-1.9023 4.2318-1.647 6.3613 0.14655 3.3904 1.7419 5.0438 2.1742 8.3668l-0.02363 0.1803-0.04875 0.17687" fill="none" stroke="#9a1600" stroke-linecap="round" stroke-width="1.9139"/>
  </g>
  <g transform="matrix(.849 0 0 .849 -125.1 -421.22)">
   <path d="m-444.64 845.41h32.776v62.776h-32.776z" fill="url(#e)" stroke="#37abc8" stroke-linecap="round" stroke-width="2"/>
   <path transform="matrix(.97148 0 0 .641 56.296 302.88)" d="m-481.84 845.28a16.92 7.3236 0 1 1 -33.84 0 16.92 7.3236 0 1 1 33.84 0z" fill="#87cdde" stroke="#00aad4" stroke-linecap="round" stroke-width="2.5217"/>
   <path d="m-445.03 844.45c-1.4231 6.9429-0.17587 14.02-0.03981 21.016 0.54153 2.2063 4.4174 2.0751 4.6687-0.24407 1.2351-2.1787 4.8074 0.21237 3.3959 2.2503-0.49153 2.1398 2.3488 1.5268 3.3517-0.63393 0.94839-1.5587 3.2951 0.15589 5.0624-0.80954 1.8494-1.676 0.50887-6.4764 3.1545-7.2196 2.4029-0.77369 5.656 0.73095 5.8164 3.4509-0.4596 1.6984 3.5446 2.2582 5.0865 1.4107 2.2396-0.31027 3.7006-2.2112 3.2466-4.4521 0.00744-2.8899-0.56231-5.7764-0.21588-8.6643 1.4296-1.6527-0.51404-5.102-2.6606-3.911-2.1212 1.1218-4.3597 2.2797-6.8254 2.2285-6.9522 0.84011-14.436 1.2243-20.856-2.0688-1.1787-0.60405-2.2976-1.3608-3.185-2.353z" fill="#99c9d5" fill-rule="evenodd" stroke="#00aad4" stroke-linecap="round" stroke-linejoin="round"/>
   <path d="m-441.46 897.64c-1.32 0-3.6258 0.11287-4.8601 0.31874-0.21426 4.524 0.04738 8.8499 1.0228 12.978 4.1845 3.0147 10.2 4.9027 16.882 4.9027s12.697-1.888 16.882-4.9027c0.98139-4.5493 1.3283-8.4052 1.2785-13.054-1.0776-0.15459-3.473-0.24286-4.6124-0.24286-5.3655 0-10.148 1.7968-13.291 4.6143-3.1422-2.8181-7.9356-4.6143-13.302-4.6143z" fill="url(#d)" stroke="#800033" stroke-linecap="round" stroke-linejoin="round" stroke-width="1.4892"/>
   <g transform="matrix(1.0835 -.14727 .1766 .90359 -174.92 -11.03)" fill-rule="evenodd">
    <path d="m-377.87 881.3c5.1682-4.9673 9.2059-4.8616 11.167-9.0269 1.9835-4.2126 1.3616-8.216-2.6943-10.962-4.0305-2.7288-3.3571-3.4713-6.2857-9.9399-0.47702 4.6478-2.939 6.5531-5.9649 9.2353s-4.7632 3.6675-4.834 8.7158 6.773 6.0984 8.6118 11.978z" fill="#f60"/>
    <path d="m-377.53 879.26c3.6436-4.0526 7.7402-4.3236 9.1229-7.7218 1.3984-3.4369 0.51349-7.4174-2.3459-9.6578-2.8415-2.2263-2.9918-1.6714-5.0565-6.9489-0.3363 3.792-2.072 5.3464-4.2053 7.5348s-4.6081 2.8136-4.658 6.9323 5.8464 5.0647 7.1428 9.8615z" fill="#fc0"/>
    <path d="m-376.54 875.2c2.3615-1.9453 5.3883-2.2115 6.2505-3.893 0.87202-1.7007 0.40049-4.0444-1.5515-5.2663-1.9398-1.2143-2.3619-3.324-3.838-6.0622-0.15567 1.9126-2.5276 5.046-3.9136 6.0914s-2.4532 1.999-1.6551 4.0456c0.7909 2.028 3.7539 2.6133 4.7077 5.0845z" fill="#fff"/>
   </g>
   <path d="m-427.63 827.18c-0.71365 1.8603-1.9023 4.2318-1.647 6.3613 0.14655 3.3904 1.7419 5.0438 2.1742 8.3668l-0.02363 0.1803-0.04875 0.17687" fill="none" stroke="#9a1600" stroke-linecap="round" stroke-width="1.9139"/>
  </g>
  <path d="m-525.12 413.09c-2.3235 0.00497-4.6704 1.0829-6.9687 3.75-7.035 8.1636-16.831 9.3584-24.156 5.8125 3.8989 26.92 7.6681 52.873 7.7188 52.969 5.4727 10.308 70.502 21.938 157.38 21.938 80.774 3e-5 147.39-8.4866 156.34-19.406l7.25-45.312c-6.4276 2.985-13.485 3.2457-19-1.0625-12.443-9.7199-21.761-13.614-33.688 0.28125s-19.908-1.6603-33-0.90625-32.436 20.512-44.094 11.156-28.678-16.837-39.594-5.9375-19.235 8.6859-28.281-3.2812-33.583 7.6217-44.375-2-12.959-8.0565-23.969 0.15625c-9.1174 6.8012-20.367-18.18-31.562-18.156z" fill="#ffc850" stroke="#a40" stroke-linecap="round" stroke-linejoin="round" stroke-width="2"/>
  <path transform="matrix(.14495 -.04655 .0629 .16703 -464.93 230.37)" d="m-1068.7 1150.3a107.08 53.538 0 1 1 -214.15 0 107.08 53.538 0 1 1 214.15 0z" fill-opacity=".32399"/>
  <path transform="matrix(.65451 0 0 .65451 -346.71 -489.27)" d="m-315.71 1466.6a24.286 24.286 0 1 1 -48.571 0 24.286 24.286 0 1 1 48.571 0z" fill="url(#g)" stroke="#800000" stroke-linecap="round" stroke-linejoin="round" stroke-width="3"/>
  <path transform="matrix(.42381 -.29453 .21288 .51015 -559.55 -354.61)" d="m-628.57 1228.8a25 15 0 1 1 -50 0 25 15 0 1 1 50 0z" fill="url(#f)"/>
  <path transform="matrix(.15117 -.04855 .0656 .17421 -410.99 232.89)" d="m-1068.7 1150.3a107.08 53.538 0 1 1 -214.15 0 107.08 53.538 0 1 1 214.15 0z" fill-opacity=".32399"/>
  <path transform="matrix(.68264 0 0 .68264 -287.69 -517.67)" d="m-315.71 1466.6a24.286 24.286 0 1 1 -48.571 0 24.286 24.286 0 1 1 48.571 0z" fill="url(#g)" stroke="#800000" stroke-linecap="round" stroke-linejoin="round" stroke-width="3"/>
  <path transform="matrix(.44202 -.30718 .22203 .53207 -509.67 -377.22)" d="m-628.57 1228.8a25 15 0 1 1 -50 0 25 15 0 1 1 50 0z" fill="url(#f)"/>
  <path transform="matrix(.16463 -.05287 .07145 .18972 -340.05 216.86)" d="m-1068.7 1150.3a107.08 53.538 0 1 1 -214.15 0 107.08 53.538 0 1 1 214.15 0z" fill-opacity=".32399"/>
  <path transform="matrix(.74342 0 0 .74342 -205.77 -600.52)" d="m-315.71 1466.6a24.286 24.286 0 1 1 -48.571 0 24.286 24.286 0 1 1 48.571 0z" fill="url(#g)" stroke="#800000" stroke-linecap="round" stroke-linejoin="round" stroke-width="3"/>
  <path transform="matrix(.48138 -.33453 .2418 .57945 -447.52 -447.57)" d="m-628.57 1228.8a25 15 0 1 1 -50 0 25 15 0 1 1 50 0z" fill="url(#f)"/>
  <path transform="matrix(.17899 -.05748 .07767 .20626 -259.73 195.68)" d="m-1068.7 1150.3a107.08 53.538 0 1 1 -214.15 0 107.08 53.538 0 1 1 214.15 0z" fill-opacity=".32399"/>
  <path transform="matrix(.80823 0 0 .80823 -113.75 -692.96)" d="m-315.71 1466.6a24.286 24.286 0 1 1 -48.571 0 24.286 24.286 0 1 1 48.571 0z" fill="url(#g)" stroke="#800000" stroke-linecap="round" stroke-linejoin="round" stroke-width="3"/>
  <path transform="matrix(.52334 -.3637 .26288 .62996 -376.57 -526.68)" d="m-628.57 1228.8a25 15 0 1 1 -50 0 25 15 0 1 1 50 0z" fill="url(#f)"/>
  <path transform="matrix(.16463 -.05287 .07145 .18972 -200.99 218.29)" d="m-1068.7 1150.3a107.08 53.538 0 1 1 -214.15 0 107.08 53.538 0 1 1 214.15 0z" fill-opacity=".32399"/>
  <path transform="matrix(.74342 0 0 .74342 -66.708 -599.09)" d="m-315.71 1466.6a24.286 24.286 0 1 1 -48.571 0 24.286 24.286 0 1 1 48.571 0z" fill="url(#g)" stroke="#800000" stroke-linecap="round" stroke-linejoin="round" stroke-width="3"/>
  <path transform="matrix(.48138 -.33453 .2418 .57945 -308.45 -446.15)" d="m-628.57 1228.8a25 15 0 1 1 -50 0 25 15 0 1 1 50 0z" fill="url(#f)"/>
  <path transform="matrix(.15117 -.04855 .0656 .17421 -148.21 235.03)" d="m-1068.7 1150.3a107.08 53.538 0 1 1 -214.15 0 107.08 53.538 0 1 1 214.15 0z" fill-opacity=".32399"/>
  <path transform="matrix(.68264 0 0 .68264 -24.914 -515.52)" d="m-315.71 1466.6a24.286 24.286 0 1 1 -48.571 0 24.286 24.286 0 1 1 48.571 0z" fill="url(#g)" stroke="#800000" stroke-linecap="round" stroke-linejoin="round" stroke-width="3"/>
  <path transform="matrix(.44202 -.30718 .22203 .53207 -246.9 -375.08)" d="m-628.57 1228.8a25 15 0 1 1 -50 0 25 15 0 1 1 50 0z" fill="url(#f)"/>
  <path transform="matrix(.14495 -.04655 .0629 .16703 -104.44 234.66)" d="m-1068.7 1150.3a107.08 53.538 0 1 1 -214.15 0 107.08 53.538 0 1 1 214.15 0z" fill-opacity=".32399"/>
  <path transform="matrix(.65451 0 0 .65451 13.776 -484.98)" d="m-315.71 1466.6a24.286 24.286 0 1 1 -48.571 0 24.286 24.286 0 1 1 48.571 0z" fill="url(#g)" stroke="#800000" stroke-linecap="round" stroke-linejoin="round" stroke-width="3"/>
  <path transform="matrix(.42381 -.29453 .21288 .51015 -199.06 -350.32)" d="m-628.57 1228.8a25 15 0 1 1 -50 0 25 15 0 1 1 50 0z" fill="url(#f)"/>
  <g transform="matrix(.849 0 0 .849 1.4174 -429.81)">
   <path d="m-444.64 845.41h32.776v62.776h-32.776z" fill="url(#e)" stroke="#37abc8" stroke-linecap="round" stroke-width="2"/>
   <path transform="matrix(.97148 0 0 .641 56.296 302.88)" d="m-481.84 845.28a16.92 7.3236 0 1 1 -33.84 0 16.92 7.3236 0 1 1 33.84 0z" fill="#87cdde" stroke="#00aad4" stroke-linecap="round" stroke-width="2.5217"/>
   <path d="m-445.03 844.45c-1.4231 6.9429-0.17587 14.02-0.03981 21.016 0.54153 2.2063 4.4174 2.0751 4.6687-0.24407 1.2351-2.1787 4.8074 0.21237 3.3959 2.2503-0.49153 2.1398 2.3488 1.5268 3.3517-0.63393 0.94839-1.5587 3.2951 0.15589 5.0624-0.80954 1.8494-1.676 0.50887-6.4764 3.1545-7.2196 2.4029-0.77369 5.656 0.73095 5.8164 3.4509-0.4596 1.6984 3.5446 2.2582 5.0865 1.4107 2.2396-0.31027 3.7006-2.2112 3.2466-4.4521 0.00744-2.8899-0.56231-5.7764-0.21588-8.6643 1.4296-1.6527-0.51404-5.102-2.6606-3.911-2.1212 1.1218-4.3597 2.2797-6.8254 2.2285-6.9522 0.84011-14.436 1.2243-20.856-2.0688-1.1787-0.60405-2.2976-1.3608-3.185-2.353z" fill="#99c9d5" fill-rule="evenodd" stroke="#00aad4" stroke-linecap="round" stroke-linejoin="round"/>
   <path d="m-441.46 897.64c-1.32 0-3.6258 0.11287-4.8601 0.31874-0.21426 4.524 0.04738 8.8499 1.0228 12.978 4.1845 3.0147 10.2 4.9027 16.882 4.9027s12.697-1.888 16.882-4.9027c0.98139-4.5493 1.3283-8.4052 1.2785-13.054-1.0776-0.15459-3.473-0.24286-4.6124-0.24286-5.3655 0-10.148 1.7968-13.291 4.6143-3.1422-2.8181-7.9356-4.6143-13.302-4.6143z" fill="url(#d)" stroke="#800033" stroke-linecap="round" stroke-linejoin="round" stroke-width="1.4892"/>
   <g transform="matrix(-1.0835 -.14727 -.1766 .90359 -681.35 -11.03)" fill-rule="evenodd">
    <path d="m-377.87 881.3c5.1682-4.9673 9.2059-4.8616 11.167-9.0269 1.9835-4.2126 1.3616-8.216-2.6943-10.962-4.0305-2.7288-3.3571-3.4713-6.2857-9.9399-0.47702 4.6478-2.939 6.5531-5.9649 9.2353s-4.7632 3.6675-4.834 8.7158 6.773 6.0984 8.6118 11.978z" fill="#f60"/>
    <path d="m-377.53 879.26c3.6436-4.0526 7.7402-4.3236 9.1229-7.7218 1.3984-3.4369 0.51349-7.4174-2.3459-9.6578-2.8415-2.2263-2.9918-1.6714-5.0565-6.9489-0.3363 3.792-2.072 5.3464-4.2053 7.5348s-4.6081 2.8136-4.658 6.9323 5.8464 5.0647 7.1428 9.8615z" fill="#fc0"/>
    <path d="m-376.54 875.2c2.3615-1.9453 5.3883-2.2115 6.2505-3.893 0.87202-1.7007 0.40049-4.0444-1.5515-5.2663-1.9398-1.2143-2.3619-3.324-3.838-6.0622-0.15567 1.9126-2.5276 5.046-3.9136 6.0914s-2.4532 1.999-1.6551 4.0456c0.7909 2.028 3.7539 2.6133 4.7077 5.0845z" fill="#fff"/>
   </g>
   <path d="m-427.63 827.18c-0.71365 1.8603-1.9023 4.2318-1.647 6.3613 0.14655 3.3904 1.7419 5.0438 2.1742 8.3668l-0.02363 0.1803-0.04875 0.17687" fill="none" stroke="#9a1600" stroke-linecap="round" stroke-width="1.9139"/>
  </g>
  <g transform="matrix(.849 0 0 .849 47.127 -426.27)">
   <path d="m-444.64 845.41h32.776v62.776h-32.776z" fill="url(#e)" stroke="#37abc8" stroke-linecap="round" stroke-width="2"/>
   <path transform="matrix(.97148 0 0 .641 56.296 302.88)" d="m-481.84 845.28a16.92 7.3236 0 1 1 -33.84 0 16.92 7.3236 0 1 1 33.84 0z" fill="#87cdde" stroke="#00aad4" stroke-linecap="round" stroke-width="2.5217"/>
   <path d="m-445.03 844.45c-1.4231 6.9429-0.17587 14.02-0.03981 21.016 0.54153 2.2063 4.4174 2.0751 4.6687-0.24407 1.2351-2.1787 4.8074 0.21237 3.3959 2.2503-0.49153 2.1398 2.3488 1.5268 3.3517-0.63393 0.94839-1.5587 3.2951 0.15589 5.0624-0.80954 1.8494-1.676 0.50887-6.4764 3.1545-7.2196 2.4029-0.77369 5.656 0.73095 5.8164 3.4509-0.4596 1.6984 3.5446 2.2582 5.0865 1.4107 2.2396-0.31027 3.7006-2.2112 3.2466-4.4521 0.00744-2.8899-0.56231-5.7764-0.21588-8.6643 1.4296-1.6527-0.51404-5.102-2.6606-3.911-2.1212 1.1218-4.3597 2.2797-6.8254 2.2285-6.9522 0.84011-14.436 1.2243-20.856-2.0688-1.1787-0.60405-2.2976-1.3608-3.185-2.353z" fill="#99c9d5" fill-rule="evenodd" stroke="#00aad4" stroke-linecap="round" stroke-linejoin="round"/>
   <path d="m-441.46 897.64c-1.32 0-3.6258 0.11287-4.8601 0.31874-0.21426 4.524 0.04738 8.8499 1.0228 12.978 4.1845 3.0147 10.2 4.9027 16.882 4.9027s12.697-1.888 16.882-4.9027c0.98139-4.5493 1.3283-8.4052 1.2785-13.054-1.0776-0.15459-3.473-0.24286-4.6124-0.24286-5.3655 0-10.148 1.7968-13.291 4.6143-3.1422-2.8181-7.9356-4.6143-13.302-4.6143z" fill="url(#d)" stroke="#800033" stroke-linecap="round" stroke-linejoin="round" stroke-width="1.4892"/>
   <g transform="matrix(-1.0835 -.14727 -.1766 .90359 -681.35 -11.03)" fill-rule="evenodd">
    <path d="m-377.87 881.3c5.1682-4.9673 9.2059-4.8616 11.167-9.0269 1.9835-4.2126 1.3616-8.216-2.6943-10.962-4.0305-2.7288-3.3571-3.4713-6.2857-9.9399-0.47702 4.6478-2.939 6.5531-5.9649 9.2353s-4.7632 3.6675-4.834 8.7158 6.773 6.0984 8.6118 11.978z" fill="#f60"/>
    <path d="m-377.53 879.26c3.6436-4.0526 7.7402-4.3236 9.1229-7.7218 1.3984-3.4369 0.51349-7.4174-2.3459-9.6578-2.8415-2.2263-2.9918-1.6714-5.0565-6.9489-0.3363 3.792-2.072 5.3464-4.2053 7.5348s-4.6081 2.8136-4.658 6.9323 5.8464 5.0647 7.1428 9.8615z" fill="#fc0"/>
    <path d="m-376.54 875.2c2.3615-1.9453 5.3883-2.2115 6.2505-3.893 0.87202-1.7007 0.40049-4.0444-1.5515-5.2663-1.9398-1.2143-2.3619-3.324-3.838-6.0622-0.15567 1.9126-2.5276 5.046-3.9136 6.0914s-2.4532 1.999-1.6551 4.0456c0.7909 2.028 3.7539 2.6133 4.7077 5.0845z" fill="#fff"/>
   </g>
   <path d="m-427.63 827.18c-0.71365 1.8603-1.9023 4.2318-1.647 6.3613 0.14655 3.3904 1.7419 5.0438 2.1742 8.3668l-0.02363 0.1803-0.04875 0.17687" fill="none" stroke="#9a1600" stroke-linecap="round" stroke-width="1.9139"/>
  </g>
  <g transform="matrix(.93576 0 0 .93576 124.36 -484.42)">
   <path d="m-514.34 846.42h32.776v62.776h-32.776z" fill="url(#i)" stroke="#37abc8" stroke-linecap="round" stroke-width="2"/>
   <path transform="matrix(.97148 0 0 .641 -13.404 303.89)" d="m-481.84 845.28a16.92 7.3236 0 1 1 -33.84 0 16.92 7.3236 0 1 1 33.84 0z" fill="#87cdde" stroke="#00aad4" stroke-linecap="round" stroke-width="2.5217"/>
   <path d="m-514.73 845.46c-1.3943 3.0269-0.16891 13.835-0.28856 19.959 0.67945 1.582 2.7635 4.1991 4.6293 2.633 1.0858-1.7098 1.5342-3.7583 2.4825-5.5597 0.2322-1.4867 2.1963-3.5077 3.1518-1.4151 1.839 1.0307 3.2404 2.4676 3.8996 4.4959 0.76391 1.7489 2.758 1.3642 3.662 0.02186 2.1873-1.1346 2.958 1.4489 2.1264 3.0423-0.43691 2.0336-1.2551 4.1028-0.80694 6.2095 1.1295 2.0937 4.944 2.3596 5.6915-0.19284 0.35285-1.9175 0.30906-3.892 0.73794-5.8089 0.36767-2.1748 0.706-4.6002 2.2984-6.2508 2.2753-1.0659 1.178 3.5404 3.6678 3.2078 1.4009-1.3859 1.8596-3.2412 2.3748-5.1473 0.42769-4.2182-0.5725-6.3684-0.08992-10.585-0.18198-0.99205 0.94511-6.8583-0.13561-4.8761-1.0852 3.1365-5.7107 4.0501-8.7311 4.6084-3.454 0.53898-8.5948 0.78107-12.396 0.667-4.6636-0.82472-10.47-1.9492-12.274-5.0092z" fill="#99c9d5" fill-rule="evenodd" stroke="#00aad4" stroke-linecap="round" stroke-linejoin="round"/>
   <path d="m-511.16 898.65c-1.32 0-3.6258 0.11287-4.8601 0.31874-0.21426 4.524 0.04738 8.8499 1.0228 12.978 4.1845 3.0147 10.2 4.9027 16.882 4.9027s12.697-1.888 16.882-4.9027c0.98139-4.5493 1.3283-8.4052 1.2785-13.054-1.0776-0.15459-3.473-0.24286-4.6124-0.24286-5.3655 0-10.148 1.7968-13.291 4.6143-3.1422-2.8181-7.9356-4.6143-13.302-4.6143z" fill="url(#h)" stroke="#800033" stroke-linecap="round" stroke-linejoin="round" stroke-width="1.4892"/>
   <g transform="matrix(1.2283 -.17174 .2002 1.0537 -209.89 -151.04)" fill-rule="evenodd">
    <path d="m-377.87 881.3c5.1682-4.9673 9.2059-4.8616 11.167-9.0269 1.9835-4.2126 1.3616-8.216-2.6943-10.962-4.0305-2.7288-3.3571-3.4713-6.2857-9.9399-0.47702 4.6478-2.939 6.5531-5.9649 9.2353s-4.7632 3.6675-4.834 8.7158 6.773 6.0984 8.6118 11.978z" fill="#f60"/>
    <path d="m-377.61 879.8c3.6436-4.0526 7.7402-4.3236 9.1229-7.7218 1.3984-3.4369 0.51349-7.4174-2.3459-9.6578-2.8415-2.2263-2.9918-1.6714-5.0565-6.9489-0.3363 3.792-2.072 5.3464-4.2053 7.5348s-4.6081 2.8136-4.658 6.9323 5.8464 5.0647 7.1428 9.8615z" fill="#fc0"/>
    <path d="m-377.35 877.3c2.3615-1.9453 5.3883-2.2115 6.2505-3.893 0.87202-1.7007 0.40049-4.0444-1.5515-5.2663-1.9398-1.2143-2.3619-3.324-3.838-6.0622-0.15567 1.9126-2.5276 5.046-3.9136 6.0914s-2.4532 1.999-1.6551 4.0456c0.7909 2.028 3.7539 2.6133 4.7077 5.0845z" fill="#fff"/>
   </g>
   <path d="m-497.98 829.71c0.71365 1.8603 1.9023 4.2318 1.647 6.3613-0.14655 3.3904-1.7419 5.0438-2.1742 8.3668l0.02363 0.1803 0.04875 0.17687" fill="none" stroke="#9a1600" stroke-linecap="round" stroke-width="1.9139"/>
  </g>
  <g transform="matrix(.849 0 0 .849 86.523 -421.73)">
   <path d="m-444.64 845.41h32.776v62.776h-32.776z" fill="url(#e)" stroke="#37abc8" stroke-linecap="round" stroke-width="2"/>
   <path transform="matrix(.97148 0 0 .641 56.296 302.88)" d="m-481.84 845.28a16.92 7.3236 0 1 1 -33.84 0 16.92 7.3236 0 1 1 33.84 0z" fill="#87cdde" stroke="#00aad4" stroke-linecap="round" stroke-width="2.5217"/>
   <path d="m-445.03 844.45c-1.4231 6.9429-0.17587 14.02-0.03981 21.016 0.54153 2.2063 4.4174 2.0751 4.6687-0.24407 1.2351-2.1787 4.8074 0.21237 3.3959 2.2503-0.49153 2.1398 2.3488 1.5268 3.3517-0.63393 0.94839-1.5587 3.2951 0.15589 5.0624-0.80954 1.8494-1.676 0.50887-6.4764 3.1545-7.2196 2.4029-0.77369 5.656 0.73095 5.8164 3.4509-0.4596 1.6984 3.5446 2.2582 5.0865 1.4107 2.2396-0.31027 3.7006-2.2112 3.2466-4.4521 0.00744-2.8899-0.56231-5.7764-0.21588-8.6643 1.4296-1.6527-0.51404-5.102-2.6606-3.911-2.1212 1.1218-4.3597 2.2797-6.8254 2.2285-6.9522 0.84011-14.436 1.2243-20.856-2.0688-1.1787-0.60405-2.2976-1.3608-3.185-2.353z" fill="#99c9d5" fill-rule="evenodd" stroke="#00aad4" stroke-linecap="round" stroke-linejoin="round"/>
   <path d="m-441.46 897.64c-1.32 0-3.6258 0.11287-4.8601 0.31874-0.21426 4.524 0.04738 8.8499 1.0228 12.978 4.1845 3.0147 10.2 4.9027 16.882 4.9027s12.697-1.888 16.882-4.9027c0.98139-4.5493 1.3283-8.4052 1.2785-13.054-1.0776-0.15459-3.473-0.24286-4.6124-0.24286-5.3655 0-10.148 1.7968-13.291 4.6143-3.1422-2.8181-7.9356-4.6143-13.302-4.6143z" fill="url(#d)" stroke="#800033" stroke-linecap="round" stroke-linejoin="round" stroke-width="1.4892"/>
   <g transform="matrix(-1.0835 -.14727 -.1766 .90359 -681.35 -11.03)" fill-rule="evenodd">
    <path d="m-377.87 881.3c5.1682-4.9673 9.2059-4.8616 11.167-9.0269 1.9835-4.2126 1.3616-8.216-2.6943-10.962-4.0305-2.7288-3.3571-3.4713-6.2857-9.9399-0.47702 4.6478-2.939 6.5531-5.9649 9.2353s-4.7632 3.6675-4.834 8.7158 6.773 6.0984 8.6118 11.978z" fill="#f60"/>
    <path d="m-377.53 879.26c3.6436-4.0526 7.7402-4.3236 9.1229-7.7218 1.3984-3.4369 0.51349-7.4174-2.3459-9.6578-2.8415-2.2263-2.9918-1.6714-5.0565-6.9489-0.3363 3.792-2.072 5.3464-4.2053 7.5348s-4.6081 2.8136-4.658 6.9323 5.8464 5.0647 7.1428 9.8615z" fill="#fc0"/>
    <path d="m-376.54 875.2c2.3615-1.9453 5.3883-2.2115 6.2505-3.893 0.87202-1.7007 0.40049-4.0444-1.5515-5.2663-1.9398-1.2143-2.3619-3.324-3.838-6.0622-0.15567 1.9126-2.5276 5.046-3.9136 6.0914s-2.4532 1.999-1.6551 4.0456c0.7909 2.028 3.7539 2.6133 4.7077 5.0845z" fill="#fff"/>
   </g>
   <path d="m-427.63 827.18c-0.71365 1.8603-1.9023 4.2318-1.647 6.3613 0.14655 3.3904 1.7419 5.0438 2.1742 8.3668l-0.02363 0.1803-0.04875 0.17687" fill="none" stroke="#9a1600" stroke-linecap="round" stroke-width="1.9139"/>
  </g>
  <g transform="matrix(.849 0 0 .849 110.26 -412.64)">
   <path d="m-444.64 845.41h32.776v62.776h-32.776z" fill="url(#e)" stroke="#37abc8" stroke-linecap="round" stroke-width="2"/>
   <path transform="matrix(.97148 0 0 .641 56.296 302.88)" d="m-481.84 845.28a16.92 7.3236 0 1 1 -33.84 0 16.92 7.3236 0 1 1 33.84 0z" fill="#87cdde" stroke="#00aad4" stroke-linecap="round" stroke-width="2.5217"/>
   <path d="m-445.03 844.45c-1.4231 6.9429-0.17587 14.02-0.03981 21.016 0.54153 2.2063 4.4174 2.0751 4.6687-0.24407 1.2351-2.1787 4.8074 0.21237 3.3959 2.2503-0.49153 2.1398 2.3488 1.5268 3.3517-0.63393 0.94839-1.5587 3.2951 0.15589 5.0624-0.80954 1.8494-1.676 0.50887-6.4764 3.1545-7.2196 2.4029-0.77369 5.656 0.73095 5.8164 3.4509-0.4596 1.6984 3.5446 2.2582 5.0865 1.4107 2.2396-0.31027 3.7006-2.2112 3.2466-4.4521 0.00744-2.8899-0.56231-5.7764-0.21588-8.6643 1.4296-1.6527-0.51404-5.102-2.6606-3.911-2.1212 1.1218-4.3597 2.2797-6.8254 2.2285-6.9522 0.84011-14.436 1.2243-20.856-2.0688-1.1787-0.60405-2.2976-1.3608-3.185-2.353z" fill="#99c9d5" fill-rule="evenodd" stroke="#00aad4" stroke-linecap="round" stroke-linejoin="round"/>
   <path d="m-441.46 897.64c-1.32 0-3.6258 0.11287-4.8601 0.31874-0.21426 4.524 0.04738 8.8499 1.0228 12.978 4.1845 3.0147 10.2 4.9027 16.882 4.9027s12.697-1.888 16.882-4.9027c0.98139-4.5493 1.3283-8.4052 1.2785-13.054-1.0776-0.15459-3.473-0.24286-4.6124-0.24286-5.3655 0-10.148 1.7968-13.291 4.6143-3.1422-2.8181-7.9356-4.6143-13.302-4.6143z" fill="url(#d)" stroke="#800033" stroke-linecap="round" stroke-linejoin="round" stroke-width="1.4892"/>
   <g transform="matrix(-1.0835 -.14727 -.1766 .90359 -681.35 -11.03)" fill-rule="evenodd">
    <path d="m-377.87 881.3c5.1682-4.9673 9.2059-4.8616 11.167-9.0269 1.9835-4.2126 1.3616-8.216-2.6943-10.962-4.0305-2.7288-3.3571-3.4713-6.2857-9.9399-0.47702 4.6478-2.939 6.5531-5.9649 9.2353s-4.7632 3.6675-4.834 8.7158 6.773 6.0984 8.6118 11.978z" fill="#f60"/>
    <path d="m-377.53 879.26c3.6436-4.0526 7.7402-4.3236 9.1229-7.7218 1.3984-3.4369 0.51349-7.4174-2.3459-9.6578-2.8415-2.2263-2.9918-1.6714-5.0565-6.9489-0.3363 3.792-2.072 5.3464-4.2053 7.5348s-4.6081 2.8136-4.658 6.9323 5.8464 5.0647 7.1428 9.8615z" fill="#fc0"/>
    <path d="m-376.54 875.2c2.3615-1.9453 5.3883-2.2115 6.2505-3.893 0.87202-1.7007 0.40049-4.0444-1.5515-5.2663-1.9398-1.2143-2.3619-3.324-3.838-6.0622-0.15567 1.9126-2.5276 5.046-3.9136 6.0914s-2.4532 1.999-1.6551 4.0456c0.7909 2.028 3.7539 2.6133 4.7077 5.0845z" fill="#fff"/>
   </g>
   <path d="m-427.63 827.18c-0.71365 1.8603-1.9023 4.2318-1.647 6.3613 0.14655 3.3904 1.7419 5.0438 2.1742 8.3668l-0.02363 0.1803-0.04875 0.17687" fill="none" stroke="#9a1600" stroke-linecap="round" stroke-width="1.9139"/>
  </g>
  <g transform="matrix(.849 0 0 .849 -45.48 -412.42)">
   <path d="m-577.22 845.15h32.776v62.776h-32.776z" fill="url(#n)" stroke="#37abc8" stroke-linecap="round" stroke-width="2"/>
   <path transform="matrix(.97148 0 0 .641 -76.286 302.63)" d="m-481.84 845.28a16.92 7.3236 0 1 1 -33.84 0 16.92 7.3236 0 1 1 33.84 0z" fill="#87cdde" stroke="#00aad4" stroke-linecap="round" stroke-width="2.5217"/>
   <path d="m-544.41 844.2c1.3943 3.0269 0.16891 13.835 0.28856 19.959-0.67945 1.582-2.7635 4.1991-4.6293 2.633-1.0858-1.7098 0.48612 0.78741-0.46222-1.014-0.2322-1.4867-2.1963-3.5077-3.1518-1.4151-1.839 1.0307-3.2404 2.4676-3.8996 4.4959-0.76391 1.7489-4.0207-8.4848-4.9247-9.8271-2.1873-1.1346-3.9682-0.06636-3.1365 1.5271 0.43691 2.0336 1.2551 4.1028 0.80694 6.2095-1.1295 2.0937-4.944 2.3596-5.6915-0.19284-0.35285-1.9175-0.30906-3.892-0.73794-5.8089-0.36767-2.1748-0.45346 2.2183-2.0459 0.56778-2.2753-1.0659-1.178 3.5404-3.6678 3.2078-1.4009-1.3859-1.8596-3.2412-2.3748-5.1473-0.42769-4.2182 0.5725-6.3684 0.08992-10.585 0.18198-0.99205-0.94511-6.8583 0.13561-4.8761 1.0852 3.1365 5.7107 4.0501 8.7311 4.6084 3.454 0.53898 8.5948 0.78107 12.396 0.667 4.6636-0.82472 10.47-1.9492 12.274-5.0092z" fill="#99c9d5" fill-rule="evenodd" stroke="#00aad4" stroke-linecap="round" stroke-linejoin="round"/>
   <path d="m-574.05 897.39c-1.32 0-3.6258 0.11287-4.8601 0.31874-0.21426 4.524 0.04738 8.8499 1.0228 12.978 4.1845 3.0147 10.2 4.9027 16.882 4.9027s12.697-1.888 16.882-4.9027c0.98139-4.5493 1.3283-8.4052 1.2785-13.054-1.0776-0.15459-3.473-0.24286-4.6124-0.24286-5.3655 0-10.148 1.7968-13.291 4.6143-3.1422-2.8181-7.9356-4.6143-13.302-4.6143z" fill="url(#m)" stroke="#800033" stroke-linecap="round" stroke-linejoin="round" stroke-width="1.4892"/>
   <g transform="matrix(-.93337 -.16902 -.15213 1.037 -778.84 -137.08)" fill-rule="evenodd">
    <path d="m-377.87 881.3c5.1682-4.9673 9.8068-4.7637 11.768-8.9289 1.9835-4.2126-0.1445-6.5441-4.2004-9.2901-4.0305-2.7288-2.4518-5.2411-5.3805-11.71-0.47702 4.6478-2.939 6.5531-5.9649 9.2353s-4.7632 3.6675-4.834 8.7158 6.773 6.0984 8.6118 11.978z" fill="#f60"/>
    <path d="m-377.61 879.8c3.6436-4.0526 7.7402-4.3236 9.1229-7.7218 1.3984-3.4369-0.10536-4.8819-2.9647-7.1222-2.8415-2.2263-2.3729-4.2069-4.4376-9.4844-0.3363 3.792-2.072 5.3464-4.2053 7.5348s-4.6081 2.8136-4.658 6.9323 5.8464 5.0647 7.1428 9.8615z" fill="#fc0"/>
    <path d="m-377.35 877.3c2.3615-1.9453 5.3883-2.2115 6.2505-3.893 0.87202-1.7007 0.40049-4.0444-1.5515-5.2663-1.9398-1.2143-2.3619-3.324-3.838-6.0622-0.15567 1.9126-2.5276 5.046-3.9136 6.0914s-2.4532 1.999-1.6551 4.0456c0.7909 2.028 3.7539 2.6133 4.7077 5.0845z" fill="#fff"/>
   </g>
   <path d="m-560.86 828.45c0.71365 1.8603 1.9023 4.2318 1.647 6.3613-0.14655 3.3904-1.7419 5.0438-2.1742 8.3668l0.02363 0.1803 0.04875 0.17687" fill="none" stroke="#9a1600" stroke-linecap="round" stroke-width="1.9139"/>
  </g>
  <g transform="matrix(.90563 0 0 .90563 -26.157 -457.88)">
   <path d="m-514.34 846.42h32.776v62.776h-32.776z" fill="url(#i)" stroke="#37abc8" stroke-linecap="round" stroke-width="2"/>
   <path transform="matrix(.97148 0 0 .641 -13.404 303.89)" d="m-481.84 845.28a16.92 7.3236 0 1 1 -33.84 0 16.92 7.3236 0 1 1 33.84 0z" fill="#87cdde" stroke="#00aad4" stroke-linecap="round" stroke-width="2.5217"/>
   <path d="m-514.73 845.46c-1.3943 3.0269-0.16891 13.835-0.28856 19.959 0.67945 1.582 2.7635 4.1991 4.6293 2.633 1.0858-1.7098 1.5342-3.7583 2.4825-5.5597 0.2322-1.4867 2.1963-3.5077 3.1518-1.4151 1.839 1.0307 3.2404 2.4676 3.8996 4.4959 0.76391 1.7489 2.758 1.3642 3.662 0.02186 2.1873-1.1346 2.958 1.4489 2.1264 3.0423-0.43691 2.0336-1.2551 4.1028-0.80694 6.2095 1.1295 2.0937 4.944 2.3596 5.6915-0.19284 0.35285-1.9175 0.30906-3.892 0.73794-5.8089 0.36767-2.1748 0.706-4.6002 2.2984-6.2508 2.2753-1.0659 1.178 3.5404 3.6678 3.2078 1.4009-1.3859 1.8596-3.2412 2.3748-5.1473 0.42769-4.2182-0.5725-6.3684-0.08992-10.585-0.18198-0.99205 0.94511-6.8583-0.13561-4.8761-1.0852 3.1365-5.7107 4.0501-8.7311 4.6084-3.454 0.53898-8.5948 0.78107-12.396 0.667-4.6636-0.82472-10.47-1.9492-12.274-5.0092z" fill="#99c9d5" fill-rule="evenodd" stroke="#00aad4" stroke-linecap="round" stroke-linejoin="round"/>
   <path d="m-511.16 898.65c-1.32 0-3.6258 0.11287-4.8601 0.31874-0.21426 4.524 0.04738 8.8499 1.0228 12.978 4.1845 3.0147 10.2 4.9027 16.882 4.9027s12.697-1.888 16.882-4.9027c0.98139-4.5493 1.3283-8.4052 1.2785-13.054-1.0776-0.15459-3.473-0.24286-4.6124-0.24286-5.3655 0-10.148 1.7968-13.291 4.6143-3.1422-2.8181-7.9356-4.6143-13.302-4.6143z" fill="url(#h)" stroke="#800033" stroke-linecap="round" stroke-linejoin="round" stroke-width="1.4892"/>
   <g transform="matrix(1.2283 -.17174 .2002 1.0537 -209.89 -151.04)" fill-rule="evenodd">
    <path d="m-377.87 881.3c5.1682-4.9673 9.2059-4.8616 11.167-9.0269 1.9835-4.2126 1.3616-8.216-2.6943-10.962-4.0305-2.7288-3.3571-3.4713-6.2857-9.9399-0.47702 4.6478-2.939 6.5531-5.9649 9.2353s-4.7632 3.6675-4.834 8.7158 6.773 6.0984 8.6118 11.978z" fill="#f60"/>
    <path d="m-377.61 879.8c3.6436-4.0526 7.7402-4.3236 9.1229-7.7218 1.3984-3.4369 0.51349-7.4174-2.3459-9.6578-2.8415-2.2263-2.9918-1.6714-5.0565-6.9489-0.3363 3.792-2.072 5.3464-4.2053 7.5348s-4.6081 2.8136-4.658 6.9323 5.8464 5.0647 7.1428 9.8615z" fill="#fc0"/>
    <path d="m-377.35 877.3c2.3615-1.9453 5.3883-2.2115 6.2505-3.893 0.87202-1.7007 0.40049-4.0444-1.5515-5.2663-1.9398-1.2143-2.3619-3.324-3.838-6.0622-0.15567 1.9126-2.5276 5.046-3.9136 6.0914s-2.4532 1.999-1.6551 4.0456c0.7909 2.028 3.7539 2.6133 4.7077 5.0845z" fill="#fff"/>
   </g>
   <path d="m-497.98 829.71c0.71365 1.8603 1.9023 4.2318 1.647 6.3613-0.14655 3.3904-1.7419 5.0438-2.1742 8.3668l0.02363 0.1803 0.04875 0.17687" fill="none" stroke="#9a1600" stroke-linecap="round" stroke-width="1.9139"/>
  </g>
  <g transform="matrix(.90563 0 0 .90563 212.6 -458.25)">
   <path d="m-577.22 845.15h32.776v62.776h-32.776z" fill="url(#n)" stroke="#37abc8" stroke-linecap="round" stroke-width="2"/>
   <path transform="matrix(.97148 0 0 .641 -76.286 302.63)" d="m-481.84 845.28a16.92 7.3236 0 1 1 -33.84 0 16.92 7.3236 0 1 1 33.84 0z" fill="#87cdde" stroke="#00aad4" stroke-linecap="round" stroke-width="2.5217"/>
   <path d="m-544.41 844.2c1.3943 3.0269 0.16891 13.835 0.28856 19.959-0.67945 1.582-2.7635 4.1991-4.6293 2.633-1.0858-1.7098 0.48612 0.78741-0.46222-1.014-0.2322-1.4867-2.1963-3.5077-3.1518-1.4151-1.839 1.0307-3.2404 2.4676-3.8996 4.4959-0.76391 1.7489-4.0207-8.4848-4.9247-9.8271-2.1873-1.1346-3.9682-0.06636-3.1365 1.5271 0.43691 2.0336 1.2551 4.1028 0.80694 6.2095-1.1295 2.0937-4.944 2.3596-5.6915-0.19284-0.35285-1.9175-0.30906-3.892-0.73794-5.8089-0.36767-2.1748-0.45346 2.2183-2.0459 0.56778-2.2753-1.0659-1.178 3.5404-3.6678 3.2078-1.4009-1.3859-1.8596-3.2412-2.3748-5.1473-0.42769-4.2182 0.5725-6.3684 0.08992-10.585 0.18198-0.99205-0.94511-6.8583 0.13561-4.8761 1.0852 3.1365 5.7107 4.0501 8.7311 4.6084 3.454 0.53898 8.5948 0.78107 12.396 0.667 4.6636-0.82472 10.47-1.9492 12.274-5.0092z" fill="#99c9d5" fill-rule="evenodd" stroke="#00aad4" stroke-linecap="round" stroke-linejoin="round"/>
   <path d="m-574.05 897.39c-1.32 0-3.6258 0.11287-4.8601 0.31874-0.21426 4.524 0.04738 8.8499 1.0228 12.978 4.1845 3.0147 10.2 4.9027 16.882 4.9027s12.697-1.888 16.882-4.9027c0.98139-4.5493 1.3283-8.4052 1.2785-13.054-1.0776-0.15459-3.473-0.24286-4.6124-0.24286-5.3655 0-10.148 1.7968-13.291 4.6143-3.1422-2.8181-7.9356-4.6143-13.302-4.6143z" fill="url(#m)" stroke="#800033" stroke-linecap="round" stroke-linejoin="round" stroke-width="1.4892"/>
   <g transform="matrix(-.93337 -.16902 -.15213 1.037 -778.84 -137.08)" fill-rule="evenodd">
    <path d="m-377.87 881.3c5.1682-4.9673 9.8068-4.7637 11.768-8.9289 1.9835-4.2126-0.1445-6.5441-4.2004-9.2901-4.0305-2.7288-2.4518-5.2411-5.3805-11.71-0.47702 4.6478-2.939 6.5531-5.9649 9.2353s-4.7632 3.6675-4.834 8.7158 6.773 6.0984 8.6118 11.978z" fill="#f60"/>
    <path d="m-377.61 879.8c3.6436-4.0526 7.7402-4.3236 9.1229-7.7218 1.3984-3.4369-0.10536-4.8819-2.9647-7.1222-2.8415-2.2263-2.3729-4.2069-4.4376-9.4844-0.3363 3.792-2.072 5.3464-4.2053 7.5348s-4.6081 2.8136-4.658 6.9323 5.8464 5.0647 7.1428 9.8615z" fill="#fc0"/>
    <path d="m-377.35 877.3c2.3615-1.9453 5.3883-2.2115 6.2505-3.893 0.87202-1.7007 0.40049-4.0444-1.5515-5.2663-1.9398-1.2143-2.3619-3.324-3.838-6.0622-0.15567 1.9126-2.5276 5.046-3.9136 6.0914s-2.4532 1.999-1.6551 4.0456c0.7909 2.028 3.7539 2.6133 4.7077 5.0845z" fill="#fff"/>
   </g>
   <path d="m-560.86 828.45c0.71365 1.8603 1.9023 4.2318 1.647 6.3613-0.14655 3.3904-1.7419 5.0438-2.1742 8.3668l0.02363 0.1803 0.04875 0.17687" fill="none" stroke="#9a1600" stroke-linecap="round" stroke-width="1.9139"/>
  </g>
  <g transform="translate(41.795 -538.92)">
   <path d="m-444.64 845.41h32.776v62.776h-32.776z" fill="url(#e)" stroke="#37abc8" stroke-linecap="round" stroke-width="2"/>
   <path transform="matrix(.97148 0 0 .641 56.296 302.88)" d="m-481.84 845.28a16.92 7.3236 0 1 1 -33.84 0 16.92 7.3236 0 1 1 33.84 0z" fill="#87cdde" stroke="#00aad4" stroke-linecap="round" stroke-width="2.5217"/>
   <path d="m-445.03 844.45c-1.4231 6.9429-0.17587 14.02-0.03981 21.016 0.54153 2.2063 4.4174 2.0751 4.6687-0.24407 1.2351-2.1787 4.8074 0.21237 3.3959 2.2503-0.49153 2.1398 2.3488 1.5268 3.3517-0.63393 0.94839-1.5587 3.2951 0.15589 5.0624-0.80954 1.8494-1.676 0.50887-6.4764 3.1545-7.2196 2.4029-0.77369 5.656 0.73095 5.8164 3.4509-0.4596 1.6984 3.5446 2.2582 5.0865 1.4107 2.2396-0.31027 3.7006-2.2112 3.2466-4.4521 0.00744-2.8899-0.56231-5.7764-0.21588-8.6643 1.4296-1.6527-0.51404-5.102-2.6606-3.911-2.1212 1.1218-4.3597 2.2797-6.8254 2.2285-6.9522 0.84011-14.436 1.2243-20.856-2.0688-1.1787-0.60405-2.2976-1.3608-3.185-2.353z" fill="#99c9d5" fill-rule="evenodd" stroke="#00aad4" stroke-linecap="round" stroke-linejoin="round"/>
   <path d="m-441.46 897.64c-1.32 0-3.6258 0.11287-4.8601 0.31874-0.21426 4.524 0.04738 8.8499 1.0228 12.978 4.1845 3.0147 10.2 4.9027 16.882 4.9027s12.697-1.888 16.882-4.9027c0.98139-4.5493 1.3283-8.4052 1.2785-13.054-1.0776-0.15459-3.473-0.24286-4.6124-0.24286-5.3655 0-10.148 1.7968-13.291 4.6143-3.1422-2.8181-7.9356-4.6143-13.302-4.6143z" fill="url(#d)" stroke="#800033" stroke-linecap="round" stroke-linejoin="round" stroke-width="1.4892"/>
   <g transform="matrix(-1.0835 -.14727 -.1766 .90359 -681.35 -11.03)" fill-rule="evenodd">
    <path d="m-377.87 881.3c5.1682-4.9673 9.2059-4.8616 11.167-9.0269 1.9835-4.2126 1.3616-8.216-2.6943-10.962-4.0305-2.7288-3.3571-3.4713-6.2857-9.9399-0.47702 4.6478-2.939 6.5531-5.9649 9.2353s-4.7632 3.6675-4.834 8.7158 6.773 6.0984 8.6118 11.978z" fill="#f60"/>
    <path d="m-377.53 879.26c3.6436-4.0526 7.7402-4.3236 9.1229-7.7218 1.3984-3.4369 0.51349-7.4174-2.3459-9.6578-2.8415-2.2263-2.9918-1.6714-5.0565-6.9489-0.3363 3.792-2.072 5.3464-4.2053 7.5348s-4.6081 2.8136-4.658 6.9323 5.8464 5.0647 7.1428 9.8615z" fill="#fc0"/>
    <path d="m-376.54 875.2c2.3615-1.9453 5.3883-2.2115 6.2505-3.893 0.87202-1.7007 0.40049-4.0444-1.5515-5.2663-1.9398-1.2143-2.3619-3.324-3.838-6.0622-0.15567 1.9126-2.5276 5.046-3.9136 6.0914s-2.4532 1.999-1.6551 4.0456c0.7909 2.028 3.7539 2.6133 4.7077 5.0845z" fill="#fff"/>
   </g>
   <path d="m-427.63 827.18c-0.71365 1.8603-1.9023 4.2318-1.647 6.3613 0.14655 3.3904 1.7419 5.0438 2.1742 8.3668l-0.02363 0.1803-0.04875 0.17687" fill="none" stroke="#9a1600" stroke-linecap="round" stroke-width="1.9139"/>
  </g>
  <g transform="matrix(.93576 0 0 .93576 32.627 -483.41)">
   <path d="m-514.34 846.42h32.776v62.776h-32.776z" fill="url(#i)" stroke="#37abc8" stroke-linecap="round" stroke-width="2"/>
   <path transform="matrix(.97148 0 0 .641 -13.404 303.89)" d="m-481.84 845.28a16.92 7.3236 0 1 1 -33.84 0 16.92 7.3236 0 1 1 33.84 0z" fill="#87cdde" stroke="#00aad4" stroke-linecap="round" stroke-width="2.5217"/>
   <path d="m-514.73 845.46c-1.3943 3.0269-0.16891 13.835-0.28856 19.959 0.67945 1.582 2.7635 4.1991 4.6293 2.633 1.0858-1.7098 1.5342-3.7583 2.4825-5.5597 0.2322-1.4867 2.1963-3.5077 3.1518-1.4151 1.839 1.0307 3.2404 2.4676 3.8996 4.4959 0.76391 1.7489 2.758 1.3642 3.662 0.02186 2.1873-1.1346 2.958 1.4489 2.1264 3.0423-0.43691 2.0336-1.2551 4.1028-0.80694 6.2095 1.1295 2.0937 4.944 2.3596 5.6915-0.19284 0.35285-1.9175 0.30906-3.892 0.73794-5.8089 0.36767-2.1748 0.706-4.6002 2.2984-6.2508 2.2753-1.0659 1.178 3.5404 3.6678 3.2078 1.4009-1.3859 1.8596-3.2412 2.3748-5.1473 0.42769-4.2182-0.5725-6.3684-0.08992-10.585-0.18198-0.99205 0.94511-6.8583-0.13561-4.8761-1.0852 3.1365-5.7107 4.0501-8.7311 4.6084-3.454 0.53898-8.5948 0.78107-12.396 0.667-4.6636-0.82472-10.47-1.9492-12.274-5.0092z" fill="#99c9d5" fill-rule="evenodd" stroke="#00aad4" stroke-linecap="round" stroke-linejoin="round"/>
   <path d="m-511.16 898.65c-1.32 0-3.6258 0.11287-4.8601 0.31874-0.21426 4.524 0.04738 8.8499 1.0228 12.978 4.1845 3.0147 10.2 4.9027 16.882 4.9027s12.697-1.888 16.882-4.9027c0.98139-4.5493 1.3283-8.4052 1.2785-13.054-1.0776-0.15459-3.473-0.24286-4.6124-0.24286-5.3655 0-10.148 1.7968-13.291 4.6143-3.1422-2.8181-7.9356-4.6143-13.302-4.6143z" fill="url(#h)" stroke="#800033" stroke-linecap="round" stroke-linejoin="round" stroke-width="1.4892"/>
   <g transform="matrix(1.2283 -.17174 .2002 1.0537 -209.89 -151.04)" fill-rule="evenodd">
    <path d="m-377.87 881.3c5.1682-4.9673 9.2059-4.8616 11.167-9.0269 1.9835-4.2126 1.3616-8.216-2.6943-10.962-4.0305-2.7288-3.3571-3.4713-6.2857-9.9399-0.47702 4.6478-2.939 6.5531-5.9649 9.2353s-4.7632 3.6675-4.834 8.7158 6.773 6.0984 8.6118 11.978z" fill="#f60"/>
    <path d="m-377.61 879.8c3.6436-4.0526 7.7402-4.3236 9.1229-7.7218 1.3984-3.4369 0.51349-7.4174-2.3459-9.6578-2.8415-2.2263-2.9918-1.6714-5.0565-6.9489-0.3363 3.792-2.072 5.3464-4.2053 7.5348s-4.6081 2.8136-4.658 6.9323 5.8464 5.0647 7.1428 9.8615z" fill="#fc0"/>
    <path d="m-377.35 877.3c2.3615-1.9453 5.3883-2.2115 6.2505-3.893 0.87202-1.7007 0.40049-4.0444-1.5515-5.2663-1.9398-1.2143-2.3619-3.324-3.838-6.0622-0.15567 1.9126-2.5276 5.046-3.9136 6.0914s-2.4532 1.999-1.6551 4.0456c0.7909 2.028 3.7539 2.6133 4.7077 5.0845z" fill="#fff"/>
   </g>
   <path d="m-497.98 829.71c0.71365 1.8603 1.9023 4.2318 1.647 6.3613-0.14655 3.3904-1.7419 5.0438-2.1742 8.3668l0.02363 0.1803 0.04875 0.17687" fill="none" stroke="#9a1600" stroke-linecap="round" stroke-width="1.9139"/>
  </g>
  <path d="m-176.32 485.82c-0.01159 0.15762-0.00637 0.31165-0.03125 0.46875l0.0625-0.46875h-0.03125zm-0.03125 0.46875c-2.9269 18.481-97.493 33.344-213.59 33.344-111.64 2e-5 -203.35-13.732-212.84-31.219 0.3576 3.3532 7.8568 73.685 13.594 127.22 0.029 0.04389 0.065 0.08076 0.0938 0.125 5.7581 8.8415 27.686 33.212 45.125 17.5s32.647 8.6382 48.375 19.938 33.727-15.898 50.438-12.875 26.004 33.727 42.5 21.406 44.728-23.301 57.008-3.4062 48.058 14.473 60.511-1.9332c23.633-17.28 17.02-24.819 49.224-13.452 11.73 5.7194 20.49 11.996 42.632-13.115l16.938-143.53z" fill="#ffc850" stroke="#a40" stroke-linecap="round" stroke-linejoin="round" stroke-width="2"/>
  <g transform="matrix(.53909 .10651 -.10651 .53909 -178.31 127.5)">
   <path d="m-585.28 852.3c-3.1654-3.216-6.3068-7.169-6.2988-11.911-0.09076-5.8725 5.7895-11.129 11.64-10.039 3.2744 0.37506 6.4698 2.3126 7.9053 5.3445 2.9052-5.7624 11.426-7.171 16.266-3.0551 3.5921 2.7612 4.5521 8.1269 2.4764 12.091-1.8722 4.1143-7.4603 7.4716-10.757 10.465-4.6628 3.7484-7.8731 6.3345-12.036 10.699-0.60225-4.72-4.2626-8.1173-7.2507-11.5-0.65304-0.69364-1.3078-1.3858-1.9451-2.0941z" fill="url(#c)"/>
   <path transform="matrix(1.5086 -.77795 .21228 .80498 112.96 -294.58)" d="m-576.79 841.65a4.4643 4.6429 0 1 1 -8.9286 0 4.4643 4.6429 0 1 1 8.9286 0z" fill="url(#a)"/>
   <path transform="matrix(1.5086 -.77795 .21228 .80498 132.16 -294.33)" d="m-576.79 841.65a4.4643 4.6429 0 1 1 -8.9286 0 4.4643 4.6429 0 1 1 8.9286 0z" fill="url(#a)"/>
  </g>
  <g transform="matrix(.54462 .073151 -.073151 .54462 -188.02 153.33)">
   <path d="m-585.28 852.3c-3.1654-3.216-6.3068-7.169-6.2988-11.911-0.09076-5.8725 5.7895-11.129 11.64-10.039 3.2744 0.37506 6.4698 2.3126 7.9053 5.3445 2.9052-5.7624 11.426-7.171 16.266-3.0551 3.5921 2.7612 4.5521 8.1269 2.4764 12.091-1.8722 4.1143-7.4603 7.4716-10.757 10.465-4.6628 3.7484-7.8731 6.3345-12.036 10.699-0.60225-4.72-4.2626-8.1173-7.2507-11.5-0.65304-0.69364-1.3078-1.3858-1.9451-2.0941z" fill="url(#c)"/>
   <path transform="matrix(1.5086 -.77795 .21228 .80498 112.96 -294.58)" d="m-576.79 841.65a4.4643 4.6429 0 1 1 -8.9286 0 4.4643 4.6429 0 1 1 8.9286 0z" fill="url(#a)"/>
   <path transform="matrix(1.5086 -.77795 .21228 .80498 132.16 -294.33)" d="m-576.79 841.65a4.4643 4.6429 0 1 1 -8.9286 0 4.4643 4.6429 0 1 1 8.9286 0z" fill="url(#a)"/>
  </g>
  <g transform="matrix(.54563 .065185 -.065185 .54563 -145.39 112.46)">
   <path d="m-585.28 852.3c-3.1654-3.216-6.3068-7.169-6.2988-11.911-0.09076-5.8725 5.7895-11.129 11.64-10.039 3.2744 0.37506 6.4698 2.3126 7.9053 5.3445 2.9052-5.7624 11.426-7.171 16.266-3.0551 3.5921 2.7612 4.5521 8.1269 2.4764 12.091-1.8722 4.1143-7.4603 7.4716-10.757 10.465-4.6628 3.7484-7.8731 6.3345-12.036 10.699-0.60225-4.72-4.2626-8.1173-7.2507-11.5-0.65304-0.69364-1.3078-1.3858-1.9451-2.0941z" fill="url(#c)"/>
   <path transform="matrix(1.5086 -.77795 .21228 .80498 112.96 -294.58)" d="m-576.79 841.65a4.4643 4.6429 0 1 1 -8.9286 0 4.4643 4.6429 0 1 1 8.9286 0z" fill="url(#a)"/>
   <path transform="matrix(1.5086 -.77795 .21228 .80498 132.16 -294.33)" d="m-576.79 841.65a4.4643 4.6429 0 1 1 -8.9286 0 4.4643 4.6429 0 1 1 8.9286 0z" fill="url(#a)"/>
  </g>
  <g transform="matrix(.54546 .066593 -.066593 .54546 -121.8 162.89)">
   <path d="m-585.28 852.3c-3.1654-3.216-6.3068-7.169-6.2988-11.911-0.09076-5.8725 5.7895-11.129 11.64-10.039 3.2744 0.37506 6.4698 2.3126 7.9053 5.3445 2.9052-5.7624 11.426-7.171 16.266-3.0551 3.5921 2.7612 4.5521 8.1269 2.4764 12.091-1.8722 4.1143-7.4603 7.4716-10.757 10.465-4.6628 3.7484-7.8731 6.3345-12.036 10.699-0.60225-4.72-4.2626-8.1173-7.2507-11.5-0.65304-0.69364-1.3078-1.3858-1.9451-2.0941z" fill="url(#c)"/>
   <path transform="matrix(1.5086 -.77795 .21228 .80498 112.96 -294.58)" d="m-576.79 841.65a4.4643 4.6429 0 1 1 -8.9286 0 4.4643 4.6429 0 1 1 8.9286 0z" fill="url(#a)"/>
   <path transform="matrix(1.5086 -.77795 .21228 .80498 132.16 -294.33)" d="m-576.79 841.65a4.4643 4.6429 0 1 1 -8.9286 0 4.4643 4.6429 0 1 1 8.9286 0z" fill="url(#a)"/>
  </g>
  <g transform="matrix(.54951 0 0 .54951 -124.13 78.944)">
   <path d="m-585.28 852.3c-3.1654-3.216-6.3068-7.169-6.2988-11.911-0.09076-5.8725 5.7895-11.129 11.64-10.039 3.2744 0.37506 6.4698 2.3126 7.9053 5.3445 2.9052-5.7624 11.426-7.171 16.266-3.0551 3.5921 2.7612 4.5521 8.1269 2.4764 12.091-1.8722 4.1143-7.4603 7.4716-10.757 10.465-4.6628 3.7484-7.8731 6.3345-12.036 10.699-0.60225-4.72-4.2626-8.1173-7.2507-11.5-0.65304-0.69364-1.3078-1.3858-1.9451-2.0941z" fill="url(#c)"/>
   <path transform="matrix(1.5086 -.77795 .21228 .80498 112.96 -294.58)" d="m-576.79 841.65a4.4643 4.6429 0 1 1 -8.9286 0 4.4643 4.6429 0 1 1 8.9286 0z" fill="url(#a)"/>
   <path transform="matrix(1.5086 -.77795 .21228 .80498 132.16 -294.33)" d="m-576.79 841.65a4.4643 4.6429 0 1 1 -8.9286 0 4.4643 4.6429 0 1 1 8.9286 0z" fill="url(#a)"/>
  </g>
  <g transform="matrix(.54456 .073628 -.073628 .54456 -43.028 175.78)">
   <path d="m-585.28 852.3c-3.1654-3.216-6.3068-7.169-6.2988-11.911-0.09076-5.8725 5.7895-11.129 11.64-10.039 3.2744 0.37506 6.4698 2.3126 7.9053 5.3445 2.9052-5.7624 11.426-7.171 16.266-3.0551 3.5921 2.7612 4.5521 8.1269 2.4764 12.091-1.8722 4.1143-7.4603 7.4716-10.757 10.465-4.6628 3.7484-7.8731 6.3345-12.036 10.699-0.60225-4.72-4.2626-8.1173-7.2507-11.5-0.65304-0.69364-1.3078-1.3858-1.9451-2.0941z" fill="url(#c)"/>
   <path transform="matrix(1.5086 -.77795 .21228 .80498 112.96 -294.58)" d="m-576.79 841.65a4.4643 4.6429 0 1 1 -8.9286 0 4.4643 4.6429 0 1 1 8.9286 0z" fill="url(#a)"/>
   <path transform="matrix(1.5086 -.77795 .21228 .80498 132.16 -294.33)" d="m-576.79 841.65a4.4643 4.6429 0 1 1 -8.9286 0 4.4643 4.6429 0 1 1 8.9286 0z" fill="url(#a)"/>
  </g>
  <g transform="matrix(.54951 0 0 .54951 -52.84 82.985)">
   <path d="m-585.28 852.3c-3.1654-3.216-6.3068-7.169-6.2988-11.911-0.09076-5.8725 5.7895-11.129 11.64-10.039 3.2744 0.37506 6.4698 2.3126 7.9053 5.3445 2.9052-5.7624 11.426-7.171 16.266-3.0551 3.5921 2.7612 4.5521 8.1269 2.4764 12.091-1.8722 4.1143-7.4603 7.4716-10.757 10.465-4.6628 3.7484-7.8731 6.3345-12.036 10.699-0.60225-4.72-4.2626-8.1173-7.2507-11.5-0.65304-0.69364-1.3078-1.3858-1.9451-2.0941z" fill="url(#c)"/>
   <path transform="matrix(1.5086 -.77795 .21228 .80498 112.96 -294.58)" d="m-576.79 841.65a4.4643 4.6429 0 1 1 -8.9286 0 4.4643 4.6429 0 1 1 8.9286 0z" fill="url(#a)"/>
   <path transform="matrix(1.5086 -.77795 .21228 .80498 132.16 -294.33)" d="m-576.79 841.65a4.4643 4.6429 0 1 1 -8.9286 0 4.4643 4.6429 0 1 1 8.9286 0z" fill="url(#a)"/>
  </g>
  <g transform="matrix(.54514 -.069227 .069227 .54514 -91.535 95.578)">
   <path d="m-585.28 852.3c-3.1654-3.216-6.3068-7.169-6.2988-11.911-0.09076-5.8725 5.7895-11.129 11.64-10.039 3.2744 0.37506 6.4698 2.3126 7.9053 5.3445 2.9052-5.7624 11.426-7.171 16.266-3.0551 3.5921 2.7612 4.5521 8.1269 2.4764 12.091-1.8722 4.1143-7.4603 7.4716-10.757 10.465-4.6628 3.7484-7.8731 6.3345-12.036 10.699-0.60225-4.72-4.2626-8.1173-7.2507-11.5-0.65304-0.69364-1.3078-1.3858-1.9451-2.0941z" fill="url(#c)"/>
   <path transform="matrix(1.5086 -.77795 .21228 .80498 112.96 -294.58)" d="m-576.79 841.65a4.4643 4.6429 0 1 1 -8.9286 0 4.4643 4.6429 0 1 1 8.9286 0z" fill="url(#a)"/>
   <path transform="matrix(1.5086 -.77795 .21228 .80498 132.16 -294.33)" d="m-576.79 841.65a4.4643 4.6429 0 1 1 -8.9286 0 4.4643 4.6429 0 1 1 8.9286 0z" fill="url(#a)"/>
  </g>
  <g transform="matrix(.54607 -.061459 .061459 .54607 -44.008 45.695)">
   <path d="m-585.28 852.3c-3.1654-3.216-6.3068-7.169-6.2988-11.911-0.09076-5.8725 5.7895-11.129 11.64-10.039 3.2744 0.37506 6.4698 2.3126 7.9053 5.3445 2.9052-5.7624 11.426-7.171 16.266-3.0551 3.5921 2.7612 4.5521 8.1269 2.4764 12.091-1.8722 4.1143-7.4603 7.4716-10.757 10.465-4.6628 3.7484-7.8731 6.3345-12.036 10.699-0.60225-4.72-4.2626-8.1173-7.2507-11.5-0.65304-0.69364-1.3078-1.3858-1.9451-2.0941z" fill="url(#c)"/>
   <path transform="matrix(1.5086 -.77795 .21228 .80498 112.96 -294.58)" d="m-576.79 841.65a4.4643 4.6429 0 1 1 -8.9286 0 4.4643 4.6429 0 1 1 8.9286 0z" fill="url(#a)"/>
   <path transform="matrix(1.5086 -.77795 .21228 .80498 132.16 -294.33)" d="m-576.79 841.65a4.4643 4.6429 0 1 1 -8.9286 0 4.4643 4.6429 0 1 1 8.9286 0z" fill="url(#a)"/>
  </g>
  <g transform="matrix(.53857 -.10912 .10912 .53857 -57.104 72.262)">
   <path d="m-585.28 852.3c-3.1654-3.216-6.3068-7.169-6.2988-11.911-0.09076-5.8725 5.7895-11.129 11.64-10.039 3.2744 0.37506 6.4698 2.3126 7.9053 5.3445 2.9052-5.7624 11.426-7.171 16.266-3.0551 3.5921 2.7612 4.5521 8.1269 2.4764 12.091-1.8722 4.1143-7.4603 7.4716-10.757 10.465-4.6628 3.7484-7.8731 6.3345-12.036 10.699-0.60225-4.72-4.2626-8.1173-7.2507-11.5-0.65304-0.69364-1.3078-1.3858-1.9451-2.0941z" fill="url(#c)"/>
   <path transform="matrix(1.5086 -.77795 .21228 .80498 112.96 -294.58)" d="m-576.79 841.65a4.4643 4.6429 0 1 1 -8.9286 0 4.4643 4.6429 0 1 1 8.9286 0z" fill="url(#a)"/>
   <path transform="matrix(1.5086 -.77795 .21228 .80498 132.16 -294.33)" d="m-576.79 841.65a4.4643 4.6429 0 1 1 -8.9286 0 4.4643 4.6429 0 1 1 8.9286 0z" fill="url(#a)"/>
  </g>
  <g transform="matrix(.52819 -.15161 .15161 .52819 -69.499 3.2174)">
   <path d="m-585.28 852.3c-3.1654-3.216-6.3068-7.169-6.2988-11.911-0.09076-5.8725 5.7895-11.129 11.64-10.039 3.2744 0.37506 6.4698 2.3126 7.9053 5.3445 2.9052-5.7624 11.426-7.171 16.266-3.0551 3.5921 2.7612 4.5521 8.1269 2.4764 12.091-1.8722 4.1143-7.4603 7.4716-10.757 10.465-4.6628 3.7484-7.8731 6.3345-12.036 10.699-0.60225-4.72-4.2626-8.1173-7.2507-11.5-0.65304-0.69364-1.3078-1.3858-1.9451-2.0941z" fill="url(#c)"/>
   <path transform="matrix(1.5086 -.77795 .21228 .80498 112.96 -294.58)" d="m-576.79 841.65a4.4643 4.6429 0 1 1 -8.9286 0 4.4643 4.6429 0 1 1 8.9286 0z" fill="url(#a)"/>
   <path transform="matrix(1.5086 -.77795 .21228 .80498 132.16 -294.33)" d="m-576.79 841.65a4.4643 4.6429 0 1 1 -8.9286 0 4.4643 4.6429 0 1 1 8.9286 0z" fill="url(#a)"/>
  </g>
  <g transform="matrix(.53529 -.12421 .12421 .53529 4.8489 .74741)">
   <path d="m-585.28 852.3c-3.1654-3.216-6.3068-7.169-6.2988-11.911-0.09076-5.8725 5.7895-11.129 11.64-10.039 3.2744 0.37506 6.4698 2.3126 7.9053 5.3445 2.9052-5.7624 11.426-7.171 16.266-3.0551 3.5921 2.7612 4.5521 8.1269 2.4764 12.091-1.8722 4.1143-7.4603 7.4716-10.757 10.465-4.6628 3.7484-7.8731 6.3345-12.036 10.699-0.60225-4.72-4.2626-8.1173-7.2507-11.5-0.65304-0.69364-1.3078-1.3858-1.9451-2.0941z" fill="url(#c)"/>
   <path transform="matrix(1.5086 -.77795 .21228 .80498 112.96 -294.58)" d="m-576.79 841.65a4.4643 4.6429 0 1 1 -8.9286 0 4.4643 4.6429 0 1 1 8.9286 0z" fill="url(#a)"/>
   <path transform="matrix(1.5086 -.77795 .21228 .80498 132.16 -294.33)" d="m-576.79 841.65a4.4643 4.6429 0 1 1 -8.9286 0 4.4643 4.6429 0 1 1 8.9286 0z" fill="url(#a)"/>
  </g>
  <path d="m-184.49 546.79c-3.717 12.657-24.361 18.029-34.633 4.5357-11.364 32.549-41.163 18.067-55.218 4.7011-14.815 31.703-37.461 19.254-56.093 11.605-13.609 21.929-60.407 22.067-73.493-3.5119-11.683 10.065-49.493 26.073-67.804-1.9234-15.683 9.5279-61.392 18.019-70.643-16.578-16.91 10.57-44.504 21.068-54.415-9.2362l-1.4286-13.75c9.911 30.304 39.648 19.985 56.558 9.4147 9.2507 34.597 54.96 26.106 70.643 16.578 18.31 27.997 56.12 11.988 67.804 1.9234 13.086 25.579 59.884 25.441 73.493 3.5119 18.632 7.6495 41.278 20.098 56.093-11.605 14.055 13.366 43.854 27.848 55.218-4.7011 10.272 13.494 29.119 11.07 35.74-5.88" fill="#bc5fd3" fill-rule="evenodd"/>
  <path d="m-190.01 594.08c-12.03 28.222-43.46 21.662-58.34 10.073-15.685 27.489-39.659 16.695-59.384 10.062-14.408 19.014-63.95 19.134-77.804-3.045-12.369 8.7267-52.397 22.607-71.781-1.6678-16.603 8.2613-64.993 15.623-74.787-14.374-17.901 9.1649-47.747 11.008-59.123-7.8776l-1.2075-11.802c13.207 21.842 43.185 17.077 61.087 7.9122 9.7934 29.998 58.184 22.636 74.787 14.374 19.384 24.275 59.412 10.394 71.781 1.6678 13.854 22.179 63.397 22.059 77.804 3.045 19.725 6.6326 43.699 17.427 59.384-10.062 14.88 11.589 47.275 14.637 59.305-13.585" fill="#f59" fill-rule="evenodd"/>
  <path transform="matrix(2.2365 .66523 -.32501 1.0927 1332.3 100.76)" d="m-573.77 828.36a0.75761 6.3134 0 1 1 -1.5152 0 0.75761 6.3134 0 1 1 1.5152 0z" fill="#ff2a2a"/>
  <path transform="matrix(2.2365 .66523 -.32501 1.0927 1091 113.03)" d="m-573.77 828.36a0.75761 6.3134 0 1 1 -1.5152 0 0.75761 6.3134 0 1 1 1.5152 0z" fill="#ff2a2a"/>
  <path transform="matrix(2.2365 .66523 -.32501 1.0927 976.58 88.622)" d="m-573.77 828.36a0.75761 6.3134 0 1 1 -1.5152 0 0.75761 6.3134 0 1 1 1.5152 0z" fill="#ff2a2a"/>
  <path transform="matrix(2.2365 .66523 -.32501 1.0927 1001.7 96.243)" d="m-573.77 828.36a0.75761 6.3134 0 1 1 -1.5152 0 0.75761 6.3134 0 1 1 1.5152 0z" fill="#ff2a2a"/>
  <path transform="matrix(2.2365 .66523 -.32501 1.0927 1267 108.25)" d="m-573.77 828.36a0.75761 6.3134 0 1 1 -1.5152 0 0.75761 6.3134 0 1 1 1.5152 0z" fill="#ff2a2a"/>
  <path transform="matrix(1.9891 -1.2198 .59594 .97183 321.23 -848.05)" d="m-573.77 828.36a0.75761 6.3134 0 1 1 -1.5152 0 0.75761 6.3134 0 1 1 1.5152 0z" fill="#ff2a2a"/>
  <path transform="matrix(1.9891 -1.2198 .59594 .97183 132.51 -886.32)" d="m-573.77 828.36a0.75761 6.3134 0 1 1 -1.5152 0 0.75761 6.3134 0 1 1 1.5152 0z" fill="#ff2a2a"/>
  <path transform="matrix(1.9891 -1.2198 .59594 .97183 144.99 -877.73)" d="m-573.77 828.36a0.75761 6.3134 0 1 1 -1.5152 0 0.75761 6.3134 0 1 1 1.5152 0z" fill="#ff2a2a"/>
  <path transform="matrix(1.9891 -1.2198 .59594 .97183 309.09 -860.91)" d="m-573.77 828.36a0.75761 6.3134 0 1 1 -1.5152 0 0.75761 6.3134 0 1 1 1.5152 0z" fill="#ff2a2a"/>
  <path transform="matrix(1.9891 -1.2198 .59594 .97183 274.3 -874.53)" d="m-573.77 828.36a0.75761 6.3134 0 1 1 -1.5152 0 0.75761 6.3134 0 1 1 1.5152 0z" fill="#ff2a2a"/>
  <path transform="matrix(1.9891 -1.2198 .59594 .97183 345.35 -876.66)" d="m-573.77 828.36a0.75761 6.3134 0 1 1 -1.5152 0 0.75761 6.3134 0 1 1 1.5152 0z" fill="#ff2a2a"/>
  <path transform="matrix(1.9891 -1.2198 .59594 .97183 234.81 -864.48)" d="m-573.77 828.36a0.75761 6.3134 0 1 1 -1.5152 0 0.75761 6.3134 0 1 1 1.5152 0z" fill="#ff2a2a"/>
  <path transform="matrix(1.2517 1.9692 -.96209 .61154 1040.6 1246.1)" d="m-573.77 828.36a0.75761 6.3134 0 1 1 -1.5152 0 0.75761 6.3134 0 1 1 1.5152 0z" fill="#ff2a2a"/>
  <path transform="matrix(1.2517 1.9692 -.96209 .61154 1304.5 1257.2)" d="m-573.77 828.36a0.75761 6.3134 0 1 1 -1.5152 0 0.75761 6.3134 0 1 1 1.5152 0z" fill="#ff2a2a"/>
  <path transform="matrix(1.2517 1.9692 -.96209 .61154 1242.4 1083.4)" d="m-573.77 828.36a0.75761 6.3134 0 1 1 -1.5152 0 0.75761 6.3134 0 1 1 1.5152 0z" fill="#ff2a2a"/>
  <path transform="matrix(1.2517 1.9692 -.96209 .61154 951.34 1243.3)" d="m-573.77 828.36a0.75761 6.3134 0 1 1 -1.5152 0 0.75761 6.3134 0 1 1 1.5152 0z" fill="#ff2a2a"/>
  <path transform="matrix(1.2517 1.9692 -.96209 .61154 1024.7 1250.5)" d="m-573.77 828.36a0.75761 6.3134 0 1 1 -1.5152 0 0.75761 6.3134 0 1 1 1.5152 0z" fill="#ff2a2a"/>
  <path transform="matrix(1.2517 1.9692 -.96209 .61154 1159.8 1263)" d="m-573.77 828.36a0.75761 6.3134 0 1 1 -1.5152 0 0.75761 6.3134 0 1 1 1.5152 0z" fill="#ff2a2a"/>
  <path transform="matrix(1.2517 1.9692 -.96209 .61154 985.75 1244.8)" d="m-573.77 828.36a0.75761 6.3134 0 1 1 -1.5152 0 0.75761 6.3134 0 1 1 1.5152 0z" fill="#ff2a2a"/>
  <path transform="matrix(.63112 -2.2464 1.0975 .30835 -750.12 -924.92)" d="m-573.77 828.36a0.75761 6.3134 0 1 1 -1.5152 0 0.75761 6.3134 0 1 1 1.5152 0z" fill="#ff2a2a"/>
  <path transform="matrix(.63112 -2.2464 1.0975 .30835 -784.43 -916)" d="m-573.77 828.36a0.75761 6.3134 0 1 1 -1.5152 0 0.75761 6.3134 0 1 1 1.5152 0z" fill="#ff2a2a"/>
  <path transform="matrix(.63112 -2.2464 1.0975 .30835 -814.05 -917.78)" d="m-573.77 828.36a0.75761 6.3134 0 1 1 -1.5152 0 0.75761 6.3134 0 1 1 1.5152 0z" fill="#ff2a2a"/>
  <path transform="matrix(.63112 -2.2464 1.0975 .30835 -942.52 -902.9)" d="m-573.77 828.36a0.75761 6.3134 0 1 1 -1.5152 0 0.75761 6.3134 0 1 1 1.5152 0z" fill="#ff2a2a"/>
  <path transform="matrix(.63112 -2.2464 1.0975 .30835 -957.29 -917.43)" d="m-573.77 828.36a0.75761 6.3134 0 1 1 -1.5152 0 0.75761 6.3134 0 1 1 1.5152 0z" fill="#ff2a2a"/>
  <path transform="matrix(.63112 -2.2464 1.0975 .30835 -1026.2 -914.21)" d="m-573.77 828.36a0.75761 6.3134 0 1 1 -1.5152 0 0.75761 6.3134 0 1 1 1.5152 0z" fill="#ff2a2a"/>
  <path transform="matrix(.63112 -2.2464 1.0975 .30835 -1004.7 -922.54)" d="m-573.77 828.36a0.75761 6.3134 0 1 1 -1.5152 0 0.75761 6.3134 0 1 1 1.5152 0z" fill="#ff2a2a"/>
  <path transform="matrix(.63112 -2.2464 1.0975 .30835 -857.29 -891)" d="m-573.77 828.36a0.75761 6.3134 0 1 1 -1.5152 0 0.75761 6.3134 0 1 1 1.5152 0z" fill="#ff2a2a"/>
  <path transform="matrix(.63112 -2.2464 1.0975 .30835 -1070.6 -1086)" d="m-573.77 828.36a0.75761 6.3134 0 1 1 -1.5152 0 0.75761 6.3134 0 1 1 1.5152 0z" fill="#ff2a2a"/>
  <path transform="matrix(.47745 2.284 -1.1159 .23327 879.38 1751.1)" d="m-573.77 828.36a0.75761 6.3134 0 1 1 -1.5152 0 0.75761 6.3134 0 1 1 1.5152 0z" fill="#ff2a2a"/>
  <path transform="matrix(.47745 2.284 -1.1159 .23327 651.73 1725.1)" d="m-573.77 828.36a0.75761 6.3134 0 1 1 -1.5152 0 0.75761 6.3134 0 1 1 1.5152 0z" fill="#ff2a2a"/>
  <path transform="matrix(.47745 2.284 -1.1159 .23327 953.67 1738.3)" d="m-573.77 828.36a0.75761 6.3134 0 1 1 -1.5152 0 0.75761 6.3134 0 1 1 1.5152 0z" fill="#ff2a2a"/>
  <path transform="matrix(.47745 2.284 -1.1159 .23327 766.55 1756.5)" d="m-573.77 828.36a0.75761 6.3134 0 1 1 -1.5152 0 0.75761 6.3134 0 1 1 1.5152 0z" fill="#ff2a2a"/>
  <path transform="matrix(.47745 2.284 -1.1159 .23327 713.44 1763.8)" d="m-573.77 828.36a0.75761 6.3134 0 1 1 -1.5152 0 0.75761 6.3134 0 1 1 1.5152 0z" fill="#ff2a2a"/>
  <path transform="matrix(.47745 2.284 -1.1159 .23327 758.16 1749.4)" d="m-573.77 828.36a0.75761 6.3134 0 1 1 -1.5152 0 0.75761 6.3134 0 1 1 1.5152 0z" fill="#ff2a2a"/>
  <path transform="matrix(.47745 2.284 -1.1159 .23327 805.45 1751.1)" d="m-573.77 828.36a0.75761 6.3134 0 1 1 -1.5152 0 0.75761 6.3134 0 1 1 1.5152 0z" fill="#ff2a2a"/>
  <path transform="matrix(.47745 2.284 -1.1159 .23327 902.62 1765.4)" d="m-573.77 828.36a0.75761 6.3134 0 1 1 -1.5152 0 0.75761 6.3134 0 1 1 1.5152 0z" fill="#ff2a2a"/>
  <path transform="matrix(.47745 2.284 -1.1159 .23327 872.37 1760.9)" d="m-573.77 828.36a0.75761 6.3134 0 1 1 -1.5152 0 0.75761 6.3134 0 1 1 1.5152 0z" fill="#ff2a2a"/>
  <path transform="matrix(.63112 -2.2464 1.0975 .30835 -801.34 -1110.9)" d="m-573.77 828.36a0.75761 6.3134 0 1 1 -1.5152 0 0.75761 6.3134 0 1 1 1.5152 0z" fill="#ff2a2a"/>
  <path transform="matrix(2.2365 .66523 -.32501 1.0927 1142.5 -44.858)" d="m-573.77 828.36a0.75761 6.3134 0 1 1 -1.5152 0 0.75761 6.3134 0 1 1 1.5152 0z" fill="#ff2a2a"/>
  <path transform="matrix(2.2365 .66523 -.32501 1.0927 1069 -51.286)" d="m-573.77 828.36a0.75761 6.3134 0 1 1 -1.5152 0 0.75761 6.3134 0 1 1 1.5152 0z" fill="#ff2a2a"/>
  <path transform="matrix(2.2365 .66523 -.32501 1.0927 1065.3 -84.112)" d="m-573.77 828.36a0.75761 6.3134 0 1 1 -1.5152 0 0.75761 6.3134 0 1 1 1.5152 0z" fill="#ff2a2a"/>
  <path transform="matrix(2.2365 .66523 -.32501 1.0927 1034.6 -78.398)" d="m-573.77 828.36a0.75761 6.3134 0 1 1 -1.5152 0 0.75761 6.3134 0 1 1 1.5152 0z" fill="#ff2a2a"/>
  <path transform="matrix(1.9891 -1.2198 .59594 .97183 281.45 -1059.7)" d="m-573.77 828.36a0.75761 6.3134 0 1 1 -1.5152 0 0.75761 6.3134 0 1 1 1.5152 0z" fill="#ff2a2a"/>
  <path transform="matrix(1.9891 -1.2198 .59594 .97183 280.42 -1033.8)" d="m-573.77 828.36a0.75761 6.3134 0 1 1 -1.5152 0 0.75761 6.3134 0 1 1 1.5152 0z" fill="#ff2a2a"/>
  <path transform="matrix(1.9891 -1.2198 .59594 .97183 296.28 -1036.6)" d="m-573.77 828.36a0.75761 6.3134 0 1 1 -1.5152 0 0.75761 6.3134 0 1 1 1.5152 0z" fill="#ff2a2a"/>
  <path transform="matrix(1.9891 -1.2198 .59594 .97183 383.59 -1054)" d="m-573.77 828.36a0.75761 6.3134 0 1 1 -1.5152 0 0.75761 6.3134 0 1 1 1.5152 0z" fill="#ff2a2a"/>
  <path transform="matrix(1.9891 -1.2198 .59594 .97183 142.56 -1068.8)" d="m-573.77 828.36a0.75761 6.3134 0 1 1 -1.5152 0 0.75761 6.3134 0 1 1 1.5152 0z" fill="#ff2a2a"/>
  <path transform="matrix(1.9891 -1.2198 .59594 .97183 226.3 -1055.9)" d="m-573.77 828.36a0.75761 6.3134 0 1 1 -1.5152 0 0.75761 6.3134 0 1 1 1.5152 0z" fill="#ff2a2a"/>
  <path transform="matrix(1.9891 -1.2198 .59594 .97183 341.28 -1051.6)" d="m-573.77 828.36a0.75761 6.3134 0 1 1 -1.5152 0 0.75761 6.3134 0 1 1 1.5152 0z" fill="#ff2a2a"/>
  <path transform="matrix(1.9891 -1.2198 .59594 .97183 189.7 -1060.3)" d="m-573.77 828.36a0.75761 6.3134 0 1 1 -1.5152 0 0.75761 6.3134 0 1 1 1.5152 0z" fill="#ff2a2a"/>
  <path transform="matrix(1.9891 -1.2198 .59594 .97183 366.13 -1043.1)" d="m-573.77 828.36a0.75761 6.3134 0 1 1 -1.5152 0 0.75761 6.3134 0 1 1 1.5152 0z" fill="#ff2a2a"/>
  <path transform="matrix(1.9891 -1.2198 .59594 .97183 331.13 -1046)" d="m-573.77 828.36a0.75761 6.3134 0 1 1 -1.5152 0 0.75761 6.3134 0 1 1 1.5152 0z" fill="#ff2a2a"/>
  <path transform="matrix(1.2517 1.9692 -.96209 .61154 1268.8 1070.6)" d="m-573.77 828.36a0.75761 6.3134 0 1 1 -1.5152 0 0.75761 6.3134 0 1 1 1.5152 0z" fill="#ff2a2a"/>
  <path transform="matrix(.63112 -2.2464 1.0975 .30835 -949.8 -1086.4)" d="m-573.77 828.36a0.75761 6.3134 0 1 1 -1.5152 0 0.75761 6.3134 0 1 1 1.5152 0z" fill="#ff2a2a"/>
  <path transform="matrix(.63112 -2.2464 1.0975 .30835 -987.07 -1093.4)" d="m-573.77 828.36a0.75761 6.3134 0 1 1 -1.5152 0 0.75761 6.3134 0 1 1 1.5152 0z" fill="#ff2a2a"/>
  <path transform="matrix(.63112 -2.2464 1.0975 .30835 -833.96 -1068.1)" d="m-573.77 828.36a0.75761 6.3134 0 1 1 -1.5152 0 0.75761 6.3134 0 1 1 1.5152 0z" fill="#ff2a2a"/>
  <path transform="matrix(.63112 -2.2464 1.0975 .30835 -932.07 -1079.6)" d="m-573.77 828.36a0.75761 6.3134 0 1 1 -1.5152 0 0.75761 6.3134 0 1 1 1.5152 0z" fill="#ff2a2a"/>
  <path transform="matrix(1.2517 1.9692 -.96209 .61154 1223.5 1072.4)" d="m-573.77 828.36a0.75761 6.3134 0 1 1 -1.5152 0 0.75761 6.3134 0 1 1 1.5152 0z" fill="#ff2a2a"/>
  <path transform="matrix(1.2517 1.9692 -.96209 .61154 1241.8 1065.6)" d="m-573.77 828.36a0.75761 6.3134 0 1 1 -1.5152 0 0.75761 6.3134 0 1 1 1.5152 0z" fill="#ff2a2a"/>
  <path transform="matrix(1.2517 1.9692 -.96209 .61154 1213.8 1094.1)" d="m-573.77 828.36a0.75761 6.3134 0 1 1 -1.5152 0 0.75761 6.3134 0 1 1 1.5152 0z" fill="#ff2a2a"/>
  <path transform="matrix(1.2517 1.9692 -.96209 .61154 1083.5 1063.8)" d="m-573.77 828.36a0.75761 6.3134 0 1 1 -1.5152 0 0.75761 6.3134 0 1 1 1.5152 0z" fill="#ff2a2a"/>
  <path transform="matrix(1.2517 1.9692 -.96209 .61154 1163.3 1105.6)" d="m-573.77 828.36a0.75761 6.3134 0 1 1 -1.5152 0 0.75761 6.3134 0 1 1 1.5152 0z" fill="#ff2a2a"/>
  <path transform="matrix(1.2517 1.9692 -.96209 .61154 1181 1088.4)" d="m-573.77 828.36a0.75761 6.3134 0 1 1 -1.5152 0 0.75761 6.3134 0 1 1 1.5152 0z" fill="#ff2a2a"/>
  <path transform="matrix(1.2517 1.9692 -.96209 .61154 1155.7 1083.1)" d="m-573.77 828.36a0.75761 6.3134 0 1 1 -1.5152 0 0.75761 6.3134 0 1 1 1.5152 0z" fill="#ff2a2a"/>
  <path transform="matrix(1.2517 1.9692 -.96209 .61154 980.25 1081.3)" d="m-573.77 828.36a0.75761 6.3134 0 1 1 -1.5152 0 0.75761 6.3134 0 1 1 1.5152 0z" fill="#ff2a2a"/>
  <path transform="matrix(.63112 -2.2464 1.0975 .30835 -1023.4 -1100.6)" d="m-573.77 828.36a0.75761 6.3134 0 1 1 -1.5152 0 0.75761 6.3134 0 1 1 1.5152 0z" fill="#ff2a2a"/>
  <path transform="matrix(.63112 -2.2464 1.0975 .30835 -1023.2 -1088.1)" d="m-573.77 828.36a0.75761 6.3134 0 1 1 -1.5152 0 0.75761 6.3134 0 1 1 1.5152 0z" fill="#ff2a2a"/>
  <path transform="matrix(.63112 -2.2464 1.0975 .30835 -944.22 -1096)" d="m-573.77 828.36a0.75761 6.3134 0 1 1 -1.5152 0 0.75761 6.3134 0 1 1 1.5152 0z" fill="#ff2a2a"/>
  <path transform="matrix(.63112 -2.2464 1.0975 .30835 -1053.2 -1084.6)" d="m-573.77 828.36a0.75761 6.3134 0 1 1 -1.5152 0 0.75761 6.3134 0 1 1 1.5152 0z" fill="#ff2a2a"/>
  <path transform="matrix(.63112 -2.2464 1.0975 .30835 -794.93 -1090.3)" d="m-573.77 828.36a0.75761 6.3134 0 1 1 -1.5152 0 0.75761 6.3134 0 1 1 1.5152 0z" fill="#ff2a2a"/>
  <path transform="matrix(.63112 -2.2464 1.0975 .30835 -1043.2 -1091.7)" d="m-573.77 828.36a0.75761 6.3134 0 1 1 -1.5152 0 0.75761 6.3134 0 1 1 1.5152 0z" fill="#ff2a2a"/>
  <path transform="matrix(.63112 -2.2464 1.0975 .30835 -856.36 -1106)" d="m-573.77 828.36a0.75761 6.3134 0 1 1 -1.5152 0 0.75761 6.3134 0 1 1 1.5152 0z" fill="#ff2a2a"/>
  <path transform="matrix(.47745 2.284 -1.1159 .23327 818.88 1573)" d="m-573.77 828.36a0.75761 6.3134 0 1 1 -1.5152 0 0.75761 6.3134 0 1 1 1.5152 0z" fill="#ff2a2a"/>
  <path transform="matrix(.47745 2.284 -1.1159 .23327 747.83 1584.5)" d="m-573.77 828.36a0.75761 6.3134 0 1 1 -1.5152 0 0.75761 6.3134 0 1 1 1.5152 0z" fill="#ff2a2a"/>
  <path transform="matrix(.47745 2.284 -1.1159 .23327 863.65 1570)" d="m-573.77 828.36a0.75761 6.3134 0 1 1 -1.5152 0 0.75761 6.3134 0 1 1 1.5152 0z" fill="#ff2a2a"/>
  <path transform="matrix(.47745 2.284 -1.1159 .23327 815.52 1560.2)" d="m-573.77 828.36a0.75761 6.3134 0 1 1 -1.5152 0 0.75761 6.3134 0 1 1 1.5152 0z" fill="#ff2a2a"/>
  <path transform="matrix(.47745 2.284 -1.1159 .23327 767.83 1583.8)" d="m-573.77 828.36a0.75761 6.3134 0 1 1 -1.5152 0 0.75761 6.3134 0 1 1 1.5152 0z" fill="#ff2a2a"/>
  <path transform="matrix(.47745 2.284 -1.1159 .23327 659.37 1559.3)" d="m-573.77 828.36a0.75761 6.3134 0 1 1 -1.5152 0 0.75761 6.3134 0 1 1 1.5152 0z" fill="#ff2a2a"/>
  <path transform="matrix(.47745 2.284 -1.1159 .23327 774.35 1594.8)" d="m-573.77 828.36a0.75761 6.3134 0 1 1 -1.5152 0 0.75761 6.3134 0 1 1 1.5152 0z" fill="#ff2a2a"/>
  <path transform="matrix(.47745 2.284 -1.1159 .23327 740.78 1577.6)" d="m-573.77 828.36a0.75761 6.3134 0 1 1 -1.5152 0 0.75761 6.3134 0 1 1 1.5152 0z" fill="#ff2a2a"/>
  <path transform="matrix(.47745 2.284 -1.1159 .23327 669.7 1544.8)" d="m-573.77 828.36a0.75761 6.3134 0 1 1 -1.5152 0 0.75761 6.3134 0 1 1 1.5152 0z" fill="#ff2a2a"/>
  <path d="m-498.51 296.92c-5.9334-7.0121-12.763-11.795-15.734-19.317s0.54878-13.631 5.0898-18.798 10.224-12.701 11.447-20.49-1.4366-14.232-2.3328-21.304c8.3365 14.937 7.9836 23.159 3.6511 32.061s-11.246 11.826-14.26 21.81 6.3247 19.281 12.138 26.039z" fill="url(#q)" fill-rule="evenodd"/>
  <path d="m-485.4 290.77c5.9334-7.0121 12.763-11.795 15.734-19.317s-0.54878-13.631-5.0898-18.798-10.224-12.701-11.447-20.49 1.4366-14.232 2.3328-21.304c-8.3365 14.937-7.9836 23.159-3.6511 32.061s11.246 11.826 14.26 21.81-6.3247 19.281-12.138 26.039z" fill="url(#r)" fill-rule="evenodd"/>
  <path d="m-468.89 286.94c5.9334-7.0121 12.763-11.795 15.734-19.317s-0.54878-13.631-5.0898-18.798-10.224-12.701-11.447-20.49 1.4366-14.232 2.3328-21.304c-8.3365 14.937-7.9836 23.159-3.6511 32.061s11.246 11.826 14.26 21.81-6.3247 19.281-12.138 26.039z" fill="url(#s)" fill-rule="evenodd"/>
  <path d="m-483.46 284.84c-5.0399-5.8282-10.841-9.8033-13.365-16.056s0.46613-11.329 4.3233-15.624 8.6842-10.557 9.7232-17.03-1.2202-11.829-1.9815-17.707c7.081 12.415 6.7813 19.249 3.1013 26.647s-9.5526 9.8292-12.112 18.128 5.3722 16.026 10.31 21.642z" fill="url(#t)" fill-rule="evenodd"/>
  <path d="m-448.42 259.37c-5.4866-4.8947-11.802-8.2331-14.549-13.484s0.50745-9.5147 4.7065-13.122 9.454-8.8657 10.585-14.303-1.3284-9.9341-2.1572-14.871c7.7088 10.426 7.3824 16.166 3.3762 22.379s-10.399 8.2548-13.186 15.224 5.8484 13.459 11.224 18.176z" fill="url(#u)" fill-rule="evenodd"/>
  <path d="m-457.19 283.64c5.9334-7.0121 12.763-11.795 15.734-19.317s-0.54878-13.631-5.0898-18.798-10.224-12.701-11.447-20.49 1.4366-14.232 2.3328-21.304c-8.3365 14.937-7.9836 23.159-3.6511 32.061s11.246 11.826 14.26 21.81-6.3247 19.281-12.138 26.039z" fill="url(#v)" fill-rule="evenodd"/>
  <path d="m-389.95 282.54c4.7207-7.0121 10.155-11.795 12.518-19.317s-0.43663-13.631-4.0495-18.798-8.1343-12.701-9.1075-20.49 1.143-14.232 1.856-21.304c-6.6327 14.937-6.3519 23.159-2.9049 32.061s8.9477 11.826 11.345 21.81-5.032 19.281-9.6575 26.039z" fill="url(#w)" fill-rule="evenodd"/>
  <path d="m-401.73 282.91c-5.9334-7.0121-12.763-11.795-15.734-19.317s0.54878-13.631 5.0898-18.798 10.224-12.701 11.447-20.49-1.4366-14.232-2.3328-21.304c8.3365 14.937 7.9836 23.159 3.6511 32.061s-11.246 11.826-14.26 21.81 6.3247 19.281 12.138 26.039z" fill="url(#x)" fill-rule="evenodd"/>
  <path d="m-418.1 283.64c-5.9334-7.0121-12.763-11.795-15.734-19.317s0.54877-13.631 5.0898-18.798 10.224-12.701 11.447-20.49-1.4366-14.232-2.3328-21.304c8.3365 14.937 7.9836 23.159 3.6511 32.061s-11.246 11.826-14.26 21.81 6.3247 19.281 12.138 26.039z" fill="url(#y)" fill-rule="evenodd"/>
  <path d="m-405.52 281.81c4.9122-7.0121 10.567-11.795 13.026-19.317s-0.45434-13.631-4.2138-18.798-8.4642-12.701-9.4769-20.49 1.1893-14.232 1.9313-21.304c-6.9017 14.937-6.6095 23.159-3.0227 32.061s9.3106 11.826 11.805 21.81-5.2361 19.281-10.049 26.039z" fill="url(#z)" fill-rule="evenodd"/>
  <path d="m-439.8 258.71c3.2527-4.9857 6.9969-8.3863 8.6255-13.735s-0.30086-9.6918-2.7903-13.366-5.6048-9.0307-6.2754-14.569 0.78755-10.119 1.2789-15.148c-4.5702 10.62-4.3767 16.467-2.0016 22.796s6.1653 8.4084 7.8172 15.507-3.4672 13.709-6.6544 18.514z" fill="url(#aa)" fill-rule="evenodd"/>
  <path d="m-431.13 283.27c-5.9334-7.0121-12.763-11.795-15.734-19.317s0.54878-13.631 5.0898-18.798 10.224-12.701 11.447-20.49-1.4366-14.232-2.3328-21.304c8.3365 14.937 7.9836 23.159 3.6511 32.061s-11.246 11.826-14.26 21.81 6.3247 19.281 12.138 26.039z" fill="url(#ab)" fill-rule="evenodd"/>
  <path d="m-384.16 286.21c-5.9334-7.0121-12.763-11.795-15.734-19.317s0.54877-13.631 5.0898-18.798 10.224-12.701 11.447-20.49-1.4366-14.232-2.3328-21.304c8.3365 14.937 7.9836 23.159 3.6511 32.061s-11.246 11.826-14.26 21.81 6.3247 19.281 12.138 26.039z" fill="url(#ac)" fill-rule="evenodd"/>
  <path d="m-372.48 280.06c5.9334-7.0121 12.763-11.795 15.734-19.317s-0.54878-13.631-5.0898-18.798-10.224-12.701-11.447-20.49 1.4366-14.232 2.3328-21.304c-8.3365 14.937-7.9836 23.159-3.6511 32.061s11.246 11.826 14.26 21.81-6.3247 19.281-12.138 26.039z" fill="url(#ad)" fill-rule="evenodd"/>
  <path d="m-353.11 286.94c5.9334-7.0121 12.763-11.795 15.734-19.317s-0.54878-13.631-5.0898-18.798-10.224-12.701-11.447-20.49 1.4366-14.232 2.3328-21.304c-8.3365 14.937-7.9836 23.159-3.6511 32.061s11.246 11.826 14.26 21.81-6.3247 19.281-12.138 26.039z" fill="url(#ae)" fill-rule="evenodd"/>
  <path d="m-363.04 272.7c-5.0399-5.8282-10.841-9.8033-13.365-16.056s0.46613-11.329 4.3233-15.624 8.6842-10.557 9.7232-17.03-1.2202-11.829-1.9815-17.707c7.081 12.415 6.7812 19.249 3.1013 26.647s-9.5526 9.8292-12.112 18.128 5.3722 16.026 10.31 21.642z" fill="url(#af)" fill-rule="evenodd"/>
  <path d="m-330.86 259.73c-5.4866-4.8947-11.802-8.2331-14.549-13.484s0.50745-9.5147 4.7065-13.122 9.454-8.8657 10.585-14.303-1.3284-9.9341-2.1572-14.871c7.7088 10.426 7.3824 16.166 3.3762 22.379s-10.399 8.2548-13.186 15.224 5.8484 13.459 11.224 18.176z" fill="url(#ag)" fill-rule="evenodd"/>
  <path d="m-341.41 283.64c5.9334-7.0121 12.763-11.795 15.734-19.317s-0.54878-13.631-5.0898-18.798-10.224-12.701-11.447-20.49 1.4366-14.232 2.3328-21.304c-8.3365 14.937-7.9836 23.159-3.6511 32.061s11.246 11.826 14.26 21.81-6.3247 19.281-12.138 26.039z" fill="url(#ah)" fill-rule="evenodd"/>
  <path d="m-269.52 293.25c4.7207-7.0121 10.155-11.795 12.518-19.317s-0.43663-13.631-4.0495-18.798-8.1343-12.701-9.1075-20.49 1.143-14.232 1.856-21.304c-6.6327 14.937-6.3519 23.159-2.9049 32.061s8.9477 11.826 11.345 21.81-5.032 19.281-9.6575 26.039z" fill="url(#ai)" fill-rule="evenodd"/>
  <path d="m-282.73 287.91c-5.9334-7.0121-12.763-11.795-15.734-19.317s0.54877-13.631 5.0898-18.798 10.224-12.701 11.447-20.49-1.4366-14.232-2.3328-21.304c8.3365 14.937 7.9836 23.159 3.6511 32.061s-11.246 11.826-14.26 21.81 6.3247 19.281 12.138 26.039z" fill="url(#aj)" fill-rule="evenodd"/>
  <path d="m-298.75 288.28c-5.9334-7.0121-12.763-11.795-15.734-19.317s0.54878-13.631 5.0898-18.798 10.224-12.701 11.447-20.49-1.4366-14.232-2.3328-21.304c8.3365 14.937 7.9836 23.159 3.6511 32.061s-11.246 11.826-14.26 21.81 6.3247 19.281 12.138 26.039z" fill="url(#ak)" fill-rule="evenodd"/>
  <path d="m-286.89 290.73c4.9122-7.0121 10.567-11.795 13.026-19.317s-0.45434-13.631-4.2138-18.798-8.4642-12.701-9.4769-20.49 1.1893-14.232 1.9313-21.304c-6.9017 14.937-6.6095 23.159-3.0227 32.061s9.3106 11.826 11.805 21.81-5.2361 19.281-10.049 26.039z" fill="url(#al)" fill-rule="evenodd"/>
  <path d="m-320.45 268.36c3.2527-4.9857 6.9969-8.3863 8.6255-13.735s-0.30085-9.6918-2.7903-13.366-5.6048-9.0307-6.2754-14.569 0.78754-10.119 1.2789-15.148c-4.5702 10.62-4.3767 16.467-2.0016 22.796s6.1653 8.4084 7.8172 15.507-3.4672 13.709-6.6544 18.514z" fill="url(#am)" fill-rule="evenodd"/>
  <path d="m-315.35 283.27c-5.9334-7.0121-12.763-11.795-15.734-19.317s0.54878-13.631 5.0898-18.798 10.224-12.701 11.447-20.49-1.4366-14.232-2.3328-21.304c8.3365 14.937 7.9836 23.159 3.6511 32.061s-11.246 11.826-14.26 21.81 6.3247 19.281 12.138 26.039z" fill="url(#an)" fill-rule="evenodd"/>
  <g transform="matrix(.53857 -.10912 .10912 .53857 8.0116 60.234)">
   <path d="m-585.28 852.3c-3.1654-3.216-6.3068-7.169-6.2988-11.911-0.09076-5.8725 5.7895-11.129 11.64-10.039 3.2744 0.37506 6.4698 2.3126 7.9053 5.3445 2.9052-5.7624 11.426-7.171 16.266-3.0551 3.5921 2.7612 4.5521 8.1269 2.4764 12.091-1.8722 4.1143-7.4603 7.4716-10.757 10.465-4.6628 3.7484-7.8731 6.3345-12.036 10.699-0.60225-4.72-4.2626-8.1173-7.2507-11.5-0.65304-0.69364-1.3078-1.3858-1.9451-2.0941z" fill="url(#c)"/>
   <path transform="matrix(1.5086 -.77795 .21228 .80498 112.96 -294.58)" d="m-576.79 841.65a4.4643 4.6429 0 1 1 -8.9286 0 4.4643 4.6429 0 1 1 8.9286 0z" fill="url(#a)"/>
   <path transform="matrix(1.5086 -.77795 .21228 .80498 132.16 -294.33)" d="m-576.79 841.65a4.4643 4.6429 0 1 1 -8.9286 0 4.4643 4.6429 0 1 1 8.9286 0z" fill="url(#a)"/>
  </g>
 </g>
</svg>
