<?xml version="1.0" encoding="utf-8"?>
<!-- Generator: Adobe Illustrator 26.0.1, SVG Export Plug-In . SVG Version: 6.00 Build 0)  -->
<svg version="1.1" id="Layer_1" xmlns="http://www.w3.org/2000/svg" xmlns:xlink="http://www.w3.org/1999/xlink" x="0px" y="0px"
	 viewBox="0 0 600 450" enable-background="new 0 0 600 450" xml:space="preserve">
<g>
	
		<linearGradient id="SVGID_1_" gradientUnits="userSpaceOnUse" x1="360.9897" y1="-44.4766" x2="360.4114" y2="67.7914" gradientTransform="matrix(1 0 0 -1 -72.6001 256.0991)">
		<stop  offset="0" style="stop-color:#DDA322"/>
		<stop  offset="0.113" style="stop-color:#FFF6B2"/>
		<stop  offset="0.229" style="stop-color:#DDA322"/>
		<stop  offset="0.442" style="stop-color:#FFF6B2"/>
		<stop  offset="0.624" style="stop-color:#DDA322"/>
		<stop  offset="0.833" style="stop-color:#FFF6B2"/>
	</linearGradient>
	<path fill="url(#SVGID_1_)" d="M288.639,300.719c-3.836-3.089-7.378-6.892-8.024-11.494c-0.626-4.456,1.721-8.611,4.168-12.405
		c2.71-4.078,5.644-8.061,6.957-12.667c0.38-1.331,0.381-2.01,0.46-3.233c0.076-3.287-0.503-6.565-2.297-9.512
		c-0.794-1.308-1.748-2.516-2.78-3.693c-1.538-1.757-3.248-3.411-4.427-5.374c-1.554-2.582-1.771-6.377-1.053-9.148
		c0.676-2.609,2.439-4.806,4.137-7.006c1.393-1.808,2.708-3.647,3.711-5.637c0.912-1.813,1.601-3.704,2.109-5.627
		c1.377-5.204,1.304-9.743,0.082-14.995c-0.757-3.256-1.919-6.482-3.917-9.35c-0.079-0.114,0.547-0.789,1.4-1.508
		c0.852-0.718,1.608-1.21,1.688-1.097c2.285,3.289,3.509,7.05,4.229,10.798c0.921,4.797,0.861,8.925-0.388,13.645
		c-0.605,2.292-1.468,4.534-2.642,6.662c-0.971,1.757-2.176,3.4-3.426,5.022c-1.136,1.477-2.312,2.924-3.133,4.554
		c-1.269,2.52-1.407,5.707-0.789,8.371c0.96,4.14,4.947,6.971,7.416,10.455c2.828,3.99,3.817,8.833,2.895,13.424
		c-0.823,4.311-3.617,8.024-6.039,11.78c-0.976,1.512-1.977,3.013-2.884,4.557c-0.451,0.767-0.79,1.579-1.185,2.369
		c-1.351,3.091-1.76,6.387-0.537,9.563c1.355,3.521,4.243,6.415,7.345,8.934c0.109,0.088-0.491,0.746-1.34,1.468
		C289.523,300.293,288.747,300.808,288.639,300.719z"/>
	<g>
		
			<radialGradient id="SVGID_00000115506879317434345730000015111715223966546587_" cx="365.2223" cy="67.3757" r="9.1047" gradientTransform="matrix(1 0 0 -1 -72.6001 256.0991)" gradientUnits="userSpaceOnUse">
			<stop  offset="0.615" style="stop-color:#A40004"/>
			<stop  offset="1" style="stop-color:#80000D"/>
		</radialGradient>
		<path fill="url(#SVGID_00000115506879317434345730000015111715223966546587_)" d="M292.712,195.738
			c-1.595-0.038-3.295-0.171-4.722-0.951c-1.079-0.59-1.87-1.684-1.133-2.852c0.429-0.682,1.233-1.086,1.967-1.349
			c1.756-0.63,3.853-0.708,5.701-0.473c1.202,0.151,2.636,0.479,3.576,1.292c0.717,0.622,0.99,1.572,0.469,2.401
			c-0.43,0.682-1.233,1.087-1.968,1.35c-1.088,0.389-2.125,0.476-3.268,0.57L292.712,195.738z M292.712,194.019
			c1.314,0,2.536-0.197,3.409-0.531c0.681-0.26,0.986-0.534,0.986-0.617c0-0.084-0.304-0.358-0.986-0.618
			c-0.873-0.334-2.095-0.53-3.409-0.53c-1.313,0-2.534,0.196-3.408,0.53c-0.682,0.26-0.985,0.534-0.985,0.618
			c0,0.083,0.303,0.357,0.985,0.617C290.178,193.821,291.399,194.019,292.712,194.019z"/>
		
			<linearGradient id="SVGID_00000089573022768714106030000003925462260615873976_" gradientUnits="userSpaceOnUse" x1="365.3182" y1="61.37" x2="365.2478" y2="72.5468" gradientTransform="matrix(1 0 0 -1 -72.6001 256.0991)">
			<stop  offset="0" style="stop-color:#C70005"/>
			<stop  offset="1" style="stop-color:#69000B"/>
		</linearGradient>
		<path fill="url(#SVGID_00000089573022768714106030000003925462260615873976_)" d="M292.705,194.502
			c-2.75,0-4.979-0.861-4.979-1.924c0.01-0.298,0.047-0.596,0.101-0.892c0.539-2.973,1.862-5.76,3.207-8.44
			c-0.561-1.4,3.391-1.666,3.048-0.111c0.965,2.566,1.936,5.131,2.926,7.688c0.161,0.416,0.301,0.84,0.485,1.245
			c0.048,0.109,0.124,0.204,0.166,0.314c0.024,0.062,0.017,0.132,0.025,0.196C297.683,193.641,295.454,194.502,292.705,194.502z"/>
		<g>
			<defs>
				<filter id="Adobe_OpacityMaskFilter" filterUnits="userSpaceOnUse" x="289.861" y="183.174" width="2.297" height="10.211">
					<feFlood  style="flood-color:white;flood-opacity:1" result="back"/>
					<feBlend  in="SourceGraphic" in2="back" mode="normal"/>
				</filter>
			</defs>
			
				<mask maskUnits="userSpaceOnUse" x="289.861" y="183.174" width="2.297" height="10.211" id="SVGID_00000070819813542512495640000008530522576964419768_">
				<g filter="url(#Adobe_OpacityMaskFilter)">
					<defs>
						
							<filter id="Adobe_OpacityMaskFilter_00000149372040296265766110000009567529642832949935_" filterUnits="userSpaceOnUse" x="289.861" y="183.174" width="2.297" height="10.211">
							<feFlood  style="flood-color:white;flood-opacity:1" result="back"/>
							<feBlend  in="SourceGraphic" in2="back" mode="normal"/>
						</filter>
					</defs>
					
						<mask maskUnits="userSpaceOnUse" x="289.861" y="183.174" width="2.297" height="10.211" id="SVGID_00000070819813542512495640000008530522576964419768_">
						<g filter="url(#Adobe_OpacityMaskFilter_00000149372040296265766110000009567529642832949935_)">
						</g>
					</mask>
					
						<linearGradient id="SVGID_00000000202369788452940660000011778909354424727172_" gradientUnits="userSpaceOnUse" x1="310.5836" y1="38.6166" x2="311.5473" y2="28.4297" gradientTransform="matrix(0.991 -0.131 -0.131 -0.991 -12.8351 261.9959)">
						<stop  offset="0" style="stop-color:#000000"/>
						<stop  offset="0.607" style="stop-color:#FFFFFF"/>
					</linearGradient>
					
						<path mask="url(#SVGID_00000070819813542512495640000008530522576964419768_)" fill="url(#SVGID_00000000202369788452940660000011778909354424727172_)" d="
						M291.896,183.208l0.262-0.034c0,0-1.538,5.826-1.463,8.141c0.05,1.551-0.691,3.204-0.827,1.013
						C289.73,190.137,291.896,183.208,291.896,183.208z"/>
				</g>
			</mask>
			
				<linearGradient id="SVGID_00000009566982055384081990000015704534201520744851_" gradientUnits="userSpaceOnUse" x1="310.5836" y1="38.6166" x2="311.5473" y2="28.4297" gradientTransform="matrix(0.991 -0.131 -0.131 -0.991 -12.8351 261.9959)">
				<stop  offset="0" style="stop-color:#000000"/>
				<stop  offset="0.607" style="stop-color:#FFA7A9"/>
			</linearGradient>
			<path opacity="0.171" fill="url(#SVGID_00000009566982055384081990000015704534201520744851_)" enable-background="new    " d="
				M291.896,183.208l0.262-0.034c0,0-1.538,5.826-1.463,8.141c0.05,1.551-0.691,3.204-0.827,1.013
				C289.73,190.137,291.896,183.208,291.896,183.208z"/>
			<defs>
				
					<filter id="Adobe_OpacityMaskFilter_00000029043435631269984100000006273224802116839586_" filterUnits="userSpaceOnUse" x="292.389" y="183.996" width="3.884" height="9.817">
					<feFlood  style="flood-color:white;flood-opacity:1" result="back"/>
					<feBlend  in="SourceGraphic" in2="back" mode="normal"/>
				</filter>
			</defs>
			
				<mask maskUnits="userSpaceOnUse" x="292.389" y="183.996" width="3.884" height="9.817" id="SVGID_00000030461254826425178450000012725107648353220755_">
				<g filter="url(#Adobe_OpacityMaskFilter_00000029043435631269984100000006273224802116839586_)">
					<defs>
						
							<filter id="Adobe_OpacityMaskFilter_00000183230036787104947690000000365589078638558615_" filterUnits="userSpaceOnUse" x="292.389" y="183.996" width="3.884" height="9.817">
							<feFlood  style="flood-color:white;flood-opacity:1" result="back"/>
							<feBlend  in="SourceGraphic" in2="back" mode="normal"/>
						</filter>
					</defs>
					
						<mask maskUnits="userSpaceOnUse" x="292.389" y="183.996" width="3.884" height="9.817" id="SVGID_00000030461254826425178450000012725107648353220755_">
						<g filter="url(#Adobe_OpacityMaskFilter_00000183230036787104947690000000365589078638558615_)">
						</g>
					</mask>
					
						<linearGradient id="SVGID_00000143587861037831435480000010045116034390522521_" gradientUnits="userSpaceOnUse" x1="-120.956" y1="16.5362" x2="-119.9109" y2="6.1995" gradientTransform="matrix(-0.974 0.226 -0.226 -0.974 179.3504 227.1973)">
						<stop  offset="0" style="stop-color:#000000"/>
						<stop  offset="0.607" style="stop-color:#FFFFFF"/>
					</linearGradient>
					
						<path mask="url(#SVGID_00000030461254826425178450000012725107648353220755_)" fill="url(#SVGID_00000143587861037831435480000010045116034390522521_)" d="
						M292.718,183.996l-0.329,0.127c0,0,6.457,10.038,1.555,8.72c-1.282-0.345-1.838,0.939,0.297,0.97
						C299.576,193.894,292.718,183.996,292.718,183.996z"/>
				</g>
			</mask>
			
				<linearGradient id="SVGID_00000124856903461591565390000005552793650282114954_" gradientUnits="userSpaceOnUse" x1="-120.956" y1="16.5362" x2="-119.9109" y2="6.1995" gradientTransform="matrix(-0.974 0.226 -0.226 -0.974 179.3504 227.1973)">
				<stop  offset="0" style="stop-color:#000000"/>
				<stop  offset="0.607" style="stop-color:#FFA7A9"/>
			</linearGradient>
			<path opacity="0.171" fill="url(#SVGID_00000124856903461591565390000005552793650282114954_)" enable-background="new    " d="
				M292.718,183.996l-0.329,0.127c0,0,6.457,10.038,1.555,8.72c-1.282-0.345-1.838,0.939,0.297,0.97
				C299.576,193.894,292.718,183.996,292.718,183.996z"/>
			<defs>
				
					<filter id="Adobe_OpacityMaskFilter_00000101089482375053714100000010826434093788207011_" filterUnits="userSpaceOnUse" x="291.497" y="182.51" width="3.241" height="9.636">
					<feFlood  style="flood-color:white;flood-opacity:1" result="back"/>
					<feBlend  in="SourceGraphic" in2="back" mode="normal"/>
				</filter>
			</defs>
			
				<mask maskUnits="userSpaceOnUse" x="291.497" y="182.51" width="3.241" height="9.636" id="SVGID_00000024693092356190005160000009827853041107780494_">
				<g filter="url(#Adobe_OpacityMaskFilter_00000101089482375053714100000010826434093788207011_)">
					<defs>
						
							<filter id="Adobe_OpacityMaskFilter_00000111183932884775038380000010204275635540296608_" filterUnits="userSpaceOnUse" x="291.497" y="182.51" width="3.241" height="9.636">
							<feFlood  style="flood-color:white;flood-opacity:1" result="back"/>
							<feBlend  in="SourceGraphic" in2="back" mode="normal"/>
						</filter>
					</defs>
					
						<mask maskUnits="userSpaceOnUse" x="291.497" y="182.51" width="3.241" height="9.636" id="SVGID_00000024693092356190005160000009827853041107780494_">
						<g filter="url(#Adobe_OpacityMaskFilter_00000111183932884775038380000010204275635540296608_)">
						</g>
					</mask>
					
						<linearGradient id="SVGID_00000065791910174889968640000005447554709757654962_" gradientUnits="userSpaceOnUse" x1="-176.1193" y1="47.8034" x2="-175.4531" y2="37.6213" gradientTransform="matrix(-0.995 0.096 -0.096 -0.995 122.3172 246.5491)">
						<stop  offset="0" style="stop-color:#000000"/>
						<stop  offset="0.607" style="stop-color:#FFFFFF"/>
					</linearGradient>
					
						<path mask="url(#SVGID_00000024693092356190005160000009827853041107780494_)" fill="url(#SVGID_00000065791910174889968640000005447554709757654962_)" d="
						M291.741,182.51l-0.244,0.062c0,0,2.126,5.31,2.343,7.672c0.147,1.585,1.028,2.978,0.882,0.717
						C294.576,188.699,291.741,182.51,291.741,182.51z"/>
				</g>
			</mask>
			
				<linearGradient id="SVGID_00000068650886455015852400000011516899880463103880_" gradientUnits="userSpaceOnUse" x1="-176.1193" y1="47.8034" x2="-175.4531" y2="37.6213" gradientTransform="matrix(-0.995 0.096 -0.096 -0.995 122.3172 246.5491)">
				<stop  offset="0" style="stop-color:#000000"/>
				<stop  offset="0.607" style="stop-color:#FFA7A9"/>
			</linearGradient>
			<path opacity="0.171" fill="url(#SVGID_00000068650886455015852400000011516899880463103880_)" enable-background="new    " d="
				M291.741,182.51l-0.244,0.062c0,0,2.126,5.31,2.343,7.672c0.147,1.585,1.028,2.978,0.882,0.717
				C294.576,188.699,291.741,182.51,291.741,182.51z"/>
			<defs>
				
					<filter id="Adobe_OpacityMaskFilter_00000146465334153948176050000013267835911444138166_" filterUnits="userSpaceOnUse" x="291.906" y="187.357" width="0.852" height="4.789">
					<feFlood  style="flood-color:white;flood-opacity:1" result="back"/>
					<feBlend  in="SourceGraphic" in2="back" mode="normal"/>
				</filter>
			</defs>
			
				<mask maskUnits="userSpaceOnUse" x="291.906" y="187.357" width="0.852" height="4.789" id="SVGID_00000108282419555559163750000010476649969748095885_">
				<g filter="url(#Adobe_OpacityMaskFilter_00000146465334153948176050000013267835911444138166_)">
					<defs>
						
							<filter id="Adobe_OpacityMaskFilter_00000088853352534200855120000013446334726139659163_" filterUnits="userSpaceOnUse" x="291.906" y="187.357" width="0.852" height="4.789">
							<feFlood  style="flood-color:white;flood-opacity:1" result="back"/>
							<feBlend  in="SourceGraphic" in2="back" mode="normal"/>
						</filter>
					</defs>
					
						<mask maskUnits="userSpaceOnUse" x="291.906" y="187.357" width="0.852" height="4.789" id="SVGID_00000108282419555559163750000010476649969748095885_">
						<g filter="url(#Adobe_OpacityMaskFilter_00000088853352534200855120000013446334726139659163_)">
						</g>
					</mask>
					
						<linearGradient id="SVGID_00000129187704096491843960000012701512344766646459_" gradientUnits="userSpaceOnUse" x1="364.8146" y1="68.8207" x2="365.0509" y2="63.8754" gradientTransform="matrix(1 0 0 -1 -72.6001 256.0991)">
						<stop  offset="0" style="stop-color:#000000"/>
						<stop  offset="0.607" style="stop-color:#FFFFFF"/>
					</linearGradient>
					
						<path mask="url(#SVGID_00000108282419555559163750000010476649969748095885_)" fill="url(#SVGID_00000129187704096491843960000012701512344766646459_)" d="
						M292.333,192.146c-0.235,0-0.426-1.072-0.426-2.394c0-1.322,0.191-2.394,0.426-2.394c0.235,0,0.426,1.072,0.426,2.394
						C292.759,191.073,292.568,192.146,292.333,192.146z"/>
				</g>
			</mask>
			
				<linearGradient id="SVGID_00000147222325530846780150000009562046921852090015_" gradientUnits="userSpaceOnUse" x1="364.8146" y1="68.8207" x2="365.0509" y2="63.8754" gradientTransform="matrix(1 0 0 -1 -72.6001 256.0991)">
				<stop  offset="0" style="stop-color:#000000"/>
				<stop  offset="0.607" style="stop-color:#FFA7A9"/>
			</linearGradient>
			<path opacity="0.171" fill="url(#SVGID_00000147222325530846780150000009562046921852090015_)" enable-background="new    " d="
				M292.333,192.146c-0.235,0-0.426-1.072-0.426-2.394c0-1.322,0.191-2.394,0.426-2.394c0.235,0,0.426,1.072,0.426,2.394
				C292.759,191.073,292.568,192.146,292.333,192.146z"/>
		</g>
		
			<radialGradient id="SVGID_00000085211038673956427480000014578669664330720689_" cx="355.2337" cy="147.7042" r="68.657" gradientTransform="matrix(1 0 0 -1 -72.6001 256.0991)" gradientUnits="userSpaceOnUse">
			<stop  offset="0" style="stop-color:#FFA7A9"/>
			<stop  offset="0.385" style="stop-color:#FF001B"/>
			<stop  offset="0.692" style="stop-color:#D80005"/>
			<stop  offset="1" style="stop-color:#A00011"/>
		</radialGradient>
		<path fill="url(#SVGID_00000085211038673956427480000014578669664330720689_)" d="M292.673,184.824
			c-19.399,0-46.075-29.101-46.075-63.051c0-25.447,20.628-46.075,46.075-46.075c25.447,0,46.076,20.628,46.076,46.075
			C338.749,155.724,312.073,184.824,292.673,184.824z"/>
		
			<linearGradient id="SVGID_00000017482170547563704190000015588281293734200233_" gradientUnits="userSpaceOnUse" x1="350.2174" y1="172.2048" x2="374.4884" y2="110.8787" gradientTransform="matrix(1 0 0 -1 -72.6001 256.0991)">
			<stop  offset="0" style="stop-color:#FFFFFF"/>
			<stop  offset="1" style="stop-color:#E3000B"/>
		</linearGradient>
		<path opacity="0.591" fill="url(#SVGID_00000017482170547563704190000015588281293734200233_)" enable-background="new    " d="
			M292.673,146.969c-20.658,1.469-37.499-14.821-37.499-33.104s16.877-35.009,37.499-33.105
			c14.621,1.351,29.189,12.013,30.539,29.977C324.987,134.368,308.272,145.86,292.673,146.969z"/>
		
			<linearGradient id="SVGID_00000176045207580565612930000015270092831498568855_" gradientUnits="userSpaceOnUse" x1="410.9422" y1="157.6868" x2="411.9605" y2="111.8717" gradientTransform="matrix(0.999 0.041 0.041 -0.999 -91.0152 252.5326)">
			<stop  offset="0" style="stop-color:#D90006"/>
			<stop  offset="0.5" style="stop-color:#FFFFFF"/>
			<stop  offset="1" style="stop-color:#9E000B"/>
		</linearGradient>
		<path opacity="0.58" fill="url(#SVGID_00000176045207580565612930000015270092831498568855_)" enable-background="new    " d="
			M316.833,157.789c5.721-5.908,9.983-13.303,12.367-21.172c1.651-5.449,2.529-11.473,1.903-17.165
			c-0.257-2.33-0.683-4.166-1.366-6.405c-0.182-0.594-0.437-1.164-0.655-1.745c2.645,3.499,4.276,7.763,4.756,12.119
			c0.331,3.001,0.095,6.046-0.45,9.006c-1.365,7.393-4.961,14.401-10.068,19.905c-1.291,1.393-2.71,2.706-4.213,3.868
			c-0.706,0.546-1.46,1.027-2.189,1.54L316.833,157.789z"/>
		
			<linearGradient id="SVGID_00000039105482056053356980000004010342251380619663_" gradientUnits="userSpaceOnUse" x1="465.9606" y1="450.2245" x2="485.9682" y2="450.2245" gradientTransform="matrix(0.683 0.731 0.731 -0.683 -378.1891 57.5766)">
			<stop  offset="0" style="stop-color:#FFFFFF"/>
			<stop  offset="1" style="stop-color:#FBA1A6"/>
		</linearGradient>
		<path opacity="0.703" fill="url(#SVGID_00000039105482056053356980000004010342251380619663_)" enable-background="new    " d="
			M260.323,104.174l-0.195-0.112l-0.011-0.039c1.184-4.149,3.434-7.719,6.224-10.743c0.396-0.43,0.828-0.825,1.241-1.238
			c5.071,4.927,2.605,2.612,7.376,6.967c-1.394,1.59-2.527,3.422-3.445,5.374c-0.757,1.613-0.737,1.581-1.036,2.578
			c-3.247-0.873-6.513-1.584-9.743-2.631L260.323,104.174z M272.39,107.445c0.586-1.762,1.384-3.427,2.389-4.926
			c0.208-0.311,0.504-0.683,0.723-0.972c0.299-0.392,0.577-0.827,0.92-1.18c1.351,1.268,2.711,2.525,4.067,3.787
			c-0.715,0.674-1.27,1.666-1.556,2.651c-0.135,0.469-0.194,0.97-0.246,1.469c-0.027,0.251,0.005,0.517,0.008,0.775l-3.288-0.839
			L272.39,107.445z M281.938,102.986c-1.283-1.442-2.568-2.881-3.858-4.317c0.668-0.516,1.296-1.081,2.001-1.548
			c1.58-0.948,1.772-1.139,3.924-1.908c0.543-0.195,1.137-0.272,1.706-0.407c0.235,2.293,0.532,4.591,0.857,6.89
			c-1.635-0.049-2.449,0.302-3.849,0.818L281.938,102.986z M276.785,97.17c-2.127-2.506-4.26-5.008-6.388-7.513
			c4.036-3.001,8.898-5.454,14.492-5.204c0.081,2.819,0.355,5.663,0.638,8.506c-2.807,0.341-5.164,1.645-7.367,3.107
			c-0.461,0.306-0.864,0.686-1.297,1.029L276.785,97.17z"/>
	</g>
</g>
</svg>
