<?xml version="1.0" encoding="UTF-8"?>
<svg enable-background="new 0 0 417.776 300.682" viewBox="0 0 417.776 300.682" xmlns="http://www.w3.org/2000/svg">
 <path d="m399.52 1.303c-55.712 33.344-116.65 62.376-182.4 68.38-68.066 6.216-131.6 0.843-198.51-12.568" fill="none" stroke="#bf00ff" stroke-linecap="square" stroke-miterlimit="10" stroke-width="1.9"/>
 <path d="m174.38 82.234 2.914-16.032 7.545 23.748l-11.574-11.145 22.633 5.487c-4.801 1.658-9.602 3.315-14.402 4.973l15.175-18.347-2.916 16.118c-2.486-7.945-4.972-15.889-7.458-23.834 3.83 3.715 7.659 7.43 11.488 11.145l-22.634-5.401 14.403-4.972c-5.032 6.089-10.066 12.306-15.174 18.26" fill="#bfff36"/>
 <path d="m151.83 84.378 2.83-16.032 7.544 23.748c-3.83-3.715-7.659-7.43-11.488-11.145l22.547 5.486c-4.801 1.658-9.602 3.315-14.403 4.973l15.089-18.261c-0.943 5.344-1.886 10.688-2.83 16.032l-7.458-23.748c3.829 3.715 7.659 7.43 11.488 11.146l-22.547-5.487 14.317-4.887-15.089 18.175" fill="#ffde1f"/>
 <path d="m130.83 82.663c0.972-5.344 1.943-10.688 2.915-16.032l7.459 23.749c-3.83-3.715-7.659-7.43-11.489-11.146l22.548 5.487c-4.772 1.658-9.544 3.315-14.317 4.973l15.088-18.261-2.915 15.946-7.458-23.663c3.829 3.715 7.659 7.43 11.488 11.146l-22.548-5.487 14.403-4.972c-5.031 6.089-10.065 12.306-15.174 18.26" fill="#de00ff"/>
 <path d="m102.11 83.006c1-5.344 2-10.688 3.001-16.032l7.458 23.662-11.574-11.059 22.548 5.487-14.317 4.887 15.089-18.261-2.915 16.118-7.374-23.748c3.83 3.715 7.659 7.43 11.488 11.145l-22.547-5.572 14.317-4.887c-5.031 6.088-10.065 12.306-15.174 18.26" fill="#1fdeff"/>
 <path d="m79.303,79.491 2.915-15.946c2.486,7.887 4.973,15.774 7.459,23.662l-11.489-11.059 22.548,5.487-14.318,4.887 15.089-18.261c-.972,5.344-1.943,10.688-2.915,16.032-2.486-7.916-4.973-15.832-7.459-23.748 3.83,3.715 7.659,7.43 11.488,11.146l-22.547-5.487 14.317-4.887-15.088,18.174" fill="#ff1fde"/>
 <path d="m56.498,76.576c.972-5.344 1.943-10.688 2.915-16.032 2.486,7.916 4.973,15.832 7.459,23.748-3.83-3.715-7.659-7.43-11.488-11.145l22.634,5.486c-4.801,1.658-9.602,3.315-14.403,4.973l15.089-18.261-2.829,16.032c-2.486-7.916-4.973-15.832-7.459-23.748l11.403,11.145-22.548-5.487 14.403-4.887c-5.001,6.017-10.257,12.445-15.176,18.176" fill="#ffd966"/>
 <path d="m33.607 69.718 2.916-16.032 7.458 23.748-11.488-11.06 22.548 5.487-14.317 4.887 15.089-18.261-2.916 16.032-7.458-23.663 11.488 11.06-22.547-5.487 14.317-4.886c-4.972 6.015-10.198 12.442-15.09 18.175" fill="#bfff36"/>
 <path d="m203.96 79.148c0.971-5.315 1.943-10.631 2.914-15.946l7.459 23.663-11.488-11.06 22.462 5.486-14.318 4.887 15.091-18.261-2.83 16.032-7.458-23.748c3.801 3.715 7.601 7.43 11.401 11.145l-22.461-5.487 14.317-4.886c-4.972 6.016-10.198 12.444-15.089 18.175" fill="#ff9e00"/>
 <path d="m226.59 75.547 2.916-15.946 7.458 23.748c-3.83-3.715-7.659-7.43-11.489-11.146l22.549 5.487-14.318 4.887 15.09-18.175-2.914 15.946c-2.486-7.887-4.974-15.774-7.46-23.662l11.488 11.059-22.547-5.401 14.402-4.972c-4.999 6.016-10.255 12.442-15.175 18.175" fill="#f0f"/>
 <path d="m248.02 71.175c0.972-5.344 1.943-10.688 2.915-16.033l7.458 23.749c-3.829-3.715-7.659-7.43-11.488-11.146l22.549 5.487-14.404 4.972 15.089-18.261-2.828 16.032c-2.486-7.916-4.974-15.832-7.46-23.748 3.829 3.715 7.659 7.43 11.488 11.146l-22.547-5.487 14.402-4.887c-4.999 6.017-10.254 12.443-15.174 18.176" fill="#1fdeff"/>
 <path d="m271.69 64.145 2.916-15.946 7.458 23.663-11.489-11.06 22.549 5.487-14.316 4.887c5.029-6.087 10.06-12.174 15.089-18.262-0.972 5.344-1.943 10.688-2.915 16.032l-7.459-23.662 11.487 11.059-22.547-5.487 14.402-4.886c-5 6.015-10.257 12.444-15.175 18.175" fill="#bfff36"/>
 <path d="m292.61 57.115 3.001-16.032 7.458 23.748l-11.574-11.145c7.517 1.857 15.032 3.715 22.549 5.573l-14.318 4.886 15.09-18.261-2.83 16.032-7.458-23.662 11.486 11.059-22.546-5.487 14.316-4.887c-4.986 6.035-10.133 12.493-15.174 18.176" fill="#ffbf00"/>
 <path d="m232.765,95.866c.2-2.817 1.038-5.706 1.544-8.487l3.943,12.517c-2.093-1.575-4.41-3.818-6.087-5.831l11.83,2.83c-2.25,1.118-5.086,2.138-7.544,2.658l7.973-9.603c-.172,2.655-.699,5.852-1.457,8.402-1.314-4.172-2.629-8.344-3.943-12.517 2.073,1.602 4.347,3.883 6.001,5.916l-11.832-2.915c2.25-1.096 5.093-2.078 7.546-2.573l-7.974,9.603" fill="#ffbf00"/>
 <path d="m155.862,102.21c.201-2.789 1.038-5.649 1.543-8.401l3.945,12.431c-2.094-1.575-4.41-3.817-6.088-5.83l11.832,2.83c-2.251,1.119-5.087,2.138-7.545,2.658l7.974-9.603c-.172,2.656-.7,5.852-1.458,8.402-1.314-4.172-2.629-8.345-3.944-12.517 2.074,1.602 4.346,3.883 6.001,5.916l-11.831-2.915c2.25-1.096 5.091-2.077 7.544-2.572l-7.973,9.601" fill="#ffbf00"/>
 <path d="m81.274,94.494c.202-2.789 1.038-5.648 1.543-8.401 1.314,4.172 2.629,8.344 3.943,12.517-2.092-1.579-4.409-3.816-6.086-5.83l11.831,2.916c-2.25,1.074-5.096,2.013-7.544,2.486l7.973-9.603c-.166,2.68-.697,5.913-1.458,8.487l-4.029-12.517c2.095,1.576 4.407,3.818 6.087,5.83l-11.832-2.829c2.251-1.097 5.091-2.073 7.545-2.572-2.595,3.126-5.494,6.646-7.973,9.516" fill="#ffbf00"/>
 <path d="m301.522,74.175c.2-2.789 1.037-5.649 1.543-8.402l3.943,12.432c-2.093-1.58-4.408-3.816-6.087-5.83l11.832,2.915c-2.25,1.096-5.093,2.077-7.546,2.572l7.974-9.602c-.191,2.658-.765,5.854-1.544,8.402l-3.942-12.432c2.093,1.579 4.408,3.815 6.087,5.83l-11.831-2.915c2.253-1.072 5.095-2.012 7.544-2.486l-7.973,9.516" fill="#ffbf00"/>
 <path d="m369.423,47.77c.201-2.789 1.038-5.649 1.544-8.401l3.943,12.431c-2.093-1.579-4.408-3.815-6.087-5.83l11.83,2.915c-2.25,1.096-5.092,2.077-7.544,2.572l7.973-9.602c-.19,2.685-.759,5.913-1.542,8.487-1.315-4.172-2.63-8.345-3.945-12.517 2.093,1.579 4.41,3.815 6.088,5.83l-11.831-2.915c2.253-1.072 5.096-2.012 7.545-2.486l-7.974,9.516" fill="#ffbf00"/>
 <path d="m312.07 50.342 2.916-15.946c2.486 7.887 4.972 15.775 7.458 23.662l-11.486-11.06 22.546 5.487-14.402 4.887 15.09-18.261-2.83 16.032-7.458-23.748c3.829 3.715 7.659 7.43 11.488 11.146l-22.548-5.488 14.316-4.886-15.09 18.175" fill="#f0f"/>
 <path d="m337.44 40.911c0.972-5.344 1.943-10.688 2.915-16.032 2.486 7.916 4.974 15.832 7.46 23.748l-11.488-11.145 22.547 5.487-14.317 4.887 15.09-18.261-2.916 16.117-7.458-23.748c3.829 3.715 7.659 7.43 11.488 11.146-7.516-1.857-15.032-3.715-22.548-5.573l14.404-4.887-15.177 18.261" fill="#1fdeff"/>
 <path d="m358.54 31.652 2.913-16.032 7.459 23.749c-3.829-3.715-7.659-7.43-11.488-11.146l22.549 5.487-14.318 4.887 15.088-18.261c-0.971 5.373-1.942 10.745-2.913 16.118-2.486-7.916-4.974-15.832-7.46-23.748 3.829 3.715 7.659 7.43 11.488 11.146l-22.548-5.487c4.801-1.658 9.603-3.315 14.403-4.973l-15.173 18.26" fill="#ffd966"/>
 <path d="m339.24 82.92c-3.479-7.332-7.242-26.467-17.747-23.491 4.544 7.626 8.625 20.464 17.747 23.491" fill="#ff5e00"/>
 <path d="m344.13 43.74 13.031 10.289-29.664 5.572c5.103-11.012 4.72-13.741 16.633-15.861" fill="#fff091"/>
 <path d="m334.02 45.626c-2.678 5.856-4.088 16.781-12.517 13.803 3.119-5.792 5.072-15.963 12.517-13.803" fill="#ffbf00"/>
 <path d="m351.505,80.777 5.487-26.748-29.321,5.572 10.37,20.971c2.269,4.587 9.277.984 13.464.205" fill="#ff9e00"/>
 <path d="m343.961,43.655c-5.182-1.558-9.395.116-14.662,1.286 5.252,1.573 9.523.054 14.662-1.286" fill="#ffde1f"/>
 <path d="m335.9 39.968c6.627 3.914-4.685 5.949 0 0" fill="#ff4000"/>
 <path d="m335.47 37.568c1.191 3.366-0.147 3.375 0 0" fill="#ff8000"/>
 <path d="m335.13,35.51c.481,2.711.433,2.435 0,0" fill="#ffb83d"/>
 <path d="m273.06 106.92c-3.472-7.343-7.229-26.553-17.747-23.576 4.536 7.646 8.607 20.545 17.747 23.576" fill="#9e00ff"/>
 <path d="m277.86 67.66 13.032 10.374c-9.859 1.857-19.718 3.715-29.577 5.573 5.144-11.248 4.75-13.467 16.545-15.947" fill="#ff9eff"/>
 <path d="m267.83 69.546c-2.681 5.862-4.086 16.73-12.517 13.888 3.112-5.812 5.055-16.043 12.517-13.888" fill="#ff30ff"/>
 <path d="m285.32 104.7 5.487-26.749-29.407 5.659 9.142 18.282c3.668 7.336 6.859 4.247 14.778 2.808" fill="#ff00de"/>
 <path d="m277.773,67.66c-5.19-1.554-9.457.076-14.745,1.201 5.314,1.582 9.41.02 14.745-1.201" fill="#ffbf00"/>
 <path d="m269.37 63.974c6.856 3.992-5.132 5.763 0 0" fill="#ff4000"/>
 <path d="m268.944,61.573c1.202,3.22.078,3.348 0,0" fill="#ff8000"/>
 <path d="m268.602,59.429c.417,2.634.429,2.713 0,0" fill="#ffb83d"/>
 <path d="m129.88 120.47c-3.454-7.279-7.244-26.424-17.661-23.491 4.518 7.635 8.764 20.624 17.661 23.491" fill="#ff9e00"/>
 <path d="m134.69 81.291 13.117 10.288c-9.859 1.857-19.719 3.715-29.578 5.573 5.072-11.092 4.804-13.717 16.461-15.861" fill="#ffd966"/>
 <path d="m124.66 83.178c-2.936 6.419-3.816 16.022-12.431 13.803 3.058-5.742 4.896-15.941 12.431-13.803" fill="#ffb83d"/>
 <path d="m142.23 118.24 5.487-26.664c-9.802 1.857-19.604 3.715-29.407 5.573l9.074 18.35c3.656 7.393 6.906 4.229 14.846 2.741" fill="#fff091"/>
 <path d="m134.515,81.206c-5.142-1.557-9.34.123-14.574,1.286 5.2,1.558 9.7.031 14.574-1.286" fill="#ffbf00"/>
 <path d="m125.94 77.776c6.624 3.922-4.664 6.026 0 0" fill="#ff4000"/>
 <path d="m125.51 75.376c1.46 3.33-0.134 3.504 0 0" fill="#ff8000"/>
 <path d="m125.17,73.318c.488,2.566.485,2.551 0,0" fill="#ffb83d"/>
 <path d="m203.1 118.16c-3.478-7.331-7.242-26.467-17.747-23.491 4.544 7.626 8.626 20.462 17.747 23.491" fill="#b87f79"/>
 <path d="m207.9 78.977 13.117 10.373-29.664 5.487c5.078-10.956 4.703-13.735 16.547-15.86" fill="#deff1f"/>
 <path d="m197.87 80.863c-2.678 5.856-4.087 16.78-12.517 13.803 3.119-5.792 5.074-15.963 12.517-13.803" fill="#f2c2a6"/>
 <path d="m215.361,115.927c1.828-8.916 3.657-17.833 5.485-26.749l-29.405,5.659 10.447,20.971c2.286,4.589 9.292.928 13.473.119" fill="#b8cf30"/>
 <path d="m207.816,78.977c-5.181-1.686-9.361.022-14.661,1.2 5.255,1.455 9.392-.039 14.661-1.2" fill="#ffbf00"/>
 <path d="m199.93 74.947c6.6 4.04-4.815 5.972 0 0" fill="#ff4000"/>
 <path d="m199.41 72.547c1.617 3.396-0.114 3.401 0 0" fill="#ff8000"/>
 <path d="m199.072,70.575c.581,2.654.49,2.236 0,0" fill="#ffb83d"/>
 <path d="m275.29 84.721c6.058 7.268-2.641 9.873 0 0" fill="#ffb0ff"/>
 <path d="m276.92 92.694c6.467 7.846-3.155 9.434 0 0" fill="#ffb0ff"/>
 <path d="m276.06 92.865c-7.506 6.449-9.454-3.114 0 0" fill="#ffb0ff"/>
 <path d="m285.32 91.065c-7.654 5.676-9.479-2.53 0 0" fill="#ffb0ff"/>
 <path d="m282.58 86.093c-2.424 9.623-9.415 3.183 0 0" fill="#ffb0ff"/>
 <path d="m269.03 88.493c5.57 8.317 9.898-0.352 0 0" fill="#ffb0ff"/>
 <path d="m271.26 99.209c3.241-9.892 8.986-2.589 0 0" fill="#ffb0ff"/>
 <path d="m284.632,96.638c-6.09-8.143-9.333.575 0,0" fill="#ffb0ff"/>
 <path d="m276.57 91.151c1.778 3.792-0.263 3.937 0 0" fill="#f00"/>
 <path d="m131.26 98.352c6.646 7.847-3.183 9.631 0 0" fill="#ff0080"/>
 <path d="m132.97 106.58c6.639 7.955-3.196 9.716 0 0" fill="#ff0080"/>
 <path d="m132.12 106.75c-8.309 6.843-9.202-3.704 0 0" fill="#ff0080"/>
 <path d="m141.63 104.87c-8.042 6.46-9.597-3.312 0 0" fill="#ff0080"/>
 <path d="m138.72 99.724c-2.139 10.122-9.623 3.075 0 0" fill="#ff0080"/>
 <path d="m124.83 102.21c5.945 8.975 10.135-0.851 0 0" fill="#ff0080"/>
 <path d="m127.23 113.27c2.571-10.409 9.621-2.497 0 0" fill="#ff0080"/>
 <path d="m140.86 110.61c-5.709-8.528-9.968 0.582 0 0" fill="#ff0080"/>
 <path d="m132.63 104.95c2.051 3.859-0.573 4.144 0 0" fill="#ffde00"/>
 <path d="m342.93 61.059c4.914 7.548-1.809 8.63 0 0" fill="#0ff"/>
 <path d="m344.48 68.603c4.91 7.572-1.858 8.616 0 0" fill="#0ff"/>
 <path d="m343.62 68.774c-7.311 4.884-8.593-1.878 0 0" fill="#0ff"/>
 <path d="m352.36 66.974c-7.423 4.984-8.594-1.857 0 0" fill="#0ff"/>
 <path d="m349.7 62.344c-2.886 8.382-7.983 3.746 0 0" fill="#0ff"/>
 <path d="m337.016,64.659c5.934,6.792 8.869.611 0,0" fill="#0ff"/>
 <path d="m339.16 74.69c3.378-8.447 7.999-3.536 0 0" fill="#0ff"/>
 <path d="m351.68 72.29c-5.835-6.855-8.603-0.505 0 0" fill="#0ff"/>
 <path d="m344.132,67.146c.966,3.57.191,3.362 0,0" fill="#ffbf00"/>
 <path d="m205.16 95.266c8.21 7.731-4.663 10.284 0 0" fill="#de00ff"/>
 <path d="m206.96 103.84c7.746 7.572-4.135 10.805 0 0" fill="#de00ff"/>
 <path d="m206.02 104.01c-7.707 8.408-10.117-4.994 0 0" fill="#de00ff"/>
 <path d="m215.88 102.04c-7.804 7.557-10.044-4.153 0 0" fill="#de00ff"/>
 <path d="m212.96 96.723c-1.433 11.164-10.905 2.397 0 0" fill="#de00ff"/>
 <path d="m198.47 99.295c5.339 9.996 11.16-1.5 0 0" fill="#de00ff"/>
 <path d="m200.96 110.87c1.976-10.895 10.669-2.844 0 0" fill="#de00ff"/>
 <path d="m215.19 108.04c-5.528-9.393-10.867 1.028 0 0" fill="#de00ff"/>
 <path d="m206.62 102.21c2.405 3.835-0.858 4.439 0 0" fill="#ff0"/>
 <path d="m8.145 45.456c55.566 44.897 114.25 80.507 184.24 98.164 69.96 17.649 140.74 15.34 211.76 7.374" fill="none" stroke="#bf00ff" stroke-linecap="square" stroke-miterlimit="10" stroke-width="1.9"/>
 <path d="m246.739,162.823-1.544-16.289c-3.144,7.715-6.286,15.431-9.43,23.147l12.431-10.202-22.976,3.602 13.888,6.173-13.459-19.547c.485,5.43.972,10.86 1.457,16.29l9.516-23.148-12.431,10.202 22.977-3.602c-4.658-2.058-9.317-4.115-13.976-6.172 4.516,6.515 9.032,13.03 13.547,19.546" fill="#bfff36"/>
 <path d="m269.12 166.85c-0.485-5.401-0.972-10.802-1.457-16.203l-9.518 22.976 12.431-10.031-22.975 3.516 13.974 6.174-13.545-19.463 1.542 16.204 9.431-22.977-12.432 10.031 22.978-3.516-13.888-6.087c4.432 6.408 9.098 13.258 13.459 19.376" fill="#ffde1f"/>
 <path d="m290.12,166.939c-.485-5.401-.972-10.803-1.457-16.204l-9.518,22.977c4.144-3.372 8.288-6.745 12.432-10.117l-22.891,3.602 13.889,6.088-13.546-19.377c.514,5.373 1.028,10.745 1.542,16.118l9.432-22.977-12.345,10.116 22.89-3.515-13.888-6.173c4.47,6.422 9.254,13.148 13.46,19.462" fill="#de00ff"/>
 <path d="m318.67 169.6c-0.485-5.372-0.972-10.745-1.457-16.117l-9.432 22.976 12.432-10.115-22.976 3.6 13.889 6.087-13.46-19.461 1.456 16.29 9.432-23.063-12.347 10.116 22.892-3.516-13.89-6.172c4.428 6.362 9.316 13.337 13.461 19.375" fill="#1fdeff"/>
 <path d="m341.729,168.139c-.485-5.401-.971-10.802-1.456-16.203l-9.431,23.062 12.346-10.116-22.892,3.514 13.891,6.088-13.547-19.376c.515,5.373 1.029,10.745 1.544,16.118l9.43-22.977c-4.115,3.372-8.23,6.745-12.346,10.117l22.891-3.515-13.888-6.174c4.469,6.421 9.26,13.153 13.458,19.462" fill="#ff1fde"/>
 <path d="m364.707,167.11c-.485-5.372-.972-10.745-1.457-16.117l-9.43,22.976 12.344-10.116-22.976,3.601 13.975,6.087-13.546-19.461 1.542,16.204 9.431-22.977c-4.144,3.372-8.287,6.745-12.431,10.117 7.659-1.172 15.317-2.345 22.977-3.517-4.629-2.058-9.259-4.115-13.888-6.172 4.432,6.407 9.098,13.257 13.459,19.375" fill="#ffd966"/>
 <path d="m388.455,164.71c-.485-5.401-.972-10.804-1.457-16.205l-9.431,22.978 12.347-10.031-22.978,3.515 13.975,6.087-13.547-19.461 1.544,16.204 9.432-22.977c-4.145,3.373-8.288,6.745-12.433,10.117l22.976-3.601-13.888-6.087 13.46,19.461" fill="#bfff36"/>
 <path d="m23.663,62.602c-.515-5.373-1.029-10.746-1.544-16.119l-9.431,22.977c4.144-3.372 8.288-6.745 12.432-10.117l-22.891,3.601 13.803,6.087-13.46-19.461 1.543,16.289c3.115-7.688 6.23-15.375 9.345-23.062l-12.345,10.031 22.891-3.429-13.889-6.173c4.46,6.409 9.154,13.255 13.546,19.376" fill="#ffb83d"/>
 <path d="m217.5 157.25c-0.485-5.401-0.972-10.802-1.457-16.203l-9.346 23.062 12.346-10.115-22.89 3.515 13.888 6.172-13.545-19.547 1.543 16.29 9.43-22.977-12.431 10.03 22.977-3.515-13.889-6.173c4.399 6.389 9.258 13.399 13.374 19.461" fill="#ff9e00"/>
 <path d="m195.3 151.76c-0.486-5.373-0.971-10.746-1.457-16.118l-9.431 22.977c4.115-3.372 8.231-6.745 12.346-10.117l-22.891 3.602 13.889 6.087c-4.515-6.487-9.03-12.975-13.545-19.462 0.514 5.401 1.029 10.803 1.543 16.204l9.43-22.977-12.431 10.031 22.976-3.515-13.889-6.087c4.432 6.407 9.098 13.257 13.46 19.375" fill="#f0f"/>
 <path d="m174.38 145.59c-0.515-5.401-1.029-10.802-1.543-16.204l-9.431 22.976c4.115-3.372 8.23-6.745 12.346-10.117l-22.891 3.601 13.889 6.088-13.546-19.376c0.514 5.373 1.029 10.745 1.543 16.118l9.431-22.976-12.346 10.116 22.891-3.515-13.803-6.173 13.46 19.462" fill="#1fdeff"/>
 <path d="m151.32 136.59-1.458-16.203c-3.172 7.687-6.344 15.375-9.516 23.062l12.432-10.116-22.891 3.515 13.889 6.087-13.546-19.375c0.514 5.373 1.029 10.745 1.543 16.118l9.431-22.976c-4.115 3.372-8.231 6.745-12.346 10.117l22.891-3.516c-4.629-2.058-9.259-4.115-13.889-6.172 4.471 6.42 9.253 13.144 13.46 19.459" fill="#bfff36"/>
 <path d="m131.08 127.76c-0.515-5.373-1.029-10.746-1.543-16.118l-9.43 22.977 12.431-10.117-22.977 3.601 13.889 6.087-13.46-19.461 1.458 16.204 9.516-22.977-12.431 10.031 22.976-3.515-13.889-6.087c4.433 6.408 9.098 13.255 13.46 19.375" fill="#ffbf00"/>
 <path d="m187.412,171.396c.045-2.791-.518-5.703-.771-8.486l-4.887,12.088c2.206-1.4 4.689-3.447 6.516-5.316l-12.088,1.888c2.144,1.297 4.886,2.541 7.287,3.257l-7.115-10.288c-.025,2.691.287,5.943.856,8.573l4.888-12.088c-2.226,1.422-4.597,3.414-6.43,5.316l12.002-1.887c-2.144-1.297-4.886-2.542-7.287-3.258 2.277,3.292 5.024,7.253 7.029,10.201" fill="#ffbf00"/>
 <path d="m263.542,184.256c.049-2.791-.519-5.705-.771-8.487l-4.972,12.089c2.208-1.401 4.687-3.448 6.517-5.316l-12.004,1.888c2.146,1.273 4.891,2.477 7.288,3.171l-7.117-10.202c-.046,2.658.225,5.886.771,8.487l4.974-12.088c-2.208,1.4-4.687,3.447-6.517,5.315l12.09-1.886c-2.144-1.276-4.892-2.478-7.288-3.173l7.029,10.202" fill="#ffbf00"/>
 <path d="m338.56,182.97c.048-2.791-.52-5.705-.772-8.487l-4.972,12.089c2.208-1.401 4.686-3.448 6.516-5.316l-12.089,1.888c2.17,1.28 4.951,2.478 7.373,3.171l-7.116-10.288c-.049,2.687.224,5.944.772,8.574l4.973-12.089c-2.232,1.4-4.749,3.442-6.603,5.315l12.175-1.886c-2.172-1.28-4.95-2.479-7.374-3.173l7.117,10.202" fill="#ffbf00"/>
 <path d="m120.798,144.047c.049-2.791-.519-5.705-.771-8.487l-4.973,12.088c2.208-1.397 4.687-3.449 6.516-5.315l-12.003,1.8c2.147,1.297 4.885,2.538 7.287,3.258l-7.116-10.202c-.046,2.659.225,5.886.771,8.487l4.973-12.088c-2.208,1.401-4.686,3.448-6.516,5.315l12.088-1.887c-2.144-1.275-4.892-2.477-7.287-3.171l7.031,10.202" fill="#ffbf00"/>
 <path d="m55.383,111.984c.048-2.791-.519-5.705-.772-8.488l-4.972,12.088c2.208-1.4 4.686-3.447 6.516-5.315l-12.088,1.886c2.172,1.279 4.95,2.479 7.374,3.172l-7.116-10.202c-.049,2.685.221,5.945.772,8.573l4.972-12.088c-2.246,1.399-4.655,3.347-6.516,5.229l12.088-1.886c-2.146-1.274-4.891-2.477-7.288-3.172 2.326,3.335 4.919,7.011 7.03,10.203" fill="#ffbf00"/>
 <path d="m112.31 119.44-1.458-16.203-9.431 22.976 12.345-10.116-22.89 3.601 13.888 6.087-13.545-19.375c0.514 5.373 1.029 10.745 1.543 16.118l9.431-22.976-12.432 10.116 22.977-3.515c-4.63-2.058-9.259-4.115-13.889-6.172l13.461 19.459" fill="#f0f"/>
 <path d="m87.791 107.87-1.458-16.29c-3.144 7.688-6.287 15.375-9.431 23.063 4.115-3.372 8.231-6.745 12.346-10.117l-22.891 3.515c4.629 2.058 9.259 4.115 13.889 6.172l-13.546-19.461c0.515 5.401 1.029 10.802 1.543 16.204l9.431-22.977-12.431 10.117 22.976-3.601-13.889-6.087c4.47 6.422 9.255 13.148 13.461 19.462" fill="#1fdeff"/>
 <path d="m67.557,96.809c-.486-5.401-.971-10.802-1.457-16.204l-9.431,22.977 12.345-10.031-22.891,3.515 13.889,6.173-13.546-19.462 1.544,16.204 9.43-22.977-12.431,10.031 22.977-3.515-13.889-6.087c4.432,6.409 9.098,13.258 13.46,19.376" fill="#bfff36"/>
 <path d="m50.068,83.777c-.486-5.373-.972-10.745-1.458-16.118l-9.516,22.976 12.432-10.116-22.977,3.515 13.975,6.173-13.546-19.461c.515,5.401 1.029,10.802 1.543,16.204l9.431-22.976-12.432,10.116 22.977-3.601-13.889-6.086 13.46,19.374" fill="#bf40ff"/>
 <path d="m15.346 106.92c4.061-6.98 9.473-25.851 19.633-21.947-5.148 7.259-10.229 19.734-19.633 21.947" fill="#3a7dcf"/>
 <path d="m13.889 67.403-13.889 9.259 29.063 7.973c-4.184-11.663-3.565-13.851-15.174-17.232" fill="#bfff36"/>
 <path d="m23.663 70.146c2.222 6.057 2.78 16.946 11.402 14.832-2.637-6.106-3.674-16.379-11.402-14.832" fill="#1fdeff"/>
 <path d="m3.257 103.67-3.171-27.091 28.892 8.059-10.687 17.476c-4.292 7.017-7.24 3.657-15.034 1.556" fill="#5af200"/>
 <path d="m13.974,67.403c5.329-1.22 9.376.851 14.575,2.486-5.428,1.095-9.374-.853-14.575-2.486" fill="#ffbf00"/>
 <path d="m21.433 64.059c-6.81 3.401 4.325 6.339 0 0" fill="#ff4000"/>
 <path d="m22.033,61.659c-1.209,3.092.021,3.671 0,0" fill="#ff8000"/>
 <path d="m22.633,59.601c-.622,2.628-.613,2.59 0,0" fill="#ffb83d"/>
 <path d="m82.475 149.53c4.083-6.966 9.485-25.606 19.633-21.861-5.139 7.201-10.27 19.718-19.633 21.861" fill="#ff5e00"/>
 <path d="m80.932 110.1-13.803 9.173 29.063 8.059c-4.109-11.45-3.481-14.184-15.26-17.232" fill="#fff091"/>
 <path d="m90.791 112.84c2.424 6.646 2.546 16.297 11.317 14.832-2.593-6.006-3.583-16.3-11.317-14.832" fill="#ffbf00"/>
 <path d="m70.387,146.362c-1.058-9.03-2.115-18.061-3.172-27.091l28.892,8.059-12.137,19.895c-2.664,4.365-9.14.269-13.583-.863" fill="#ff9e00"/>
 <path d="m81.103,110.098c5.266-1.095 9.352.855 14.489,2.4-5.35,1.059-9.333-.8-14.489-2.4" fill="#ffde1f"/>
 <path d="m89.419 107.01c-7.023 3.629 4.612 6.242 0 0" fill="#ff4000"/>
 <path d="m90.02 104.7c-1.294 3.065-0.285 3.458 0 0" fill="#ff8000"/>
 <path d="m90.534,102.724c-.535,2.387-.563,2.51 0,0" fill="#ffb83d"/>
 <path d="m146.43 179.03c4.076-6.979 9.47-25.694 19.633-21.947-5.131 7.22-10.253 19.8-19.633 21.947" fill="#9e00ff"/>
 <path d="m144.89 139.59-13.803 9.173 28.978 8.059c-4.05-11.474-3.389-14.183-15.175-17.232" fill="#ff9eff"/>
 <path d="m154.75 142.33c2.434 6.633 2.579 16.168 11.317 14.832-2.585-6.017-3.566-16.441-11.317-14.832" fill="#ff30ff"/>
 <path d="m134.34 175.86-3.172-27.179 28.806 8.059-10.552 17.477c-4.248 7.035-7.28 3.675-15.082 1.643" fill="#ff00de"/>
 <path d="m145.06 139.5c5.305-1.094 9.407 0.903 14.574 2.486-5.38 1.075-9.543-0.744-14.574-2.486" fill="#ffbf00"/>
 <path d="m153.63 136.5c-6.985 3.68 4.825 6.234 0 0" fill="#ff4000"/>
 <path d="m154.32 134.19c-1.371 3.134-0.121 3.569 0 0" fill="#ff8000"/>
 <path d="m154.83 132.13c-0.507 2.513-0.544 2.7 0 0" fill="#ffb83d"/>
 <path d="m287.89 204.66c4.098-7.018 9.488-25.802 19.719-21.862-5.19 7.239-10.324 19.636-19.719 21.862" fill="#ff9e00"/>
 <path d="m286.43 165.22-13.888 9.173 29.063 8.059c-4.184-11.662-3.565-13.853-15.175-17.232" fill="#ffd966"/>
 <path d="m296.21 167.97c2.223 6.057 2.781 16.946 11.403 14.833-2.618-6.099-3.605-16.493-11.403-14.833" fill="#ffb83d"/>
 <path d="m275.8 201.4c-1.029-9.002-2.059-18.004-3.088-27.006l28.721 8.059c-4.021 6.632-8.04 13.265-12.061 19.896-2.65 4.374-9.146 0.209-13.572-0.949" fill="#fff091"/>
 <path d="m286.52,165.224c5.313-1.218 9.38.809 14.575,2.4-5.423,1.199-9.355-.775-14.575-2.4" fill="#ffbf00"/>
 <path d="m295.44 162.48c-6.877 3.334 4.28 6.42 0 0" fill="#ff4000"/>
 <path d="m296.04 160.17c-1.361 3.065-0.107 3.483 0 0" fill="#ff8000"/>
 <path d="m296.64 158.11c-0.723 2.542-0.706 2.483 0 0" fill="#ffb83d"/>
 <path d="m215.19 196.09c4.076-6.953 9.503-25.675 19.634-21.777-5.111 7.163-10.259 19.779-19.634 21.777" fill="#b87f79"/>
 <path d="m213.73 156.65-13.89 9.259 28.979 8.059c-4.162-11.598-3.584-13.841-15.089-17.318" fill="#deff1f"/>
 <path d="m223.51 159.57c2.431 6.624 2.569 16.216 11.316 14.745-2.58-6.009-3.565-16.504-11.316-14.745" fill="#f2c2a6"/>
 <path d="m203.1 192.92c-1.029-9.002-2.058-18.004-3.086-27.006l28.722 8.059-12.062 19.896c-2.647 4.364-9.311 0.292-13.574-0.949" fill="#b8cf30"/>
 <path d="m213.817,156.736c5.29-1.221 9.32.805 14.489,2.402-5.418,1.216-9.288-.755-14.489-2.402" fill="#ffbf00"/>
 <path d="m221.96 153.39c-6.829 3.509 4.383 6.354 0 0" fill="#ff4000"/>
 <path d="m222.56 150.99c-1.291 3.176 0.037 3.743 0 0" fill="#ff8000"/>
 <path d="m223.16 149.11c-0.682 2.479-0.646 2.352 0 0" fill="#ffb83d"/>
 <path d="m13.031 83.264c-7.128 7.342 2.422 9.894 0 0" fill="#ff9e00"/>
 <path d="m10.631 91.322c-7.082 7.321 2.498 9.818 0 0" fill="#ff9e00"/>
 <path d="m11.488 91.493c7.249 7.212 9.959-2.373 0 0" fill="#ff9e00"/>
 <path d="m2.229 88.836c7.354 7.102 9.914-2.387 0 0" fill="#ff9e00"/>
 <path d="m5.487 84.035c1.69 10.13 9.367 4.009 0 0" fill="#ff9e00"/>
 <path d="m19.032 87.721c-6.424 7.981-9.828-1.378 0 0" fill="#ff9e00"/>
 <path d="m15.775 98.352c-1.508-10.021-9.203-3.674 0 0" fill="#ff9e00"/>
 <path d="m2.486 94.58c6.472-7.878 9.985 1.338 0 0" fill="#ff9e00"/>
 <path d="m11.06,89.693c-1.83,3.662.111,4.218 0,0" fill="#1fdeff"/>
 <path d="m146 156.74c-6.665 7.88 2.395 9.156 0 0" fill="#ffb0ff"/>
 <path d="m143.69 164.62c-6.514 7.798 2.247 9.157 0 0" fill="#ffb0ff"/>
 <path d="m144.54 164.8c7.067 7.128 9.756-2.333 0 0" fill="#ffb0ff"/>
 <path d="m135.46 162.22c7.913 6.741 9.058-2.38 0 0" fill="#ffb0ff"/>
 <path d="m138.72 157.51c1.669 9.833 9.109 3.898 0 0" fill="#ffb0ff"/>
 <path d="m151.92 161.11c-6.718 7.599-9.203-1.308 0 0" fill="#ffb0ff"/>
 <path d="m148.75 171.57c-1.874-9.426-8.718-4.335 0 0" fill="#ffb0ff"/>
 <path d="m135.72 167.8c7.115-7.473 9.232 1.45 0 0" fill="#ffb0ff"/>
 <path d="m144.2 163.08c-1.661 3.533-0.269 3.938 0 0" fill="#f00"/>
 <path d="m288.32 182.46c-7.109 7.556 2.591 9.965 0 0" fill="#ff0080"/>
 <path d="m285.92 190.6c-7.013 7.638 2.579 9.64 0 0" fill="#ff0080"/>
 <path d="m286.86 190.86c7.37 7.22 9.972-2.522 0 0" fill="#ff0080"/>
 <path d="m277.52 188.11c7.741 7.639 9.49-3.045 0 0" fill="#ff0080"/>
 <path d="m280.77 183.31c1.689 10.233 9.508 3.861 0 0" fill="#ff0080"/>
 <path d="m294.41 186.92c-6.375 8.523-9.8-1.807 0 0" fill="#ff0080"/>
 <path d="m291.15 197.72c-1.406-10.032-9.459-3.983 0 0" fill="#ff0080"/>
 <path d="m277.77 193.94c6.487-7.908 10.212 1.18 0 0" fill="#ff0080"/>
 <path d="m286.43 188.97c-1.948 3.738 0.277 4.243 0 0" fill="#ffde00"/>
 <path d="m80.589 127.5c-5.363 7.239 1.258 8.658 0 0" fill="#0ff"/>
 <path d="m78.445 134.87c-5.467 7.22 1.257 8.689 0 0" fill="#0ff"/>
 <path d="m79.217 135.05c7.124 5.572 8.853-1.063 0 0" fill="#0ff"/>
 <path d="m70.729 132.56c7.052 5.631 8.85-1.119 0 0" fill="#0ff"/>
 <path d="m73.73 128.19c2.571 8.717 7.693 4.27 0 0" fill="#0ff"/>
 <path d="m86.162 131.53c-6.254 6.247-8.725-7e-3 0 0" fill="#0ff"/>
 <path d="m83.161 141.39c-2.101-8.529-7.572-4.324 0 0" fill="#0ff"/>
 <path d="m70.986,137.875c6.452-6.269 8.756.303 0,0" fill="#0ff"/>
 <path d="m78.874 133.42c-1.073 3.388-0.596 3.466 0 0" fill="#ffbf00"/>
 <path d="m215.02 173.2c-7.944 7.598 3.161 10.423 0 0" fill="#de00ff"/>
 <path d="m212.53 181.6c-8.399 7.854 3.762 10.158 0 0" fill="#de00ff"/>
 <path d="m213.47 181.86c7.129 8.517 10.677-3.578 0 0" fill="#de00ff"/>
 <path d="m203.7 179.03c7.473 8.039 10.598-3.167 0 0" fill="#de00ff"/>
 <path d="m207.13 173.97c1.385 11.481 10.313 3.141 0 0" fill="#de00ff"/>
 <path d="m221.36 177.74c-6.18 8.982-10.847-1.723 0 0" fill="#de00ff"/>
 <path d="m217.93 189.06c-1.006-10.977-10.304-3.603 0 0" fill="#de00ff"/>
 <path d="m203.96 185.11c6.025-9.03 11.278 1.982 0 0" fill="#de00ff"/>
 <path d="m213.05 179.97c-2.608 3.699 0.531 4.507 0 0" fill="#ff0"/>
 <path d="m410.92 141.48c-51.279 41.742-105.49 75.663-169.58 94.22-63.399 18.356-128.19 19.559-193.5 15.261" fill="none" stroke="#bf00ff" stroke-linecap="square" stroke-miterlimit="10" stroke-width="1.9"/>
 <path d="m172.24 258.84 1.628-16.203c3.144 7.688 6.288 15.374 9.431 23.062l-12.432-10.202 22.977 3.601-13.888 6.087 13.459-19.46c-0.485 5.4-0.971 10.802-1.457 16.202l-9.517-22.976 12.431 10.03-22.976-3.516 13.974-6.087c-4.513 6.487-9.025 13.118-13.63 19.462" fill="#bfff36"/>
 <path d="m149.86 262.88 1.543-16.119 9.517 22.978c-4.144-3.372-8.287-6.745-12.431-10.117l22.976 3.515-13.975 6.174 13.546-19.463c-0.515 5.401-1.029 10.804-1.543 16.205l-9.43-23.063 12.431 10.117-22.977-3.515 13.889-6.088c-4.486 6.457-8.969 13.061-13.546 19.376" fill="#ffde1f"/>
 <path d="m128.86 262.96 1.544-16.204 9.517 22.978-12.432-10.032c7.63 1.172 15.261 2.345 22.891 3.517l-13.803 6.087 13.46-19.463c-0.514 5.401-1.029 10.804-1.543 16.205l-9.431-22.977 12.345 10.116-22.89-3.601 13.888-6.088-13.546 19.462" fill="#de00ff"/>
 <path d="m100.31 265.7c0.514-5.401 1.029-10.802 1.543-16.203l9.431 22.976-12.432-10.029 22.977 3.515-13.889 6.086 13.546-19.46c-0.514 5.401-1.029 10.802-1.543 16.203l-9.431-22.977 12.346 10.116-22.89-3.602 13.888-6.086-13.546 19.461" fill="#1fdeff"/>
 <path d="m77.246 264.16 1.543-16.119 9.43 22.891-12.345-10.031 22.891 3.602-13.889 6.087c4.515-6.487 9.03-12.975 13.545-19.462-0.514 5.401-1.029 10.803-1.543 16.204l-9.431-22.976 12.346 10.03-22.891-3.515 13.889-6.087c-4.461 6.409-9.154 13.254-13.545 19.376" fill="#ff1fde"/>
 <path d="m54.269 263.22 1.544-16.204 9.43 22.976-12.346-10.115 22.977 3.6-13.975 6.087 13.546-19.46c-0.515 5.401-1.029 10.802-1.543 16.203l-9.345-22.977 12.345 10.116-22.976-3.602 13.889-6.087c-4.486 6.487-8.969 13.12-13.546 19.463" fill="#ffd966"/>
 <path d="m376.88 20.164 1.544-16.204 9.431 22.977-12.346-10.031 22.892 3.515-13.891 6.087 13.547-19.461-1.544 16.204-9.43-22.977c4.115 3.372 8.23 6.745 12.346 10.117l-22.978-3.601 13.89-6.087-13.461 19.461" fill="#ffb0ff"/>
 <path d="m395.23 156.56 1.458-16.204 9.516 22.977-12.431-10.031 22.976 3.515-13.889 6.088c4.516-6.487 9.031-12.975 13.547-19.462l-1.544 16.204-9.431-22.976 12.346 10.116-22.978-3.515 13.89-6.173-13.46 19.461" fill="#ffb83d"/>
 <path d="m201.47 253.27c0.514-5.372 1.029-10.744 1.543-16.116l9.431 22.975-12.432-10.115 22.891 3.515-13.803 6.172 13.459-19.46-1.542 16.203c-3.144-7.688-6.287-15.375-9.431-23.063l12.432 10.116-22.977-3.515 13.974-6.087c-4.459 6.408-9.155 13.257-13.545 19.375" fill="#ff9e00"/>
 <path d="m223.68 247.87 1.544-16.289c3.144 7.688 6.287 15.375 9.431 23.063-4.115-3.372-8.23-6.745-12.346-10.117l22.89 3.515-13.888 6.173 13.544-19.461-1.542 16.203-9.43-22.977c4.144 3.372 8.287 6.745 12.431 10.117l-22.978-3.601 13.891-6.088c-4.487 6.486-8.971 13.117-13.547 19.462" fill="#f0f"/>
 <path d="m244.68 241.61 1.544-16.204 9.432 22.978-12.347-10.031 22.89 3.516-13.888 6.086 13.546-19.461-1.542 16.203-9.432-22.975 12.347 10.115-22.892-3.601 13.802-6.087-13.46 19.461" fill="#1fdeff"/>
 <path d="m267.66 232.61 1.542-16.204 9.517 22.977-12.432-10.03 22.892 3.516-13.89 6.173c4.516-6.487 9.03-12.975 13.546-19.462-0.515 5.401-1.028 10.802-1.543 16.203l-9.431-22.976 12.347 10.029-22.891-3.515 13.888-6.086c-4.461 6.409-9.153 13.253-13.545 19.375" fill="#bfff36"/>
 <path d="m287.98 223.87 1.544-16.289 9.431 23.061-12.432-10.115 22.976 3.515-13.888 6.173 13.459-19.462c-0.485 5.401-0.972 10.803-1.457 16.204l-9.431-22.978c4.115 3.372 8.23 6.745 12.346 10.117l-22.977-3.6 13.889-6.088c-4.487 6.487-8.974 12.974-13.46 19.462" fill="#ffbf00"/>
 <path d="m231.563,267.417c-.021-2.793.576-5.705.857-8.487l4.889,12.174c-2.206-1.395-4.693-3.448-6.517-5.315l12.089,1.801c-2.147,1.297-4.885,2.536-7.287,3.257l7.114-10.202c.021,2.663-.289,5.886-.857,8.487l-4.886-12.088c2.221,1.395 4.598,3.353 6.43,5.229l-12.002-1.8c2.147-1.274 4.89-2.473 7.287-3.171-2.315,3.319-4.908,7.065-7.117,10.115" fill="#ffbf00"/>
 <path d="m155.434,280.277c-.027-2.791.577-5.706.857-8.486l4.972,12.088c-2.208-1.401-4.685-3.448-6.516-5.316l12.003,1.887c-2.144,1.297-4.887,2.542-7.288,3.257l7.116-10.287c.049,2.687-.223,5.943-.771,8.573l-4.973-12.088c2.247,1.395 4.657,3.348 6.516,5.229l-12.089-1.799c2.145-1.299 4.886-2.537 7.287-3.258-2.342,3.399-4.728,6.91-7.114,10.2" fill="#ffbf00"/>
 <path d="m80.417,278.992c-.027-2.792.577-5.707.857-8.488l4.973,12.089c-2.208-1.396-4.687-3.449-6.516-5.315l12.088,1.8c-2.172,1.303-4.944,2.539-7.373,3.258l7.115-10.202c.072,2.682-.156,5.944-.686,8.573l-5.058-12.173c2.233,1.396 4.747,3.444 6.601,5.314l-12.174-1.801c2.173-1.303 4.944-2.537 7.373-3.257-2.37,3.4-4.785,6.911-7.2,10.202" fill="#ffbf00"/>
 <path d="m298.179,240.069c-.026-2.792.576-5.707.857-8.487l4.972,12.088c-2.208-1.401-4.686-3.447-6.516-5.315l12.003,1.887c-2.145,1.274-4.891,2.478-7.287,3.171l7.116-10.287c.049,2.687-.223,5.943-.771,8.573l-4.974-12.089c2.208,1.4 4.687,3.447 6.518,5.315l-12.09-1.886c2.144-1.276 4.892-2.478 7.287-3.172-2.343,3.4-4.73,6.912-7.115,10.202" fill="#ffbf00"/>
 <path d="m363.592,208.004c-.026-2.792.576-5.707.857-8.487l4.974,12.088c-2.208-1.4-4.686-3.447-6.516-5.314l12.088,1.885c-2.172,1.279-4.95,2.479-7.373,3.173l7.115-10.202c.047,2.658-.224,5.886-.77,8.487l-4.974-12.088c2.208,1.4 4.686,3.447 6.516,5.315l-12.089-1.887c2.146-1.274 4.891-2.477 7.288-3.172l-7.116,10.202" fill="#ffbf00"/>
 <path d="m306.67 215.46 1.542-16.204 9.431 22.977-12.346-10.03 22.892 3.516-13.89 6.087c4.516-6.487 9.03-12.975 13.546-19.462l-1.544 16.203-9.43-22.976 12.431 10.115-22.976-3.601 13.889-6.086c-4.486 6.487-8.969 13.117-13.545 19.461" fill="#f0f"/>
 <path d="m331.19 203.8 1.542-16.117 9.431 22.976-12.344-10.116 22.89 3.602-13.889 6.087 13.545-19.376-1.542 16.117-9.431-22.976 12.432 10.116-22.978-3.515 13.888-6.172c-4.46 6.408-9.155 13.256-13.544 19.374" fill="#1fdeff"/>
 <path d="m351.42 192.92c0.515-5.401 1.028-10.802 1.543-16.203l9.432 22.976-12.346-10.03 22.89 3.516-13.889 6.001 13.546-19.376c-0.515 5.401-1.028 10.803-1.543 16.204l-9.431-22.977c4.144 3.372 8.288 6.745 12.432 10.117l-22.977-3.603 13.889-6.086c-4.486 6.486-8.969 13.118-13.546 19.461" fill="#ffd966"/>
 <path d="m368.91 179.88 1.542-16.204 9.519 23.063-12.432-10.116 22.976 3.516-13.974 6.087 13.545-19.376-1.542 16.203-9.431-23.062 12.431 10.115-22.977-3.515 13.888-6.086c-4.485 6.457-8.969 13.061-13.545 19.375" fill="#bf40ff"/>
 <path d="m400.12 203.63c-4.054-6.916-9.483-25.571-19.548-21.861 5.143 7.219 10.224 19.586 19.548 21.861" fill="#3a7dcf"/>
 <path d="m401.57 164.2 13.889 9.26-29.063 7.974c4.274-11.652 3.845-13.709 15.174-17.234" fill="#bfff36"/>
 <path d="m391.71 167.02c-2.385 6.677-2.438 16.1-11.23 14.833 2.582-6.096 3.642-16.547 11.23-14.833" fill="#1fdeff"/>
 <path d="m412.118,200.375 3.257-27.006-28.806,8.06 12.137,19.895c2.656,4.352 9.324.187 13.412-.949" fill="#5af200"/>
 <path d="m401.4 164.2c-5.287-1.21-9.324 0.862-14.488 2.485 5.326 1.067 9.717-0.772 14.488-2.485" fill="#ffbf00"/>
 <path d="m394.03 160.85c6.839 3.363-4.246 6.391 0 0" fill="#ff4000"/>
 <path d="m393.34 158.45c1.74 3.273 0.15 3.543 0 0" fill="#ff8000"/>
 <path d="m392.828,156.393c.699,2.677.676,2.59 0,0" fill="#ffb83d"/>
 <path d="m336.5 245.56c-4.058-6.968-9.399-25.609-19.546-21.862 5.113 7.166 10.578 19.893 19.546 21.862" fill="#ff5e00"/>
 <path d="m338.04 206.12 13.888 9.174-29.063 8.059c4.186-11.663 3.568-13.851 15.175-17.233" fill="#fff091"/>
 <path d="m328.19 208.86c-2.386 6.649-2.455 16.304-11.23 14.83 2.594-6.011 3.663-16.281 11.23-14.83" fill="#ffbf00"/>
 <path d="m348.68 242.3c1.058-9.002 2.114-18.004 3.172-27.006l-28.892 8.059 12.137 19.972c2.66 4.379 9.31 0.247 13.583-1.025" fill="#ff9e00"/>
 <path d="m337.872,206.119c-5.242-1.088-9.296.909-14.402,2.486 5.322,1.063 9.596-.887 14.402-2.486" fill="#ffde1f"/>
 <path d="m329.56 203.03c7.169 3.576-4.442 6.248 0 0" fill="#ff4000"/>
 <path d="m328.96 200.72c1.831 3.223 0.149 3.383 0 0" fill="#ff8000"/>
 <path d="m328.442,198.746c.751,2.469.729,2.395 0,0" fill="#ffb83d"/>
 <path d="m272.63 275.05c-4.068-6.967-9.486-25.762-19.633-21.861 5.14 7.2 10.27 19.716 19.633 21.861" fill="#9e00ff"/>
 <path d="m274.09 235.61 13.888 9.174-28.979 8.058c4.047-11.466 3.373-14.101 15.091-17.232" fill="#ff9eff"/>
 <path d="m264.23 238.35c-2.396 6.637-2.489 16.174-11.232 14.832 2.597-6.046 3.727-16.491 11.232-14.832" fill="#ff30ff"/>
 <path d="m284.63 271.79c1.086-9.002 2.173-18.004 3.259-27.006l-28.806 8.058 12.061 19.972c2.641 4.375 9.46 0.213 13.486-1.024" fill="#ff00de"/>
 <path d="m273.916,235.611c-5.288-1.211-9.325.862-14.489,2.486 5.36,1.072 9.642-.874 14.489-2.486" fill="#ffbf00"/>
 <path d="m265.34 232.61c7.146 3.476-4.611 6.237 0 0" fill="#ff4000"/>
 <path d="m264.66 230.21c1.571 3.299 0.179 3.36 0 0" fill="#ff8000"/>
 <path d="m264.143,228.152c.701,2.609.692,2.576 0,0" fill="#ffb83d"/>
 <path d="m131.08 300.68c-4.072-7.02-9.404-25.806-19.633-21.861 5.147 7.211 10.503 19.85 19.633 21.861" fill="#ff9e00"/>
 <path d="m132.63 261.24 13.889 9.174-29.064 8.059c4.106-11.441 3.464-14.104 15.175-17.233" fill="#ffd966"/>
 <path d="m122.77 263.99c-2.191 6.072-2.691 16.904-11.316 14.918 2.601-6.091 3.633-16.553 11.316-14.918" fill="#ffb83d"/>
 <path d="m143.17 297.42 3.258-27.005-28.807 8.059c4.02 6.657 8.041 13.314 12.061 19.972 2.647 4.384 9.395 0.134 13.488-1.026" fill="#fff091"/>
 <path d="m132.457,261.245c-5.272-1.209-9.328.819-14.488,2.4 5.397,1.194 9.295-.729 14.488-2.4" fill="#ffbf00"/>
 <path d="m123.63 258.5c6.803 3.437-4.223 6.332 0 0" fill="#ff4000"/>
 <path d="m122.94 256.1c1.804 3.253 0.206 3.546 0 0" fill="#ff8000"/>
 <path d="m122.426,254.042c.696,2.669.683,2.619 0,0" fill="#ffb83d"/>
 <path d="m203.87 292.19c-4.068-6.966-9.487-25.762-19.632-21.861 5.139 7.201 10.269 19.716 19.632 21.861" fill="#b87f79"/>
 <path d="m205.33 252.76 13.889 9.173-28.978 8.059c4.141-11.473 3.703-13.985 15.089-17.232" fill="#deff1f"/>
 <path d="m195.47 255.5c-2.386 6.649-2.456 16.304-11.23 14.832 2.618-6.065 3.782-16.35 11.23-14.832" fill="#f2c2a6"/>
 <path d="m215.876,289.022 3.171-27.178-28.72,8.145 12.137,19.972c2.653,4.366 9.312.2 13.412-.939" fill="#b8cf30"/>
 <path d="m205.158,252.757c-5.266-1.215-9.265.857-14.403,2.486 5.268.948 9.695-.826 14.403-2.486" fill="#ffbf00"/>
 <path d="m197.01 249.41c6.901 3.402-4.137 6.449 0 0" fill="#ff4000"/>
 <path d="m196.41 247.1c1.738 3.149 0.149 3.533 0 0" fill="#ff8000"/>
 <path d="m195.814,245.041c.882,2.787.727,2.298 0,0" fill="#ffb83d"/>
 <path d="m398.92 182.28c7.58 7.402-2.776 9.772 0 0" fill="#ff9e00"/>
 <path d="m401.32 190.34c7.122 7.275-2.325 9.675 0 0" fill="#ff9e00"/>
 <path d="m400.46 190.6c-7.336 7.139-9.811-2.52 0 0" fill="#ff9e00"/>
 <path d="m409.72 187.86c-7.142 7.185-9.825-2.295 0 0" fill="#ff9e00"/>
 <path d="m406.46 183.06c-1.542 9.999-9.314 4.125 0 0" fill="#ff9e00"/>
 <path d="m392.91 186.74c6.351 7.868 10.125-1.223 0 0" fill="#ff9e00"/>
 <path d="m396.17 197.38c1.657-10.048 9.305-3.762 0 0" fill="#ff9e00"/>
 <path d="m409.46 193.6c-6.755-8.19-9.543 1.92 0 0" fill="#ff9e00"/>
 <path d="m400.8 188.8c2.15 3.616 0.122 3.901 0 0" fill="#1fdeff"/>
 <path d="m272.97 252.76c7.161 7.257-2.395 9.586 0 0" fill="#ffb0ff"/>
 <path d="m275.29 260.64c6.32 7.227-1.595 9.695 0 0" fill="#ffb0ff"/>
 <path d="m274.43 260.9c-7.033 7.076-9.58-2.55 0 0" fill="#ffb0ff"/>
 <path d="m283.52 258.24c-6.752 6.627-9.985-1.823 0 0" fill="#ffb0ff"/>
 <path d="m280.26 253.53c-1.281 9.74-9.029 3.982 0 0" fill="#ffb0ff"/>
 <path d="m267.06 257.04c6.177 7.825 9.875-1.075 0 0" fill="#ffb0ff"/>
 <path d="m270.23 267.59c2.284-10.118 8.703-3.435 0 0" fill="#ffb0ff"/>
 <path d="m283.26 263.9c-6.702-7.553-9.285 1.208 0 0" fill="#ffb0ff"/>
 <path d="m274.77 259.1c2.1 3.634 0.123 3.863 0 0" fill="#f00"/>
 <path d="m130.66 278.56c7.217 7.113-2.425 10.114 0 0" fill="#ff0080"/>
 <path d="m133.06 286.62c7.224 7.377-2.496 9.981 0 0" fill="#ff0080"/>
 <path d="m132.12 286.88c-7.215 7.304-9.79-2.594 0 0" fill="#ff0080"/>
 <path d="m141.46 284.14c-7.159 7.308-9.833-2.538 0 0" fill="#ff0080"/>
 <path d="m138.2 279.25c-1.278 10.169-9.517 4.163 0 0" fill="#ff0080"/>
 <path d="m124.57 283.02c6.387 7.982 10.232-1.322 0 0" fill="#ff0080"/>
 <path d="m127.83 293.74c1.772-10.299 9.372-3.698 0 0" fill="#ff0080"/>
 <path d="m141.29 289.96c-6.419-7.928-10.247 1.243 0 0" fill="#ff0080"/>
 <path d="m132.54 284.99c2.363 3.652-0.153 4.293 0 0" fill="#ffde00"/>
 <path d="m338.39 223.52c5.401 6.937-0.993 8.913 0 0" fill="#0ff"/>
 <path d="m340.53 230.9c5.628 7.136-1.153 8.661 0 0" fill="#0ff"/>
 <path d="m339.76 231.07c-7.018 5.598-8.697-1.126 0 0" fill="#0ff"/>
 <path d="m348.25 228.67c-6.992 5.411-8.793-1.203 0 0" fill="#0ff"/>
 <path d="m345.25 224.21c-2.307 8.543-7.693 4.449 0 0" fill="#0ff"/>
 <path d="m332.82 227.55c6.461 6.324 8.773-0.099 0 0" fill="#0ff"/>
 <path d="m335.82 237.41c2.426-8.517 7.777-4.413 0 0" fill="#0ff"/>
 <path d="m348.08 233.9c-6.428-6.26-8.753 0.3 0 0" fill="#0ff"/>
 <path d="m340.1 229.44c1.17 3.349 0.721 3.521 0 0" fill="#ffbf00"/>
 <path d="m204.04 269.22c8.149 6.899-3.067 11.056 0 0" fill="#de00ff"/>
 <path d="m206.53 277.62c8.466 7.732-3.67 10.213 0 0" fill="#de00ff"/>
 <path d="m205.59 277.88c-7.191 8.534-10.524-3.634 0 0" fill="#de00ff"/>
 <path d="m215.36 275.05c-6.772 8.281-11.115-3.153 0 0" fill="#de00ff"/>
 <path d="m211.93 269.99c-0.582 10.771-10.671 4.068 0 0" fill="#de00ff"/>
 <path d="m197.62 273.85c6.784 9.251 10.673-2.403 0 0" fill="#de00ff"/>
 <path d="m201.13 285.08c1.129-11.433 10.318-3.012 0 0" fill="#de00ff"/>
 <path d="m215.1 281.05c-6.828-9.192-10.37 2.628 0 0" fill="#de00ff"/>
 <path d="m206.02 275.99c2.72 3.728-0.505 4.503 0 0" fill="#ff0"/>
</svg>
