<?xml version="1.0" encoding="utf-8"?>
<!-- Generator: Adobe Illustrator 26.0.1, SVG Export Plug-In . SVG Version: 6.00 Build 0)  -->
<svg version="1.1" id="Layer_1" xmlns="http://www.w3.org/2000/svg" xmlns:xlink="http://www.w3.org/1999/xlink" x="0px" y="0px"
	 viewBox="0 0 432 288" style="enable-background:new 0 0 432 288;" xml:space="preserve">
<style type="text/css">
	.st0{display:none;}
	.st1{display:inline;}
	.st2{display:inline;clip-path:url(#SVGID_00000153665827625399696030000018080680837833817250_);}
	.st3{fill:#999999;}
	.st4{fill-rule:evenodd;clip-rule:evenodd;fill:#00D6AD;}
	.st5{fill:#FF2B34;}
	.st6{fill:#FFB938;}
	.st7{opacity:0.5;}
	.st8{fill-rule:evenodd;clip-rule:evenodd;fill:url(#SVGID_00000073712635175023951990000016806009232066669969_);}
	.st9{fill:url(#SVGID_00000083810875716482734920000012056585124836681347_);}
	.st10{fill:url(#SVGID_00000043416688381650401590000012612019051499757719_);}
	.st11{fill-rule:evenodd;clip-rule:evenodd;fill:url(#SVGID_00000090263611897290459420000000547781656981616771_);}
	.st12{fill:url(#SVGID_00000007412174457969312520000004037961936566987449_);}
	.st13{fill:url(#SVGID_00000031192399763610141370000014035901165867100605_);}
	.st14{fill-rule:evenodd;clip-rule:evenodd;fill:url(#SVGID_00000089556935740673814050000004390560398505830291_);}
	.st15{fill:url(#SVGID_00000075159514482444182590000011939696869264067715_);}
	.st16{fill:url(#SVGID_00000003816600233253015270000007695931678842508987_);}
	.st17{fill-rule:evenodd;clip-rule:evenodd;fill:url(#SVGID_00000034780642235880432460000013091847435241522078_);}
	.st18{fill-rule:evenodd;clip-rule:evenodd;fill:url(#SVGID_00000047037775197590922400000015901634831760417928_);}
	.st19{fill:url(#SVGID_00000086662596439307379830000009869305153663844997_);}
	.st20{fill:url(#SVGID_00000022557231046463810960000009890228247210197921_);}
	.st21{fill-rule:evenodd;clip-rule:evenodd;fill:url(#SVGID_00000045581734700969883490000015823782837666572171_);}
	.st22{fill:url(#SVGID_00000160908911724034093000000004662740610553329798_);}
	.st23{fill:url(#SVGID_00000101786630916719521330000008555216777273663901_);}
	.st24{fill-rule:evenodd;clip-rule:evenodd;fill:url(#SVGID_00000138560748542298164730000006115241444703488692_);}
	.st25{fill:url(#SVGID_00000029748248946199217330000001741645220051392922_);}
	.st26{fill:url(#SVGID_00000085947532958080296110000011643582185497725871_);}
	.st27{fill-rule:evenodd;clip-rule:evenodd;fill:url(#SVGID_00000127038579704434387340000011051349727061588113_);}
	.st28{fill-rule:evenodd;clip-rule:evenodd;fill:url(#SVGID_00000008836709758280082830000010249144231720564362_);}
	.st29{fill:url(#SVGID_00000039095820709667814890000013197367013098776223_);}
	.st30{fill:url(#SVGID_00000160155691666478440610000004890309675974416036_);}
	.st31{fill-rule:evenodd;clip-rule:evenodd;fill:url(#SVGID_00000056401938954145632350000016744632661930729619_);}
	.st32{fill:url(#SVGID_00000115478736304051362240000005670188635274316470_);}
	.st33{fill:url(#SVGID_00000080174178858429262410000011044106445256584356_);}
	.st34{fill-rule:evenodd;clip-rule:evenodd;fill:url(#SVGID_00000125564377589449092690000009523134330632608674_);}
	.st35{fill:url(#SVGID_00000006671842159963129890000014202736515703132582_);}
	.st36{fill:url(#SVGID_00000109713896230586532070000002460543680552007599_);}
	.st37{fill-rule:evenodd;clip-rule:evenodd;fill:url(#SVGID_00000168113696956161122640000016761921591278333887_);}
	.st38{fill-rule:evenodd;clip-rule:evenodd;fill:url(#SVGID_00000140732379276611237920000014866163580459738792_);}
	.st39{fill:url(#SVGID_00000030464057684562644410000016357945268609688974_);}
	.st40{fill:url(#SVGID_00000134250651083475801520000012988844962552167808_);}
	.st41{fill-rule:evenodd;clip-rule:evenodd;fill:url(#SVGID_00000064313185090797136630000005042956742390236051_);}
	.st42{fill:url(#SVGID_00000084532235409115980240000007649485739742799288_);}
	.st43{fill:url(#SVGID_00000119811061395324458040000016927959761224618646_);}
	.st44{fill-rule:evenodd;clip-rule:evenodd;fill:url(#SVGID_00000013174574875801001140000007247815957326231476_);}
	.st45{fill:url(#SVGID_00000026842218146167233890000000134419078820812455_);}
	.st46{fill:url(#SVGID_00000152965246563035002630000012420353795954059914_);}
	.st47{fill-rule:evenodd;clip-rule:evenodd;fill:url(#SVGID_00000018920435417572448970000002698786481950610346_);}
	.st48{fill:#FB242D;}
	.st49{fill:#00D6AD;}
	.st50{fill:#FEB937;}
	.st51{fill:#FFFFFF;}
	.st52{fill:#001930;}
	.st53{display:inline;fill:#001930;}
</style>
<g>
	<g class="st0">
		<defs>
			<rect id="SVGID_1_" x="-9.5" y="-81.4" width="432" height="288"/>
		</defs>
		
			<linearGradient id="SVGID_00000093868795969831119820000008938046482481873851_" gradientUnits="userSpaceOnUse" x1="206.4846" y1="-34.1278" x2="206.4846" y2="225.2646">
			<stop  offset="0" style="stop-color:#F6F7FF"/>
			<stop  offset="0.328" style="stop-color:#F1F3FF"/>
			<stop  offset="0.5268" style="stop-color:#EBEEFF"/>
			<stop  offset="0.6126" style="stop-color:#F3F4FF"/>
			<stop  offset="0.6951" style="stop-color:#FFFFFF"/>
			<stop  offset="1" style="stop-color:#E8ECFF"/>
		</linearGradient>
		
			<use xlink:href="#SVGID_1_"  style="display:inline;overflow:visible;fill:url(#SVGID_00000093868795969831119820000008938046482481873851_);"/>
		<clipPath id="SVGID_00000088132612360967423110000016051649063771113870_" class="st1">
			<use xlink:href="#SVGID_1_"  style="overflow:visible;"/>
		</clipPath>
		<g style="display:inline;clip-path:url(#SVGID_00000088132612360967423110000016051649063771113870_);">
			<g>
				<g>
					<path class="st3" d="M-21-36.9c-31.1,0-62.4-3.6-93.7-10.8l0.2-1c114.7,26.5,230.9,3.7,327.2-64.2l0.6,0.8
						C143-62.4,62.2-36.9-21-36.9z"/>
				</g>
				<g>
					<path class="st4" d="M-104-50.6c-2,10.1-4,20.1-6,30.2c5.1-1.6,7.7-2.5,12.7-4.2c4.4,3.6,6.6,5.3,11.1,8.8
						c1.4-10.2,2.9-20.4,4.3-30.5C-90.8-47.8-95.2-48.6-104-50.6z"/>
					<path class="st5" d="M-70.7-44.7C-71.8-34.5-73-24.2-74.2-14c4.9-2.1,7.4-3.1,12.2-5.3c4.6,3.2,6.9,4.7,11.7,7.8
						c0.6-10.3,1.2-20.6,1.8-30.8C-57.4-43.1-61.8-43.5-70.7-44.7z"/>
					<path class="st6" d="M-37.2-41.7c-0.3,10.3-0.7,20.6-1,30.9c4.7-2.5,7.1-3.8,11.6-6.4c4.8,2.8,7.3,4.1,12.2,6.8
						C-14.6-20.7-14.8-31-15-41.4C-23.9-41.2-28.3-41.3-37.2-41.7z"/>
					<path class="st4" d="M-3.8-41.6c0.5,10.3,1,20.6,1.5,30.9c4.5-2.9,6.7-4.3,11-7.3c5,2.4,7.5,3.5,12.7,5.7
						c-1.1-10.3-2.1-20.5-3.2-30.8C9.5-42.3,5.1-42-3.8-41.6z"/>
					<path class="st5" d="M125.8-69.4c3.7,9.6,7.5,19.2,11.2,28.8c3.3-4.2,4.9-6.4,8.1-10.7c5.5,0.6,8.2,0.8,13.8,1.2
						c-4.2-9.4-8.5-18.8-12.7-28.1C138.1-74.5,134-72.7,125.8-69.4z"/>
					<path class="st6" d="M156.3-83.2c4.5,9.3,9,18.5,13.5,27.8c3-4.5,4.4-6.8,7.2-11.4c5.5,0.1,8.3,0.1,13.9-0.1c-5-9-10-18-15-27
						C168.1-89.4,164.2-87.3,156.3-83.2z"/>
					<path class="st4" d="M185.7-99.7c5.2,8.8,10.5,17.7,15.7,26.5c2.6-4.8,3.9-7.2,6.3-12c5.5-0.4,8.3-0.7,13.9-1.3
						c-5.7-8.5-11.4-17.1-17.1-25.6C197.1-106.9,193.3-104.5,185.7-99.7z"/>
					<path class="st5" d="M29.4-44.4c1.3,10.2,2.7,20.5,4,30.7c4.2-3.3,6.3-4.9,10.4-8.3c5.2,1.9,7.8,2.9,13.1,4.6
						c-1.9-10.1-3.8-20.3-5.6-30.4C42.5-46.2,38.1-45.5,29.4-44.4z"/>
					<path class="st6" d="M62.1-50c2.2,10.1,4.3,20.2,6.5,30.3c3.9-3.6,5.9-5.4,9.7-9.1c5.3,1.5,8,2.2,13.4,3.5
						c-2.7-10-5.4-19.9-8.1-29.9C75.1-52.9,70.8-51.8,62.1-50z"/>
					<path class="st4" d="M94.3-58.3c3,9.9,5.9,19.8,8.9,29.6c3.6-3.9,5.4-5.9,8.9-9.9c5.4,1,8.1,1.5,13.6,2.3
						c-3.5-9.7-7-19.4-10.4-29.1C107-62.3,102.8-60.9,94.3-58.3z"/>
				</g>
				<g class="st7">
					
						<linearGradient id="SVGID_00000116205035274094215510000005555227733499214246_" gradientUnits="userSpaceOnUse" x1="-414.3379" y1="173.3432" x2="-414.3379" y2="135.8083" gradientTransform="matrix(0.9813 -0.1924 0.1924 0.9813 280.9295 -264.4335)">
						<stop  offset="0.3688" style="stop-color:#FFFFFF"/>
						<stop  offset="0.4535" style="stop-color:#F9F9F9"/>
						<stop  offset="0.5626" style="stop-color:#E9E9E9"/>
						<stop  offset="0.6847" style="stop-color:#CFCFCF"/>
						<stop  offset="0.7871" style="stop-color:#B3B3B3"/>
						<stop  offset="1" style="stop-color:#FFFFFF"/>
					</linearGradient>
					<path style="fill-rule:evenodd;clip-rule:evenodd;fill:url(#SVGID_00000116205035274094215510000005555227733499214246_);" d="
						M-104-50.6c-2,10.1-4,20.1-6,30.2c5.1-1.6,7.7-2.5,12.7-4.2c4.4,3.6,6.6,5.3,11.1,8.8c1.4-10.2,2.9-20.4,4.3-30.5
						C-90.8-47.8-95.2-48.6-104-50.6z"/>
					
						<linearGradient id="SVGID_00000039845316318941972810000015492223020926738066_" gradientUnits="userSpaceOnUse" x1="-381.3062" y1="184.4175" x2="-381.3062" y2="147.9944" gradientTransform="matrix(0.9813 -0.1924 0.1924 0.9813 280.9295 -264.4335)">
						<stop  offset="0.3688" style="stop-color:#FFFFFF"/>
						<stop  offset="0.4535" style="stop-color:#F9F9F9"/>
						<stop  offset="0.5626" style="stop-color:#E9E9E9"/>
						<stop  offset="0.6847" style="stop-color:#CFCFCF"/>
						<stop  offset="0.7871" style="stop-color:#B3B3B3"/>
						<stop  offset="1" style="stop-color:#FFFFFF"/>
					</linearGradient>
					<path style="fill:url(#SVGID_00000039845316318941972810000015492223020926738066_);" d="M-70.7-44.7
						C-71.8-34.5-73-24.2-74.2-14c4.9-2.1,7.4-3.1,12.2-5.3c4.6,3.2,6.9,4.7,11.7,7.8c0.6-10.3,1.2-20.6,1.8-30.8
						C-57.4-43.1-61.8-43.5-70.7-44.7z"/>
					
						<linearGradient id="SVGID_00000178174273370119502890000009025733794304502456_" gradientUnits="userSpaceOnUse" x1="-347.6435" y1="192.4406" x2="-347.6435" y2="157.3419" gradientTransform="matrix(0.9813 -0.1924 0.1924 0.9813 280.9295 -264.4335)">
						<stop  offset="0.3688" style="stop-color:#FFFFFF"/>
						<stop  offset="0.4535" style="stop-color:#F9F9F9"/>
						<stop  offset="0.5626" style="stop-color:#E9E9E9"/>
						<stop  offset="0.6847" style="stop-color:#CFCFCF"/>
						<stop  offset="0.7871" style="stop-color:#B3B3B3"/>
						<stop  offset="1" style="stop-color:#FFFFFF"/>
					</linearGradient>
					<path style="fill:url(#SVGID_00000178174273370119502890000009025733794304502456_);" d="M-37.2-41.7
						c-0.3,10.3-0.7,20.6-1,30.9c4.7-2.5,7.1-3.8,11.6-6.4c4.8,2.8,7.3,4.1,12.2,6.8C-14.6-20.7-14.8-31-15-41.4
						C-23.9-41.2-28.3-41.3-37.2-41.7z"/>
					
						<linearGradient id="SVGID_00000012433309851575349180000011070280019484980658_" gradientUnits="userSpaceOnUse" x1="-313.5315" y1="197.4125" x2="-313.5315" y2="163.8507" gradientTransform="matrix(0.9813 -0.1924 0.1924 0.9813 280.9295 -264.4335)">
						<stop  offset="0.3688" style="stop-color:#FFFFFF"/>
						<stop  offset="0.4535" style="stop-color:#F9F9F9"/>
						<stop  offset="0.5626" style="stop-color:#E9E9E9"/>
						<stop  offset="0.6847" style="stop-color:#CFCFCF"/>
						<stop  offset="0.7871" style="stop-color:#B3B3B3"/>
						<stop  offset="1" style="stop-color:#FFFFFF"/>
					</linearGradient>
					<path style="fill-rule:evenodd;clip-rule:evenodd;fill:url(#SVGID_00000012433309851575349180000011070280019484980658_);" d="
						M-3.8-41.6c0.5,10.3,1,20.6,1.5,30.9c4.5-2.9,6.7-4.3,11-7.3c5,2.4,7.5,3.5,12.7,5.7c-1.1-10.3-2.1-20.5-3.2-30.8
						C9.5-42.3,5.1-42-3.8-41.6z"/>
					
						<linearGradient id="SVGID_00000136394238087304675150000018334407995141320376_" gradientUnits="userSpaceOnUse" x1="-175.4118" y1="191.9278" x2="-175.4118" y2="156.7188" gradientTransform="matrix(0.9813 -0.1924 0.1924 0.9813 280.9295 -264.4335)">
						<stop  offset="0.3688" style="stop-color:#FFFFFF"/>
						<stop  offset="0.4535" style="stop-color:#F9F9F9"/>
						<stop  offset="0.5626" style="stop-color:#E9E9E9"/>
						<stop  offset="0.6847" style="stop-color:#CFCFCF"/>
						<stop  offset="0.7871" style="stop-color:#B3B3B3"/>
						<stop  offset="1" style="stop-color:#FFFFFF"/>
					</linearGradient>
					<path style="fill:url(#SVGID_00000136394238087304675150000018334407995141320376_);" d="M125.8-69.4
						c3.7,9.6,7.5,19.2,11.2,28.8c3.3-4.2,4.9-6.4,8.1-10.7c5.5,0.6,8.2,0.8,13.8,1.2c-4.2-9.4-8.5-18.8-12.7-28.1
						C138.1-74.5,134-72.7,125.8-69.4z"/>
					
						<linearGradient id="SVGID_00000002353492588931190820000002539826642491290781_" gradientUnits="userSpaceOnUse" x1="-141.7917" y1="183.6682" x2="-141.7917" y2="147.1513" gradientTransform="matrix(0.9813 -0.1924 0.1924 0.9813 280.9295 -264.4335)">
						<stop  offset="0.3688" style="stop-color:#FFFFFF"/>
						<stop  offset="0.4535" style="stop-color:#F9F9F9"/>
						<stop  offset="0.5626" style="stop-color:#E9E9E9"/>
						<stop  offset="0.6847" style="stop-color:#CFCFCF"/>
						<stop  offset="0.7871" style="stop-color:#B3B3B3"/>
						<stop  offset="1" style="stop-color:#FFFFFF"/>
					</linearGradient>
					<path style="fill:url(#SVGID_00000002353492588931190820000002539826642491290781_);" d="M156.3-83.2c4.5,9.3,9,18.5,13.5,27.8
						c3-4.5,4.4-6.8,7.2-11.4c5.5,0.1,8.3,0.1,13.9-0.1c-5-9-10-18-15-27C168.1-89.4,164.2-87.3,156.3-83.2z"/>
					
						<linearGradient id="SVGID_00000081622087849854659070000015435504418178576566_" gradientUnits="userSpaceOnUse" x1="-108.8171" y1="172.3573" x2="-108.8171" y2="134.7453" gradientTransform="matrix(0.9813 -0.1924 0.1924 0.9813 280.9295 -264.4335)">
						<stop  offset="0.3688" style="stop-color:#FFFFFF"/>
						<stop  offset="0.4535" style="stop-color:#F9F9F9"/>
						<stop  offset="0.5626" style="stop-color:#E9E9E9"/>
						<stop  offset="0.6847" style="stop-color:#CFCFCF"/>
						<stop  offset="0.7871" style="stop-color:#B3B3B3"/>
						<stop  offset="1" style="stop-color:#FFFFFF"/>
					</linearGradient>
					<path style="fill-rule:evenodd;clip-rule:evenodd;fill:url(#SVGID_00000081622087849854659070000015435504418178576566_);" d="
						M185.7-99.7c5.2,8.8,10.5,17.7,15.7,26.5c2.6-4.8,3.9-7.2,6.3-12c5.5-0.4,8.3-0.7,13.9-1.3c-5.7-8.5-11.4-17.1-17.1-25.6
						C197.1-106.9,193.3-104.5,185.7-99.7z"/>
					
						<linearGradient id="SVGID_00000075123919016247088170000002079164758569558409_" gradientUnits="userSpaceOnUse" x1="-279.1519" y1="199.3334" x2="-279.1519" y2="167.521" gradientTransform="matrix(0.9813 -0.1924 0.1924 0.9813 280.9295 -264.4335)">
						<stop  offset="0.3688" style="stop-color:#FFFFFF"/>
						<stop  offset="0.4535" style="stop-color:#F9F9F9"/>
						<stop  offset="0.5626" style="stop-color:#E9E9E9"/>
						<stop  offset="0.6847" style="stop-color:#CFCFCF"/>
						<stop  offset="0.7871" style="stop-color:#B3B3B3"/>
						<stop  offset="1" style="stop-color:#FFFFFF"/>
					</linearGradient>
					<path style="fill:url(#SVGID_00000075123919016247088170000002079164758569558409_);" d="M29.4-44.4c1.3,10.2,2.7,20.5,4,30.7
						c4.2-3.3,6.3-4.9,10.4-8.3c5.2,1.9,7.8,2.9,13.1,4.6c-1.9-10.1-3.8-20.3-5.6-30.4C42.5-46.2,38.1-45.5,29.4-44.4z"/>
					
						<linearGradient id="SVGID_00000014601249691995464800000003295609593088743613_" gradientUnits="userSpaceOnUse" x1="-243.8609" y1="199.2935" x2="-243.8609" y2="167.3379" gradientTransform="matrix(0.9813 -0.1924 0.1924 0.9813 280.9295 -264.4335)">
						<stop  offset="0.3688" style="stop-color:#FFFFFF"/>
						<stop  offset="0.4535" style="stop-color:#F9F9F9"/>
						<stop  offset="0.5626" style="stop-color:#E9E9E9"/>
						<stop  offset="0.6847" style="stop-color:#CFCFCF"/>
						<stop  offset="0.7871" style="stop-color:#B3B3B3"/>
						<stop  offset="1" style="stop-color:#FFFFFF"/>
					</linearGradient>
					<path style="fill:url(#SVGID_00000014601249691995464800000003295609593088743613_);" d="M62.1-50c2.2,10.1,4.3,20.2,6.5,30.3
						c3.9-3.6,5.9-5.4,9.7-9.1c5.3,1.5,8,2.2,13.4,3.5c-2.7-10-5.4-19.9-8.1-29.9C75.1-52.9,70.8-51.8,62.1-50z"/>
					
						<linearGradient id="SVGID_00000091694489119621541750000015460242822221199755_" gradientUnits="userSpaceOnUse" x1="-209.4958" y1="197.1361" x2="-209.4958" y2="163.4477" gradientTransform="matrix(0.9813 -0.1924 0.1924 0.9813 280.9295 -264.4335)">
						<stop  offset="0.3688" style="stop-color:#FFFFFF"/>
						<stop  offset="0.4535" style="stop-color:#F9F9F9"/>
						<stop  offset="0.5626" style="stop-color:#E9E9E9"/>
						<stop  offset="0.6847" style="stop-color:#CFCFCF"/>
						<stop  offset="0.7871" style="stop-color:#B3B3B3"/>
						<stop  offset="1" style="stop-color:#FFFFFF"/>
					</linearGradient>
					<path style="fill-rule:evenodd;clip-rule:evenodd;fill:url(#SVGID_00000091694489119621541750000015460242822221199755_);" d="
						M94.3-58.3c3,9.9,5.9,19.8,8.9,29.6c3.6-3.9,5.4-5.9,8.9-9.9c5.4,1,8.1,1.5,13.6,2.3c-3.5-9.7-7-19.4-10.4-29.1
						C107-62.3,102.8-60.9,94.3-58.3z"/>
				</g>
				<g>
					
						<linearGradient id="SVGID_00000011715723868924467140000011503648640434505616_" gradientUnits="userSpaceOnUse" x1="-414.3379" y1="173.3432" x2="-414.3379" y2="135.8083" gradientTransform="matrix(0.9813 -0.1924 0.1924 0.9813 280.9295 -264.4335)">
						<stop  offset="0.3688" style="stop-color:#FFFFFF"/>
						<stop  offset="0.4535" style="stop-color:#F9F9F9"/>
						<stop  offset="0.5626" style="stop-color:#E9E9E9"/>
						<stop  offset="0.6847" style="stop-color:#CFCFCF"/>
						<stop  offset="0.7871" style="stop-color:#B3B3B3"/>
						<stop  offset="1" style="stop-color:#FFFFFF"/>
					</linearGradient>
					<path style="fill-rule:evenodd;clip-rule:evenodd;fill:url(#SVGID_00000011715723868924467140000011503648640434505616_);" d="
						M-104-50.6c-2,10.1-4,20.1-6,30.2c5.1-1.6,7.7-2.5,12.7-4.2c4.4,3.6,6.6,5.3,11.1,8.8c1.4-10.2,2.9-20.4,4.3-30.5
						C-90.8-47.8-95.2-48.6-104-50.6z"/>
					
						<linearGradient id="SVGID_00000104681964688264876300000002415112320187781785_" gradientUnits="userSpaceOnUse" x1="-381.3062" y1="184.4175" x2="-381.3062" y2="147.9944" gradientTransform="matrix(0.9813 -0.1924 0.1924 0.9813 280.9295 -264.4335)">
						<stop  offset="0.3688" style="stop-color:#FFFFFF"/>
						<stop  offset="0.4535" style="stop-color:#F9F9F9"/>
						<stop  offset="0.5626" style="stop-color:#E9E9E9"/>
						<stop  offset="0.6847" style="stop-color:#CFCFCF"/>
						<stop  offset="0.7871" style="stop-color:#B3B3B3"/>
						<stop  offset="1" style="stop-color:#FFFFFF"/>
					</linearGradient>
					<path style="fill:url(#SVGID_00000104681964688264876300000002415112320187781785_);" d="M-70.7-44.7
						C-71.8-34.5-73-24.2-74.2-14c4.9-2.1,7.4-3.1,12.2-5.3c4.6,3.2,6.9,4.7,11.7,7.8c0.6-10.3,1.2-20.6,1.8-30.8
						C-57.4-43.1-61.8-43.5-70.7-44.7z"/>
					
						<linearGradient id="SVGID_00000103248600001287167900000013658278271762056369_" gradientUnits="userSpaceOnUse" x1="-347.6435" y1="192.4406" x2="-347.6435" y2="157.3419" gradientTransform="matrix(0.9813 -0.1924 0.1924 0.9813 280.9295 -264.4335)">
						<stop  offset="0.3688" style="stop-color:#FFFFFF"/>
						<stop  offset="0.4535" style="stop-color:#F9F9F9"/>
						<stop  offset="0.5626" style="stop-color:#E9E9E9"/>
						<stop  offset="0.6847" style="stop-color:#CFCFCF"/>
						<stop  offset="0.7871" style="stop-color:#B3B3B3"/>
						<stop  offset="1" style="stop-color:#FFFFFF"/>
					</linearGradient>
					<path style="fill:url(#SVGID_00000103248600001287167900000013658278271762056369_);" d="M-37.2-41.7
						c-0.3,10.3-0.7,20.6-1,30.9c4.7-2.5,7.1-3.8,11.6-6.4c4.8,2.8,7.3,4.1,12.2,6.8C-14.6-20.7-14.8-31-15-41.4
						C-23.9-41.2-28.3-41.3-37.2-41.7z"/>
					
						<linearGradient id="SVGID_00000074441846811671958160000003664751549145249442_" gradientUnits="userSpaceOnUse" x1="-313.5315" y1="197.4125" x2="-313.5315" y2="163.8507" gradientTransform="matrix(0.9813 -0.1924 0.1924 0.9813 280.9295 -264.4335)">
						<stop  offset="0.3688" style="stop-color:#FFFFFF"/>
						<stop  offset="0.4535" style="stop-color:#F9F9F9"/>
						<stop  offset="0.5626" style="stop-color:#E9E9E9"/>
						<stop  offset="0.6847" style="stop-color:#CFCFCF"/>
						<stop  offset="0.7871" style="stop-color:#B3B3B3"/>
						<stop  offset="1" style="stop-color:#FFFFFF"/>
					</linearGradient>
					<path style="fill-rule:evenodd;clip-rule:evenodd;fill:url(#SVGID_00000074441846811671958160000003664751549145249442_);" d="
						M-3.8-41.6c0.5,10.3,1,20.6,1.5,30.9c4.5-2.9,6.7-4.3,11-7.3c5,2.4,7.5,3.5,12.7,5.7c-1.1-10.3-2.1-20.5-3.2-30.8
						C9.5-42.3,5.1-42-3.8-41.6z"/>
					
						<linearGradient id="SVGID_00000018953974954473887120000016279532386195969426_" gradientUnits="userSpaceOnUse" x1="-175.4118" y1="191.9278" x2="-175.4118" y2="156.7188" gradientTransform="matrix(0.9813 -0.1924 0.1924 0.9813 280.9295 -264.4335)">
						<stop  offset="0.3688" style="stop-color:#FFFFFF"/>
						<stop  offset="0.4535" style="stop-color:#F9F9F9"/>
						<stop  offset="0.5626" style="stop-color:#E9E9E9"/>
						<stop  offset="0.6847" style="stop-color:#CFCFCF"/>
						<stop  offset="0.7871" style="stop-color:#B3B3B3"/>
						<stop  offset="1" style="stop-color:#FFFFFF"/>
					</linearGradient>
					<path style="fill:url(#SVGID_00000018953974954473887120000016279532386195969426_);" d="M125.8-69.4
						c3.7,9.6,7.5,19.2,11.2,28.8c3.3-4.2,4.9-6.4,8.1-10.7c5.5,0.6,8.2,0.8,13.8,1.2c-4.2-9.4-8.5-18.8-12.7-28.1
						C138.1-74.5,134-72.7,125.8-69.4z"/>
					
						<linearGradient id="SVGID_00000052103483348540076280000013661256088946789811_" gradientUnits="userSpaceOnUse" x1="-141.7917" y1="183.6682" x2="-141.7917" y2="147.1513" gradientTransform="matrix(0.9813 -0.1924 0.1924 0.9813 280.9295 -264.4335)">
						<stop  offset="0.3688" style="stop-color:#FFFFFF"/>
						<stop  offset="0.4535" style="stop-color:#F9F9F9"/>
						<stop  offset="0.5626" style="stop-color:#E9E9E9"/>
						<stop  offset="0.6847" style="stop-color:#CFCFCF"/>
						<stop  offset="0.7871" style="stop-color:#B3B3B3"/>
						<stop  offset="1" style="stop-color:#FFFFFF"/>
					</linearGradient>
					<path style="fill:url(#SVGID_00000052103483348540076280000013661256088946789811_);" d="M156.3-83.2c4.5,9.3,9,18.5,13.5,27.8
						c3-4.5,4.4-6.8,7.2-11.4c5.5,0.1,8.3,0.1,13.9-0.1c-5-9-10-18-15-27C168.1-89.4,164.2-87.3,156.3-83.2z"/>
					
						<linearGradient id="SVGID_00000165220704648936733280000004661442484732754053_" gradientUnits="userSpaceOnUse" x1="-108.8171" y1="172.3573" x2="-108.8171" y2="134.7453" gradientTransform="matrix(0.9813 -0.1924 0.1924 0.9813 280.9295 -264.4335)">
						<stop  offset="0.3688" style="stop-color:#FFFFFF"/>
						<stop  offset="0.4535" style="stop-color:#F9F9F9"/>
						<stop  offset="0.5626" style="stop-color:#E9E9E9"/>
						<stop  offset="0.6847" style="stop-color:#CFCFCF"/>
						<stop  offset="0.7871" style="stop-color:#B3B3B3"/>
						<stop  offset="1" style="stop-color:#FFFFFF"/>
					</linearGradient>
					<path style="fill-rule:evenodd;clip-rule:evenodd;fill:url(#SVGID_00000165220704648936733280000004661442484732754053_);" d="
						M185.7-99.7c5.2,8.8,10.5,17.7,15.7,26.5c2.6-4.8,3.9-7.2,6.3-12c5.5-0.4,8.3-0.7,13.9-1.3c-5.7-8.5-11.4-17.1-17.1-25.6
						C197.1-106.9,193.3-104.5,185.7-99.7z"/>
					
						<linearGradient id="SVGID_00000153666225811289695160000002845953112217014667_" gradientUnits="userSpaceOnUse" x1="-279.1519" y1="199.3334" x2="-279.1519" y2="167.521" gradientTransform="matrix(0.9813 -0.1924 0.1924 0.9813 280.9295 -264.4335)">
						<stop  offset="0.3688" style="stop-color:#FFFFFF"/>
						<stop  offset="0.4535" style="stop-color:#F9F9F9"/>
						<stop  offset="0.5626" style="stop-color:#E9E9E9"/>
						<stop  offset="0.6847" style="stop-color:#CFCFCF"/>
						<stop  offset="0.7871" style="stop-color:#B3B3B3"/>
						<stop  offset="1" style="stop-color:#FFFFFF"/>
					</linearGradient>
					<path style="fill:url(#SVGID_00000153666225811289695160000002845953112217014667_);" d="M29.4-44.4c1.3,10.2,2.7,20.5,4,30.7
						c4.2-3.3,6.3-4.9,10.4-8.3c5.2,1.9,7.8,2.9,13.1,4.6c-1.9-10.1-3.8-20.3-5.6-30.4C42.5-46.2,38.1-45.5,29.4-44.4z"/>
					
						<linearGradient id="SVGID_00000052805361998621426530000011336755747012003237_" gradientUnits="userSpaceOnUse" x1="-243.8609" y1="199.2935" x2="-243.8609" y2="167.3379" gradientTransform="matrix(0.9813 -0.1924 0.1924 0.9813 280.9295 -264.4335)">
						<stop  offset="0.3688" style="stop-color:#FFFFFF"/>
						<stop  offset="0.4535" style="stop-color:#F9F9F9"/>
						<stop  offset="0.5626" style="stop-color:#E9E9E9"/>
						<stop  offset="0.6847" style="stop-color:#CFCFCF"/>
						<stop  offset="0.7871" style="stop-color:#B3B3B3"/>
						<stop  offset="1" style="stop-color:#FFFFFF"/>
					</linearGradient>
					<path style="fill:url(#SVGID_00000052805361998621426530000011336755747012003237_);" d="M62.1-50c2.2,10.1,4.3,20.2,6.5,30.3
						c3.9-3.6,5.9-5.4,9.7-9.1c5.3,1.5,8,2.2,13.4,3.5c-2.7-10-5.4-19.9-8.1-29.9C75.1-52.9,70.8-51.8,62.1-50z"/>
					
						<linearGradient id="SVGID_00000137824957981665368470000000597137142042728356_" gradientUnits="userSpaceOnUse" x1="-209.4958" y1="197.1361" x2="-209.4958" y2="163.4477" gradientTransform="matrix(0.9813 -0.1924 0.1924 0.9813 280.9295 -264.4335)">
						<stop  offset="0.3688" style="stop-color:#FFFFFF"/>
						<stop  offset="0.4535" style="stop-color:#F9F9F9"/>
						<stop  offset="0.5626" style="stop-color:#E9E9E9"/>
						<stop  offset="0.6847" style="stop-color:#CFCFCF"/>
						<stop  offset="0.7871" style="stop-color:#B3B3B3"/>
						<stop  offset="1" style="stop-color:#FFFFFF"/>
					</linearGradient>
					<path style="fill-rule:evenodd;clip-rule:evenodd;fill:url(#SVGID_00000137824957981665368470000000597137142042728356_);" d="
						M94.3-58.3c3,9.9,5.9,19.8,8.9,29.6c3.6-3.9,5.4-5.9,8.9-9.9c5.4,1,8.1,1.5,13.6,2.3c-3.5-9.7-7-19.4-10.4-29.1
						C107-62.3,102.8-60.9,94.3-58.3z"/>
				</g>
			</g>
		</g>
		<g style="display:inline;clip-path:url(#SVGID_00000088132612360967423110000016051649063771113870_);">
			<g>
				<g>
					<path class="st3" d="M464-13.8c-102.4,0-199.1-37.6-275.8-108.2l0.7-0.7C275.5-43,387.8-5.4,505-16.8l0.1,1
						C491.3-14.4,477.6-13.8,464-13.8z"/>
				</g>
				<g>
					<path class="st4" d="M198.9-119.2c-6.7,7.8-13.4,15.5-20.1,23.3c5.3,1.1,7.9,1.6,13.1,2.6c2,5.3,3.1,7.9,5.3,13.1
						c6.3-8.1,12.6-16.3,18.9-24.4C209-110.2,205.6-113.2,198.9-119.2z"/>
					<path class="st5" d="M225-97.6c-6.1,8.3-12.1,16.6-18.2,24.9c5.3,0.7,8,0.9,13.2,1.4c2.4,5,3.7,7.5,6.3,12.5
						c5.6-8.6,11.2-17.3,16.8-25.9C235.8-89.6,232.1-92.2,225-97.6z"/>
					<path class="st6" d="M252.6-78.5c-5.4,8.8-10.7,17.6-16.1,26.4c5.3,0.2,8,0.2,13.3,0.2c2.8,4.8,4.3,7.2,7.3,11.9
						c4.9-9.1,9.8-18.1,14.7-27.2C264-71.5,260.1-73.8,252.6-78.5z"/>
					<path class="st4" d="M281.6-61.9c-4.6,9.2-9.3,18.4-13.9,27.6c5.3-0.3,8-0.5,13.2-0.9c3.2,4.5,4.8,6.8,8.2,11.2
						c4.1-9.4,8.3-18.9,12.4-28.3C293.5-56,289.5-57.9,281.6-61.9z"/>
					<path class="st5" d="M408-22.1c-1.5,10.2-3,20.4-4.5,30.6c5-2,7.4-3.1,12.3-5.3c4.5,3.2,6.8,4.8,11.4,7.8
						c0.9-10.3,1.9-20.5,2.8-30.8C421.2-20.4,416.8-20.9,408-22.1z"/>
					<path class="st6" d="M441.3-19c-0.7,10.3-1.3,20.5-2,30.8c4.8-2.5,7.2-3.7,11.9-6.3c4.8,2.8,7.2,4.2,12.1,6.8
						c0.1-10.3,0.2-20.6,0.3-30.9C454.7-18.5,450.2-18.6,441.3-19z"/>
					<path class="st4" d="M475-18.8c0.2,10.3,0.4,20.6,0.5,30.8c4.6-2.9,6.9-4.3,11.4-7.3c5,2.4,7.6,3.5,12.7,5.7
						c-0.7-10.2-1.5-20.5-2.2-30.7C488.5-19.4,484-19.2,475-18.8z"/>
					<path class="st5" d="M311.8-47.9c-3.9,9.6-7.8,19.1-11.7,28.7c5.3-0.7,7.9-1.2,13.1-2.1c3.5,4.2,5.3,6.3,9.1,10.5
						c3.4-9.7,6.8-19.5,10.1-29.2C324.1-43,320-44.6,311.8-47.9z"/>
					<path class="st6" d="M343.1-36.6c-3.1,9.8-6.2,19.7-9.3,29.5c5.2-1.2,7.8-1.8,12.9-3.2c3.9,3.9,5.8,5.8,9.9,9.7
						c2.6-10,5.2-20,7.8-30C355.7-32.7,351.5-33.9,343.1-36.6z"/>
					<path class="st4" d="M375.2-28c-2.3,10-4.6,20.1-6.9,30.1c5.1-1.6,7.6-2.5,12.6-4.2c4.2,3.6,6.3,5.3,10.7,8.8
						c1.8-10.2,3.5-20.3,5.3-30.5C388.1-25.2,383.8-26,375.2-28z"/>
				</g>
				<g class="st7">
					
						<linearGradient id="SVGID_00000054257229544073027170000015154378464570340482_" gradientUnits="userSpaceOnUse" x1="647.7432" y1="-541.0563" x2="647.7432" y2="-578.592" gradientTransform="matrix(0.9482 0.3176 -0.3176 0.9482 -594.7111 225.1322)">
						<stop  offset="0.3688" style="stop-color:#FFFFFF"/>
						<stop  offset="0.4535" style="stop-color:#F9F9F9"/>
						<stop  offset="0.5626" style="stop-color:#E9E9E9"/>
						<stop  offset="0.6847" style="stop-color:#CFCFCF"/>
						<stop  offset="0.7871" style="stop-color:#B3B3B3"/>
						<stop  offset="1" style="stop-color:#FFFFFF"/>
					</linearGradient>
					<path style="fill-rule:evenodd;clip-rule:evenodd;fill:url(#SVGID_00000054257229544073027170000015154378464570340482_);" d="
						M198.9-119.2c-6.7,7.8-13.4,15.5-20.1,23.3c5.3,1.1,7.9,1.6,13.1,2.6c2,5.3,3.1,7.9,5.3,13.1c6.3-8.1,12.6-16.3,18.9-24.4
						C209-110.2,205.6-113.2,198.9-119.2z"/>
					
						<linearGradient id="SVGID_00000083078247004470024440000013495833650523898505_" gradientUnits="userSpaceOnUse" x1="680.7746" y1="-529.9802" x2="680.7746" y2="-566.4042" gradientTransform="matrix(0.9482 0.3176 -0.3176 0.9482 -594.7111 225.1322)">
						<stop  offset="0.3688" style="stop-color:#FFFFFF"/>
						<stop  offset="0.4535" style="stop-color:#F9F9F9"/>
						<stop  offset="0.5626" style="stop-color:#E9E9E9"/>
						<stop  offset="0.6847" style="stop-color:#CFCFCF"/>
						<stop  offset="0.7871" style="stop-color:#B3B3B3"/>
						<stop  offset="1" style="stop-color:#FFFFFF"/>
					</linearGradient>
					<path style="fill:url(#SVGID_00000083078247004470024440000013495833650523898505_);" d="M225-97.6
						c-6.1,8.3-12.1,16.6-18.2,24.9c5.3,0.7,8,0.9,13.2,1.4c2.4,5,3.7,7.5,6.3,12.5c5.6-8.6,11.2-17.3,16.8-25.9
						C235.8-89.6,232.1-92.2,225-97.6z"/>
					
						<linearGradient id="SVGID_00000070092638352602170660000012718049234849967789_" gradientUnits="userSpaceOnUse" x1="714.4371" y1="-521.9554" x2="714.4371" y2="-557.0551" gradientTransform="matrix(0.9482 0.3176 -0.3176 0.9482 -594.7111 225.1322)">
						<stop  offset="0.3688" style="stop-color:#FFFFFF"/>
						<stop  offset="0.4535" style="stop-color:#F9F9F9"/>
						<stop  offset="0.5626" style="stop-color:#E9E9E9"/>
						<stop  offset="0.6847" style="stop-color:#CFCFCF"/>
						<stop  offset="0.7871" style="stop-color:#B3B3B3"/>
						<stop  offset="1" style="stop-color:#FFFFFF"/>
					</linearGradient>
					<path style="fill:url(#SVGID_00000070092638352602170660000012718049234849967789_);" d="M252.6-78.5
						c-5.4,8.8-10.7,17.6-16.1,26.4c5.3,0.2,8,0.2,13.3,0.2c2.8,4.8,4.3,7.2,7.3,11.9c4.9-9.1,9.8-18.1,14.7-27.2
						C264-71.5,260.1-73.8,252.6-78.5z"/>
					
						<linearGradient id="SVGID_00000041261026354470801080000004648115106776523441_" gradientUnits="userSpaceOnUse" x1="748.549" y1="-516.9817" x2="748.549" y2="-550.5447" gradientTransform="matrix(0.9482 0.3176 -0.3176 0.9482 -594.7111 225.1322)">
						<stop  offset="0.3688" style="stop-color:#FFFFFF"/>
						<stop  offset="0.4535" style="stop-color:#F9F9F9"/>
						<stop  offset="0.5626" style="stop-color:#E9E9E9"/>
						<stop  offset="0.6847" style="stop-color:#CFCFCF"/>
						<stop  offset="0.7871" style="stop-color:#B3B3B3"/>
						<stop  offset="1" style="stop-color:#FFFFFF"/>
					</linearGradient>
					<path style="fill-rule:evenodd;clip-rule:evenodd;fill:url(#SVGID_00000041261026354470801080000004648115106776523441_);" d="
						M281.6-61.9c-4.6,9.2-9.3,18.4-13.9,27.6c5.3-0.3,8-0.5,13.2-0.9c3.2,4.5,4.8,6.8,8.2,11.2c4.1-9.4,8.3-18.9,12.4-28.3
						C293.5-56,289.5-57.9,281.6-61.9z"/>
					
						<linearGradient id="SVGID_00000013163430927995153450000017528821891865222039_" gradientUnits="userSpaceOnUse" x1="886.67" y1="-522.4606" x2="886.67" y2="-557.669" gradientTransform="matrix(0.9482 0.3176 -0.3176 0.9482 -594.7111 225.1322)">
						<stop  offset="0.3688" style="stop-color:#FFFFFF"/>
						<stop  offset="0.4535" style="stop-color:#F9F9F9"/>
						<stop  offset="0.5626" style="stop-color:#E9E9E9"/>
						<stop  offset="0.6847" style="stop-color:#CFCFCF"/>
						<stop  offset="0.7871" style="stop-color:#B3B3B3"/>
						<stop  offset="1" style="stop-color:#FFFFFF"/>
					</linearGradient>
					<path style="fill:url(#SVGID_00000013163430927995153450000017528821891865222039_);" d="M408-22.1c-1.5,10.2-3,20.4-4.5,30.6
						c5-2,7.4-3.1,12.3-5.3c4.5,3.2,6.8,4.8,11.4,7.8c0.9-10.3,1.9-20.5,2.8-30.8C421.2-20.4,416.8-20.9,408-22.1z"/>
					
						<linearGradient id="SVGID_00000000925486786182287580000007921235850920323226_" gradientUnits="userSpaceOnUse" x1="920.2908" y1="-530.7186" x2="920.2908" y2="-567.2349" gradientTransform="matrix(0.9482 0.3176 -0.3176 0.9482 -594.7111 225.1322)">
						<stop  offset="0.3688" style="stop-color:#FFFFFF"/>
						<stop  offset="0.4535" style="stop-color:#F9F9F9"/>
						<stop  offset="0.5626" style="stop-color:#E9E9E9"/>
						<stop  offset="0.6847" style="stop-color:#CFCFCF"/>
						<stop  offset="0.7871" style="stop-color:#B3B3B3"/>
						<stop  offset="1" style="stop-color:#FFFFFF"/>
					</linearGradient>
					<path style="fill:url(#SVGID_00000000925486786182287580000007921235850920323226_);" d="M441.3-19c-0.7,10.3-1.3,20.5-2,30.8
						c4.8-2.5,7.2-3.7,11.9-6.3c4.8,2.8,7.2,4.2,12.1,6.8c0.1-10.3,0.2-20.6,0.3-30.9C454.7-18.5,450.2-18.6,441.3-19z"/>
					
						<linearGradient id="SVGID_00000055671472666850501320000013732154890188156057_" gradientUnits="userSpaceOnUse" x1="953.2663" y1="-542.0278" x2="953.2663" y2="-579.6394" gradientTransform="matrix(0.9482 0.3176 -0.3176 0.9482 -594.7111 225.1322)">
						<stop  offset="0.3688" style="stop-color:#FFFFFF"/>
						<stop  offset="0.4535" style="stop-color:#F9F9F9"/>
						<stop  offset="0.5626" style="stop-color:#E9E9E9"/>
						<stop  offset="0.6847" style="stop-color:#CFCFCF"/>
						<stop  offset="0.7871" style="stop-color:#B3B3B3"/>
						<stop  offset="1" style="stop-color:#FFFFFF"/>
					</linearGradient>
					<path style="fill-rule:evenodd;clip-rule:evenodd;fill:url(#SVGID_00000055671472666850501320000013732154890188156057_);" d="
						M475-18.8c0.2,10.3,0.4,20.6,0.5,30.8c4.6-2.9,6.9-4.3,11.4-7.3c5,2.4,7.6,3.5,12.7,5.7c-0.7-10.2-1.5-20.5-2.2-30.7
						C488.5-19.4,484-19.2,475-18.8z"/>
					
						<linearGradient id="SVGID_00000117678575415156820990000002758865237607552191_" gradientUnits="userSpaceOnUse" x1="782.9287" y1="-515.0591" x2="782.9287" y2="-546.8728" gradientTransform="matrix(0.9482 0.3176 -0.3176 0.9482 -594.7111 225.1322)">
						<stop  offset="0.3688" style="stop-color:#FFFFFF"/>
						<stop  offset="0.4535" style="stop-color:#F9F9F9"/>
						<stop  offset="0.5626" style="stop-color:#E9E9E9"/>
						<stop  offset="0.6847" style="stop-color:#CFCFCF"/>
						<stop  offset="0.7871" style="stop-color:#B3B3B3"/>
						<stop  offset="1" style="stop-color:#FFFFFF"/>
					</linearGradient>
					<path style="fill:url(#SVGID_00000117678575415156820990000002758865237607552191_);" d="M311.8-47.9
						c-3.9,9.6-7.8,19.1-11.7,28.7c5.3-0.7,7.9-1.2,13.1-2.1c3.5,4.2,5.3,6.3,9.1,10.5c3.4-9.7,6.8-19.5,10.1-29.2
						C324.1-43,320-44.6,311.8-47.9z"/>
					
						<linearGradient id="SVGID_00000075160264842964355320000008785643592514499460_" gradientUnits="userSpaceOnUse" x1="818.22" y1="-515.0983" x2="818.22" y2="-547.0531" gradientTransform="matrix(0.9482 0.3176 -0.3176 0.9482 -594.7111 225.1322)">
						<stop  offset="0.3688" style="stop-color:#FFFFFF"/>
						<stop  offset="0.4535" style="stop-color:#F9F9F9"/>
						<stop  offset="0.5626" style="stop-color:#E9E9E9"/>
						<stop  offset="0.6847" style="stop-color:#CFCFCF"/>
						<stop  offset="0.7871" style="stop-color:#B3B3B3"/>
						<stop  offset="1" style="stop-color:#FFFFFF"/>
					</linearGradient>
					<path style="fill:url(#SVGID_00000075160264842964355320000008785643592514499460_);" d="M343.1-36.6
						c-3.1,9.8-6.2,19.7-9.3,29.5c5.2-1.2,7.8-1.8,12.9-3.2c3.9,3.9,5.8,5.8,9.9,9.7c2.6-10,5.2-20,7.8-30
						C355.7-32.7,351.5-33.9,343.1-36.6z"/>
					
						<linearGradient id="SVGID_00000137095997704122818300000011583628920160195728_" gradientUnits="userSpaceOnUse" x1="852.5854" y1="-517.2538" x2="852.5854" y2="-550.9416" gradientTransform="matrix(0.9482 0.3176 -0.3176 0.9482 -594.7111 225.1322)">
						<stop  offset="0.3688" style="stop-color:#FFFFFF"/>
						<stop  offset="0.4535" style="stop-color:#F9F9F9"/>
						<stop  offset="0.5626" style="stop-color:#E9E9E9"/>
						<stop  offset="0.6847" style="stop-color:#CFCFCF"/>
						<stop  offset="0.7871" style="stop-color:#B3B3B3"/>
						<stop  offset="1" style="stop-color:#FFFFFF"/>
					</linearGradient>
					<path style="fill-rule:evenodd;clip-rule:evenodd;fill:url(#SVGID_00000137095997704122818300000011583628920160195728_);" d="
						M375.2-28c-2.3,10-4.6,20.1-6.9,30.1c5.1-1.6,7.6-2.5,12.6-4.2c4.2,3.6,6.3,5.3,10.7,8.8c1.8-10.2,3.5-20.3,5.3-30.5
						C388.1-25.2,383.8-26,375.2-28z"/>
				</g>
				<g>
					
						<linearGradient id="SVGID_00000019676419423932158510000017522855394099523204_" gradientUnits="userSpaceOnUse" x1="647.7432" y1="-541.0563" x2="647.7432" y2="-578.592" gradientTransform="matrix(0.9482 0.3176 -0.3176 0.9482 -594.7111 225.1322)">
						<stop  offset="0.3688" style="stop-color:#FFFFFF"/>
						<stop  offset="0.4535" style="stop-color:#F9F9F9"/>
						<stop  offset="0.5626" style="stop-color:#E9E9E9"/>
						<stop  offset="0.6847" style="stop-color:#CFCFCF"/>
						<stop  offset="0.7871" style="stop-color:#B3B3B3"/>
						<stop  offset="1" style="stop-color:#FFFFFF"/>
					</linearGradient>
					<path style="fill-rule:evenodd;clip-rule:evenodd;fill:url(#SVGID_00000019676419423932158510000017522855394099523204_);" d="
						M198.9-119.2c-6.7,7.8-13.4,15.5-20.1,23.3c5.3,1.1,7.9,1.6,13.1,2.6c2,5.3,3.1,7.9,5.3,13.1c6.3-8.1,12.6-16.3,18.9-24.4
						C209-110.2,205.6-113.2,198.9-119.2z"/>
					
						<linearGradient id="SVGID_00000073679678887979403100000003281034568377717430_" gradientUnits="userSpaceOnUse" x1="680.7746" y1="-529.9802" x2="680.7746" y2="-566.4042" gradientTransform="matrix(0.9482 0.3176 -0.3176 0.9482 -594.7111 225.1322)">
						<stop  offset="0.3688" style="stop-color:#FFFFFF"/>
						<stop  offset="0.4535" style="stop-color:#F9F9F9"/>
						<stop  offset="0.5626" style="stop-color:#E9E9E9"/>
						<stop  offset="0.6847" style="stop-color:#CFCFCF"/>
						<stop  offset="0.7871" style="stop-color:#B3B3B3"/>
						<stop  offset="1" style="stop-color:#FFFFFF"/>
					</linearGradient>
					<path style="fill:url(#SVGID_00000073679678887979403100000003281034568377717430_);" d="M225-97.6
						c-6.1,8.3-12.1,16.6-18.2,24.9c5.3,0.7,8,0.9,13.2,1.4c2.4,5,3.7,7.5,6.3,12.5c5.6-8.6,11.2-17.3,16.8-25.9
						C235.8-89.6,232.1-92.2,225-97.6z"/>
					
						<linearGradient id="SVGID_00000164488522443940100830000013529216466412810411_" gradientUnits="userSpaceOnUse" x1="714.4371" y1="-521.9554" x2="714.4371" y2="-557.0551" gradientTransform="matrix(0.9482 0.3176 -0.3176 0.9482 -594.7111 225.1322)">
						<stop  offset="0.3688" style="stop-color:#FFFFFF"/>
						<stop  offset="0.4535" style="stop-color:#F9F9F9"/>
						<stop  offset="0.5626" style="stop-color:#E9E9E9"/>
						<stop  offset="0.6847" style="stop-color:#CFCFCF"/>
						<stop  offset="0.7871" style="stop-color:#B3B3B3"/>
						<stop  offset="1" style="stop-color:#FFFFFF"/>
					</linearGradient>
					<path style="fill:url(#SVGID_00000164488522443940100830000013529216466412810411_);" d="M252.6-78.5
						c-5.4,8.8-10.7,17.6-16.1,26.4c5.3,0.2,8,0.2,13.3,0.2c2.8,4.8,4.3,7.2,7.3,11.9c4.9-9.1,9.8-18.1,14.7-27.2
						C264-71.5,260.1-73.8,252.6-78.5z"/>
					
						<linearGradient id="SVGID_00000036212763830189994980000016154373804896319146_" gradientUnits="userSpaceOnUse" x1="748.549" y1="-516.9817" x2="748.549" y2="-550.5447" gradientTransform="matrix(0.9482 0.3176 -0.3176 0.9482 -594.7111 225.1322)">
						<stop  offset="0.3688" style="stop-color:#FFFFFF"/>
						<stop  offset="0.4535" style="stop-color:#F9F9F9"/>
						<stop  offset="0.5626" style="stop-color:#E9E9E9"/>
						<stop  offset="0.6847" style="stop-color:#CFCFCF"/>
						<stop  offset="0.7871" style="stop-color:#B3B3B3"/>
						<stop  offset="1" style="stop-color:#FFFFFF"/>
					</linearGradient>
					<path style="fill-rule:evenodd;clip-rule:evenodd;fill:url(#SVGID_00000036212763830189994980000016154373804896319146_);" d="
						M281.6-61.9c-4.6,9.2-9.3,18.4-13.9,27.6c5.3-0.3,8-0.5,13.2-0.9c3.2,4.5,4.8,6.8,8.2,11.2c4.1-9.4,8.3-18.9,12.4-28.3
						C293.5-56,289.5-57.9,281.6-61.9z"/>
					
						<linearGradient id="SVGID_00000003094620617794671480000004502361161075678089_" gradientUnits="userSpaceOnUse" x1="886.67" y1="-522.4606" x2="886.67" y2="-557.669" gradientTransform="matrix(0.9482 0.3176 -0.3176 0.9482 -594.7111 225.1322)">
						<stop  offset="0.3688" style="stop-color:#FFFFFF"/>
						<stop  offset="0.4535" style="stop-color:#F9F9F9"/>
						<stop  offset="0.5626" style="stop-color:#E9E9E9"/>
						<stop  offset="0.6847" style="stop-color:#CFCFCF"/>
						<stop  offset="0.7871" style="stop-color:#B3B3B3"/>
						<stop  offset="1" style="stop-color:#FFFFFF"/>
					</linearGradient>
					<path style="fill:url(#SVGID_00000003094620617794671480000004502361161075678089_);" d="M408-22.1c-1.5,10.2-3,20.4-4.5,30.6
						c5-2,7.4-3.1,12.3-5.3c4.5,3.2,6.8,4.8,11.4,7.8c0.9-10.3,1.9-20.5,2.8-30.8C421.2-20.4,416.8-20.9,408-22.1z"/>
					
						<linearGradient id="SVGID_00000120547314622911678790000014026589484612195207_" gradientUnits="userSpaceOnUse" x1="920.2908" y1="-530.7186" x2="920.2908" y2="-567.2349" gradientTransform="matrix(0.9482 0.3176 -0.3176 0.9482 -594.7111 225.1322)">
						<stop  offset="0.3688" style="stop-color:#FFFFFF"/>
						<stop  offset="0.4535" style="stop-color:#F9F9F9"/>
						<stop  offset="0.5626" style="stop-color:#E9E9E9"/>
						<stop  offset="0.6847" style="stop-color:#CFCFCF"/>
						<stop  offset="0.7871" style="stop-color:#B3B3B3"/>
						<stop  offset="1" style="stop-color:#FFFFFF"/>
					</linearGradient>
					<path style="fill:url(#SVGID_00000120547314622911678790000014026589484612195207_);" d="M441.3-19c-0.7,10.3-1.3,20.5-2,30.8
						c4.8-2.5,7.2-3.7,11.9-6.3c4.8,2.8,7.2,4.2,12.1,6.8c0.1-10.3,0.2-20.6,0.3-30.9C454.7-18.5,450.2-18.6,441.3-19z"/>
					
						<linearGradient id="SVGID_00000042013610333355440210000017441703626526807200_" gradientUnits="userSpaceOnUse" x1="953.2663" y1="-542.0278" x2="953.2663" y2="-579.6394" gradientTransform="matrix(0.9482 0.3176 -0.3176 0.9482 -594.7111 225.1322)">
						<stop  offset="0.3688" style="stop-color:#FFFFFF"/>
						<stop  offset="0.4535" style="stop-color:#F9F9F9"/>
						<stop  offset="0.5626" style="stop-color:#E9E9E9"/>
						<stop  offset="0.6847" style="stop-color:#CFCFCF"/>
						<stop  offset="0.7871" style="stop-color:#B3B3B3"/>
						<stop  offset="1" style="stop-color:#FFFFFF"/>
					</linearGradient>
					<path style="fill-rule:evenodd;clip-rule:evenodd;fill:url(#SVGID_00000042013610333355440210000017441703626526807200_);" d="
						M475-18.8c0.2,10.3,0.4,20.6,0.5,30.8c4.6-2.9,6.9-4.3,11.4-7.3c5,2.4,7.6,3.5,12.7,5.7c-0.7-10.2-1.5-20.5-2.2-30.7
						C488.5-19.4,484-19.2,475-18.8z"/>
					
						<linearGradient id="SVGID_00000116922970136586933040000001096453710538360496_" gradientUnits="userSpaceOnUse" x1="782.9287" y1="-515.0591" x2="782.9287" y2="-546.8728" gradientTransform="matrix(0.9482 0.3176 -0.3176 0.9482 -594.7111 225.1322)">
						<stop  offset="0.3688" style="stop-color:#FFFFFF"/>
						<stop  offset="0.4535" style="stop-color:#F9F9F9"/>
						<stop  offset="0.5626" style="stop-color:#E9E9E9"/>
						<stop  offset="0.6847" style="stop-color:#CFCFCF"/>
						<stop  offset="0.7871" style="stop-color:#B3B3B3"/>
						<stop  offset="1" style="stop-color:#FFFFFF"/>
					</linearGradient>
					<path style="fill:url(#SVGID_00000116922970136586933040000001096453710538360496_);" d="M311.8-47.9
						c-3.9,9.6-7.8,19.1-11.7,28.7c5.3-0.7,7.9-1.2,13.1-2.1c3.5,4.2,5.3,6.3,9.1,10.5c3.4-9.7,6.8-19.5,10.1-29.2
						C324.1-43,320-44.6,311.8-47.9z"/>
					
						<linearGradient id="SVGID_00000181803936208400084280000018311221079335101370_" gradientUnits="userSpaceOnUse" x1="818.22" y1="-515.0983" x2="818.22" y2="-547.0531" gradientTransform="matrix(0.9482 0.3176 -0.3176 0.9482 -594.7111 225.1322)">
						<stop  offset="0.3688" style="stop-color:#FFFFFF"/>
						<stop  offset="0.4535" style="stop-color:#F9F9F9"/>
						<stop  offset="0.5626" style="stop-color:#E9E9E9"/>
						<stop  offset="0.6847" style="stop-color:#CFCFCF"/>
						<stop  offset="0.7871" style="stop-color:#B3B3B3"/>
						<stop  offset="1" style="stop-color:#FFFFFF"/>
					</linearGradient>
					<path style="fill:url(#SVGID_00000181803936208400084280000018311221079335101370_);" d="M343.1-36.6
						c-3.1,9.8-6.2,19.7-9.3,29.5c5.2-1.2,7.8-1.8,12.9-3.2c3.9,3.9,5.8,5.8,9.9,9.7c2.6-10,5.2-20,7.8-30
						C355.7-32.7,351.5-33.9,343.1-36.6z"/>
					
						<linearGradient id="SVGID_00000098911508660726504730000009169051455838961310_" gradientUnits="userSpaceOnUse" x1="852.5854" y1="-517.2538" x2="852.5854" y2="-550.9416" gradientTransform="matrix(0.9482 0.3176 -0.3176 0.9482 -594.7111 225.1322)">
						<stop  offset="0.3688" style="stop-color:#FFFFFF"/>
						<stop  offset="0.4535" style="stop-color:#F9F9F9"/>
						<stop  offset="0.5626" style="stop-color:#E9E9E9"/>
						<stop  offset="0.6847" style="stop-color:#CFCFCF"/>
						<stop  offset="0.7871" style="stop-color:#B3B3B3"/>
						<stop  offset="1" style="stop-color:#FFFFFF"/>
					</linearGradient>
					<path style="fill-rule:evenodd;clip-rule:evenodd;fill:url(#SVGID_00000098911508660726504730000009169051455838961310_);" d="
						M375.2-28c-2.3,10-4.6,20.1-6.9,30.1c5.1-1.6,7.6-2.5,12.6-4.2c4.2,3.6,6.3,5.3,10.7,8.8c1.8-10.2,3.5-20.3,5.3-30.5
						C388.1-25.2,383.8-26,375.2-28z"/>
				</g>
			</g>
		</g>
		<g style="display:inline;clip-path:url(#SVGID_00000088132612360967423110000016051649063771113870_);">
			<path class="st48" d="M295.2,21.3c0.1,0.7,0.4,1.2,1.2,1.8c1.1-1.1,1.8-1.7,3.2-2.3c-0.6-0.5-0.8-1-1.1-2
				C297.3,19.4,296.3,20.2,295.2,21.3z"/>
			<path class="st48" d="M59.3-70c-0.7,0.2-1,0.7-1.4,1.5c1.3,0.8,1.9,1.4,2.8,2.5c0.3-0.6,0.7-0.9,1.6-1.4
				C61.4-68.5,60.5-69.3,59.3-70z"/>
			<path class="st48" d="M302.4-85.8c-1,0.4-1.5,0.9-1.9,2.1c0.6,1,1.2,1.6,2.1,1.9c1-0.8,1.8-1,3.3-1.2
				C304.4-83.9,303.5-84.5,302.4-85.8z"/>
			<path class="st48" d="M28.2,194.8c0.4-0.6,0.4-1.2,0.1-1.9c-0.8-0.2-1.3-0.3-1.9-0.1c-0.2,0.8-0.5,1.3-1.2,2.1
				C26.3,194.7,27,194.6,28.2,194.8z"/>
			<path class="st48" d="M-6,105.1c0.1,1.5,0.3,2.4,0.8,3.5c0.9-0.4,1.4-0.8,1.7-1.3c-0.4-0.6-0.5-1.2-0.5-2.1
				C-4.8,105.4-5.3,105.3-6,105.1z"/>
			<path class="st48" d="M152.7-89.4c-1.8-2.1-3.2-3.2-5.2-4.4c-0.9,1.7-1.1,2.9-1.1,4c1.4,0.4,2.2,1.3,3.3,2.7
				C150.5-88.5,151.2-89,152.7-89.4z"/>
			<path class="st48" d="M153.4-5.7c-0.3,0.6-0.6,1.1-1.3,1.7c1.6,0.6,2.7,1.1,3.8,1.8c0.8-0.4,1.1-0.9,1.4-1.5
				C156.5-4.3,155.1-5,153.4-5.7z"/>
			<path class="st48" d="M251.2-23.9c1.6-0.1,3,0.1,4.8,0.7c-0.6-3.9-0.8-6.6-0.4-9.6c-1.8-1.1-2.9-1.2-4.5-1.1
				C250.7-31.8,250.7-28.1,251.2-23.9z"/>
			<path class="st48" d="M302.7,10.6c0.3,1.5,0.8,3,2.1,4.2c1.3,0,2.1,0.1,3.4,0.5c-0.5-1-0.3-1.7,0.6-3.1
				C306.8,12.1,305,11.4,302.7,10.6z"/>
			<path class="st48" d="M69.1-100.6c1,1.6,2.2,3.3,4.2,4.1c1.5-0.5,2.6-0.7,4.2-0.8c-1-1-1.1-2-0.6-3.9
				C74.6-100.4,72.3-100.5,69.1-100.6z"/>
			<path class="st48" d="M375.4,71.4c-2.1-0.2-3.3-0.4-5.3-1.3c-0.4,1-0.6,1.8-0.5,2.8c1.3,0.7,3,1.2,5.3,1.7
				C374.5,73.1,374.5,72.3,375.4,71.4z"/>
			<path class="st48" d="M185.4-40.8c1.9-1.4,3.1-2.1,5.3-2.8c-0.3-1.1-0.8-2-1.7-2.6c-1.6,0.3-3.3,1.2-5.6,2.5
				C184.9-42.8,185.5-42.1,185.4-40.8z"/>
			<path class="st48" d="M-5.7,75.4c0.6,0.6,0.8,1.2,0.7,2.2c1.1-0.4,1.7-0.9,2.8-1.8c0.1-0.8-0.1-1.2-0.8-1.9
				C-3.9,74.7-4.6,75.2-5.7,75.4z"/>
			<path class="st48" d="M81.1-111.6c-1.3,0.5-2.3,0.5-3.7-0.4c-0.1,1.9,0.2,3.1,1,5.3c1.2,0.6,1.9,0.6,3.3,0.1
				C81-108.5,80.7-109.9,81.1-111.6z"/>
			<path class="st48" d="M-10.2-61.8c1.2-1.2,2.1-2.3,2.5-3.7c-0.8-0.9-1.4-1.3-2.3-1.5c-0.6,1.7-1.2,2.5-2.5,3.7
				C-11.4-63.1-10.7-62.7-10.2-61.8z"/>
			<path class="st48" d="M162.5-62.6c-1.2-0.3-2.2-0.5-3.1-0.2c-0.3,0.8-0.3,1.3-0.1,1.9c1.2-0.2,1.9-0.1,3.1,0.3
				C162.1-61.5,162.1-62,162.5-62.6z"/>
			<path class="st48" d="M307.9-20.2c0.6,2,0.4,3.2-0.3,5.1c3.3-0.4,6.6-1.1,7.9-1.9c-0.1-1.6-0.6-2.9-1.5-4.6
				C312.6-20.8,310.9-20.6,307.9-20.2z"/>
			<path class="st48" d="M362.5-46.3c0.3,2-0.2,3.2-1.1,4.9c3.3,0.2,6.7,0,8.1-0.6c0.1-1.6-0.1-2.9-0.7-4.8
				C367.2-46,365.4-46.1,362.5-46.3z"/>
			<path class="st48" d="M-8.2-15.6c-0.2,0.6-0.6,1-1.4,1.4c1.3,1.6,2.4,2.4,4,3.6c1-0.6,1.4-1.2,1.7-1.6
				C-5.9-13.2-6.8-14.1-8.2-15.6z"/>
			<path class="st48" d="M206.8-95.4c0.6,0,1.2,0.2,1.8,0.8c1.1-1.8,1.5-3.1,2.1-5c-0.9-0.8-1.6-1-2.2-1.1
				C208.3-98.5,207.8-97.2,206.8-95.4z"/>
			<path class="st48" d="M435,57.8c-0.6-1.1-0.8-1.6-0.8-2.7c-0.5,0.1-0.8,0.1-1-0.1c-0.1,1.1,0.1,1.9,0.6,3
				C434.3,58.1,434.7,58,435,57.8z"/>
			<path class="st48" d="M44.1-104.1c-1.2,0.8-1.8,1.1-3,1.1c0.2,0.5,0.2,0.9,0,1.2c1.3,0,2.1-0.3,3.5-1
				C44.6-103.2,44.4-103.7,44.1-104.1z"/>
			<path class="st48" d="M36.7,6.3c1.6,0.4,3,1.5,5.1,4.9c1.3-1.1,2.1-2.5,2.7-4.6c-1.9-2.3-3.2-3.5-5.9-4.8
				C38.5,3.6,38,4.6,36.7,6.3z"/>
			<path class="st48" d="M204.9,2.9c-0.8-0.2-1.5-0.7-2.5-2.4c-0.6,0.6-1,1.2-1.3,2.3c1,1.1,1.6,1.7,2.9,2.3
				C204,4.2,204.3,3.7,204.9,2.9z"/>
			<path class="st48" d="M327.8,84.8c-0.3,1.7-0.2,2.7,0.6,4.5c1.9-1,3.1-1.2,4.6-1.1c0.4-1.6,0.4-2.7,0.1-4.4
				C331.4,84.6,330,84.8,327.8,84.8z"/>
			<path class="st48" d="M94.2-88.9c0.3,1.3,0.7,2,1.8,3.1c1-1.3,1.9-1.8,3-2.2c-0.2-1.2-0.5-2-1.2-3.2
				C96.7-90.2,95.8-89.6,94.2-88.9z"/>
			<path class="st48" d="M29.4-84.9c0.4-0.2,0.7-0.5,1-1c-1.2-0.7-2.2-1.7-3.3-3.1c-0.3,0.4-0.6,0.6-1.1,0.8
				C27.1-86.7,27.8-86,29.4-84.9z"/>
			<path class="st48" d="M-17.3,170.2c-0.5,0.2-0.8,0.6-1.1,1.3c1.5,0.7,2.8,1.9,4.3,3.4c0.3-0.5,0.6-0.8,1.2-1.1
				C-14.3,172.2-15.3,171.3-17.3,170.2z"/>
			<path class="st48" d="M-14.7,119c0.8-1.5,1.1-2.4,0.7-4.2c-2.7-0.8-4.3-1.4-6.8-2.7c-0.1,1-0.4,1.7-0.8,2.2
				C-18.7,115.7-17.1,116.9-14.7,119z"/>
			<path class="st48" d="M216.3-113.5c0.7-0.8,0.9-1.3,0.9-2.5c-1.6-0.8-2.4-1.3-3.8-2.4c-0.2,0.6-0.4,1-0.7,1.2
				C214.2-115.9,215.1-115,216.3-113.5z"/>
			<path class="st49" d="M272.8,8.8c-0.8,0.8-1,1.8-0.9,3.5c2.6,0.1,4.1,0.5,6.3,1.6c0-1.2,0.4-2,1.4-3.5
				C277.3,9.3,275.4,9,272.8,8.8z"/>
			<path class="st49" d="M88.9,5.2c-0.4,1.1-0.1,2,0.6,3.4c2.3-0.9,3.7-1.2,6.1-1.2c-0.5-1-0.5-1.9-0.2-3.5
				C93,3.8,91.2,4.3,88.9,5.2z"/>
			<path class="st49" d="M279.2-13.9c-0.5,0.7-0.6,1.2-0.4,2.1c0.8,0.4,1.4,0.5,2.1,0.4c0.3-0.9,0.8-1.4,1.7-2.1
				C281.3-13.4,280.5-13.4,279.2-13.9z"/>
			<path class="st49" d="M286-63.8c0-1.1-0.3-1.8-1.2-2.5c-1.1,0.2-1.9,0.6-2.5,1.2c0.3,1.2,0.2,2.1-0.1,3.5
				C283.5-62.6,284.3-63.2,286-63.8z"/>
			<path class="st49" d="M228.3-55.6c-3.1,0.3-5,0.8-7.5,1.9c1,1.9,1.9,2.9,3,3.6c1.3-1,2.6-1.1,4.5-1.2
				C227.7-53,227.8-54.1,228.3-55.6z"/>
			<path class="st49" d="M-33.5,127.9c-0.3,1.5-0.3,2.4-0.2,3.6c1-0.2,1.6-0.5,2-0.8c-0.3-0.7-0.2-1.3,0.1-2.2
				C-32.4,128.5-32.9,128.4-33.5,127.9z"/>
			<path class="st49" d="M279.9-88.7c-0.6-0.6-1-1.2-1.4-2.2c-1.4,1.6-2.5,2.6-3.8,3.5c0.1,1.1,0.5,1.6,1.1,2.3
				C276.9-85.8,278.4-87.1,279.9-88.7z"/>
			<path class="st49" d="M18.9,131.8c0.7,1,1.2,2,1.5,3.5c2.4-2,4.2-3.2,6.3-4.2c0.1-1.6-0.3-2.5-1.1-3.5
				C24.1,128.2,21.6,129.8,18.9,131.8z"/>
			<path class="st49" d="M-18.4,213.9c-1,0.4-2,0.9-2.7,1.9c0.1,0.9,0.2,1.5,0,2.4c0.6-0.5,1.2-0.4,2.2,0
				C-19,216.9-18.7,215.6-18.4,213.9z"/>
			<path class="st49" d="M346.6,19.7c1.3-1.6,2.6-3.4,2.7-5.8c-1-1.4-1.7-2.4-2.3-4c-0.7,1.4-1.6,1.8-3.8,2
				C344.8,14,345.6,16.4,346.6,19.7z"/>
			<path class="st49" d="M317.5-43.7c-1.3-0.5-2-0.9-3.1-1.9c-0.5,0.5-0.8,1-0.8,1.7c0.7,0.7,1.7,1.4,3.1,2.1
				C316.7-42.8,316.8-43.3,317.5-43.7z"/>
			<path class="st49" d="M355.8-9.4c-0.4,1.1-0.7,1.8-1.4,2.7c0.5,0.4,0.9,0.6,1.5,0.6c0.6-0.6,1.1-1.5,1.7-2.7
				C356.6-8.7,356.2-8.8,355.8-9.4z"/>
			<path class="st49" d="M394.2,167.6c-0.7,0.4-1.3,0.5-2.2,0.1c0.1,1.1,0.4,1.8,1,3c0.7,0.3,1.1,0.2,1.9-0.2
				C394.4,169.4,394.1,168.6,394.2,167.6z"/>
			<path class="st49" d="M-16.9,241.1c-0.2,0.8-0.6,1.3-1.5,1.6c0.8,0.7,1.5,1,2.9,1.5c0.7-0.3,1-0.7,1.2-1.6
				C-15.5,242.3-16.3,241.9-16.9,241.1z"/>
			<path class="st49" d="M100.5-54.8c-0.2,2.2-0.2,4.1,0.6,5.8c1.5,0.2,2.5,0.1,3.5-0.4c-0.8-2.2-0.9-3.5-0.5-5.7
				C102.6-54.4,101.7-54.3,100.5-54.8z"/>
			<path class="st49" d="M287.1-30.7c-0.1,1.3-0.1,2.3,0.3,3.3c0.8,0.1,1.4,0.1,2-0.2c-0.4-1.2-0.5-2-0.3-3.2
				C288.3-30.5,287.8-30.4,287.1-30.7z"/>
			<path class="st49" d="M396.2-45.2c-1.6-0.6-2.4-1.5-3.3-2.9c-1.5,2.4-2.7,5.1-2.9,6.4c1.1,0.8,2.3,1.1,3.9,1.4
				C394.1-41.7,394.9-43,396.2-45.2z"/>
			<path class="st49" d="M270.2-50c1-1.1,1.8-1.5,3.2-1.8c-1.5-1.9-3.3-3.6-4.3-4.1c-0.9,0.7-1.6,1.5-2.3,2.7
				C268-52.6,268.8-51.7,270.2-50z"/>
			<path class="st49" d="M388.8,124.5c0.4,0.1,0.6,0.3,0.9,0.8c0.9-0.9,1.4-1.6,2-2.6c-0.4-0.6-0.8-0.8-1.1-0.9
				C390.2,122.9,389.7,123.6,388.8,124.5z"/>
			<path class="st49" d="M402.4-64.3c0.3-0.4,0.7-0.7,1.4-0.7c-0.6-1.6-1.2-2.6-2.2-3.9c-1,0.2-1.5,0.6-1.8,0.8
				C401.2-66.9,401.7-65.9,402.4-64.3z"/>
			<path class="st49" d="M281.5-118.2c0.4,1.3,0.5,2,0.3,3.2c0.6,0,0.9,0.1,1.2,0.3c0.3-1.2,0.3-2.1,0-3.6
				C282.4-118.3,282-118.3,281.5-118.2z"/>
			<path class="st49" d="M174.7-91c1.9-1.5,3-2.1,5.1-2.4c-0.3-0.9-0.4-1.5-0.2-2.1c-2.2,0.1-3.7,0.8-5.8,2.1
				C173.8-92.4,174.2-91.7,174.7-91z"/>
			<path class="st49" d="M-4.4,266.4c-0.6-0.8-0.8-1.9-0.4-4.3c-1,0-2,0.3-3.1,1c-0.1,1.8,0,2.9,0.7,4.5
				C-6.3,266.9-5.7,266.7-4.4,266.4z"/>
			<path class="st49" d="M54.8-82.1c-0.7-0.3-1.3-0.8-2.1-2.5c-0.7,0.5-1.1,1-1.5,2c0.8,1.2,1.3,1.8,2.5,2.5
				C53.8-80.9,54.1-81.3,54.8-82.1z"/>
			<path class="st49" d="M395.1,70.3c0.4,1.4,0.9,2.2,2.2,3.3c1.1-1.5,2-2.1,3.2-2.6c-0.3-1.4-0.7-2.2-1.5-3.5
				C397.8,68.8,396.8,69.4,395.1,70.3z"/>
			<path class="st49" d="M25.9,83c1.4-0.6,2.1-1.1,3.1-2.5c-1.6-1-2.4-1.8-3-3c-1.3,0.4-2.2,0.9-3.4,1.9
				C24.1,80.4,24.9,81.4,25.9,83z"/>
			<path class="st49" d="M32.6,104.4c-0.6-0.7-1.3-0.9-2.4-1.2c-0.5,2.5-1.8,5-3.5,7.8c0.9,0.3,1.4,0.6,2.1,1.4
				C30.8,109.6,31.7,107.8,32.6,104.4z"/>
			<path class="st49" d="M25.8,171.8c0.6-0.3,0.9-0.7,1.3-1.5c-1.7-0.8-3.3-2.2-5-4c-0.4,0.6-0.7,0.9-1.4,1.2
				C22.3,169.6,23.4,170.5,25.8,171.8z"/>
			<path class="st49" d="M234.1,69.7c0.4-0.8,0.6-1.3,0.3-2.3c-1.5-0.4-2.4-0.7-3.8-1.4c-0.1,0.6-0.2,0.9-0.4,1.2
				C231.8,68,232.7,68.6,234.1,69.7z"/>
			<path class="st49" d="M316.8,62.4c1.7,0.4,2.6,0.4,4.2-0.5c0-2.8,0.2-4.5,0.7-7.3c-1,0.2-1.7,0.1-2.3-0.2
				C318.8,57.7,318.1,59.5,316.8,62.4z"/>
			<path class="st50" d="M175.2-111.7c1-1,1.1-2.2,1-4.1c-3-0.1-4.8-0.4-7.4-1.6c0.1,1.4-0.4,2.3-1.5,4.1
				C169.9-112.1,172.2-111.8,175.2-111.7z"/>
			<path class="st50" d="M425.7,16.3c0.8,0.4,1.5,0.3,2.7-0.2c-0.5-1.9-0.6-3-0.4-4.8c-0.8,0.3-1.5,0.2-2.8-0.2
				C425,12.9,425.2,14.4,425.7,16.3z"/>
			<path class="st50" d="M283.5,67.6c0.5,0.9,1.1,1.3,2.2,1.5c0.8-0.7,1.3-1.3,1.5-2.2c-0.8-0.8-1.1-1.6-1.6-2.9
				C285,65.4,284.6,66.3,283.5,67.6z"/>
			<path class="st50" d="M422.9,52.2c1.1,1.1,2.1,1.4,3.8,1.2c0.9-1.4,1.3-2.5,1.2-3.8c-1.6-0.8-2.4-1.8-3.6-3.6
				C424.2,48.4,424,49.9,422.9,52.2z"/>
			<path class="st50" d="M307.7-65.5c-1.9-1.2-3.2-1.8-5.1-2.3c-0.3,1.5-0.2,2.5,0.1,3.4c1.2,0,2,0.5,3.1,1.3
				C306.2-64.3,306.6-64.9,307.7-65.5z"/>
			<path class="st50" d="M-6.6,192.8c-1.4,0.6-2.2,1.1-3.2,1.9c0.7,0.7,1.3,1.1,1.9,1.3c0.5-0.6,1-0.9,1.9-1.2
				C-6.6,194.1-6.7,193.6-6.6,192.8z"/>
			<path class="st50" d="M-25.1,95.2c-0.6-0.4-1.1-0.9-1.6-1.6c-0.9,1.7-1.6,2.7-2.6,3.8c0.3,0.9,0.7,1.3,1.4,1.7
				C-27.1,98.4-26.1,97-25.1,95.2z"/>
			<path class="st50" d="M6,246.2c1,0.3,1.8,0.8,2.7,1.7c0.7-2.5,1.3-4.2,2.3-5.9c-0.7-1.2-1.4-1.5-2.4-1.9
				C7.8,241.3,6.8,243.5,6,246.2z"/>
			<path class="st50" d="M30.1,95.5c-1.1-0.2-2.2-0.3-3.4,0.3c-0.4,0.8-0.6,1.4-1.2,2.1c0.8-0.1,1.2,0.3,1.9,1.2
				C28,97.9,28.9,96.9,30.1,95.5z"/>
			<path class="st50" d="M144.1-109c-1.6-1.2-3.5-2.4-5.8-2.5c-1.3,1.1-2.3,1.7-3.9,2.4c1.4,0.6,1.8,1.6,2.1,3.7
				C138.6-107.1,140.9-107.9,144.1-109z"/>
			<path class="st50" d="M43.6,39.5c0.6-0.9,1-1.4,1.9-2c-0.3-0.4-0.7-0.8-1.1-0.9c-0.6,0.4-1.3,1-2.1,1.9
				C43,38.7,43.4,39,43.6,39.5z"/>
			<path class="st50" d="M411,113c-0.9,0.4-1.4,0.6-2.4,0.7c0,0.5,0.2,0.9,0.4,1.2c0.7,0,1.4-0.2,2.5-0.5
				C411,113.8,410.8,113.5,411,113z"/>
			<path class="st50" d="M99.4,68.2c-0.5-1.7-0.5-2.8,0.7-4.5c-2.3-0.3-3.8,0.1-6.6,0.9c-0.9,1.4-0.9,2.3-0.3,4.1
				C95.6,67.9,97.3,67.6,99.4,68.2z"/>
			<path class="st50" d="M-10.2,53.8c0.8,1.1,1,2,0.6,3.6c1.8-0.3,2.9-1,4.8-2.2c0.3-1.3,0.1-2-0.7-3.2
				C-7.2,53.1-8.5,53.8-10.2,53.8z"/>
			<path class="st50" d="M409.6,226.5c1.4,0.8,2.6,1.3,4,1.3c0.6-0.9,0.8-1.6,0.7-2.4c-1.6-0.1-2.6-0.4-3.9-1.3
				C410.5,225.2,410.3,225.8,409.6,226.5z"/>
			<path class="st50" d="M256.9-112.6c-1.4-1.3-2.7-2.3-4.3-2.6c-0.9,0.9-1.4,1.7-1.6,2.7c1.9,0.6,2.9,1.2,4.3,2.6
				C255.5-111.3,255.9-112.1,256.9-112.6z"/>
			<path class="st50" d="M353,163.1c0.8-0.7,1.5-0.9,2.5-1c-0.9-1.5-2-2.9-2.7-3.4c-0.7,0.4-1.3,0.9-1.9,1.7
				C351.7,161,352.2,161.7,353,163.1z"/>
			<path class="st50" d="M423.7,81.3c1.5-1.4,2.8-1.8,4.8-2c-1.8-2.9-4-5.6-5.3-6.5c-1.4,0.8-2.4,1.9-3.6,3.5
				C421.1,77.2,422.1,78.7,423.7,81.3z"/>
			<path class="st50" d="M179.2,27.9c-0.6-0.6-0.9-1.3-0.9-2.4c-2.7,0.8-4.3,1.6-6.6,3c0.2,1.6,0.7,2.4,1.1,3
				C174.8,29.5,176.5,28.8,179.2,27.9z"/>
			<path class="st50" d="M347.5,67.4c0.4-0.7,1-1.2,2-1.5c-1.4-2.3-2.7-3.7-4.6-5.5c-1.5,0.6-2.1,1.3-2.6,1.8
				C344.8,63.6,346,65.1,347.5,67.4z"/>
			<path class="st50" d="M327.7,24.5c1.1,0.6,1.7,0.9,2.3,1.8c0.3-0.4,0.6-0.5,0.9-0.6c-0.6-1-1.2-1.5-2.3-2.2
				C328.1,23.8,327.9,24.1,327.7,24.5z"/>
			<path class="st50" d="M57.4-14.6c1.6-0.7,2.4-0.9,3.8-0.8c-0.1-0.7,0-1.1,0.2-1.4c-1.5-0.3-2.6-0.1-4.3,0.5
				C57-15.7,57.1-15.2,57.4-14.6z"/>
			<path class="st50" d="M134.5,24.3c-1.5,0.5-3.2,0.3-6.7-1.4c-0.5,1.6-0.5,3.1,0.1,5.1c2.7,0.9,4.4,1.2,7.2,0.9
				C134.4,27.4,134.4,26.3,134.5,24.3z"/>
			<path class="st50" d="M378.7,159.4c0.3,1.2,0.1,2.4-1.3,5c1.2,0.4,2.3,0.5,3.8,0.1c0.8-2,1.1-3.3,1-5.4
				C381.1,159.6,380.2,159.6,378.7,159.4z"/>
			<path class="st50" d="M404.6,193.9c-1.1,1.4-1.5,2.4-1.7,4.4c2.2,0,3.5,0.4,4.8,1.3c1.1-1.2,1.6-2.3,2.3-3.9
				C408,195.4,406.6,194.9,404.6,193.9z"/>
			<path class="st50" d="M6.7,30c1.6,0.5,2.7,0.5,4.6,0c-0.7-2-0.8-3.3-0.5-4.8c-1.5-0.6-2.6-0.7-4.3-0.7C7,26.4,6.9,27.8,6.7,30z"
				/>
			<path class="st50" d="M249.7-70c-0.6,0.6-0.7,1.2-0.9,2.2c2.3,0.3,4.6,1.3,7.2,2.7c0.2-0.8,0.5-1.3,1.2-2
				C254.5-68.7,252.9-69.4,249.7-70z"/>
			<path class="st50" d="M412.9,60.6c0.8-0.1,1.3-0.6,2.1-1.3c-1.8-1.6-3.1-3.9-4.5-6.6c-0.7,0.6-1.2,0.8-2.2,1
				C409.6,56.6,410.6,58.1,412.9,60.6z"/>
			<path class="st50" d="M-21.9,28.1c1.2-0.4,1.9-0.8,2.6-2c-1.1-1.9-1.7-3-2.4-5.1c-0.6,0.5-1.1,0.7-1.6,0.8
				C-22.5,24.2-22.2,25.7-21.9,28.1z"/>
			<path class="st50" d="M182.5-64.9c-1.1,1.2-1.6,2-1.6,3.7c2.4,1.4,3.7,2.3,5.7,4.1c0.4-0.9,0.8-1.5,1.3-1.9
				C185.4-60.9,184.2-62.4,182.5-64.9z"/>
			<path class="st48" d="M318.4-58.7c-0.3,0.8-0.2,1.6,0.3,2.7c1.8-0.6,3-0.8,4.8-0.7c-0.3-0.8-0.3-1.5,0-2.8
				C321.7-59.6,320.3-59.3,318.4-58.7z"/>
			<path class="st48" d="M48.8,68.2c0.1,0.6,0.5,1,1.3,1.4c0.8-1.1,1.3-1.7,2.4-2.4c-0.5-0.3-0.8-0.7-1.2-1.6
				C50.3,66.3,49.6,67.1,48.8,68.2z"/>
			<path class="st48" d="M167.9-20.1c0.6,1,1.2,1.4,2.4,1.6c0.9-0.8,1.4-1.5,1.5-2.4c-0.9-0.9-1.3-1.7-1.7-3.1
				C169.5-22.4,169-21.4,167.9-20.1z"/>
			<path class="st48" d="M298.1-7.4c0.8,0.1,1.4,0,2.1-0.7c-0.1-0.9-0.2-1.6-0.7-2.1c-1,0.1-1.6-0.1-2.7-0.5
				C297.5-9.5,297.9-8.7,298.1-7.4z"/>
			<path class="st48" d="M108.8-111.2c1.6,0.4,2.7,0.5,4.1,0.4c-0.2-1.1-0.5-1.8-0.9-2.3c-0.8,0.3-1.5,0.1-2.5-0.2
				C109.6-112.4,109.3-111.9,108.8-111.2z"/>
			<path class="st48" d="M376.7-63.1c-1.5,2.3-2.2,3.8-2.8,6c1.8,0.4,2.9,0.3,4-0.1c0.1-1.4,0.6-2.3,1.6-3.7
				C378-61.3,377.4-61.9,376.7-63.1z"/>
			<path class="st48" d="M8.3,209.2c0,1.4-0.2,2.5-0.8,4.1c3.4-0.3,5.7-0.4,8.3,0.1c1.1-1.5,1.2-2.4,1.2-3.8
				C15.1,209.2,11.9,209,8.3,209.2z"/>
			<path class="st48" d="M385.6,95.4c0.9,0.1,1.6,0.3,2.6,0.8c0.1-2.2,0.2-3.7,0.7-5.3c-0.8-0.8-1.5-1-2.4-1.1
				C386,91,385.7,93,385.6,95.4z"/>
			<path class="st48" d="M6.1,258.3c0.7,0.6,1.5,1.2,2.6,1.3c0.6-0.4,1.1-0.7,1.9-1c-0.6-0.3-0.8-0.8-0.8-1.7
				C8.7,257.6,7.6,257.9,6.1,258.3z"/>
			<path class="st48" d="M417.8-38.9c-1.1,1.4-2.2,3-2.3,5c0.9,1.2,1.5,2,2.1,3.4c0.5-1.2,1.4-1.6,3.2-1.8
				C419.5-34.1,418.7-36.1,417.8-38.9z"/>
			<path class="st48" d="M-4,141.5c-1.3-1.6-2-2.6-2.7-4.6c-1,0.3-1.7,0.8-2.3,1.6c0.4,1.4,1.2,2.9,2.5,4.9
				C-5.8,142.1-5.2,141.5-4,141.5z"/>
			<path class="st48" d="M228.8,9c2,1,3.1,1.7,4.7,3.3c0.8-0.8,1.3-1.6,1.5-2.6c-1-1.2-2.5-2.3-4.6-3.7C230.3,7.6,230,8.4,228.8,9z"
				/>
			<path class="st48" d="M326.5-32.3c0.7,0.1,1.1,0.2,1.6,0.9c0.4-0.8,0.6-1.4,0.7-2.6c-0.4-0.5-0.7-0.7-1.5-0.7
				C327.2-33.7,327-33,326.5-32.3z"/>
			<path class="st48" d="M341.5,225.7c0,0.9-0.3,1.5-1.1,2.1c1.1,0.5,1.9,0.6,3.4,0.7c0.7-0.5,0.8-1,0.9-2
				C343.4,226.5,342.5,226.4,341.5,225.7z"/>
			<path class="st48" d="M-31.1,155c0.5,1.2,1,2.1,1.9,2.8c0.8-0.3,1.3-0.6,1.7-1.2c-1-0.9-1.4-1.5-1.8-2.7
				C-30,154.6-30.4,155-31.1,155z"/>
			<path class="st48" d="M193.6-120.9c-0.6,0.8-1,1.5-1.1,2.4c0.5,0.4,0.9,0.6,1.4,0.6c0.2-1,0.4-1.5,1.1-2.3
				C194.3-120.3,193.9-120.5,193.6-120.9z"/>
			<path class="st48" d="M399.2,275.6c-0.8,0.8-1.6,1.1-2.7,1.2c1.1,1.6,2.4,3.1,3.1,3.6c0.8-0.5,1.3-1.1,2-2
				C400.8,277.9,400.2,277.1,399.2,275.6z"/>
			<path class="st48" d="M-28.1,59.5c0,1-0.3,1.5-0.9,2.2c1.6,0.4,3.2,0.5,3.9,0.4c0.2-0.7,0.2-1.4,0-2.3
				C-25.9,60-26.8,59.8-28.1,59.5z"/>
			<path class="st48" d="M17.8-94.1c0-0.7,0.2-1.3,0.8-1.9c-2-1.1-3.4-1.5-5.5-2.1c-0.8,1-1,1.8-1.1,2.4
				C14.4-95.7,15.8-95.2,17.8-94.1z"/>
			<path class="st48" d="M352.6-81.2c-0.4-0.2-0.7-0.5-0.8-1.1c-1.3,0.8-2,1.5-3,2.5c0.3,0.8,0.7,1.2,1,1.4
				C350.5-79.8,351.3-80.4,352.6-81.2z"/>
			<path class="st48" d="M371.4,188c-2,0.4-3,0.4-4.6-0.1c-0.1,0.8-0.2,1.3-0.6,1.6c1.7,0.7,3,0.8,5.1,0.6
				C371.5,189.3,371.5,188.7,371.4,188z"/>
			<path class="st48" d="M235.7-87.5c1.7-1.9,2.6-2.7,4.6-3.4c-0.5-0.8-0.7-1.4-0.6-2.1c-2.2,0.6-3.5,1.5-5.5,3.3
				C234.5-88.7,235-88.1,235.7-87.5z"/>
			<path class="st48" d="M425.8,119.7c-0.2,0.7-0.6,1.4-2.1,2.4c0.5,0.6,1.2,0.9,2.1,1.1c1-0.9,1.6-1.5,2.1-2.8
				C427,120.4,426.6,120.2,425.8,119.7z"/>
			<path class="st48" d="M-19.1,86.3c1-0.5,2.3-0.5,4.9,0.5c0.2-1.2,0.1-2.3-0.5-3.6c-2-0.4-3.3-0.5-5.2-0.1
				C-19.3,84-19.2,84.8-19.1,86.3z"/>
			<path class="st48" d="M282-23.1c-1-0.5-1.7-0.6-3.1-0.5c0.3,1.4,0.2,2.3-0.2,3.2c0.9,0.5,1.7,0.8,2.8,0.9
				C281.5-20.7,281.6-21.6,282-23.1z"/>
			<path class="st48" d="M302.4-111.6c0,0.8,0.1,1.3,0.6,2.1c0.8-0.6,1.4-0.8,2.1-0.9c0.1-0.8,0-1.3-0.3-2.1
				C304.1-112,303.4-111.8,302.4-111.6z"/>
			<path class="st48" d="M127.8-23.7c0.4,1,1,1.4,2.1,2.1c1.4-2.5,3.7-4.7,6.5-7.1c-0.9-0.6-1.3-1.2-1.7-2.3
				C131.6-28.7,130-27.1,127.8-23.7z"/>
			<path class="st48" d="M344.6-87.2c-0.5,0.4-0.6,0.9-0.7,1.6c1.7,0.3,3.4,1,5.3,2.1c0.1-0.6,0.4-1,0.9-1.4
				C348.2-86.1,347-86.7,344.6-87.2z"/>
			<path class="st48" d="M138.4-75.1c-1.7-1-2.7-1.4-4.8-1c-1,3.1-1.8,4.9-3.4,7.7c1.2,0.2,1.9,0.6,2.5,1
				C134.4-70.6,135.9-72.4,138.4-75.1z"/>
			<path class="st48" d="M64.4-44.1c0.8-0.7,1.2-1.2,1.4-2.5c-1.5-1.1-2.4-1.8-3.6-3.2c-0.3,0.6-0.6,1-1,1.2
				C62.6-47,63.3-45.9,64.4-44.1z"/>
			<path class="st49" d="M42.1,212.9c-0.5,0.4-0.7,1-0.7,1.9c1.5,0.2,2.3,0.5,3.5,1.2c0.1-0.7,0.3-1.1,1-1.9
				C44.6,213.4,43.5,213.1,42.1,212.9z"/>
			<path class="st49" d="M399.5,8.3c0.2,1.4,1,2.2,2.6,3.2c1.9-2.3,3.2-3.5,5.7-4.8c-1.1-0.8-1.6-1.7-2.3-3.6
				C403.1,4.4,401.4,6,399.5,8.3z"/>
			<path class="st49" d="M14.8,29.6c0,1,0.3,1.6,1.2,2.3c1-0.3,1.7-0.6,2.2-1.2c-0.4-1.1-0.3-1.9,0-3.2C17,28.4,16.3,29,14.8,29.6z"
				/>
			<path class="st49" d="M177.7-77.4c-0.3,0.9-0.3,1.6,0.3,2.5c1,0.1,1.8,0.1,2.4-0.3c0.1-1.1,0.4-1.8,1.2-2.9
				C180.1-77.6,179.2-77.4,177.7-77.4z"/>
			<path class="st49" d="M422.6,99.2c0.7-1.5,1-2.6,1.2-4c-1.1-0.1-1.9,0.1-2.5,0.4c0.1,0.9-0.2,1.5-0.7,2.5
				C421.5,98.2,422,98.5,422.6,99.2z"/>
			<path class="st49" d="M313.3,36.3c3,1.4,4.9,2,7.7,2.3c0.1-2.2-0.2-3.6-0.7-4.8c-1.7,0.2-2.9-0.4-4.7-1.3
				C315.2,34.3,314.6,35.2,313.3,36.3z"/>
			<path class="st49" d="M120.9,60.9c1,1.1,1.6,2.2,2.2,3.9c2.6-2.6,4.5-4.3,6.9-5.7c-0.1-1.9-0.7-2.9-1.7-4
				C126.5,56.1,123.8,58.2,120.9,60.9z"/>
			<path class="st49" d="M91.3-29.7c0.1-0.8,0.4-1.5,0.9-2.3c-2-0.2-3.3-0.4-4.8-0.9c-0.8,0.7-1,1.3-1.1,2.1
				C87.3-30.4,89.2-30,91.3-29.7z"/>
			<path class="st49" d="M95.2,38.6c-1.2-0.8-2.6-1.6-4.3-1.5c-0.9,0.8-1.5,1.3-2.7,1.9c1,0.4,1.4,1,1.7,2.5
				C91.3,40.3,92.9,39.5,95.2,38.6z"/>
			<path class="st49" d="M276.3,42.2c-1.2-1-2.5-2-4.3-2.2c-1.1,0.7-1.8,1.2-3.1,1.6c1,0.5,1.3,1.3,1.4,2.9
				C272,43.5,273.8,42.9,276.3,42.2z"/>
			<path class="st49" d="M39.2-51.7c-1.7,0.6-2.7,0.8-4.5,0.8c0,0.9,0.1,1.6,0.6,2.3c1.2,0.1,2.7-0.1,4.7-0.5
				C39.2-50.1,38.9-50.7,39.2-51.7z"/>
			<path class="st49" d="M172.9,9.9c0.3-0.9,0.5-1.5,1.1-2.3c-0.4-0.3-0.8-0.5-1.2-0.5c-0.4,0.5-0.8,1.2-1.3,2.3
				C172.2,9.3,172.6,9.4,172.9,9.9z"/>
			<path class="st49" d="M328.1-92.5c-0.1-0.7-0.1-1.2,0.5-1.8c-0.9-0.2-1.5-0.1-2.7,0.1c-0.4,0.5-0.4,0.9-0.3,1.6
				C326.6-92.8,327.3-92.8,328.1-92.5z"/>
			<path class="st49" d="M5.5,117.5c0.7,0.7,1,1.3,0.9,2.5c1.2-0.5,1.9-1.1,3.1-2.2c0.1-0.9-0.2-1.4-1-2.1
				C7.5,116.6,6.7,117.3,5.5,117.5z"/>
			<path class="st49" d="M131-8.1c-1.8,0.7-3.1,1.5-4.1,2.7c0.4,1.2,0.9,1.9,1.7,2.4c1.3-1.4,2.2-2,4-2.6C131.6-6.3,131.1-7,131-8.1
				z"/>
			<path class="st49" d="M14.4,113.4c-0.2-1-0.5-1.8-1.1-2.4c-0.7,0.1-1.1,0.3-1.4,0.7c0.6,0.8,0.9,1.4,1.1,2.4
				C13.4,113.6,13.7,113.4,14.4,113.4z"/>
			<path class="st49" d="M379.6,203c-0.6-1.9-0.4-3.1,0.2-4.9c-3.2,0.4-6.4,1.1-7.7,1.9c0.1,1.6,0.6,2.8,1.5,4.5
				C375,203.6,376.7,203.3,379.6,203z"/>
			<path class="st49" d="M415.2,142.8c-1-0.4-1.4-0.9-1.9-1.7c-0.9,1.4-1.7,2.9-1.8,3.7c0.7,0.5,1.3,0.7,2.3,0.9
				C413.9,144.8,414.4,144.1,415.2,142.8z"/>
			<path class="st49" d="M420.5,172.9c-0.8,0.5-1.6,0.7-2.8,0.5c0.2,3,0.8,4.9,1.7,7.7c1.8,0.1,2.8-0.2,3.4-0.5
				C421.2,177.9,420.8,176,420.5,172.9z"/>
			<path class="st49" d="M7,130.4c-0.4,0.6-1,0.9-1.9,1.1c1,2.2,1.9,3.4,3.3,5.2c1.3-0.4,2-0.9,2.4-1.3C8.8,133.9,8,132.5,7,130.4z"
				/>
			<path class="st49" d="M371.7-97.3c1.6,0.1,2.5,0.3,3.6,1.1c0.2-0.6,0.5-1,0.9-1.1c-1.2-0.9-2.2-1.3-3.9-1.6
				C371.9-98.4,371.7-97.9,371.7-97.3z"/>
			<path class="st49" d="M368.4,141.4c-1.3-0.1-2-0.2-2.9-0.9c-0.2,0.5-0.4,0.8-0.7,0.9c1,0.7,1.8,1,3.2,1.2
				C368.3,142.2,368.4,141.8,368.4,141.4z"/>
			<path class="st49" d="M356.6,25.9c1.5-0.4,3.1-0.2,6.4,1.5c0.5-1.5,0.5-3,0-4.9c-2.6-1-4.3-1.3-7-1.1
				C356.7,22.9,356.8,23.9,356.6,25.9z"/>
			<path class="st49" d="M413,254.8c-0.9-0.8-1.5-1.9-1.9-4.9c-1.2,0.3-2.2,1-3.2,2.2c0.5,2.1,1,3.4,2.4,5
				C411,256,411.6,255.5,413,254.8z"/>
			<path class="st49" d="M20.3,59.7c-0.1,0.9-0.1,1.4,0.3,2.3c1-0.5,1.6-0.6,2.4-0.5c0.2-0.8,0.2-1.4,0.1-2.2
				C22.1,59.6,21.4,59.7,20.3,59.7z"/>
			<path class="st49" d="M282.9-39.8c1.3-1.2,1.9-2.2,2.4-4.2c-2.2-0.4-3.5-1-4.6-2.1c-1.3,1.1-2,2-3,3.6
				C279.7-41.9,281-41.2,282.9-39.8z"/>
			<path class="st49" d="M142.8-47.8c-0.2-0.9-0.7-1.4-1.6-2.2c-1.7,2-4.1,3.6-7.1,5.2c0.7,0.7,0.9,1.3,1.1,2.3
				C138.5-44,140.2-45.1,142.8-47.8z"/>
			<path class="st49" d="M398.3,260.8c1.1,0,1.8-0.4,2.9-1.2c-1.9-2.4-3.1-5.4-4.3-9.1c-0.9,0.6-1.7,0.8-2.9,0.8
				C395,255.2,395.9,257.3,398.3,260.8z"/>
			<path class="st49" d="M203-18.4c1.4-1.2,2.1-2,2.4-4c-2.5-1.9-3.8-3.1-5.9-5.4c-0.5,1-1.1,1.6-1.7,1.9
				C200.2-23.3,201.4-21.5,203-18.4z"/>
			<path class="st49" d="M385.5,224.7c-1-0.7-1.6-0.9-2.9-0.8c-0.7,1.9-1.3,3-2.4,4.7c0.7,0.2,1.2,0.4,1.5,0.7
				C382.9,227.4,383.9,226.3,385.5,224.7z"/>
		</g>
		<g style="display:inline;clip-path:url(#SVGID_00000088132612360967423110000016051649063771113870_);">
			<g>
				
					<rect x="273.5" y="144" transform="matrix(9.984785e-02 -0.995 0.995 9.984785e-02 169.057 475.1549)" class="st48" width="147.4" height="0.3"/>
				<path class="st48" d="M355.4,69.6c0.4,0.8,0.8,2.1,0.9,2.5c0,0-0.6,0.2-1.9,0.1c-1.3-0.1-1.7-0.4-1.8-0.4
					c0.3-0.6,0.9-1.6,1.4-2.2c-4.9-1.7-22-15.9-19.8-37.8c1.5-15.2,13.5-26.5,26.8-25.2c13.3,1.3,22.8,14.8,21.2,30
					C380,58.9,360.5,69,355.4,69.6z"/>
				<path class="st51" d="M370.2,14.3c0,0,9.2,7.9,8,20.4c-1.3,12.5-7.8,19.9-13,25.6C365.1,60.2,380.6,38.3,370.2,14.3z"/>
			</g>
			<g>
				
					<rect x="284.3" y="185.4" transform="matrix(0.2995 -0.9541 0.9541 0.2995 73.7022 471.5845)" class="st50" width="147.4" height="0.3"/>
				<path class="st50" d="M381.2,114.3c0.2,0.9,0.4,2.2,0.4,2.6c0,0-0.6,0.1-1.9-0.3c-1.3-0.4-1.6-0.7-1.6-0.8
					c0.4-0.6,1.2-1.4,1.8-1.9c-4.4-2.6-18.3-20-11.7-41c4.6-14.6,18.6-23.2,31.3-19.2c12.7,4,19.3,19.1,14.7,33.7
					C407.5,108.8,386.3,114.7,381.2,114.3z"/>
				<path class="st51" d="M406.9,63.1c0,0,7.4,9.7,3.7,21.6c-3.8,12-11.7,18-18,22.4C392.7,107.1,412.3,88.7,406.9,63.1z"/>
			</g>
			<g>
				
					<rect x="336.7" y="121.1" transform="matrix(0.9873 -0.159 0.159 0.9873 -26.6781 56.0231)" class="st49" width="0.3" height="147.4"/>
				<path class="st49" d="M325.7,120.6c0.6,0.7,1.3,1.8,1.5,2.1c0,0-0.5,0.4-1.8,0.6c-1.3,0.2-1.8,0-1.8,0c0.1-0.7,0.5-1.8,0.8-2.5
					c-5.1-0.4-25.3-9.7-28.8-31.5c-2.4-15.1,6.3-29.1,19.4-31.2c13.2-2.1,25.8,8.4,28.2,23.5C346.8,103.9,330.4,118.7,325.7,120.6z"
					/>
				<path class="st51" d="M325.8,63.3c0,0,11,5.3,13,17.7s-2.4,21.3-6,28C332.7,109,342,83.8,325.8,63.3z"/>
			</g>
		</g>
		<g style="display:inline;clip-path:url(#SVGID_00000088132612360967423110000016051649063771113870_);">
			<g>
				
					<rect x="73.9" y="70.5" transform="matrix(0.995 -9.984785e-02 9.984785e-02 0.995 -14.0224 8.1112)" class="st48" width="0.3" height="147.4"/>
				<path class="st48" d="M65.8,69.6c-0.4,0.8-0.8,2.1-0.9,2.5c0,0,0.6,0.2,1.9,0.1c1.3-0.1,1.7-0.4,1.8-0.4
					c-0.3-0.6-0.9-1.6-1.4-2.2c4.9-1.7,22-15.9,19.8-37.8C85.4,16.4,73.4,5.2,60.1,6.5c-13.3,1.3-22.8,14.8-21.2,30
					C41.1,58.9,60.7,69,65.8,69.6z"/>
				<path class="st51" d="M51,14.3c0,0-9.2,7.9-8,20.4c1.3,12.5,7.8,19.9,13,25.6C56,60.2,40.6,38.3,51,14.3z"/>
			</g>
			<g>
				
					<rect x="63" y="111.9" transform="matrix(0.9541 -0.2995 0.2995 0.9541 -52.6879 27.4349)" class="st50" width="0.3" height="147.4"/>
				<path class="st50" d="M40,114.3c-0.2,0.9-0.4,2.2-0.4,2.6c0,0,0.6,0.1,1.9-0.3c1.3-0.4,1.6-0.7,1.6-0.8
					c-0.4-0.6-1.2-1.4-1.8-1.9c4.4-2.6,18.3-20,11.7-41c-4.6-14.6-18.6-23.2-31.3-19.2C8.9,57.6,2.3,72.7,6.9,87.3
					C13.6,108.8,34.9,114.7,40,114.3z"/>
				<path class="st51" d="M14.2,63.1c0,0-7.4,9.7-3.7,21.6c3.8,12,11.7,18,18,22.4C28.5,107.1,8.9,88.7,14.2,63.1z"/>
			</g>
			<g>
				
					<rect x="10.6" y="194.6" transform="matrix(0.159 -0.9873 0.9873 0.159 -121.3806 247.0506)" class="st49" width="147.4" height="0.3"/>
				<path class="st49" d="M95.5,120.6c-0.6,0.7-1.3,1.8-1.5,2.1c0,0,0.5,0.4,1.8,0.6c1.3,0.2,1.8,0,1.8,0c-0.1-0.7-0.5-1.8-0.8-2.5
					c5.1-0.4,25.3-9.7,28.8-31.5c2.4-15.1-6.3-29.1-19.4-31.2C93.1,56,80.4,66.6,78,81.7C74.4,103.9,90.7,118.7,95.5,120.6z"/>
				<path class="st51" d="M95.4,63.3c0,0-11,5.3-13,17.7c-2,12.4,2.4,21.3,6,28C88.5,109,79.2,83.8,95.4,63.3z"/>
			</g>
		</g>
	</g>
	<g>
		<g>
			<path class="st52" d="M149.7,154.6c-1.1,0-2.4-0.2-3.8-0.5c-1.4-0.4-2.7-1.2-3.8-2.4c-0.7-0.8-1-1.6-1-2.4c0-0.7,0.3-1.3,0.8-2
				c0.6-0.7,1.6-1.8,2.9-3.1c0.3-0.3,0.6-0.6,0.9-0.8c0.3-0.2,0.6-0.5,0.9-0.7c0.4-0.4,0.7-0.7,0.7-0.9c0-0.2-0.2-0.5-0.6-0.8
				c-0.5-0.5-0.7-0.9-0.7-1.3c0-0.3,0.1-0.5,0.2-0.8c1.6-4.2,3-7.8,4.2-10.7c1.3-2.9,2.8-5.7,4.5-8.4c0.2-0.3,0.5-0.8,1.1-1.7
				c0.6-0.9,1.2-1.6,1.8-2.2c0.3-0.3,0.6-0.4,0.8-0.4c0.2,0,0.3,0.1,0.5,0.3c0.3,0.2,0.7,0.4,1.4,0.6c0.5,0.1,0.7,0.3,0.7,0.7
				c0,0.2-0.1,0.4-0.3,0.7c-1.3,1.8-2.9,4.5-4.8,8c0,0.1-0.2,0.4-0.5,0.8c-0.3,0.4-0.4,0.8-0.3,1.4h0.2c0.3,0,0.7-0.1,0.9-0.3
				c0.3-0.2,0.4-0.3,0.5-0.3l3.8-2.7l7.6-5.4c2-1.4,3.7-3.1,5-4.9c0.9-1.2,1.5-2.5,2-4c0.2-0.8,0.3-1.5,0.3-2.1
				c0-1.4-0.5-2.5-1.4-3.3c-0.9-0.8-2.1-1.2-3.7-1.2c-2.2,0-4.3,0.4-6.5,1.2c-7.7,3-13.9,7.6-18.4,13.8c-1.6,2.2-2.8,4.7-3.6,7.6
				c0,0.1-0.1,0.3-0.1,0.7c0,0.3-0.2,0.5-0.4,0.7c-0.5-0.2-0.7-0.5-0.7-0.8c0-0.8,0.1-1.7,0.3-2.6c0.8-2.4,2-4.7,3.6-7
				c4.3-5.9,9.8-10.3,16.6-13.3c2.9-1.2,5.6-1.8,8.1-1.8c2,0,3.7,0.5,5.4,1.4c2,1.3,3.1,2.9,3.1,4.9c0,0.3-0.1,1-0.3,1.8
				c-0.5,2-1.4,3.9-2.7,5.6c-1.3,1.7-3,3.3-5,4.8l-5.2,3.7c-0.5,0.4-0.8,0.7-0.9,0.8c-0.3,0.3-0.5,0.5-0.5,0.7
				c0,0.2,0.1,0.3,0.2,0.3c0.1,0,0.3,0.1,0.5,0.1c1.4,0,2.8,0.5,4.2,1.5c1.5,1,2.5,2.5,2.9,4.4c0.2,1.1,0.3,2,0.3,2.9
				c0,1.4-0.2,2.7-0.7,4c-0.9,2.8-2.4,5.4-4.6,7.7c-4,4.2-8.7,6.7-14.2,7.6C151.2,154.6,150.5,154.6,149.7,154.6z M166.1,142.2
				c1.7-2.6,2.6-5.2,2.6-7.9c0-1.2-0.1-2.2-0.4-2.9c-0.3-1.1-0.8-1.9-1.3-2.4c-0.5-0.5-1.3-0.7-2.4-0.7c-2.9,0-5.4,0.5-7.4,1.4
				c-0.5,0.3-1,0.5-1.4,0.5c-0.2,0-0.4,0-0.5-0.1c-0.5-0.1-0.8-0.1-1-0.1c-0.3,0-0.5,0.1-0.6,0.2c-0.1,0.2-0.3,0.5-0.5,0.9
				c-1.4,2.9-2.4,5-3,6.5c-0.1,0.3-0.3,0.6-0.6,1.1c-0.3,0.5-0.4,0.9-0.4,1.3c0,0.2,0.1,0.5,0.2,0.7c0.5,0,1.1,0,1.7-0.2
				c0.6-0.2,1-0.3,1.3-0.4c0.1,0,0.2,0,0.3-0.1c0.3,0,0.6,0.2,0.7,0.5c0,0,0.1,0.1,0.1,0.3c0,0.3-0.1,0.5-0.3,0.5
				c-0.3,0.2-0.6,0.3-0.9,0.4c-0.3,0.1-0.6,0.3-0.9,0.4c-3.3,1.5-5.8,3.7-7.7,6.7c-0.3,0.5-0.4,0.9-0.4,1.3c0,0.8,0.5,1.4,1.6,1.7
				c1.3,0.4,2.5,0.6,3.7,0.6c0.4,0,0.9,0,1.6-0.1C156.9,151.1,162.2,147.8,166.1,142.2z"/>
			<path class="st52" d="M175.7,148.7c-0.5-0.3-0.9-0.8-1.1-1.5c-0.2-0.4-0.3-0.8-0.4-1.2c-0.2-1.5-0.3-2.6-0.3-3.4
				c0-3,0.6-5.6,1.9-8c0.3-0.7,0.7-1.1,1.2-1.4c0.2-0.1,0.3-0.1,0.4-0.1c0.2,0,0.4,0.1,0.6,0.2c0.2,0.1,0.4,0.2,0.6,0.3l0.9,0.1
				c0.5,0.1,0.7,0.4,0.5,0.9c-0.1,0.4-0.4,1.1-0.7,2c-1.1,2.7-1.8,5.5-2.1,8.4l-0.1,0.9l0.1,0.9c0,0.3,0.2,0.6,0.4,0.7
				c0.2,0.1,0.5,0.1,0.9,0c0.9-0.3,3.1-2.6,6.7-7c0.4-0.5,0.8-0.9,1.2-1.4c0.4-0.4,0.7-0.8,0.9-1.1c0.2-0.2,0.5-0.4,1-0.6
				c0,0,0.1-0.1,0.2,0c0.1,0,0.1,0.1,0.1,0.1c0.2,0.2,0.3,0.4,0.3,0.5c0,0.3-0.2,0.6-0.4,0.8c-0.7,0.8-1.3,1.5-1.7,2
				c-4.2,5-6.9,7.7-8.1,8.2c-0.3,0.1-0.6,0.2-1,0.2C176.9,149.2,176.2,149,175.7,148.7z M179.9,129.7c-0.9-0.1-1.3-0.6-1.2-1.4
				c0.1-0.5,0.3-0.9,0.5-1.2c0.3-0.3,0.6-0.4,0.9-0.4c0.3,0,0.8,0.1,1.5,0.3c0.5,0.1,0.8,0.5,0.9,1v0.2c0,0.5-0.2,0.8-0.6,1.1
				c-0.3,0.3-0.8,0.5-1.5,0.5C180.4,129.7,180.2,129.7,179.9,129.7z"/>
			<path class="st52" d="M188.1,152.2c-0.3-0.2-0.6-0.4-0.7-0.8c-0.1-0.4-0.2-1-0.3-1.8c-0.1-1.2-0.1-2.1-0.1-2.7
				c0-4.8,1-9.7,3-14.6c0.3-0.6,0.6-0.9,0.7-1c0.3-0.4,0.7-0.5,1.1-0.3c0.1,0.1,0.2,0.2,0.2,0.4c0,0.2,0,0.3,0,0.4
				c-0.2,0.5-0.1,0.6,0.3,0.4c0.4-0.3,0.8-0.4,1.1-0.4c0.2,0,0.4,0.1,0.5,0.2c0.3,0.2,0.4,0.4,0.4,0.7c0,0.2-0.2,0.6-0.5,1.2
				c-0.1,0.2-0.3,0.6-0.5,1.2c-0.2,0.6-0.3,1.2-0.3,1.9c0.5-0.1,0.8-0.4,1.1-0.7c0.2-0.3,0.4-0.5,0.5-0.6c0.4-0.4,0.7-0.9,1-1.3
				c0.3-0.4,0.6-0.8,0.8-1.1c0,0,0.2-0.2,0.3-0.4c0.2-0.2,0.4-0.4,0.6-0.5c0.2-0.1,0.5-0.1,0.8,0.1c0.9,0.3,1.4,0.9,1.4,1.8
				c0,0.1,0,0.2,0,0.4c0,0.2,0,0.4-0.1,0.5c0,0.1-0.1,0.2-0.4,0.3l-0.3-0.1l-0.4-1.1c-0.2-0.3-0.4-0.4-0.7-0.1
				c-0.1,0-0.3,0.2-0.7,0.6c-2.7,3.5-4.7,7.2-5.9,11.1c-0.1,0.4-0.3,1.1-0.5,2.1c-0.1,0.6-0.2,1.1-0.3,1.4c0,0.2,0,0.4,0,0.7
				c0,0.3-0.1,0.7-0.2,1c-0.1,0.4-0.2,0.7-0.3,0.9c-0.1,0.2-0.3,0.3-0.7,0.3C188.8,152.5,188.4,152.4,188.1,152.2z"/>
			<path class="st52" d="M207.9,149.2c0,0-0.2,0-0.5,0c-0.9,0-1.7-0.3-2.5-0.8c-0.7-0.5-1.3-1.2-1.6-2.2c-0.7-1.8-1-4-1.1-6.5
				l-0.1-2c0-4.6,0.8-9.4,2.3-14.4c1.4-4.5,2.8-8.2,4.2-11.2c0-0.1,0.2-0.4,0.4-0.9c0.2-0.5,0.3-1,0.2-1.5l-6.3,0.8
				c-2,0.2-3.5,0.3-4.5,0.3c-2,0-3.9-0.2-5.8-0.6c-1.8-0.4-3.2-1.1-4-2.1c-0.3-0.3-0.4-0.7-0.5-1c0-0.2,0.1-0.4,0.4-0.8
				c0,0,0.1-0.1,0.3-0.1c0.1,0,0.2,0,0.3,0.1c1.1,1,2.3,1.7,3.6,1.9c1.3,0.2,3.1,0.4,5.4,0.4c3.6,0,7.4-0.5,11.3-1.4
				c0.7-0.2,1.3-0.4,1.7-0.7c0.5-0.3,0.8-0.8,1.1-1.4c0.1-0.3,0.3-0.7,0.6-1.1c0.3-0.4,0.5-0.7,0.6-0.9c0.8-1.2,1.9-1.8,3.3-1.8
				c0.5,0,1,0.1,1.5,0.2c0.2,0.1,0.4,0.2,0.5,0.4c0.1,0.2,0.1,0.4-0.1,0.6l-1.6,2.2c0,0-0.1,0.1-0.1,0.3c0,0.2,0.1,0.3,0.2,0.4
				c0.1,0.1,0.2,0.2,0.4,0.2c1,0,1.7,0,2.1-0.1c0.7-0.1,1.8-0.1,3.3-0.1c2.9,0,6.2,0.3,9.7,1c0.5,0.1,1,0.3,1.7,0.5
				c0.3,0.2,0.4,0.4,0.4,0.6c0,0.2-0.1,0.4-0.2,0.7c-0.1,0.2-0.3,0.3-0.5,0.3h-0.6c-0.4,0-0.9,0-1.5-0.1c-2.7-0.4-5.5-0.6-8.3-0.6
				c-1.9,0-3.6,0.1-5.1,0.3l-2.1,0.2c-1.1,0.2-1.9,0.7-2.4,1.7c-2.2,4.7-3.9,8.8-5.2,12.3c-1.3,3.5-2.3,7-2.9,10.6
				c-0.6,2.9-0.8,5.6-0.8,8c0,1.5,0.1,3.1,0.4,4.6l0.2,1.2c0.1,0.5,0.3,0.8,0.6,1c0.3,0.2,0.6,0.3,1,0.3c2,0,3.7-0.8,5.1-2.5
				l1.5-1.5c0,0,0.1-0.1,0.2-0.1c0.1,0,0.2,0,0.3,0.1c0.1,0,0.2,0.1,0.2,0.2c0.1,0.1,0.1,0.2,0,0.2c-0.2,0.5-0.4,1.1-0.8,1.6
				c-1.3,1.9-3.3,3-5.9,3.3C208,149.2,207.9,149.2,207.9,149.2z"/>
			<path class="st52" d="M228,149.8c-0.7-1.9-1-3.9-1-6c0-1.7,0.1-3.2,0.3-4.4c0.1-0.7,0.2-1.5,0.3-2.7c0-0.5-0.3-0.8-0.8-0.8
				l-0.5,0.1c-1,0.5-2.2,1.5-3.5,2.9c-2.3,2.7-4,6-5.4,9.7l-0.3,1.1c-0.1,0.4-0.3,0.7-0.4,0.9c-0.1,0.2-0.3,0.3-0.6,0.3
				c-0.4,0-0.8-0.2-1.2-0.5c-0.4-0.3-0.6-0.6-0.6-1c0-0.5-0.1-1.2-0.1-2.1c0.3-10,3.1-19.6,8.5-28.9c1.4-2.4,3.2-4.8,5.5-7.1
				c1.2-1.1,2.3-1.9,3.1-2.4c1.2-0.6,2.2-0.9,2.9-0.8c1.3,0.1,2.3,0.3,2.8,0.6c0.5,0.3,0.8,0.8,0.8,1.5c0,0.4-0.1,1.1-0.3,2
				c-0.2,1.1-0.9,2.6-2,4.4c-2.3,3.6-5.3,7.2-9.2,10.8c-1.6,1.4-2.7,2.3-3.3,2.7c-1.5,1.1-2.5,2.6-2.9,4.4c-0.2,0.8-0.4,1.5-0.7,2
				c0,0.2-0.2,0.7-0.5,1.5c-0.3,0.8-0.4,1.7-0.5,2.4c0.1,0,0.2,0.1,0.4,0.1c0.3,0,0.5-0.1,0.7-0.4c0.2-0.3,0.3-0.5,0.3-0.6
				c1.3-1.7,2.4-2.9,3.5-3.7c0.7-0.7,1.5-1.1,2.3-1.4c0.3-0.1,0.7-0.2,1-0.2c0.7,0,1.3,0.2,1.7,0.7c0.5,0.4,0.7,1,0.7,1.8
				c0,1-0.1,2.3-0.4,4.2c-0.2,1.6-0.3,2.8-0.3,3.6c0,1.3,0.2,2.6,0.5,3.9c0.2,0.7,0.5,1.4,0.9,2.2c0,0.1,0,0.3-0.1,0.5
				c-0.1,0-0.3,0.1-0.6,0.1C228.8,151,228.3,150.5,228,149.8z M223.4,128c0.1,0,0.2,0,0.2,0c4.8-3.7,8.5-7.8,11.2-12.4
				c0.4-0.8,0.9-1.9,1.3-3.3c0-0.1,0.1-0.3,0.1-0.4c0-0.2,0.1-0.3,0.1-0.6c0-0.5-0.2-0.8-0.5-1c-0.1-0.1-0.3-0.2-0.5-0.2
				c-0.3,0-0.6,0.1-0.9,0.4c-0.3,0.2-0.4,0.4-0.5,0.4c-0.6,0.5-1,0.9-1.3,1.2c-4,4-7.3,9-9.7,15.1c-0.2,0.3-0.2,0.6,0,0.8
				C223.2,128,223.3,128,223.4,128z"/>
			<path class="st52" d="M235,148.5c-0.6,0-1.1-0.3-1.6-0.9c-0.5-0.6-0.8-1.4-0.8-2.5c0-0.3-0.1-0.8-0.1-1.4c0-1.6,0.3-3.2,0.9-4.8
				c0.8-2.1,2.2-3.1,4.1-3.1c0.2,0,0.7,0,1.4,0.1c0.5,0.1,0.8,0.1,0.9,0.1c0.3,0,0.5-0.1,0.6-0.2c0.1-0.2,0.3-0.5,0.5-1
				c0.6-1.7,1-2.9,1.3-3.7c0.3-0.7,0.5-1.3,0.7-2c0.2-0.6,0.4-1.2,0.6-1.7c1-2.5,2.1-4.9,3.4-7.1c1.2-2,2.4-3.4,3.6-4.4
				c0.7-0.7,1.5-1.1,2.3-1.4c0.5-0.2,0.9-0.3,1.1-0.3c0.8,0,1.5,0.3,2.1,0.9c0.6,0.6,0.8,1.4,0.7,2.3c0,1-0.3,1.9-0.7,2.9
				c-2.7,7.3-7,13-12.9,17.1c-0.7,0.5-1.2,1-1.5,1.6c-0.4,0.6-0.7,1.2-0.9,2c-0.4,1.8-0.7,3.2-0.8,4.1c-0.2,0.9-0.3,1.9-0.3,3
				c0,1.3,0.2,1.9,0.7,1.9c0.5,0,1.1-0.5,2-1.6c0.8-1.1,1.9-2.6,3.1-4.5c1.3-2,2.4-3.5,3.2-4.5c0.8-1,1.4-1.3,1.7-1
				c0.1,0.2,0.1,0.3,0,0.5c-0.1,0.4-0.3,0.8-0.6,1c-0.6,0.6-1.6,2.1-3.2,4.4c-1.5,2.2-2.7,3.9-3.6,5c-0.9,1.1-1.7,1.6-2.5,1.6
				c-1.2,0-2-1.5-2.6-4.6c-0.3,0.3-0.5,0.6-0.7,0.8c-0.2,0.2-0.4,0.4-0.6,0.6C236.1,148.3,235.6,148.5,235,148.5z M235.5,146
				c0.1,0,0.2-0.1,0.3-0.2c1.4-2,2.6-4.5,3.6-7.6c0-0.1,0-0.2-0.1-0.3c-0.1-0.4-0.2-0.7-0.4-0.8c-0.1,0-0.2-0.1-0.3-0.1
				c-0.3,0-0.5,0.1-0.7,0.3c-1.7,2.2-2.7,4.6-3,7.2c0,0.2,0.1,0.4,0,0.5c0,0.1,0,0.2,0,0.3c0.1,0.3,0.2,0.4,0.3,0.5
				C235.3,146.1,235.4,146.1,235.5,146z M244.2,134.1c4.7-3.9,8.1-8.7,10.2-14.3c0.2-0.7,0.4-1.5,0.6-2.4v-0.5v-0.1
				c0-0.3-0.1-0.6-0.2-0.8c-0.2-0.2-0.4-0.3-0.6-0.3c-0.2,0-0.4,0.1-0.7,0.2c-0.4,0.2-0.9,0.6-1.5,1c-1.4,1.2-2.5,2.6-3.5,4.1
				c-1.1,1.8-2.1,3.7-3,5.7c-0.9,2-1.7,4.3-2.6,6.9c0,0.1-0.1,0.3-0.1,0.6c0,0.2,0,0.3,0.1,0.3c0,0,0.1,0,0.3,0.1
				c0.1,0.1,0.2,0.1,0.3,0C243.6,134.5,243.9,134.4,244.2,134.1z"/>
			<path class="st52" d="M261.9,147.1c0.3,0,0.9-0.5,1.7-1.4c0.8-0.9,1.7-2.2,2.8-3.8c1.2-1.7,2-2.7,2.4-3.1
				c0.3-0.1,0.5-0.2,0.6-0.1c0.2,0.1,0.3,0.2,0.3,0.3c0,0.1,0,0.3-0.1,0.4c-3.9,6.6-6.7,9.9-8.5,9.9c-1,0-1.7-1.1-2.2-3.2
				c-0.1-0.6-0.3-1.8-0.7-3.5l-0.3-0.1c-0.2,0-0.4,0.1-0.6,0.2c-0.2,0.1-0.3,0.2-0.3,0.3c-0.9,0.8-1.5,1.2-1.6,1.4
				c-0.7,0.6-1.6,0.8-2.5,0.8c-1.1,0-2.1-0.4-2.9-1.3c-0.8-0.9-1.2-2-1.2-3.3c0-1.5,0.4-3,1.3-4.5c0.9-1.5,2-2.5,3.2-3.1
				c0.8-0.3,1.7-0.5,2.5-0.5c1.2,0,2.3,0.3,3.4,0.9c1.1,0.6,2,1.5,2.6,2.5c0.3,0.5,0.5,0.8,0.5,0.8s0,0.2-0.1,0.4
				c-0.1,0.2-0.1,0.4-0.2,0.7c-0.1,0.7-0.3,2.1-0.5,4.3l-0.2,2.2v0.6c0,0.7,0,1.2,0.1,1.5C261.6,146.9,261.7,147.1,261.9,147.1z
				 M258.7,137.8c0.2-0.3,0.5-0.8,0.7-1.6c0.1-0.4,0.1-0.7,0.1-0.7c0-0.2-0.1-0.3-0.2-0.4c-0.1-0.1-0.2-0.2-0.2-0.3
				c-0.4-0.4-0.9-0.6-1.4-0.6c-0.8,0-1.6,0.3-2.4,0.9c-0.8,0.6-1.5,1.4-2.1,2.4c-0.6,1-0.8,1.9-0.8,2.8c0,0.3,0.1,0.7,0.3,1.2
				c0.1,0.2,0.2,0.4,0.4,0.6c0.1,0.2,0.2,0.3,0.4,0.3c0.2,0,0.3-0.1,0.5-0.2C255.8,141.2,257.4,139.7,258.7,137.8z"/>
			<path class="st52" d="M260.7,185.1c0,0-0.3,0-0.9,0c-0.8,0-1.5-0.3-2.1-0.8c-0.6-0.5-0.9-1.3-0.9-2.1c0-0.2-0.1-0.5-0.1-1
				c0-1.3,0.3-2.7,0.9-4.3c2.4-6.7,6.5-12,12.2-16.1c0.1-0.1,0.3-0.2,0.6-0.4c0.2-0.2,0.5-0.3,0.7-0.4c1.3-0.5,2.2-1.3,2.9-2.3
				c0.7-1,1.2-2.2,1.6-3.7c0.5-1.8,1.1-3.6,1.8-5.5l1-3.3c0.2-0.6,0.3-1.1,0.3-1.4c0-0.3,0-0.6-0.1-0.8c-1.7,1.1-2.6,1.8-2.8,2
				c-1.5,1-3,1.5-4.4,1.5c-2.4,0-3.6-1.5-3.6-4.4c0-2,0.6-4,1.7-6.1l0.2-0.2c0.2-0.3,0.4-0.3,0.8-0.1c0.4,0.1,0.6,0.3,0.5,0.7
				c-0.1,0.4-0.3,0.8-0.4,1.2c-0.1,0.4-0.2,0.8-0.4,1.1c-0.3,1.3-0.5,2.4-0.5,3.3c0,0.6,0.1,1.3,0.2,2c0,0.5,0.2,0.8,0.5,1
				c0.3,0.2,0.7,0.3,1.2,0.2c0.7-0.1,1.5-0.4,2.5-1c2.4-1.6,4.2-3.4,5.6-5.5l2.1-3.7c0.1,0,0.2,0,0.4,0.1c0.2,0,0.3,0.1,0.4,0.1
				c0.1,0.1,0.3,0.1,0.5,0.1h0.7c0.4,0,0.6,0.2,0.7,0.5c0.1,0.3,0.1,0.6,0.1,0.8c0,0.4-0.1,0.8-0.2,1.2c-0.6,2.4-1.1,4.2-1.5,5.5
				l-2.9,9.8c-0.3,0.8-0.4,1.4-0.3,1.8c0,0.3,0.2,0.5,0.6,0.7c0.4,0.2,0.6,0.3,0.7,0.5c0.1,0.1,0.1,0.2,0.1,0.2
				c-1,0.7-1.8,1.2-2.1,1.5c-0.4,0.3-0.7,0.7-0.9,1.2c-0.3,0.5-0.7,1.4-1.2,2.7c-3.1,7.4-6.6,13.6-10.6,18.5c-1,1.3-2,2.4-2.9,3.1
				c-0.5,0.5-1.2,1.1-2.2,1.6C260.9,185,260.7,185.1,260.7,185.1z M260.3,181.9c1-1,1.8-1.9,2.3-2.4c3.8-4.9,6.9-10.3,9.5-16.1
				c0-0.1,0.1-0.3,0.1-0.4c0-0.1,0.1-0.3,0.1-0.5c0.1-0.2,0.1-0.4-0.1-0.5c-0.2-0.2-0.3-0.2-0.5-0.1c-0.2,0.1-0.2,0.1-0.3,0.1
				c0,0-0.2,0.1-0.5,0.3c-5.8,4.6-9.6,10-11.4,16.3c-0.1,0.3-0.3,1.1-0.5,2.4c0,0.1,0,0.3,0,0.5c0,0.2,0.1,0.4,0.1,0.5
				c0.1,0.1,0.2,0.2,0.4,0.2C259.8,182.2,260.1,182.1,260.3,181.9z"/>
		</g>
		<g>
			<path class="st52" d="M251.1,103.7h1.4v6.2h-1.4v-2.5h-2.5v2.5h-1.4v-6.2h1.4v2.6h2.5V103.7z"/>
			<path class="st52" d="M260.3,110l-0.6-1.3h-2.6l-0.6,1.3H255l2.7-6.2h1.3l2.7,6.2H260.3z M258.4,105.6l-0.8,1.8h1.6L258.4,105.6z
				"/>
			<path class="st52" d="M268.5,104.3c0.4,0.4,0.7,0.9,0.7,1.7c0,0.8-0.2,1.3-0.7,1.7c-0.4,0.4-1.1,0.5-2.1,0.5h-0.8v1.7h-1.4v-6.2
				h2.2C267.4,103.7,268.1,103.9,268.5,104.3z M267.5,106.7c0.2-0.2,0.2-0.5,0.2-0.8s-0.1-0.6-0.3-0.8c-0.2-0.2-0.6-0.2-1-0.2h-0.8
				v2.1h0.9C267,107,267.4,106.9,267.5,106.7z"/>
			<path class="st52" d="M276.4,104.3c0.4,0.4,0.7,0.9,0.7,1.7c0,0.8-0.2,1.3-0.7,1.7c-0.4,0.4-1.1,0.5-2.1,0.5h-0.8v1.7h-1.4v-6.2
				h2.2C275.2,103.7,275.9,103.9,276.4,104.3z M275.3,106.7c0.2-0.2,0.2-0.5,0.2-0.8s-0.1-0.6-0.3-0.8c-0.2-0.2-0.6-0.2-1-0.2h-0.8
				v2.1h0.9C274.9,107,275.2,106.9,275.3,106.7z"/>
			<path class="st52" d="M282.5,110h-1.4v-2.5l-2.2-3.8h1.5l1.3,2.3l1.3-2.3h1.5l-2.2,3.8V110z"/>
		</g>
		<g class="st0">
			<path class="st53" d="M183.4,158.1v4.7h-1.3v-4.7h-1.6V157h4.6v1.1H183.4z"/>
			<path class="st53" d="M194.5,162c-0.6,0.6-1.3,0.9-2.2,0.9c-0.9,0-1.6-0.3-2.2-0.9c-0.6-0.6-0.9-1.3-0.9-2.1
				c0-0.9,0.3-1.6,0.9-2.1c0.6-0.6,1.3-0.9,2.2-0.9c0.9,0,1.6,0.3,2.2,0.9c0.6,0.6,0.9,1.3,0.9,2.1C195.3,160.7,195,161.4,194.5,162
				z M194,159.8c0-0.5-0.2-1-0.5-1.3c-0.3-0.4-0.7-0.5-1.2-0.5c-0.5,0-0.9,0.2-1.2,0.5c-0.3,0.4-0.5,0.8-0.5,1.3
				c0,0.5,0.2,1,0.5,1.3c0.3,0.4,0.7,0.5,1.2,0.5c0.5,0,0.9-0.2,1.2-0.5C193.9,160.8,194,160.4,194,159.8z"/>
			<path class="st53" d="M208.6,162.8h-1.3v-2.3l-2-3.5h1.4l1.3,2.2l1.3-2.2h1.4l-2,3.5V162.8z"/>
			<path class="st53" d="M219.7,162c-0.6,0.6-1.3,0.9-2.2,0.9c-0.9,0-1.6-0.3-2.2-0.9c-0.6-0.6-0.9-1.3-0.9-2.1
				c0-0.9,0.3-1.6,0.9-2.1c0.6-0.6,1.3-0.9,2.2-0.9c0.9,0,1.6,0.3,2.2,0.9c0.6,0.6,0.9,1.3,0.9,2.1
				C220.6,160.7,220.3,161.4,219.7,162z M219.3,159.8c0-0.5-0.2-1-0.5-1.3c-0.3-0.4-0.7-0.5-1.2-0.5c-0.5,0-0.9,0.2-1.2,0.5
				c-0.3,0.4-0.5,0.8-0.5,1.3c0,0.5,0.2,1,0.5,1.3c0.3,0.4,0.7,0.5,1.2,0.5c0.5,0,0.9-0.2,1.2-0.5
				C219.1,160.8,219.3,160.4,219.3,159.8z"/>
			<path class="st53" d="M227,161.3c0.2,0.3,0.5,0.4,0.9,0.4c0.4,0,0.7-0.1,0.9-0.4c0.2-0.3,0.3-0.6,0.3-1.1V157h1.3v3.3
				c0,0.8-0.2,1.5-0.7,1.9c-0.5,0.5-1.1,0.7-1.8,0.7c-0.7,0-1.3-0.2-1.8-0.7c-0.5-0.5-0.7-1.1-0.7-1.9V157h1.3v3.2
				C226.6,160.6,226.7,161,227,161.3z"/>
		</g>
	</g>
</g>
</svg>
