<svg xmlns="http://www.w3.org/2000/svg" viewBox="0 0 108.9 180.59"><defs><style>.cls-1{fill:#fb242d;}.cls-2{fill:#fff;}.cls-3{fill:#feb937;}.cls-4{fill:#00d6ad;}</style></defs><g id="Layer_2" data-name="Layer 2"><g id="Layer_1-2" data-name="Layer 1"><polygon class="cls-1" points="40.47 145.97 40.18 145.95 53.46 44.55 53.75 44.58 40.47 145.97"/><path class="cls-1" d="M54.42,43.72a10.26,10.26,0,0,1,.84,1.7,5.09,5.09,0,0,1-1.72,0,4.7,4.7,0,0,1-1.59-.3,7.57,7.57,0,0,1,1.28-1.54c-4.41-1.16-19.86-11-17.88-26.14C36.73,7,47.56-.85,59.53.07S80.09,10.28,78.71,20.82C76.68,36.3,59,43.3,54.42,43.72Z"/><path class="cls-2" d="M67.78,5.45S76.12,10.94,75,19.57,68,33.36,63.22,37.23C63.22,37.23,77.18,22.05,67.78,5.45Z"/><polygon class="cls-3" points="36.98 172.58 36.7 172.51 76.58 75.29 76.85 75.35 36.98 172.58"/><path class="cls-3" d="M77.73,74.62a8.26,8.26,0,0,1,.37,1.8,5.48,5.48,0,0,1-1.69-.22,4.36,4.36,0,0,1-1.48-.54,8.92,8.92,0,0,1,1.66-1.32C72.58,72.52,60.05,60.49,66,46c4.14-10.11,16.81-16.06,28.29-13.3S111.73,45.86,107.59,56C101.5,70.81,82.34,74.92,77.73,74.62Z"/><path class="cls-2" d="M101,39.22s6.71,6.67,3.32,14.94S93.73,66.57,88.06,69.63C88.06,69.63,105.76,56.93,101,39.22Z"/><polygon class="cls-4" points="48.39 180.56 48.11 180.59 26.95 79.98 27.23 79.95 48.39 180.56"/><path class="cls-4" d="M27.59,79A11.83,11.83,0,0,1,29,80.47a4.66,4.66,0,0,1-1.65.39,4.73,4.73,0,0,1-1.63,0,6.32,6.32,0,0,1,.71-1.75c-4.65-.25-22.88-6.71-26-21.75C-1.83,46.93,6,37.27,17.9,35.8s23.29,5.82,25.49,16.28C46.62,67.44,31.89,77.68,27.59,79Z"/><path class="cls-2" d="M27.68,39.37s9.9,3.68,11.7,12.23S37.2,66.32,33.92,71C33.92,71,42.33,53.57,27.68,39.37Z"/></g></g></svg>