<svg xmlns="http://www.w3.org/2000/svg" viewBox="0 0 419.27 268.43"><defs><style>.cls-1{fill:#fb242d;}.cls-2{fill:#00d6ad;}.cls-3{fill:#feb937;}</style></defs><g id="Layer_2" data-name="Layer 2"><g id="Layer_1-2" data-name="Layer 1"><path class="cls-1" d="M294.11,95c.05.49.41.81,1.13,1.21a8.07,8.07,0,0,1,2.87-1.56,2.11,2.11,0,0,1-.94-1.34A9.59,9.59,0,0,0,294.11,95Z"/><path class="cls-1" d="M82.81,34.44a1.88,1.88,0,0,0-1.25,1,7.12,7.12,0,0,1,2.49,1.67,2.66,2.66,0,0,1,1.46-.93A8.48,8.48,0,0,0,82.81,34.44Z"/><path class="cls-1" d="M300.31,23.25a2.21,2.21,0,0,0-1.68,1.4,3.59,3.59,0,0,0,1.85,1.25,7.07,7.07,0,0,1,3-.81A10.25,10.25,0,0,1,300.31,23.25Z"/><path class="cls-1" d="M55.55,212a1,1,0,0,0,.08-1.29,3.55,3.55,0,0,0-1.7-.06,2.87,2.87,0,0,1-1.1,1.39A8.84,8.84,0,0,1,55.55,212Z"/><path class="cls-1" d="M24.8,151.92a5.52,5.52,0,0,0,.68,2.35,3.68,3.68,0,0,0,1.55-.9,1.86,1.86,0,0,1-.45-1.43A2.77,2.77,0,0,1,24.8,151.92Z"/><path class="cls-1" d="M166.35,21.23a17.4,17.4,0,0,0-4.69-3,4.29,4.29,0,0,0-.95,2.71,5.8,5.8,0,0,1,2.92,1.78A4.06,4.06,0,0,1,166.35,21.23Z"/><path class="cls-1" d="M167.14,77.31A3.55,3.55,0,0,1,166,78.46a16.68,16.68,0,0,1,3.42,1.22,2.23,2.23,0,0,0,1.24-1A18.93,18.93,0,0,0,167.14,77.31Z"/><path class="cls-1" d="M254.61,64.85a13.44,13.44,0,0,1,4.29.44,18.11,18.11,0,0,1-.4-6.45,7.3,7.3,0,0,0-4.06-.76A21,21,0,0,0,254.61,64.85Z"/><path class="cls-1" d="M300.76,87.83a4.65,4.65,0,0,0,1.9,2.8,13.18,13.18,0,0,1,3,.31c-.44-.67-.26-1.17.49-2.07A22.09,22.09,0,0,1,300.76,87.83Z"/><path class="cls-1" d="M91.56,14a7.78,7.78,0,0,0,3.77,2.77,16.39,16.39,0,0,1,3.75-.54c-.88-.66-.94-1.31-.52-2.61A28.62,28.62,0,0,1,91.56,14Z"/><path class="cls-1" d="M365.9,128.43a16,16,0,0,1-4.74-.87,2.33,2.33,0,0,0-.41,1.89,20.81,20.81,0,0,0,4.79,1.12C365.15,129.58,365.17,129,365.9,128.43Z"/><path class="cls-1" d="M195.77,53.71a15.44,15.44,0,0,1,4.74-1.9A3.37,3.37,0,0,0,199,50a22,22,0,0,0-5,1.71C195.26,52.35,195.79,52.82,195.77,53.71Z"/><path class="cls-1" d="M25,132a1.3,1.3,0,0,1,.61,1.47,7.12,7.12,0,0,0,2.5-1.24c.07-.54-.11-.83-.69-1.27A5.35,5.35,0,0,1,25,132Z"/><path class="cls-1" d="M102.24,6.52a4.21,4.21,0,0,1-3.33-.23,6.37,6.37,0,0,0,.91,3.58,3.88,3.88,0,0,0,3,0A4.58,4.58,0,0,1,102.24,6.52Z"/><path class="cls-1" d="M20.65,40.13a5.81,5.81,0,0,0,2.23-2.51,4,4,0,0,0-2.05-1,5.39,5.39,0,0,1-2.22,2.46A2.65,2.65,0,0,1,20.65,40.13Z"/><path class="cls-1" d="M175.19,39.15a6.86,6.86,0,0,0-2.82-.15,1.5,1.5,0,0,0-.08,1.28,6.46,6.46,0,0,1,2.77.16A1.06,1.06,0,0,1,175.19,39.15Z"/><path class="cls-1" d="M305.39,67.19a3.69,3.69,0,0,1-.22,3.4,28.53,28.53,0,0,0,7.1-1.33,6.44,6.44,0,0,0-1.36-3.1C309.57,66.79,308,67,305.39,67.19Z"/><path class="cls-1" d="M354.16,49.62a3.82,3.82,0,0,1-1,3.29,28.93,28.93,0,0,0,7.24-.39,5.83,5.83,0,0,0-.62-3.2A17.05,17.05,0,0,1,354.16,49.62Z"/><path class="cls-1" d="M22.56,71.05a1.85,1.85,0,0,1-1.21.91,15.81,15.81,0,0,0,3.56,2.38,3.75,3.75,0,0,0,1.51-1.1A9.66,9.66,0,0,1,22.56,71.05Z"/><path class="cls-1" d="M214.73,17.08a2.47,2.47,0,0,1,1.58.56,11,11,0,0,0,1.83-3.38,4.73,4.73,0,0,0-1.93-.7A6,6,0,0,1,214.73,17.08Z"/><path class="cls-1" d="M419.27,119.12a2.63,2.63,0,0,1-.74-1.78,1.55,1.55,0,0,1-.93,0,3.1,3.1,0,0,0,.58,2A2.75,2.75,0,0,0,419.27,119.12Z"/><path class="cls-1" d="M69.21,11.66a6.17,6.17,0,0,1-2.71.78c.15.35.17.59,0,.8a7.35,7.35,0,0,0,3.11-.66A1.58,1.58,0,0,0,69.21,11.66Z"/><path class="cls-1" d="M62.81,85.66c1.42.27,2.7,1,4.58,3.25a5.52,5.52,0,0,0,2.38-3.06,13.39,13.39,0,0,0-5.26-3.18C64.39,83.86,63.92,84.51,62.81,85.66Z"/><path class="cls-1" d="M213.27,82.93a3.8,3.8,0,0,1-2.27-1.6,2.72,2.72,0,0,0-1.17,1.52,6.6,6.6,0,0,0,2.61,1.56A2.32,2.32,0,0,1,213.27,82.93Z"/><path class="cls-1" d="M323.42,137.53a3.62,3.62,0,0,0,.54,3,8.66,8.66,0,0,1,4.14-.74,5.43,5.43,0,0,0,.11-2.92A16.61,16.61,0,0,1,323.42,137.53Z"/><path class="cls-1" d="M114.06,21.7a3.61,3.61,0,0,0,1.61,2,5.6,5.6,0,0,1,2.69-1.47,5,5,0,0,0-1.11-2.14A10.79,10.79,0,0,1,114.06,21.7Z"/><path class="cls-1" d="M56.08,24.55a1.65,1.65,0,0,0,.89-.67A10.59,10.59,0,0,1,54,21.83a1.93,1.93,0,0,1-1,.53A9.22,9.22,0,0,0,56.08,24.55Z"/><path class="cls-1" d="M14.78,195.61a1.93,1.93,0,0,0-1,.88,13.73,13.73,0,0,1,3.84,2.26,2.13,2.13,0,0,1,1.08-.72A12,12,0,0,0,14.78,195.61Z"/><path class="cls-1" d="M17,161.26a2.65,2.65,0,0,0,.63-2.79,33.18,33.18,0,0,1-6-1.8,2.68,2.68,0,0,1-.71,1.48A26.15,26.15,0,0,1,17,161.26Z"/><path class="cls-1" d="M223.22,4.93A1.81,1.81,0,0,0,224,3.28a18.61,18.61,0,0,1-3.4-1.58,1.89,1.89,0,0,1-.65.83A14,14,0,0,1,223.22,4.93Z"/><path class="cls-2" d="M274,86.73a2.25,2.25,0,0,0-.82,2.33,16.12,16.12,0,0,1,5.65,1c0-.8.32-1.35,1.25-2.32A19.73,19.73,0,0,0,274,86.73Z"/><path class="cls-2" d="M109.49,84.77c-.34.72-.12,1.35.56,2.27a15.37,15.37,0,0,1,5.44-.82,2.64,2.64,0,0,1-.18-2.38A18.94,18.94,0,0,0,109.49,84.77Z"/><path class="cls-2" d="M279.69,71.53a1.18,1.18,0,0,0-.38,1.41,3.86,3.86,0,0,0,1.86.28,3.64,3.64,0,0,1,1.53-1.4A10.17,10.17,0,0,1,279.69,71.53Z"/><path class="cls-2" d="M285.69,38.06c0-.73-.27-1.18-1.1-1.69a4.42,4.42,0,0,0-2.23.82,3.27,3.27,0,0,1-.1,2.37A11.13,11.13,0,0,1,285.69,38.06Z"/><path class="cls-2" d="M234.11,43.68A25.09,25.09,0,0,0,227.44,45a6.63,6.63,0,0,0,2.69,2.4,8.27,8.27,0,0,1,4.06-.84A2.58,2.58,0,0,1,234.11,43.68Z"/><path class="cls-2" d="M.24,167.28a5.28,5.28,0,0,0-.17,2.43,4.52,4.52,0,0,0,1.82-.57A1.78,1.78,0,0,1,2,167.65,2.57,2.57,0,0,1,.24,167.28Z"/><path class="cls-2" d="M280.22,21.35A4.19,4.19,0,0,1,279,19.88a16.24,16.24,0,0,1-3.4,2.36,2.13,2.13,0,0,0,1,1.52A20.54,20.54,0,0,0,280.22,21.35Z"/><path class="cls-2" d="M47.12,169.78a5.26,5.26,0,0,1,1.34,2.35,27.44,27.44,0,0,1,5.67-2.83,2.88,2.88,0,0,0-1-2.36A32.48,32.48,0,0,0,47.12,169.78Z"/><path class="cls-2" d="M13.92,224.86a5,5,0,0,0-2.4,1.3,4,4,0,0,1,0,1.61,2.24,2.24,0,0,1,2,0A7,7,0,0,1,13.92,224.86Z"/><path class="cls-2" d="M340.1,93.84A6.3,6.3,0,0,0,342.54,90a9.65,9.65,0,0,1-2.07-2.68c-.59.92-1.46,1.2-3.39,1.35A15.64,15.64,0,0,1,340.1,93.84Z"/><path class="cls-2" d="M313.94,51.42a9.26,9.26,0,0,1-2.79-1.23,1.85,1.85,0,0,0-.74,1.14,11.82,11.82,0,0,0,2.75,1.4A1.19,1.19,0,0,1,313.94,51.42Z"/><path class="cls-2" d="M348.26,74.32A5.08,5.08,0,0,1,347,76.14a2.65,2.65,0,0,0,1.32.43,7.06,7.06,0,0,0,1.48-1.81C349,74.79,348.59,74.71,348.26,74.32Z"/><path class="cls-2" d="M383,192.84a2.42,2.42,0,0,1-1.93.06,3.94,3.94,0,0,0,.88,2,2.29,2.29,0,0,0,1.71-.15A2.76,2.76,0,0,1,383,192.84Z"/><path class="cls-2" d="M15.26,243.1a1.72,1.72,0,0,1-1.35,1.09,7.25,7.25,0,0,0,2.58,1,1.46,1.46,0,0,0,1.1-1A5.23,5.23,0,0,1,15.26,243.1Z"/><path class="cls-2" d="M119.7,44.54a5.62,5.62,0,0,0,.51,3.88,6.25,6.25,0,0,0,3.13-.28,5.13,5.13,0,0,1-.46-3.82A4.28,4.28,0,0,1,119.7,44.54Z"/><path class="cls-2" d="M286.72,60.22a3.1,3.1,0,0,0,.27,2.19,3.47,3.47,0,0,0,1.77-.15,2.87,2.87,0,0,1-.25-2.16A2.4,2.4,0,0,1,286.72,60.22Z"/><path class="cls-2" d="M384.36,50.26a5.22,5.22,0,0,1-2.95-1.91,12.86,12.86,0,0,0-2.59,4.3,10.73,10.73,0,0,0,3.52,1C382.49,52.6,383.16,51.72,384.36,50.26Z"/><path class="cls-2" d="M271.58,47.35a5.14,5.14,0,0,1,2.88-1.23,15.06,15.06,0,0,0-3.87-2.76,6.29,6.29,0,0,0-2,1.84A8.85,8.85,0,0,1,271.58,47.35Z"/><path class="cls-2" d="M378.05,163.94a1.24,1.24,0,0,1,.8.5,8,8,0,0,0,1.75-1.73,2.3,2.3,0,0,0-1-.63A4.39,4.39,0,0,1,378.05,163.94Z"/><path class="cls-2" d="M389.79,37.46a1.94,1.94,0,0,1,1.29-.48,10,10,0,0,0-1.95-2.62,3.75,3.75,0,0,0-1.6.57A6,6,0,0,1,389.79,37.46Z"/><path class="cls-2" d="M281.57,1.65a2.78,2.78,0,0,1,.29,2.12,1.62,1.62,0,0,1,1,.21,3.34,3.34,0,0,0,0-2.39A3.23,3.23,0,0,0,281.57,1.65Z"/><path class="cls-2" d="M186,20.12a10,10,0,0,1,4.52-1.59c-.31-.6-.38-1-.15-1.39a12.42,12.42,0,0,0-5.23,1.44A2.84,2.84,0,0,0,186,20.12Z"/><path class="cls-2" d="M26.5,260c-.5-.55-.7-1.26-.33-2.86a5.84,5.84,0,0,0-2.73.67,4.8,4.8,0,0,0,.68,3A4.78,4.78,0,0,1,26.5,260Z"/><path class="cls-2" d="M78.79,26.4a3.28,3.28,0,0,1-1.89-1.67,2.92,2.92,0,0,0-1.3,1.32,5.62,5.62,0,0,0,2.21,1.66A2.38,2.38,0,0,1,78.79,26.4Z"/><path class="cls-2" d="M383.58,127.63a4.21,4.21,0,0,0,1.94,2.21,5.93,5.93,0,0,1,2.87-1.75,5.67,5.67,0,0,0-1.38-2.31A11.57,11.57,0,0,1,383.58,127.63Z"/><path class="cls-2" d="M53.29,137.07a5.64,5.64,0,0,0,2.8-1.69,5.43,5.43,0,0,1-2.65-2,9.44,9.44,0,0,0-3,1.28A9.87,9.87,0,0,1,53.29,137.07Z"/><path class="cls-2" d="M59.31,151.36a3.85,3.85,0,0,0-2.15-.77,14.34,14.34,0,0,1-3.11,5.24,3.68,3.68,0,0,1,1.87.95A13.06,13.06,0,0,0,59.31,151.36Z"/><path class="cls-2" d="M53.32,196.59a2.2,2.2,0,0,0,1.14-1A16.23,16.23,0,0,1,50,192.92a2.48,2.48,0,0,1-1.26.84A14,14,0,0,0,53.32,196.59Z"/><path class="cls-2" d="M239.52,127.64a1.47,1.47,0,0,0,.28-1.56,18.36,18.36,0,0,1-3.39-.92,1.46,1.46,0,0,1-.37.83A15.08,15.08,0,0,1,239.52,127.64Z"/><path class="cls-2" d="M313.46,122.55a5.93,5.93,0,0,0,3.78-.34,16,16,0,0,1,.62-4.87,5.42,5.42,0,0,1-2.09-.1A15.57,15.57,0,0,1,313.46,122.55Z"/><path class="cls-3" d="M186.46,6.25a2.59,2.59,0,0,0,.85-2.73,19.14,19.14,0,0,1-6.61-1.06c.05.93-.31,1.57-1.34,2.72A22.84,22.84,0,0,0,186.46,6.25Z"/><path class="cls-3" d="M410.84,91.35a3.43,3.43,0,0,0,2.4-.13,5.54,5.54,0,0,1-.37-3.24,4.64,4.64,0,0,1-2.48-.1A6.55,6.55,0,0,0,410.84,91.35Z"/><path class="cls-3" d="M283.73,126.07a2.47,2.47,0,0,0,2,1,2.83,2.83,0,0,0,1.31-1.45,3.88,3.88,0,0,1-1.39-2A7,7,0,0,1,283.73,126.07Z"/><path class="cls-3" d="M408.42,115.41a4.41,4.41,0,0,0,3.43.78,3.41,3.41,0,0,0,1-2.55,7.6,7.6,0,0,1-3.21-2.39A8.63,8.63,0,0,1,408.42,115.41Z"/><path class="cls-3" d="M305.07,36.88a16.45,16.45,0,0,0-4.53-1.52,3.29,3.29,0,0,0,.07,2.25,5.73,5.73,0,0,1,2.8.9A2.59,2.59,0,0,1,305.07,36.88Z"/><path class="cls-3" d="M24.36,210.73A10.56,10.56,0,0,0,21.5,212a4.1,4.1,0,0,0,1.67.84,3.44,3.44,0,0,1,1.74-.79A1.35,1.35,0,0,1,24.36,210.73Z"/><path class="cls-3" d="M7.7,145.39a4.58,4.58,0,0,1-1.46-1.09,12.07,12.07,0,0,1-2.33,2.54A2.25,2.25,0,0,0,5.16,148,14.42,14.42,0,0,0,7.7,145.39Z"/><path class="cls-3" d="M35.79,246.42a7.37,7.37,0,0,1,2.42,1.13,13.54,13.54,0,0,1,2.08-4,3.87,3.87,0,0,0-2.17-1.27A16.83,16.83,0,0,0,35.79,246.42Z"/><path class="cls-3" d="M57,145.45a6.29,6.29,0,0,0-3,.19A5.1,5.1,0,0,1,53,147.05a1.92,1.92,0,0,1,1.7.8A10,10,0,0,1,57,145.45Z"/><path class="cls-3" d="M158.66,8.09a10.71,10.71,0,0,0-5.21-1.66A14.58,14.58,0,0,1,150,8.05c1.23.41,1.63,1,1.88,2.46A27.55,27.55,0,0,1,158.66,8.09Z"/><path class="cls-3" d="M69,107.9a5.81,5.81,0,0,1,1.71-1.35,2,2,0,0,0-1-.6,8,8,0,0,0-1.87,1.29C68.52,107.36,68.84,107.51,69,107.9Z"/><path class="cls-3" d="M397.84,156.19a7.27,7.27,0,0,1-2.12.45,1.21,1.21,0,0,0,.4.8,9.4,9.4,0,0,0,2.21-.35C397.89,156.76,397.73,156.54,397.84,156.19Z"/><path class="cls-3" d="M119,127a2.43,2.43,0,0,1,.62-3,17.29,17.29,0,0,0-5.9.59,2.17,2.17,0,0,0-.26,2.72A12.74,12.74,0,0,1,119,127Z"/><path class="cls-3" d="M20.91,117.6a2,2,0,0,1,.51,2.42,12.22,12.22,0,0,0,4.31-1.52c.29-.84.09-1.31-.67-2.12A9.42,9.42,0,0,1,20.91,117.6Z"/><path class="cls-3" d="M396.86,232.26a8.79,8.79,0,0,0,3.59.83,2.11,2.11,0,0,0,.64-1.64,7.88,7.88,0,0,1-3.52-.84A1.56,1.56,0,0,1,396.86,232.26Z"/><path class="cls-3" d="M259.56,5.41a9.28,9.28,0,0,0-3.89-1.76,3,3,0,0,0-1.38,1.79,8.54,8.54,0,0,1,3.81,1.75A2.22,2.22,0,0,1,259.56,5.41Z"/><path class="cls-3" d="M346.12,189.9a4,4,0,0,1,2.21-.67,9.62,9.62,0,0,0-2.4-2.24,5,5,0,0,0-1.67,1.16A5.72,5.72,0,0,1,346.12,189.9Z"/><path class="cls-3" d="M409.15,134.9a7.7,7.7,0,0,1,4.3-1.36,19.54,19.54,0,0,0-4.79-4.35,9.84,9.84,0,0,0-3.24,2.33C406.79,132.17,407.7,133.17,409.15,134.9Z"/><path class="cls-3" d="M190.28,99.78a1.88,1.88,0,0,1-.85-1.62,26.74,26.74,0,0,0-5.88,2,3.4,3.4,0,0,0,1,2A14.31,14.31,0,0,1,190.28,99.78Z"/><path class="cls-3" d="M340.93,125.78a2.83,2.83,0,0,1,1.83-1,18.65,18.65,0,0,0-4.1-3.65,5.4,5.4,0,0,0-2.28,1.24A11.51,11.51,0,0,1,340.93,125.78Z"/><path class="cls-3" d="M323.13,97.12a4.33,4.33,0,0,1,2,1.2A1.31,1.31,0,0,1,326,98a4.9,4.9,0,0,0-2.09-1.49A1.91,1.91,0,0,0,323.13,97.12Z"/><path class="cls-3" d="M81.23,71.58a7.65,7.65,0,0,1,3.42-.52,1,1,0,0,1,.21-1,9.31,9.31,0,0,0-3.87.32A1.76,1.76,0,0,0,81.23,71.58Z"/><path class="cls-3" d="M150.32,97.46c-1.34.32-2.87.23-5.95-.9a4.17,4.17,0,0,0,.14,3.41,16.86,16.86,0,0,0,6.46.57A3.89,3.89,0,0,1,150.32,97.46Z"/><path class="cls-3" d="M369.08,187.4c.26.78.1,1.63-1.17,3.33a7.18,7.18,0,0,0,3.44.06,5.72,5.72,0,0,0,.86-3.62A6.61,6.61,0,0,1,369.08,187.4Z"/><path class="cls-3" d="M392.32,210.39a4.24,4.24,0,0,0-1.47,3,8.79,8.79,0,0,1,4.29.83,7.41,7.41,0,0,0,2-2.65A16.48,16.48,0,0,1,392.32,210.39Z"/><path class="cls-3" d="M36,101.6a8.47,8.47,0,0,0,4.1,0,4,4,0,0,1-.41-3.21,12.51,12.51,0,0,0-3.89-.48A7.19,7.19,0,0,1,36,101.6Z"/><path class="cls-3" d="M253.23,34a2,2,0,0,0-.8,1.49,23.53,23.53,0,0,1,6.46,1.77,2.3,2.3,0,0,1,1-1.32A20.53,20.53,0,0,0,253.23,34Z"/><path class="cls-3" d="M399.44,121.06a3.47,3.47,0,0,0,1.89-.89,15.6,15.6,0,0,1-4-4.43,4,4,0,0,1-1.94.64A13.62,13.62,0,0,0,399.44,121.06Z"/><path class="cls-3" d="M10.35,100.4a3.45,3.45,0,0,0,2.31-1.33,14.69,14.69,0,0,1-2.14-3.39,3.57,3.57,0,0,1-1.44.55A11.19,11.19,0,0,1,10.35,100.4Z"/><path class="cls-3" d="M193.06,37.54a2.93,2.93,0,0,0-1.46,2.51,27.49,27.49,0,0,1,5.07,2.73,3.17,3.17,0,0,1,1.13-1.25A20.64,20.64,0,0,1,193.06,37.54Z"/><path class="cls-1" d="M314.72,41.41c-.31.55-.17,1.05.31,1.78a12.57,12.57,0,0,1,4.29-.48,2.06,2.06,0,0,1,0-1.86A14.94,14.94,0,0,0,314.72,41.41Z"/><path class="cls-1" d="M73.75,127.09c.14.4.49.64,1.17.9a6.33,6.33,0,0,1,2.15-1.61,2.07,2.07,0,0,1-1-1A7.34,7.34,0,0,0,73.75,127.09Z"/><path class="cls-1" d="M180.1,67.66a2.68,2.68,0,0,0,2.14,1,3,3,0,0,0,1.37-1.58,4.14,4.14,0,0,1-1.56-2.1A7.37,7.37,0,0,1,180.1,67.66Z"/><path class="cls-1" d="M296.65,75.83a2.44,2.44,0,0,0,1.89-.46,1.88,1.88,0,0,0-.6-1.39,5.88,5.88,0,0,1-2.45-.33A5.14,5.14,0,0,1,296.65,75.83Z"/><path class="cls-1" d="M127,6.72a14.28,14.28,0,0,0,3.67.23,2.75,2.75,0,0,0-.79-1.57,4.6,4.6,0,0,1-2.25-.11A1.52,1.52,0,0,1,127,6.72Z"/><path class="cls-1" d="M366.79,38.31a11.57,11.57,0,0,0-2.47,4,9,9,0,0,0,3.6-.05,3.82,3.82,0,0,1,1.45-2.49A3.82,3.82,0,0,1,366.79,38.31Z"/><path class="cls-1" d="M37.73,221.69a5.06,5.06,0,0,1-.69,2.73,36.89,36.89,0,0,1,7.39,0,3.13,3.13,0,0,0,1-2.57A43,43,0,0,0,37.73,221.69Z"/><path class="cls-1" d="M375.07,144.44a6.89,6.89,0,0,1,2.28.55,10,10,0,0,1,.61-3.55,3.77,3.77,0,0,0-2.11-.7A11.81,11.81,0,0,0,375.07,144.44Z"/><path class="cls-1" d="M35.91,254.57a4.72,4.72,0,0,0,2.3.9,7.37,7.37,0,0,1,1.66-.66c-.54-.21-.69-.51-.74-1.17A12.82,12.82,0,0,1,35.91,254.57Z"/><path class="cls-1" d="M403.63,54.38a5.37,5.37,0,0,0-2,3.39,8.59,8.59,0,0,1,1.86,2.29c.48-.81,1.22-1.06,2.88-1.21A13.9,13.9,0,0,1,403.63,54.38Z"/><path class="cls-1" d="M26.64,176.32a9.06,9.06,0,0,1-2.45-3.09,4.08,4.08,0,0,0-2,1.08,11.35,11.35,0,0,0,2.23,3.29A2.52,2.52,0,0,1,26.64,176.32Z"/><path class="cls-1" d="M234.7,87a13.8,13.8,0,0,1,4.23,2.19,3,3,0,0,0,1.34-1.75,17.35,17.35,0,0,0-4.14-2.45A2,2,0,0,1,234.7,87Z"/><path class="cls-1" d="M322,59.08a1.76,1.76,0,0,1,1.43.63A3.33,3.33,0,0,0,324,58a1.74,1.74,0,0,0-1.33-.48A2.51,2.51,0,0,1,322,59.08Z"/><path class="cls-1" d="M336,231.9c0,.61-.24,1-1,1.42a8.91,8.91,0,0,0,3.06.49,1.33,1.33,0,0,0,.77-1.31A6.35,6.35,0,0,1,336,231.9Z"/><path class="cls-1" d="M2.38,185.47A4.27,4.27,0,0,0,4,187.32a2.8,2.8,0,0,0,1.48-.77,3.87,3.87,0,0,1-1.61-1.84A2,2,0,0,1,2.38,185.47Z"/><path class="cls-1" d="M202.89,0a2.89,2.89,0,0,0-.95,1.58,2.52,2.52,0,0,0,1.29.42,2.78,2.78,0,0,1,1-1.56A1.68,1.68,0,0,1,202.89,0Z"/><path class="cls-1" d="M387.63,265.2a4.29,4.29,0,0,1-2.41.83,11.28,11.28,0,0,0,2.83,2.4,5.46,5.46,0,0,0,1.78-1.36A6.71,6.71,0,0,1,387.63,265.2Z"/><path class="cls-1" d="M4.87,121.44A2,2,0,0,1,4.06,123a13.75,13.75,0,0,0,3.48.24,2.65,2.65,0,0,0,0-1.56A8,8,0,0,1,4.87,121.44Z"/><path class="cls-1" d="M45.71,18.4a1.55,1.55,0,0,1,.76-1.29,22.21,22.21,0,0,0-4.9-1.38,2.9,2.9,0,0,0-1,1.58A13.09,13.09,0,0,1,45.71,18.4Z"/><path class="cls-1" d="M345.21,26.22a1.27,1.27,0,0,1-.76-.76,12.57,12.57,0,0,0-2.69,1.69,2.47,2.47,0,0,0,.91.94A6.27,6.27,0,0,1,345.21,26.22Z"/><path class="cls-1" d="M362.59,206.53a9.48,9.48,0,0,1-4.13-.07,1.29,1.29,0,0,1-.58,1.07,11.1,11.1,0,0,0,4.58.38A2.07,2.07,0,0,0,362.59,206.53Z"/><path class="cls-1" d="M240.62,22.33a9,9,0,0,1,4.13-2.3c-.48-.56-.66-1-.54-1.38a11.57,11.57,0,0,0-4.87,2.25A3.43,3.43,0,0,0,240.62,22.33Z"/><path class="cls-1" d="M411.1,160.62c-.15.49-.56.94-1.91,1.63a3.91,3.91,0,0,0,1.91.76,5.06,5.06,0,0,0,1.85-1.86A3.8,3.8,0,0,1,411.1,160.62Z"/><path class="cls-1" d="M13,139.36c.93-.31,2-.33,4.37.3a3.05,3.05,0,0,0-.46-2.43,12.34,12.34,0,0,0-4.69,0A2.94,2.94,0,0,1,13,139.36Z"/><path class="cls-1" d="M282.2,65.36a5.54,5.54,0,0,0-2.74-.32,2.67,2.67,0,0,1-.16,2.17,8.1,8.1,0,0,0,2.53.62A4.87,4.87,0,0,1,282.2,65.36Z"/><path class="cls-1" d="M300.28,6a1.87,1.87,0,0,0,.54,1.4,4.06,4.06,0,0,1,1.9-.58,2.66,2.66,0,0,0-.23-1.39A7.86,7.86,0,0,1,300.28,6Z"/><path class="cls-1" d="M144.24,65.28c.32.65.92.94,1.92,1.4A21.19,21.19,0,0,1,152,61.94a3.21,3.21,0,0,1-1.53-1.51A19.17,19.17,0,0,0,144.24,65.28Z"/><path class="cls-1" d="M338.1,22.25a1.52,1.52,0,0,0-.63,1.1,17.16,17.16,0,0,1,4.77,1.42,1.73,1.73,0,0,1,.81-1A15.12,15.12,0,0,0,338.1,22.25Z"/><path class="cls-1" d="M153.6,30.87a6.6,6.6,0,0,0-4.3-.66,21.26,21.26,0,0,1-3,5.18,5.55,5.55,0,0,1,2.25.68A23.17,23.17,0,0,1,153.6,30.87Z"/><path class="cls-1" d="M87.43,51.83a2.16,2.16,0,0,0,1.21-1.65,18.36,18.36,0,0,1-3.25-2.11,2.38,2.38,0,0,1-.87.8A13.14,13.14,0,0,1,87.43,51.83Z"/><path class="cls-2" d="M68,224.05a1.35,1.35,0,0,0-.63,1.28,9,9,0,0,1,3.11.83c0-.46.28-.75.88-1.26A10.64,10.64,0,0,0,68,224.05Z"/><path class="cls-2" d="M387.38,86.08c.19.9.92,1.47,2.35,2.14A14.44,14.44,0,0,1,394.84,85a4.24,4.24,0,0,1-2-2.43A17.11,17.11,0,0,0,387.38,86.08Z"/><path class="cls-2" d="M43.2,101.31c0,.67.32,1.07,1.11,1.51a4,4,0,0,0,2-.82,3,3,0,0,1,0-2.17A9.73,9.73,0,0,1,43.2,101.31Z"/><path class="cls-2" d="M188.73,29.2a1.33,1.33,0,0,0,.24,1.65,4.48,4.48,0,0,0,2.19-.18,3.31,3.31,0,0,1,1-1.94A11.69,11.69,0,0,1,188.73,29.2Z"/><path class="cls-2" d="M408.18,146.89a6.6,6.6,0,0,0,1-2.67,5.52,5.52,0,0,0-2.23.28,2.23,2.23,0,0,1-.6,1.64A2.71,2.71,0,0,1,408.18,146.89Z"/><path class="cls-2" d="M310.3,105.05a26,26,0,0,0,6.86,1.55,4.82,4.82,0,0,0-.66-3.23,8.62,8.62,0,0,1-4.23-.89A3.4,3.4,0,0,1,310.3,105.05Z"/><path class="cls-2" d="M138.24,122a6.82,6.82,0,0,1,1.95,2.63,29.83,29.83,0,0,1,6.16-3.84,3.61,3.61,0,0,0-1.51-2.68A36.19,36.19,0,0,0,138.24,122Z"/><path class="cls-2" d="M111.56,61.37a3.39,3.39,0,0,1,.79-1.54,20.94,20.94,0,0,1-4.29-.59,2.09,2.09,0,0,0-1,1.41A25.56,25.56,0,0,0,111.56,61.37Z"/><path class="cls-2" d="M115.16,107.12a7.93,7.93,0,0,0-3.85-1,10.11,10.11,0,0,1-2.39,1.3c.92.24,1.24.68,1.52,1.69A19.11,19.11,0,0,1,115.16,107.12Z"/><path class="cls-2" d="M277.22,109.13a7.84,7.84,0,0,0-3.84-1.46,11.45,11.45,0,0,1-2.75,1.1c.91.35,1.17.85,1.27,1.94A21.11,21.11,0,0,1,277.22,109.13Z"/><path class="cls-2" d="M64.91,46.79a13.51,13.51,0,0,1-4,.56,2.07,2.07,0,0,0,.56,1.55,18.37,18.37,0,0,0,4.19-.38C64.86,47.86,64.62,47.43,64.91,46.79Z"/><path class="cls-2" d="M184.64,87.71a4,4,0,0,1,1-1.52,2.34,2.34,0,0,0-1.1-.32,5.7,5.7,0,0,0-1.14,1.52C184,87.35,184.35,87.41,184.64,87.71Z"/><path class="cls-2" d="M323.33,18.72a1,1,0,0,1,.41-1.21,7.16,7.16,0,0,0-2.42.07.91.91,0,0,0-.25,1.1A5,5,0,0,1,323.33,18.72Z"/><path class="cls-2" d="M35.09,160.25a1.5,1.5,0,0,1,.8,1.64,7.67,7.67,0,0,0,2.75-1.51c0-.62-.19-.93-.87-1.42A6,6,0,0,1,35.09,160.25Z"/><path class="cls-2" d="M147.12,75.76a8.74,8.74,0,0,0-3.65,1.83A3.14,3.14,0,0,0,145,79.22a8.1,8.1,0,0,1,3.62-1.77C147.65,76.93,147.19,76.53,147.12,75.76Z"/><path class="cls-2" d="M43,157.49a3,3,0,0,0-1-1.6,2.43,2.43,0,0,0-1.29.47,2.72,2.72,0,0,1,1,1.58A1.71,1.71,0,0,1,43,157.49Z"/><path class="cls-2" d="M369.91,216.56a3.57,3.57,0,0,1,.19-3.3,27.47,27.47,0,0,0-6.89,1.31,6.18,6.18,0,0,0,1.34,3A15.94,15.94,0,0,1,369.91,216.56Z"/><path class="cls-2" d="M401.69,176.18A3,3,0,0,1,400,175a7.58,7.58,0,0,0-1.62,2.49,6.37,6.37,0,0,0,2.05.61A4.48,4.48,0,0,1,401.69,176.18Z"/><path class="cls-2" d="M406.49,196.32a3.87,3.87,0,0,1-2.5.33,14.55,14.55,0,0,0,1.54,5.15,7.68,7.68,0,0,0,3.08-.36A8.67,8.67,0,0,1,406.49,196.32Z"/><path class="cls-2" d="M36.44,168.88a2.6,2.6,0,0,1-1.71.73,14.55,14.55,0,0,0,2.94,3.44,4.93,4.93,0,0,0,2.12-.87A8.85,8.85,0,0,1,36.44,168.88Z"/><path class="cls-2" d="M362.28,15.41a7.44,7.44,0,0,1,3.26.74,1.28,1.28,0,0,1,.77-.75,8.25,8.25,0,0,0-3.52-1.06A1.84,1.84,0,0,0,362.28,15.41Z"/><path class="cls-2" d="M359.83,175.31a5.75,5.75,0,0,1-2.6-.56,1.07,1.07,0,0,1-.61.61,6.7,6.7,0,0,0,2.82.81A1.41,1.41,0,0,0,359.83,175.31Z"/><path class="cls-2" d="M349,98c1.32-.28,2.8-.16,5.75,1a4,4,0,0,0,0-3.32,16.43,16.43,0,0,0-6.26-.7A3.76,3.76,0,0,1,349,98Z"/><path class="cls-2" d="M399.94,251.18c-.83-.52-1.38-1.29-1.68-3.25a5.87,5.87,0,0,0-2.88,1.48,6.81,6.81,0,0,0,2.17,3.36A4.94,4.94,0,0,1,399.94,251.18Z"/><path class="cls-2" d="M48.21,121.46a1.84,1.84,0,0,0,.26,1.53,4.35,4.35,0,0,1,2.11-.36,2.78,2.78,0,0,0,.07-1.49A8.43,8.43,0,0,1,48.21,121.46Z"/><path class="cls-2" d="M283,54.14a5,5,0,0,0,2.16-2.82A8.41,8.41,0,0,1,281,49.93a8.66,8.66,0,0,0-2.64,2.43A15.76,15.76,0,0,1,283,54.14Z"/><path class="cls-2" d="M157.58,49.15c-.14-.62-.61-1-1.4-1.51a22.42,22.42,0,0,1-6.3,3.5,2.53,2.53,0,0,1,1,1.56A20.58,20.58,0,0,0,157.58,49.15Z"/><path class="cls-2" d="M386.8,255.27a4.77,4.77,0,0,0,2.57-.84,17.25,17.25,0,0,1-3.84-6.11,5.1,5.1,0,0,1-2.57.52A15,15,0,0,0,386.8,255.27Z"/><path class="cls-2" d="M211.53,68.69a3.68,3.68,0,0,0,2.1-2.69,28.65,28.65,0,0,1-5.26-3.6,4,4,0,0,1-1.5,1.3A21.26,21.26,0,0,1,211.53,68.69Z"/><path class="cls-2" d="M375.32,231.11a4,4,0,0,0-2.64-.51,14.23,14.23,0,0,1-2.11,3.13,3.38,3.38,0,0,1,1.36.47A14.84,14.84,0,0,1,375.32,231.11Z"/></g></g></svg>