<svg xmlns="http://www.w3.org/2000/svg" xmlns:xlink="http://www.w3.org/1999/xlink" viewBox="0 0 426.41 89.74"><defs><style>.cls-1{isolation:isolate;}.cls-2{fill:#999;}.cls-3{fill:#00d6ad;}.cls-10,.cls-13,.cls-16,.cls-18,.cls-21,.cls-24,.cls-27,.cls-3,.cls-7{fill-rule:evenodd;}.cls-4{fill:#ff2b34;}.cls-5{fill:#ffb938;}.cls-6{mix-blend-mode:multiply;opacity:0.5;}.cls-7{fill:url(#linear-gradient);}.cls-8{fill:url(#linear-gradient-2);}.cls-9{fill:url(#linear-gradient-3);}.cls-10{fill:url(#linear-gradient-4);}.cls-11{fill:url(#linear-gradient-5);}.cls-12{fill:url(#linear-gradient-6);}.cls-13{fill:url(#linear-gradient-7);}.cls-14{fill:url(#linear-gradient-8);}.cls-15{fill:url(#linear-gradient-9);}.cls-16{fill:url(#linear-gradient-10);}.cls-17{mix-blend-mode:color-burn;}.cls-18{fill:url(#linear-gradient-21);}.cls-19{fill:url(#linear-gradient-22);}.cls-20{fill:url(#linear-gradient-23);}.cls-21{fill:url(#linear-gradient-24);}.cls-22{fill:url(#linear-gradient-25);}.cls-23{fill:url(#linear-gradient-26);}.cls-24{fill:url(#linear-gradient-27);}.cls-25{fill:url(#linear-gradient-28);}.cls-26{fill:url(#linear-gradient-29);}.cls-27{fill:url(#linear-gradient-30);}</style><linearGradient id="linear-gradient" x1="-333.32" y1="279.94" x2="-333.32" y2="254.74" gradientTransform="translate(287.65 -266.49) rotate(-11.26)" gradientUnits="userSpaceOnUse"><stop offset="0.37" stop-color="#fff"/><stop offset="0.45" stop-color="#f9f9f9"/><stop offset="0.56" stop-color="#e9e9e9"/><stop offset="0.68" stop-color="#cfcfcf"/><stop offset="0.79" stop-color="#b3b3b3"/><stop offset="1" stop-color="#fff"/></linearGradient><linearGradient id="linear-gradient-2" x1="-310.58" y1="287.46" x2="-310.58" y2="263" xlink:href="#linear-gradient"/><linearGradient id="linear-gradient-3" x1="-287.41" y1="292.94" x2="-287.41" y2="269.36" xlink:href="#linear-gradient"/><linearGradient id="linear-gradient-4" x1="-263.95" y1="296.38" x2="-263.95" y2="273.82" xlink:href="#linear-gradient"/><linearGradient id="linear-gradient-5" x1="-169.01" y1="293.04" x2="-169.01" y2="269.48" xlink:href="#linear-gradient"/><linearGradient id="linear-gradient-6" x1="-145.93" y1="287.61" x2="-145.93" y2="263.16" xlink:href="#linear-gradient"/><linearGradient id="linear-gradient-7" x1="-123.3" y1="280.12" x2="-123.3" y2="254.94" xlink:href="#linear-gradient"/><linearGradient id="linear-gradient-8" x1="-240.3" y1="297.77" x2="-240.3" y2="276.38" xlink:href="#linear-gradient"/><linearGradient id="linear-gradient-9" x1="-216.04" y1="297.78" x2="-216.04" y2="276.41" xlink:href="#linear-gradient"/><linearGradient id="linear-gradient-10" x1="-192.43" y1="296.43" x2="-192.43" y2="273.9" xlink:href="#linear-gradient"/><linearGradient id="linear-gradient-21" x1="713.44" y1="-446.35" x2="713.44" y2="-471.52" gradientTransform="matrix(0.95, 0.31, -0.31, 0.95, -607.11, 226.1)" xlink:href="#linear-gradient"/><linearGradient id="linear-gradient-22" x1="736.02" y1="-439.11" x2="736.02" y2="-463.51" gradientTransform="matrix(0.95, 0.31, -0.31, 0.95, -607.11, 226.1)" xlink:href="#linear-gradient"/><linearGradient id="linear-gradient-23" x1="759.06" y1="-433.92" x2="759.06" y2="-457.41" gradientTransform="matrix(0.95, 0.31, -0.31, 0.95, -607.11, 226.1)" xlink:href="#linear-gradient"/><linearGradient id="linear-gradient-24" x1="782.42" y1="-430.78" x2="782.42" y2="-453.23" gradientTransform="matrix(0.95, 0.31, -0.31, 0.95, -607.11, 226.1)" xlink:href="#linear-gradient"/><linearGradient id="linear-gradient-25" x1="877.19" y1="-435.16" x2="877.19" y2="-458.92" gradientTransform="matrix(0.95, 0.31, -0.31, 0.95, -607.11, 226.1)" xlink:href="#linear-gradient"/><linearGradient id="linear-gradient-26" x1="900.3" y1="-440.91" x2="900.3" y2="-465.54" gradientTransform="matrix(0.95, 0.31, -0.31, 0.95, -607.11, 226.1)" xlink:href="#linear-gradient"/><linearGradient id="linear-gradient-27" x1="922.98" y1="-448.72" x2="922.98" y2="-474.06" gradientTransform="matrix(0.95, 0.31, -0.31, 0.95, -607.11, 226.1)" xlink:href="#linear-gradient"/><linearGradient id="linear-gradient-28" x1="805.99" y1="-429.7" x2="805.99" y2="-450.96" gradientTransform="matrix(0.95, 0.31, -0.31, 0.95, -607.11, 226.1)" xlink:href="#linear-gradient"/><linearGradient id="linear-gradient-29" x1="830.19" y1="-429.8" x2="830.19" y2="-451.4" gradientTransform="matrix(0.95, 0.31, -0.31, 0.95, -607.11, 226.1)" xlink:href="#linear-gradient"/><linearGradient id="linear-gradient-30" x1="853.78" y1="-431.45" x2="853.78" y2="-454.21" gradientTransform="matrix(0.95, 0.31, -0.31, 0.95, -607.11, 226.1)" xlink:href="#linear-gradient"/></defs><g class="cls-1"><g id="Layer_2" data-name="Layer 2"><g id="Layer_1-2" data-name="Layer 1"><path class="cls-2" d="M64.46,58A293.15,293.15,0,0,1,0,51l.15-.65c79,17.44,158.87,1.89,225-43.81l.39.55A283.67,283.67,0,0,1,64.46,58Z"/><path class="cls-3" d="M7.31,49,3.23,69.3c3.53-1.09,5.28-1.67,8.72-2.87,3,2.38,4.53,3.56,7.65,5.86Q21.07,62,22.53,51.82C16.43,50.88,13.38,50.33,7.31,49Z"/><path class="cls-4" d="M30.27,52.89Q29.1,63.17,27.92,73.45c3.4-1.4,5.07-2.12,8.38-3.61C39.46,72,41.07,73,44.35,75q.6-10.32,1.21-20.66C39.44,54,36.38,53.66,30.27,52.89Z"/><path class="cls-5" d="M53.31,54.8l-.63,20.69c3.25-1.68,4.85-2.54,8-4.3,3.31,1.85,5,2.75,8.4,4.51L68.57,55C62.47,55.08,59.42,55,53.31,54.8Z"/><path class="cls-3" d="M76.29,54.77q.55,10.33,1.09,20.69c3.09-1.94,4.6-2.93,7.58-4.95,3.45,1.57,5.19,2.33,8.72,3.8L91.46,53.69C85.41,54.29,82.37,54.5,76.29,54.77Z"/><path class="cls-4" d="M165.37,35.82q3.88,9.63,7.76,19.27c2.28-2.85,3.39-4.28,5.55-7.17,3.76.36,5.66.51,9.49.74l-8.82-18.83C173.82,32.39,171,33.58,165.37,35.82Z"/><path class="cls-5" d="M186.33,26.49l9.33,18.57c2.05-3,3-4.56,5-7.63,3.8,0,5.71,0,9.55-.08l-10.34-18C194.5,22.34,191.8,23.78,186.33,26.49Z"/><path class="cls-3" d="M206.53,15.37l10.85,17.74c1.8-3.21,2.67-4.82,4.34-8.06,3.81-.3,5.72-.48,9.56-.92L219.46,7C214.37,10.51,211.78,12.18,206.53,15.37Z"/><path class="cls-4" d="M99.11,52.83q1.4,10.28,2.8,20.55c2.9-2.19,4.33-3.3,7.12-5.56,3.56,1.28,5.35,1.89,9,3.06q-2-10.18-3.92-20.37C108.13,51.6,105.13,52.07,99.11,52.83Z"/><path class="cls-5" d="M121.64,49q2.23,10.14,4.49,20.26c2.71-2.42,4-3.65,6.63-6.13,3.64,1,5.48,1.44,9.2,2.31q-2.79-10-5.59-20C130.52,47,127.57,47.75,121.64,49Z"/><path class="cls-3" d="M143.76,43.34l6.15,19.83c2.5-2.64,3.72-4,6.11-6.68,3.71.68,5.58,1,9.37,1.54l-7.23-19.48C152.45,40.63,149.57,41.58,143.76,43.34Z"/><g class="cls-6"><path class="cls-7" d="M7.31,49,3.23,69.3c3.53-1.09,5.28-1.67,8.72-2.87,3,2.38,4.53,3.56,7.65,5.86Q21.07,62,22.53,51.82C16.43,50.88,13.38,50.33,7.31,49Z"/><path class="cls-8" d="M30.27,52.89Q29.1,63.17,27.92,73.45c3.4-1.4,5.07-2.12,8.38-3.61C39.46,72,41.07,73,44.35,75q.6-10.32,1.21-20.66C39.44,54,36.38,53.66,30.27,52.89Z"/><path class="cls-9" d="M53.31,54.8l-.63,20.69c3.25-1.68,4.85-2.54,8-4.3,3.31,1.85,5,2.75,8.4,4.51L68.57,55C62.47,55.08,59.42,55,53.31,54.8Z"/><path class="cls-10" d="M76.29,54.77q.55,10.33,1.09,20.69c3.09-1.94,4.6-2.93,7.58-4.95,3.45,1.57,5.19,2.33,8.72,3.8L91.46,53.69C85.41,54.29,82.37,54.5,76.29,54.77Z"/><path class="cls-11" d="M165.37,35.82q3.88,9.63,7.76,19.27c2.28-2.85,3.39-4.28,5.55-7.17,3.76.36,5.66.51,9.49.74l-8.82-18.83C173.82,32.39,171,33.58,165.37,35.82Z"/><path class="cls-12" d="M186.33,26.49l9.33,18.57c2.05-3,3-4.56,5-7.63,3.8,0,5.71,0,9.55-.08l-10.34-18C194.5,22.34,191.8,23.78,186.33,26.49Z"/><path class="cls-13" d="M206.53,15.37l10.85,17.74c1.8-3.21,2.67-4.82,4.34-8.06,3.81-.3,5.72-.48,9.56-.92L219.46,7C214.37,10.51,211.78,12.18,206.53,15.37Z"/><path class="cls-14" d="M99.11,52.83q1.4,10.28,2.8,20.55c2.9-2.19,4.33-3.3,7.12-5.56,3.56,1.28,5.35,1.89,9,3.06q-2-10.18-3.92-20.37C108.13,51.6,105.13,52.07,99.11,52.83Z"/><path class="cls-15" d="M121.64,49q2.23,10.14,4.49,20.26c2.71-2.42,4-3.65,6.63-6.13,3.64,1,5.48,1.44,9.2,2.31q-2.79-10-5.59-20C130.52,47,127.57,47.75,121.64,49Z"/><path class="cls-16" d="M143.76,43.34l6.15,19.83c2.5-2.64,3.72-4,6.11-6.68,3.71.68,5.58,1,9.37,1.54l-7.23-19.48C152.45,40.63,149.57,41.58,143.76,43.34Z"/></g><g class="cls-17"><path class="cls-7" d="M7.31,49,3.23,69.3c3.53-1.09,5.28-1.67,8.72-2.87,3,2.38,4.53,3.56,7.65,5.86Q21.07,62,22.53,51.82C16.43,50.88,13.38,50.33,7.31,49Z"/><path class="cls-8" d="M30.27,52.89Q29.1,63.17,27.92,73.45c3.4-1.4,5.07-2.12,8.38-3.61C39.46,72,41.07,73,44.35,75q.6-10.32,1.21-20.66C39.44,54,36.38,53.66,30.27,52.89Z"/><path class="cls-9" d="M53.31,54.8l-.63,20.69c3.25-1.68,4.85-2.54,8-4.3,3.31,1.85,5,2.75,8.4,4.51L68.57,55C62.47,55.08,59.42,55,53.31,54.8Z"/><path class="cls-10" d="M76.29,54.77q.55,10.33,1.09,20.69c3.09-1.94,4.6-2.93,7.58-4.95,3.45,1.57,5.19,2.33,8.72,3.8L91.46,53.69C85.41,54.29,82.37,54.5,76.29,54.77Z"/><path class="cls-11" d="M165.37,35.82q3.88,9.63,7.76,19.27c2.28-2.85,3.39-4.28,5.55-7.17,3.76.36,5.66.51,9.49.74l-8.82-18.83C173.82,32.39,171,33.58,165.37,35.82Z"/><path class="cls-12" d="M186.33,26.49l9.33,18.57c2.05-3,3-4.56,5-7.63,3.8,0,5.71,0,9.55-.08l-10.34-18C194.5,22.34,191.8,23.78,186.33,26.49Z"/><path class="cls-13" d="M206.53,15.37l10.85,17.74c1.8-3.21,2.67-4.82,4.34-8.06,3.81-.3,5.72-.48,9.56-.92L219.46,7C214.37,10.51,211.78,12.18,206.53,15.37Z"/><path class="cls-14" d="M99.11,52.83q1.4,10.28,2.8,20.55c2.9-2.19,4.33-3.3,7.12-5.56,3.56,1.28,5.35,1.89,9,3.06q-2-10.18-3.92-20.37C108.13,51.6,105.13,52.07,99.11,52.83Z"/><path class="cls-15" d="M121.64,49q2.23,10.14,4.49,20.26c2.71-2.42,4-3.65,6.63-6.13,3.64,1,5.48,1.44,9.2,2.31q-2.79-10-5.59-20C130.52,47,127.57,47.75,121.64,49Z"/><path class="cls-16" d="M143.76,43.34l6.15,19.83c2.5-2.64,3.72-4,6.11-6.68,3.71.68,5.58,1,9.37,1.54l-7.23-19.48C152.45,40.63,149.57,41.58,143.76,43.34Z"/></g><path class="cls-2" d="M398.11,72.27A281.55,281.55,0,0,1,208.24.5l.46-.5c59.75,53.18,137,78.1,217.64,70.16l.07.66C416.93,71.76,407.48,72.24,398.11,72.27Z"/><path class="cls-3" d="M215.6,2.28Q208.69,10.11,201.78,18c3.62.74,5.43,1.08,9,1.69,1.41,3.52,2.14,5.28,3.68,8.78L227.41,12C222.59,8.27,220.22,6.32,215.6,2.28Z"/><path class="cls-4" d="M233.59,16.68,221.12,33.43c3.66.43,5.48.61,9.1.9,1.68,3.37,2.55,5.05,4.36,8.39q5.78-8.7,11.53-17.4C241,22,238.51,20.29,233.59,16.68Z"/><path class="cls-5" d="M252.63,29.42l-11,17.71c3.67.1,5.5.13,9.12.11,1.95,3.2,2.95,4.8,5,8q5-9.12,10.06-18.26C260.45,34.08,257.82,32.58,252.63,29.42Z"/><path class="cls-3" d="M272.61,40.46,263.06,59c3.67-.2,5.49-.34,9.1-.66,2.19,3,3.32,4.52,5.65,7.5l8.52-19C280.77,44.43,278,43.16,272.61,40.46Z"/><path class="cls-4" d="M359.6,66.84q-1.52,10.26-3,20.51c3.43-1.38,5.12-2.1,8.46-3.57,3.09,2.12,4.66,3.17,7.87,5.21q.94-10.32,1.9-20.62C368.68,67.92,365.64,67.62,359.6,66.84Z"/><path class="cls-5" d="M382.54,68.82l-1.32,20.65c3.32-1.66,5-2.51,8.19-4.26,3.27,1.86,4.94,2.76,8.33,4.53q.09-10.33.17-20.68C391.74,69.14,388.67,69.08,382.54,68.82Z"/><path class="cls-3" d="M405.73,68.86l.42,20.66c3.19-1.93,4.77-2.91,7.87-4.92,3.45,1.57,5.2,2.33,8.76,3.79Q422,78.1,421.2,67.81C415,68.41,411.91,68.62,405.73,68.86Z"/><path class="cls-4" d="M293.41,49.76q-4,9.62-8,19.22c3.63-.5,5.44-.79,9-1.41,2.44,2.83,3.69,4.22,6.25,7L307.61,55C301.87,53,299,52,293.41,49.76Z"/><path class="cls-5" d="M314.92,57.28l-6.38,19.79c3.58-.81,5.36-1.24,8.87-2.15,2.67,2.61,4,3.9,6.83,6.44l5.28-20.09C323.63,59.83,320.71,59,314.92,57.28Z"/><path class="cls-3" d="M337,63q-2.36,10.11-4.73,20.21c3.52-1.09,5.26-1.67,8.69-2.87,2.89,2.38,4.36,3.55,7.37,5.85L352,65.76C345.94,64.81,343,64.26,337,63Z"/><g class="cls-6"><path class="cls-18" d="M215.6,2.28Q208.69,10.11,201.78,18c3.62.74,5.43,1.08,9,1.69,1.41,3.52,2.14,5.28,3.68,8.78L227.41,12C222.59,8.27,220.22,6.32,215.6,2.28Z"/><path class="cls-19" d="M233.59,16.68,221.12,33.43c3.66.43,5.48.61,9.1.9,1.68,3.37,2.55,5.05,4.36,8.39q5.78-8.7,11.53-17.4C241,22,238.51,20.29,233.59,16.68Z"/><path class="cls-20" d="M252.63,29.42l-11,17.71c3.67.1,5.5.13,9.12.11,1.95,3.2,2.95,4.8,5,8q5-9.12,10.06-18.26C260.45,34.08,257.82,32.58,252.63,29.42Z"/><path class="cls-21" d="M272.61,40.46,263.06,59c3.67-.2,5.49-.34,9.1-.66,2.19,3,3.32,4.52,5.65,7.5l8.52-19C280.77,44.43,278,43.16,272.61,40.46Z"/><path class="cls-22" d="M359.6,66.84q-1.52,10.26-3,20.51c3.43-1.38,5.12-2.1,8.46-3.57,3.09,2.12,4.66,3.17,7.87,5.21q.94-10.32,1.9-20.62C368.68,67.92,365.64,67.62,359.6,66.84Z"/><path class="cls-23" d="M382.54,68.82l-1.32,20.65c3.32-1.66,5-2.51,8.19-4.26,3.27,1.86,4.94,2.76,8.33,4.53q.09-10.33.17-20.68C391.74,69.14,388.67,69.08,382.54,68.82Z"/><path class="cls-24" d="M405.73,68.86l.42,20.66c3.19-1.93,4.77-2.91,7.87-4.92,3.45,1.57,5.2,2.33,8.76,3.79Q422,78.1,421.2,67.81C415,68.41,411.91,68.62,405.73,68.86Z"/><path class="cls-25" d="M293.41,49.76q-4,9.62-8,19.22c3.63-.5,5.44-.79,9-1.41,2.44,2.83,3.69,4.22,6.25,7L307.61,55C301.87,53,299,52,293.41,49.76Z"/><path class="cls-26" d="M314.92,57.28l-6.38,19.79c3.58-.81,5.36-1.24,8.87-2.15,2.67,2.61,4,3.9,6.83,6.44l5.28-20.09C323.63,59.83,320.71,59,314.92,57.28Z"/><path class="cls-27" d="M337,63q-2.36,10.11-4.73,20.21c3.52-1.09,5.26-1.67,8.69-2.87,2.89,2.38,4.36,3.55,7.37,5.85L352,65.76C345.94,64.81,343,64.26,337,63Z"/></g><g class="cls-17"><path class="cls-18" d="M215.6,2.28Q208.69,10.11,201.78,18c3.62.74,5.43,1.08,9,1.69,1.41,3.52,2.14,5.28,3.68,8.78L227.41,12C222.59,8.27,220.22,6.32,215.6,2.28Z"/><path class="cls-19" d="M233.59,16.68,221.12,33.43c3.66.43,5.48.61,9.1.9,1.68,3.37,2.55,5.05,4.36,8.39q5.78-8.7,11.53-17.4C241,22,238.51,20.29,233.59,16.68Z"/><path class="cls-20" d="M252.63,29.42l-11,17.71c3.67.1,5.5.13,9.12.11,1.95,3.2,2.95,4.8,5,8q5-9.12,10.06-18.26C260.45,34.08,257.82,32.58,252.63,29.42Z"/><path class="cls-21" d="M272.61,40.46,263.06,59c3.67-.2,5.49-.34,9.1-.66,2.19,3,3.32,4.52,5.65,7.5l8.52-19C280.77,44.43,278,43.16,272.61,40.46Z"/><path class="cls-22" d="M359.6,66.84q-1.52,10.26-3,20.51c3.43-1.38,5.12-2.1,8.46-3.57,3.09,2.12,4.66,3.17,7.87,5.21q.94-10.32,1.9-20.62C368.68,67.92,365.64,67.62,359.6,66.84Z"/><path class="cls-23" d="M382.54,68.82l-1.32,20.65c3.32-1.66,5-2.51,8.19-4.26,3.27,1.86,4.94,2.76,8.33,4.53q.09-10.33.17-20.68C391.74,69.14,388.67,69.08,382.54,68.82Z"/><path class="cls-24" d="M405.73,68.86l.42,20.66c3.19-1.93,4.77-2.91,7.87-4.92,3.45,1.57,5.2,2.33,8.76,3.79Q422,78.1,421.2,67.81C415,68.41,411.91,68.62,405.73,68.86Z"/><path class="cls-25" d="M293.41,49.76q-4,9.62-8,19.22c3.63-.5,5.44-.79,9-1.41,2.44,2.83,3.69,4.22,6.25,7L307.61,55C301.87,53,299,52,293.41,49.76Z"/><path class="cls-26" d="M314.92,57.28l-6.38,19.79c3.58-.81,5.36-1.24,8.87-2.15,2.67,2.61,4,3.9,6.83,6.44l5.28-20.09C323.63,59.83,320.71,59,314.92,57.28Z"/><path class="cls-27" d="M337,63q-2.36,10.11-4.73,20.21c3.52-1.09,5.26-1.67,8.69-2.87,2.89,2.38,4.36,3.55,7.37,5.85L352,65.76C345.94,64.81,343,64.26,337,63Z"/></g></g></g></g></svg>